<svg xmlns="http://www.w3.org/2000/svg" width="24" height="24" viewBox="0 0 24 24" fill="none">
  <path fill-rule="evenodd" clip-rule="evenodd" d="M2.57153 4.3733C2.57153 2.28937 4.26089 0.600006 6.34483 0.600006H17.2454C19.3294 0.600006 21.0187 2.28937 21.0187 4.3733C21.0187 5.29949 20.2679 6.05032 19.3417 6.05032H4.24855C3.32236 6.05032 2.57153 5.29949 2.57153 4.3733Z" fill="#FF95AC"/>
  <path fill-rule="evenodd" clip-rule="evenodd" d="M2.57153 6.69629C2.57153 4.48715 4.36239 2.69629 6.57153 2.69629H17.0187C19.2279 2.69629 21.0187 4.48715 21.0187 6.69629V18.2615C21.0187 20.4706 19.2279 22.2615 17.0187 22.2615H6.57153C4.36239 22.2615 2.57153 20.4706 2.57153 18.2615V6.69629Z" fill="url(#paint0_linear_19_2094)"/>
  <path fill-rule="evenodd" clip-rule="evenodd" d="M20.7578 5.27214C20.4602 5.73995 19.9372 6.05033 19.3417 6.05033H4.24858C3.65308 6.05033 3.13008 5.73995 2.83252 5.27213C3.40645 3.76617 4.86407 2.69629 6.57156 2.69629H17.0188C18.7263 2.69629 20.1839 3.76618 20.7578 5.27214Z" fill="#F4283F"/>
  <path d="M12.7563 14.1872H14.9214C15.308 14.1872 15.6214 14.5006 15.6214 14.8872V15.3973C15.6214 15.7839 15.308 16.0973 14.9214 16.0973H12.7563V17.3073C12.7563 17.6939 12.4429 18.0073 12.0563 18.0073H11.5463C11.1597 18.0073 10.8463 17.6939 10.8463 17.3073V16.0973H8.6812C8.2946 16.0973 7.9812 15.7839 7.9812 15.3973V14.8872C7.9812 14.5006 8.2946 14.1872 8.6812 14.1872H10.8463V13.2322H8.6812C8.2946 13.2322 7.9812 12.9188 7.9812 12.5322V12.0221C7.9812 11.6355 8.2946 11.3221 8.6812 11.3221H10.4509L8.91971 9.7917C8.64617 9.51828 8.6462 9.07484 8.91977 8.80146L9.28143 8.44005C9.55492 8.16676 9.99818 8.16694 10.2714 8.44046L11.8013 9.97175L13.3319 8.4404C13.6053 8.16692 14.0486 8.16687 14.322 8.44028L14.6832 8.80146C14.9566 9.07487 14.9565 9.51817 14.683 9.79152L13.1517 11.3221H14.9214C15.308 11.3221 15.6214 11.6355 15.6214 12.0221V12.5322C15.6214 12.9188 15.308 13.2322 14.9214 13.2322H12.7563V14.1872Z" fill="white"/>
  <defs>
    <linearGradient id="paint0_linear_19_2094" x1="2.57153" y1="2.69629" x2="2.57153" y2="22.2615" gradientUnits="userSpaceOnUse">
      <stop stop-color="#FE7086"/>
      <stop offset="1" stop-color="#FF4B87"/>
    </linearGradient>
  </defs>
</svg>