<svg xmlns="http://www.w3.org/2000/svg" width="24" height="24" viewBox="0 0 24 24" fill="none">
  <rect x="2.14282" y="4.28571" width="19.7143" height="17.1429" rx="4" fill="url(#paint0_linear_19_1925)"/>
  <path fill-rule="evenodd" clip-rule="evenodd" d="M8.42847 10.7143C8.98075 10.7143 9.42847 11.162 9.42847 11.7143V14.8572C9.42847 15.4094 8.98075 15.8572 8.42847 15.8572H7.85704C7.30475 15.8572 6.85704 15.4094 6.85704 14.8572L6.85704 11.7143C6.85704 11.162 7.30475 10.7143 7.85704 10.7143H8.42847Z" fill="white"/>
  <path fill-rule="evenodd" clip-rule="evenodd" d="M16.1428 10.7143C16.6951 10.7143 17.1428 11.162 17.1428 11.7143V14.8572C17.1428 15.4094 16.6951 15.8572 16.1428 15.8572H15.5714C15.0191 15.8572 14.5714 15.4094 14.5714 14.8572V11.7143C14.5714 11.162 15.0191 10.7143 15.5714 10.7143H16.1428Z" fill="white"/>
  <path d="M13.0126 0.642853C15.7927 0.642853 18.0992 2.67801 18.21 5.28L18.2142 5.47619V7.41178H15.9126V5.47619C15.9126 4.15273 14.7269 3.02752 13.1853 2.94883L13.0126 2.94444H10.9872C9.42045 2.94444 8.17876 4.02238 8.09207 5.32999L8.08723 5.47619V7.41178H5.78564V5.47619C5.78564 2.84678 8.02432 0.747486 10.7796 0.646646L10.9872 0.642853H13.0126Z" fill="#FDCE76"/>
  <path fill-rule="evenodd" clip-rule="evenodd" d="M18.0952 4.44019C17.6992 4.33932 17.2844 4.28571 16.8571 4.28571H15.5703C15.7892 4.64291 15.9126 5.04923 15.9126 5.47618V7.41177H18.2142V5.47618L18.21 5.27999C18.1978 4.99248 18.1587 4.71188 18.0952 4.44019ZM8.42957 4.28571C8.23577 4.6019 8.11683 4.95658 8.09207 5.32999L8.08723 5.47618V7.41177H5.78564V5.47618C5.78564 5.1199 5.82675 4.77335 5.90467 4.44019C6.30061 4.33932 6.71544 4.28571 7.14279 4.28571H8.42957Z" fill="#FFAC5E"/>
  <defs>
    <linearGradient id="paint0_linear_19_1925" x1="2.14282" y1="4.28571" x2="2.14282" y2="21.4286" gradientUnits="userSpaceOnUse">
      <stop stop-color="#FFD772"/>
      <stop offset="1" stop-color="#FFB02F"/>
    </linearGradient>
  </defs>
</svg>