<?xml version="1.0" encoding="UTF-8"?>
<svg width="14px" height="14px" viewBox="0 0 14 14" version="1.1" xmlns="http://www.w3.org/2000/svg" xmlns:xlink="http://www.w3.org/1999/xlink">
    <!-- Generator: Sketch 59.1 (86144) - https://sketch.com -->
    <title></title>
    <desc>Created with Sketch.</desc>
    <g id="页面-1" stroke="none" stroke-width="1" fill="none" fill-rule="evenodd">
        <g id="管理范围设置备份-12" transform="translate(-330.000000, -303.000000)" fill="#00CFC5">
            <g id="编组-11" transform="translate(217.000000, 239.000000)">
                <path d="M120,64 C123.865993,64 127,67.1340068 127,71 C127,74.8659932 123.865993,78 120,78 C116.134007,78 113,74.8659932 113,71 C113,67.1340068 116.134007,64 120,64 Z M120.2,67 L119.8,67 C119.523858,67 119.3,67.2238576 119.3,67.5 L119.3,67.5 L119.3,70.3 L116.5,70.3 C116.25454,70.3 116.050392,70.4768752 116.008056,70.7101244 L116,70.8 L116,71.2 C116,71.4761424 116.223858,71.7 116.5,71.7 L116.5,71.7 L119.3,71.699 L119.3,74.5 C119.3,74.7454599 119.476875,74.9496084 119.710124,74.9919443 L119.8,75 L120.2,75 C120.476142,75 120.7,74.7761424 120.7,74.5 L120.7,74.5 L120.7,71.699 L123.5,71.7 C123.74546,71.7 123.949608,71.5231248 123.991944,71.2898756 L124,71.2 L124,70.8 C124,70.5238576 123.776142,70.3 123.5,70.3 L123.5,70.3 L120.7,70.3 L120.7,67.5 C120.7,67.2545401 120.523125,67.0503916 120.289876,67.0080557 L120.2,67 Z" id="合并形状备份-9"></path>
            </g>
        </g>
    </g>
</svg>