<?xml version="1.0" encoding="UTF-8"?>
<svg width="20px" height="20px" viewBox="0 0 20 20" version="1.1" xmlns="http://www.w3.org/2000/svg" xmlns:xlink="http://www.w3.org/1999/xlink">
    <title>编组 2</title>
    <g id="页面-1" stroke="none" stroke-width="1" fill="none" fill-rule="evenodd">
        <g id="图标" transform="translate(-48.000000, -221.000000)">
            <g id="编组-2" transform="translate(48.000000, 221.000000)">
                <g id="编组-4" fill="#E0ECFF">
                    <circle id="椭圆形" cx="10" cy="10" r="10"></circle>
                </g>
                <g id="申请管理" transform="translate(4.166667, 4.166667)" fill-rule="nonzero">
                    <rect id="矩形" fill="#000000" opacity="0" x="0" y="0" width="12" height="12"></rect>
                    <path d="M10.2712843,6.09020163 C10.2183742,6.03714185 10.1486291,6.0088433 10.0716691,6.0088433 C9.997114,6.0088433 9.92496392,6.03950006 9.87205387,6.09020163 L9.36219336,6.59014267 L10.4372294,7.64308454 L10.9170274,7.11248674 C10.97114,7.06060606 11,6.98985969 11,6.91793421 C11,6.84482962 10.968735,6.77408324 10.9170274,6.72338168 L10.2712843,6.09020163 L10.2712843,6.09020163 Z M6.75637326,4.97594623 L3.65392015,4.97594623 C3.31361231,4.97594623 3.03823954,4.7059309 3.03823954,4.37342295 C3.03823954,4.03973588 3.31361231,3.77089966 3.65392015,3.77089966 L6.75637326,3.77089966 C7.0966811,3.77089966 7.37205387,4.04091499 7.37205387,4.37342295 C7.37205387,4.70711001 7.0966811,4.97594623 6.75637326,4.97594623 Z M5.50937951,7.40018866 L3.65392015,7.40018866 C3.31361231,7.40018866 3.03823954,7.13017333 3.03823954,6.79766537 C3.03823954,6.4639783 3.31361231,6.19514208 3.65392015,6.19514208 L5.50937951,6.19514208 C5.84968735,6.19514208 6.12506013,6.46515741 6.12506013,6.79766537 C6.12506013,7.13135243 5.84968735,7.40018866 5.50937951,7.40018866 Z M8.17171717,1 L2.49470899,1 C1.66979317,1 1,1.65558307 1,2.46444995 L1,9.53555005 C1,10.3444169 1.66979317,11 2.49470899,11 L4.55940356,11 L4.55940356,9.68765476 L9.66762867,4.56797547 L9.66762867,2.46562905 C9.66762867,1.65676217 8.9978355,1 8.17171717,1 L8.17171717,1 Z M5.90740741,9.94705813 L5.90740741,11 L6.98484848,11 L10.0981241,7.9178163 L9.02308802,6.86251621 L5.90740741,9.94705813 Z" id="形状" fill="#458CFB"></path>
                </g>
            </g>
        </g>
    </g>
</svg>