<?xml version="1.0" encoding="UTF-8"?>
<svg width="14px" height="14px" viewBox="0 0 14 14" version="1.1" xmlns="http://www.w3.org/2000/svg" xmlns:xlink="http://www.w3.org/1999/xlink">
    <g id="页面-1" stroke="none" stroke-width="1" fill="none" fill-rule="evenodd">
        <g id="安排面试-通知候选人" transform="translate(-860.000000, -491.000000)">
            <g id="编组-7备份" transform="translate(130.000000, 86.000000)">
                <g id="编组-13备份-5" transform="translate(274.000000, 396.000000)">
                    <g id="时间" transform="translate(456.000000, 9.000000)">
                        <rect id="矩形" x="0" y="0" width="14" height="14"></rect>
                        <circle id="椭圆形备份-2" stroke="currentColor" stroke-width="1.2" cx="7" cy="7" r="6.4"></circle>
                        <path d="M7.56316489,8.28597074 L7.56316489,8.61223404 L6.39960106,8.61223404 L6.39960106,8.28597074 C6.39960106,7.53989362 6.75146277,6.83430851 7.25505319,6.29767287 C7.63996011,5.88716755 7.62925532,5.89880319 7.73909574,5.76848404 C8.02952128,5.42267287 8.14494681,5.17553191 8.14494681,4.88696809 C8.14494681,4.24434953 7.62400154,3.72340426 6.98138298,3.72340426 C6.33876442,3.72340426 5.81781915,4.24434953 5.81781915,4.88696809 L4.65425532,4.88696809 C4.65425532,3.60173097 5.69614586,2.55984043 6.98138298,2.55984043 C8.2666201,2.55984043 9.30851064,3.60173097 9.30851064,4.88696809 C9.30851064,5.49295213 9.08045213,5.98071809 8.62992021,6.5168883 C8.55405585,6.60718085 8.47167553,6.69980053 8.37021277,6.80917553 C8.33111702,6.85106383 8.29109043,6.89481383 8.23710106,6.95159574 L8.10398936,7.09355053 C7.78470745,7.43331117 7.56316489,7.87779255 7.56316489,8.28597074 Z M7.47380319,9.97732713 C7.61110372,10.112766 7.67952128,10.277992 7.67952128,10.4720745 C7.67952128,10.6698803 7.61110372,10.8355718 7.47380319,10.9696144 C7.34366249,11.1004976 7.16593596,11.1728985 6.98138298,11.1702128 C6.79055851,11.1702128 6.62579787,11.1031915 6.48896277,10.9696144 C6.35352372,10.8400426 6.27885816,10.65946 6.28324468,10.4720745 C6.28324468,10.277992 6.35166223,10.112766 6.48896277,9.97732713 C6.61832582,9.8449601 6.79631647,9.77144222 6.98138298,9.77393617 C7.17220745,9.77393617 7.33696809,9.8418883 7.47380319,9.97732713 L7.47380319,9.97732713 Z" id="形状" fill="currentColor" fill-rule="nonzero"></path>
                    </g>
                </g>
            </g>
        </g>
    </g>
</svg>