<?xml version="1.0" encoding="UTF-8"?>
<svg width="20px" height="34px" viewBox="0 0 20 34" version="1.1" xmlns="http://www.w3.org/2000/svg" xmlns:xlink="http://www.w3.org/1999/xlink">
    <title></title>
    <g id="页面-1" stroke="none" stroke-width="1" fill="none" fill-rule="evenodd">
        <g id="员工查询-已选条件-展开" transform="translate(-920.000000, -173.000000)">
            <g id="编组-23" transform="translate(920.000000, 173.000000)">
                <rect id="矩形" x="0" y="0" width="20" height="34" rx="4"></rect>
                <path d="M10.0507773,13.4609328 L15.6499232,20.1799078 C15.8267052,20.3920462 15.7980432,20.7073286 15.5859047,20.8841106 C15.4960472,20.9589919 15.3827808,21 15.2658125,21 L4.06752081,21 C3.79137843,21 3.56752081,20.7761424 3.56752081,20.5 C3.56752081,20.3830317 3.60852892,20.2697653 3.68341017,20.1799078 L9.28255603,13.4609328 C9.45933807,13.2487943 9.77462042,13.2201323 9.98675887,13.3969143 C10.0099904,13.4162739 10.0314177,13.4377012 10.0507773,13.4609328 Z" id="三角形" fill="#00CFC5" transform="translate(9.666667, 17.000000) scale(1, -1) rotate(-180.000000) translate(-9.666667, -17.000000) "></path>
            </g>
        </g>
    </g>
</svg>