<?xml version="1.0" encoding="UTF-8"?><svg version="1.1" width="16px" height="16px" viewBox="0 0 16.0 16.0" xmlns="http://www.w3.org/2000/svg" xmlns:xlink="http://www.w3.org/1999/xlink"><defs><clipPath id="i0"><path d="M1440,0 L1440,900 L0,900 L0,0 L1440,0 Z"></path></clipPath><clipPath id="i1"><path d="M1.25,8.33332995 C1.48012,8.33332995 1.66667,8.51987995 1.66667,8.74999995 L1.66667,9.99999995 L9.33333,9.99999995 L9.33333,8.74999995 C9.33333,8.51987995 9.51988,8.33332995 9.75,8.33332995 L10.5833,8.33332995 C10.8135,8.33332995 11,8.51987995 11,8.74999995 L11,10.8332999 C11,11.2935999 10.6269,11.6666999 10.1667,11.6666999 L0.833333,11.6666999 C0.373096,11.6666999 0,11.2935999 0,10.8332999 L0,8.74999995 C0,8.51987995 0.186548,8.33332995 0.416667,8.33332995 L1.25,8.33332995 Z M5.89578,0.12203895 L9.02057,3.24682995 C9.18329,3.40954995 9.18329,3.67336995 9.02057,3.83607995 L8.43131,4.42533995 C8.26859,4.58805995 8.00478,4.58805995 7.84206,4.42533995 L6.33325,2.91663995 L6.33333,7.11304995 C6.33333,7.34316995 6.14679,7.52970995 5.91667,7.52970995 L5.08333,7.52970995 C4.85321,7.52970995 4.66667,7.34316995 4.66667,7.11304995 L4.66624,3.11874995 L3.36024,4.42533995 C3.19753,4.58805995 2.93371,4.58805995 2.77099,4.42533995 L2.18173,3.83607995 C2.01902,3.67336995 2.01902,3.40954995 2.18173,3.24682995 L5.30652,0.12203895 C5.46924,-0.04067965 5.73306,-0.04067965 5.89578,0.12203895 Z"></path></clipPath></defs><g transform="translate(-526.0 -487.0)"><g clip-path="url(#i0)"><g transform="translate(480.0 190.0)"><g transform="translate(30.0 289.0)"><g transform="translate(16.0 8.0)"><g transform="translate(2.5 2.166992187500001)"><g clip-path="url(#i1)"><polygon points="0,0 11,0 11,11.6666999 0,11.6666999 0,0" stroke="none" fill="#FFFFFF"></polygon></g></g></g></g></g></g></g></svg>