<?xml version="1.0" encoding="UTF-8"?>
<svg width="40px" height="40px" viewBox="0 0 40 40" version="1.1" xmlns="http://www.w3.org/2000/svg" xmlns:xlink="http://www.w3.org/1999/xlink">
    <defs>
        <linearGradient x1="0%" y1="0%" x2="100%" y2="98.4141032%" id="linearGradient-1">
            <stop stop-color="#BF87FF" offset="0%"></stop>
            <stop stop-color="#8A4FFE" offset="100%"></stop>
        </linearGradient>
        <linearGradient x1="50%" y1="0%" x2="50%" y2="100%" id="linearGradient-2">
            <stop stop-color="#FFFFFF" stop-opacity="0.798148777" offset="0%"></stop>
            <stop stop-color="#FFFFFF" stop-opacity="0.916839859" offset="58.8012695%"></stop>
            <stop stop-color="#FFFFFF" offset="100%"></stop>
        </linearGradient>
        <path d="M10,5 C10,5.6907281 10.0875387,6.36101044 10.2521271,7.0003581 L5,7 L5,11 L12.709804,11.001282 C14.1198897,12.2452454 15.9718037,13 18,13 C19.0612698,13 20.0742738,12.793349 21.0009677,12.4180912 L21,18 C21,19.1045695 20.1045695,20 19,20 L17.2,20 L19,21.5 L19,22 L5,22 L5,21.5 L6.8,20 L5,20 C3.8954305,20 3,19.1045695 3,18 L3,7 C3,4.790861 4.790861,3 7,3 L10.2519421,3.00036082 C10.0874731,3.63949203 10,4.3095308 10,5 Z M12,14 C10.8954305,14 10,14.8954305 10,16 C10,17.1045695 10.8954305,18 12,18 C13.1045695,18 14,17.1045695 14,16 C14,14.8954305 13.1045695,14 12,14 Z" id="path-3"></path>
        <filter x="-38.9%" y="-21.1%" width="177.8%" height="184.2%" filterUnits="objectBoundingBox" id="filter-4">
            <feMorphology radius="1" operator="erode" in="SourceAlpha" result="shadowSpreadOuter1"></feMorphology>
            <feOffset dx="0" dy="5" in="shadowSpreadOuter1" result="shadowOffsetOuter1"></feOffset>
            <feGaussianBlur stdDeviation="2.5" in="shadowOffsetOuter1" result="shadowBlurOuter1"></feGaussianBlur>
            <feColorMatrix values="0 0 0 0 0.487670193   0 0 0 0 0.256680473   0 0 0 0 0.893893495  0 0 0 1 0" type="matrix" in="shadowBlurOuter1"></feColorMatrix>
        </filter>
        <linearGradient x1="50%" y1="0%" x2="50%" y2="100%" id="linearGradient-5">
            <stop stop-color="#FFFFFF" stop-opacity="0.798148777" offset="0%"></stop>
            <stop stop-color="#FFFFFF" stop-opacity="0.916839859" offset="58.8012695%"></stop>
            <stop stop-color="#FFFFFF" offset="100%"></stop>
        </linearGradient>
        <path d="M26,7 C29.3137085,7 32,9.6862915 32,13 C32,16.3137085 29.3137085,19 26,19 C22.6862915,19 20,16.3137085 20,13 C20,9.6862915 22.6862915,7 26,7 Z M25.9983333,8.79166668 C25.6531554,8.79166668 25.3733333,9.0574976 25.3733333,9.38541667 L25.3733333,9.38541667 L25.3733333,11.5415208 L22.04,13.5416667 L22.04,14.3333333 L25.3733333,13.3330625 L25.3733333,15.4547292 L24.1233333,16.1145833 L24.1233333,16.7083333 L25.9983333,16.3125 L27.8733333,16.7083333 L27.8733333,16.1145833 L26.6233333,15.455125 L26.6233333,13.3334583 L29.9566667,14.3333333 L29.9566667,13.5416667 L26.6233333,11.5415208 L26.6233333,9.38541667 C26.6233333,9.0574976 26.3435113,8.79166668 25.9983333,8.79166668 Z" id="path-6"></path>
        <filter x="-53.2%" y="-33.3%" width="206.4%" height="182.2%" filterUnits="objectBoundingBox" id="filter-7">
            <feMorphology radius="1" operator="erode" in="SourceAlpha" result="shadowSpreadOuter1"></feMorphology>
            <feOffset dx="0" dy="5" in="shadowSpreadOuter1" result="shadowOffsetOuter1"></feOffset>
            <feGaussianBlur stdDeviation="2.5" in="shadowOffsetOuter1" result="shadowBlurOuter1"></feGaussianBlur>
            <feColorMatrix values="0 0 0 0 0.487670193   0 0 0 0 0.256680473   0 0 0 0 0.893893495  0 0 0 1 0" type="matrix" in="shadowBlurOuter1"></feColorMatrix>
        </filter>
    </defs>
    <g id="定稿" stroke="none" stroke-width="1" fill="none" fill-rule="evenodd">
        <g id="公出申请" transform="translate(-465.000000, -180.000000)">
            <g id="mk_控件备份" transform="translate(445.000000, 162.000000)">
                <g id="编组" transform="translate(20.000000, 18.000000)">
                    <g id="编组-4" fill="url(#linearGradient-1)">
                        <rect id="矩形" x="0" y="0" width="40" height="40" rx="10"></rect>
                    </g>
                    <g transform="translate(8.000000, 8.000000)">
                        <polygon id="路径" points="0 0 24 0 24 24 0 24"></polygon>
                        <g id="形状结合">
                            <use fill="black" fill-opacity="1" filter="url(#filter-4)" xlink:href="#path-3"></use>
                            <use fill="url(#linearGradient-2)" fill-rule="evenodd" xlink:href="#path-3"></use>
                        </g>
                    </g>
                    <g id="形状结合" opacity="0.900000036">
                        <use fill="black" fill-opacity="1" filter="url(#filter-7)" xlink:href="#path-6"></use>
                        <use fill="url(#linearGradient-5)" fill-rule="evenodd" xlink:href="#path-6"></use>
                    </g>
                </g>
            </g>
        </g>
    </g>
</svg>