<?xml version="1.0" encoding="UTF-8"?>
<svg width="18px" height="18px" viewBox="0 0 18 18" version="1.1" xmlns="http://www.w3.org/2000/svg" xmlns:xlink="http://www.w3.org/1999/xlink">
    <title></title>
    <g id="页面-1" stroke="none" stroke-width="1" fill="none" fill-rule="evenodd">
        <g id="Hover状态" transform="translate(-1238.000000, -510.000000)">
            <g id="编组" transform="translate(1238.000000, 510.000000)">
                <polygon id="路径" points="0 0 18 0 18 18 0 18"></polygon>
                <path d="M13.52325,12.46275 L16.7355,15.67425 L15.67425,16.7355 L12.46275,13.52325 C11.2678037,14.4811658 9.78150081,15.0021789 8.25,15 C4.524,15 1.5,11.976 1.5,8.25 C1.5,4.524 4.524,1.5 8.25,1.5 C11.976,1.5 15,4.524 15,8.25 C15.0021789,9.78150081 14.4811658,11.2678037 13.52325,12.46275 Z M12.01875,11.90625 C12.9705847,10.9274142 13.5021503,9.61532196 13.5,8.25 C13.5,5.349 11.15025,3 8.25,3 C5.349,3 3,5.349 3,8.25 C3,11.15025 5.349,13.5 8.25,13.5 C9.61532196,13.5021503 10.9274142,12.9705847 11.90625,12.01875 L12.01875,11.90625 L12.01875,11.90625 Z M7.5,7.5 L7.5,5.25 L9,5.25 L9,7.5 L11.25,7.5 L11.25,9 L9,9 L9,11.25 L7.5,11.25 L7.5,9 L5.25,9 L5.25,7.5 L7.5,7.5 Z" id="形状" fill="#86909C" fill-rule="nonzero"></path>
            </g>
        </g>
    </g>
</svg>