<svg width="40" height="40" viewBox="0 0 40 40" fill="none" xmlns="http://www.w3.org/2000/svg">
<rect width="40" height="40" rx="10" fill="url(#paint0_linear_304_27876)"/>
<path fill-rule="evenodd" clip-rule="evenodd" d="M28.2426 12.7574C25.98 10.49 22.35 10.42 20.001 12.5285C17.6452 10.4169 14.0216 10.4932 11.7574 12.7574C10.0692 14.4455 9.59731 16.8894 10.3417 19H13.4707L14.6092 17.3258C15.1429 16.5409 16.3106 16.574 16.7989 17.3879L18.9202 20.9234L19.6056 19.5528L19.882 19H20.5H25V21H21.118L20.1388 22.9584C19.6801 23.8759 18.3891 23.9255 17.8613 23.0459L15.6473 19.3559L14.8269 20.5623L14.5293 21H14H11.5284L19.9999 29.485L28.4786 20.993C30.583 18.637 30.5053 15.0247 28.2426 12.7574Z" fill="url(#paint1_linear_304_27876)"/>
<defs>
<linearGradient id="paint0_linear_304_27876" x1="0" y1="0" x2="0" y2="40" gradientUnits="userSpaceOnUse">
<stop stop-color="#07D4FA"/>
<stop offset="1" stop-color="#03A9F4"/>
</linearGradient>
<linearGradient id="paint1_linear_304_27876" x1="10.867" y1="12.6027" x2="10.867" y2="29.485" gradientUnits="userSpaceOnUse">
<stop stop-color="white" stop-opacity="0.85"/>
<stop offset="0.588013" stop-color="white" stop-opacity="0.91684"/>
<stop offset="1" stop-color="white"/>
</linearGradient>
</defs>
</svg>
