<svg width="40" height="40" viewBox="0 0 40 40" fill="none" xmlns="http://www.w3.org/2000/svg">
<rect width="40" height="40" rx="10" fill="url(#paint0_linear_689_11366)"/>
<path d="M25.5465 9.09082C26.0988 9.09082 26.5465 9.53854 26.5465 10.0908V15.6363C26.5465 19.2512 23.616 22.1817 20.001 22.1817C16.3861 22.1817 13.4556 19.2512 13.4556 15.6363V10.0908C13.4556 9.53854 13.9033 9.09082 14.4556 9.09082H25.5465ZM24.2515 16.628C24.3765 16.09 23.9169 15.6363 23.3646 15.6363H16.6374C16.0851 15.6363 15.6255 16.09 15.7506 16.628C16.1996 18.5601 17.9322 19.9999 20.001 19.9999C22.0699 19.9999 23.8025 18.5601 24.2515 16.628Z" fill="url(#paint1_linear_689_11366)"/>
<path opacity="0.85" d="M22.7087 24.562C22.9706 24.169 23.475 24.0074 23.8956 24.2222C26.0895 25.3423 27.7468 27.3633 28.3797 29.7974C28.531 30.3794 28.0614 30.909 27.46 30.909H12.4054C11.804 30.909 11.3344 30.3794 11.4857 29.7974C12.1187 27.3633 13.776 25.3423 15.9698 24.2222C16.3905 24.0074 16.8948 24.169 17.1567 24.562L19.1006 27.4787C19.4964 28.0725 20.369 28.0725 20.7648 27.4787L22.7087 24.562Z" fill="url(#paint2_linear_689_11366)"/>
<defs>
<linearGradient id="paint0_linear_689_11366" x1="-20" y1="20" x2="20" y2="60" gradientUnits="userSpaceOnUse">
<stop stop-color="#FFA775"/>
<stop offset="1" stop-color="#FF6E41"/>
</linearGradient>
<linearGradient id="paint1_linear_689_11366" x1="13.4556" y1="9.09082" x2="13.4556" y2="22.1817" gradientUnits="userSpaceOnUse">
<stop stop-color="white" stop-opacity="0.798149"/>
<stop offset="0.588013" stop-color="white" stop-opacity="0.91684"/>
<stop offset="1" stop-color="white"/>
</linearGradient>
<linearGradient id="paint2_linear_689_11366" x1="11.2729" y1="23.8879" x2="11.2729" y2="30.909" gradientUnits="userSpaceOnUse">
<stop stop-color="white" stop-opacity="0.798149"/>
<stop offset="0.588013" stop-color="white" stop-opacity="0.91684"/>
<stop offset="1" stop-color="white"/>
</linearGradient>
</defs>
</svg>
