<?xml version="1.0" encoding="UTF-8"?>
<svg width="28px" height="28px" viewBox="0 0 28 28" version="1.1" xmlns="http://www.w3.org/2000/svg" xmlns:xlink="http://www.w3.org/1999/xlink">
    <title></title>
    <defs>
        <linearGradient x1="50%" y1="0%" x2="50%" y2="100%" id="linearGradient-1">
            <stop stop-color="#FFD772" offset="0%"></stop>
            <stop stop-color="#FFB02F" offset="100%"></stop>
        </linearGradient>
    </defs>
    <g id="页面-1" stroke="none" stroke-width="1" fill="none" fill-rule="evenodd">
        <g id="Hover数据" transform="translate(-160.000000, -1621.000000)">
            <g id="编组-25" transform="translate(130.000000, 1597.000000)">
                <g id="编组-23" transform="translate(30.000000, 24.000000)">
                    <rect id="矩形" x="0" y="0" width="28" height="28"></rect>
                    <g id="编组-22" transform="translate(2.500000, 1.000000)">
                        <path d="M19.3473655,6.30999127 L12.0502205,8.58158813 C11.6863739,8.69502618 11.2965383,8.69502618 10.9326917,8.58158813 L3.6297714,6.30999127 C2.86165088,6.07177138 2.3389824,5.37129145 2.3389824,4.58006108 L2.3389824,1.81500873 C2.3389824,0.813917976 3.16774402,0 4.18709194,0 L18.7871573,0 C19.8065052,0 20.6352787,0.813917976 20.6352787,1.81500873 L20.6352787,4.58006108 C20.6381545,5.37129145 20.115486,6.07177138 19.3473655,6.30999127 Z" id="路径" fill="#FCD077" fill-rule="nonzero"></path>
                        <path d="M11.5,2.85750092 C5.42443521,2.85750092 0.5,7.78193613 0.5,13.8575009 C0.5,19.9330657 5.42443521,24.8575009 11.5,24.8575009 C17.5755648,24.8575009 22.5,19.9330657 22.5,13.8575009 C22.5,7.78193613 17.5755648,2.85750092 11.5,2.85750092 Z" id="路径" fill="url(#linearGradient-1)"></path>
                        <path d="M11.5,2.85750092 C14.6327286,2.85750092 17.4594044,4.16676926 19.4627417,6.2680204 L19.3473655,6.30999127 L19.3473655,6.30999127 L12.0502205,8.58158813 C11.6863739,8.69502618 11.2965383,8.69502618 10.9326917,8.58158813 L3.6297714,6.30999127 L3.53153849,6.27402422 C5.53521345,4.1692635 8.36428877,2.85750092 11.5,2.85750092 Z" id="形状结合" fill="#FFAC5E"></path>
                        <polygon id="星形" fill="#FFFFFF" points="11.4871305 16.8204639 8.65705341 18.3083235 9.19755005 15.1569863 6.90796955 12.9251969 10.072092 12.465423 11.4871305 9.59824166 12.9021691 12.465423 16.0662916 12.9251969 13.7767111 15.1569863 14.3172077 18.3083235"></polygon>
                    </g>
                </g>
            </g>
        </g>
    </g>
</svg>