<?xml version="1.0" encoding="UTF-8"?>
<svg width="28px" height="28px" viewBox="0 0 28 28" version="1.1" xmlns="http://www.w3.org/2000/svg" xmlns:xlink="http://www.w3.org/1999/xlink">
    <title></title>
    <defs>
        <linearGradient x1="50%" y1="0%" x2="50%" y2="100%" id="linearGradient-1">
            <stop stop-color="#69D3AD" offset="0%"></stop>
            <stop stop-color="#5BC27B" offset="100%"></stop>
        </linearGradient>
    </defs>
    <g id="页面-1" stroke="none" stroke-width="1" fill="none" fill-rule="evenodd">
        <g id="团队考勤" transform="translate(-160.000000, -148.000000)">
            <g id="编组-7" transform="translate(130.000000, 124.000000)">
                <g id="编组-19" transform="translate(30.000000, 24.000000)">
                    <rect id="矩形" x="0" y="0" width="28" height="28"></rect>
                    <g id="编组-17" transform="translate(2.000000, 1.000000)">
                        <circle id="椭圆形" fill="#83E9C2" cx="20" cy="4" r="4"></circle>
                        <path d="M3.51486672,21.4854295 C8.20124002,26.1716392 15.7992198,26.1715066 20.4854295,21.4851333 C25.1716392,16.79876 25.1715066,9.20078024 20.4851333,4.51457053 C15.79876,-0.171639178 8.20078024,-0.171506568 3.51457053,4.51486672 C-1.17163918,9.20124002 -1.17150657,16.7992198 3.51486672,21.4854295 Z" id="路径备份-6" fill="url(#linearGradient-1)" fill-rule="nonzero"></path>
                        <circle id="椭圆形备份-9" fill="#83E9C2" cx="4" cy="4" r="4"></circle>
                        <path d="M16.5905718,1.90937409 C18.0069153,2.49495924 19.3338801,3.36335755 20.4851333,4.51457053 C21.2854391,5.31484837 21.9490781,6.20004333 22.47605,7.14115312 C21.7949783,7.67923164 20.9349489,8 20,8 C17.790861,8 16,6.209139 16,4 C16,3.26362033 16.1989846,2.573716 16.5461173,1.98112341 Z M8,4 C8,6.209139 6.209139,8 4,8 C3.06506651,8 2.20505002,7.6792422 1.52399323,7.1417693 C2.05079973,6.20023694 2.71436216,5.31510303 3.51457053,4.51486672 C4.66578351,3.36361356 5.99271801,2.49516893 7.40904108,1.90953433 C7.78453213,2.51777977 8,3.23372728 8,4 Z" id="形状结合" fill="#44B061"></path>
                        <path d="M12,8 C12.5522847,8 13,8.44771525 13,9 L13,12.82 L16.3457476,14.6743876 C16.8287867,14.9421406 17.0033106,15.5507778 16.7355577,16.033817 L16.250748,16.9084367 C15.9829951,17.3914758 15.3743578,17.5659997 14.8913187,17.2982468 L10.5651122,14.9007391 C10.2306711,14.7389696 10,14.3964229 10,14 L10,9 C10,8.44771525 10.4477153,8 11,8 L12,8 Z" id="形状结合" fill="#FFFFFF"></path>
                    </g>
                </g>
            </g>
        </g>
    </g>
</svg>