<svg width="32" height="32" viewBox="0 0 32 32" fill="none" xmlns="http://www.w3.org/2000/svg">
<rect width="32" height="32" rx="8" fill="white"/>
<mask id="mask0_354_8727" style="mask-type:luminance" maskUnits="userSpaceOnUse" x="6" y="6" width="20" height="20">
<path fill-rule="evenodd" clip-rule="evenodd" d="M6 6H26V26H6V6Z" fill="white"/>
</mask>
<g mask="url(#mask0_354_8727)">
<path opacity="0.6" fill-rule="evenodd" clip-rule="evenodd" d="M9.64299 10.4764C10.0335 10.0859 10.6667 10.0859 11.0572 10.4764L14.357 13.7762C14.7476 14.1668 14.7476 14.7999 14.357 15.1904C13.9665 15.581 13.3333 15.581 12.9428 15.1904L9.64299 11.8906C9.25247 11.5001 9.25247 10.8669 9.64299 10.4764Z" fill="#03A9F4"/>
<path opacity="0.6" fill-rule="evenodd" clip-rule="evenodd" d="M22.357 10.4764C21.9665 10.0859 21.3333 10.0859 20.9428 10.4764L17.643 13.7762C17.2524 14.1668 17.2524 14.7999 17.643 15.1904C18.0335 15.581 18.6667 15.581 19.0572 15.1904L22.357 11.8906C22.7475 11.5001 22.7475 10.8669 22.357 10.4764Z" fill="#03A9F4"/>
<path fill-rule="evenodd" clip-rule="evenodd" d="M16 24.3333C20.1421 24.3333 23.5 20.9754 23.5 16.8333C23.5 12.6911 20.1421 9.33325 16 9.33325C11.8579 9.33325 8.5 12.6911 8.5 16.8333C8.5 20.9754 11.8579 24.3333 16 24.3333ZM16.8333 12.2458V15.9999H19.3333L15.1667 21.4166V17.6666H12.6667L16.8333 12.2458Z" fill="#06C6F8"/>
<path fill-rule="evenodd" clip-rule="evenodd" d="M12.6665 7.66659C12.6665 7.20635 13.0396 6.83325 13.4998 6.83325H18.4998C18.9601 6.83325 19.3332 7.20635 19.3332 7.66659C19.3332 8.12682 18.9601 8.49992 18.4998 8.49992H13.4998C13.0396 8.49992 12.6665 8.12682 12.6665 7.66659Z" fill="#06C6F8"/>
</g>
</svg>
