<?xml version="1.0" encoding="UTF-8"?>
<svg width="24px" height="24px" viewBox="0 0 24 24" version="1.1" xmlns="http://www.w3.org/2000/svg" xmlns:xlink="http://www.w3.org/1999/xlink">
    <g id="页面-1" stroke="none" stroke-width="1" fill="none" fill-rule="evenodd">
        <g id="个人考勤页面Hover样式" transform="translate(-1228.000000, -1260.000000)">
            <g id="编组-20" transform="translate(130.000000, 1162.000000)">
                <g id="编组-13" transform="translate(885.000000, 72.000000)">
                    <g id="编组-12" transform="translate(205.000000, 18.000000)">
                        <g id="编组" transform="translate(8.000000, 8.000000)">
                            <polygon id="路径" points="0 0 24 0 24 24 0 24"></polygon>
                            <g id="编组-2" transform="translate(2.999549, 0.001002)" fill="#FFFFFF">
                                <path d="M14.1823539,23.0356342 C14.1823539,23.2321103 14.0767224,23.4134263 13.9057871,23.5102972 C13.7348517,23.6071681 13.5250269,23.6046229 13.3564916,23.5036342 L8.72776437,20.7261796 L4.0990371,23.5036342 C3.93033441,23.6047239 3.72027473,23.6071673 3.54926628,23.510029 C3.37825783,23.4128908 3.27278402,23.2312144 3.27321492,23.0345433 L3.27321492,15.5399978 L14.1823539,15.5399978 L14.1823539,23.0356342 Z" id="形状" opacity="0.800000012"></path>
                                <path d="M8.72776437,17.4534524 C6.90963192,17.4536342 5.0914501,16.815816 3.27321892,15.5399978 C0.380422284,13.2239069 -0.734283367,9.33348337 0.493027003,5.83687661 C1.72033737,2.34026986 5.0220189,3.87568765e-15 8.72776437,3.87568765e-15 C12.4335098,3.87568765e-15 15.7351914,2.34026986 16.9625017,5.83687661 C18.1898121,9.33348337 17.0751065,13.2239069 14.1823098,15.5399978 C12.3640786,16.8154524 10.5458968,17.4532706 8.72776437,17.4534524 Z M15.2732189,8.72617963 C15.2732189,5.11122491 12.3427191,2.18072509 8.72776437,2.18072509 C5.11280965,2.18072509 2.18230983,5.11122491 2.18230983,8.72617963 C2.18230983,12.3411344 5.11280965,15.2716342 8.72776437,15.2716342 C12.3427191,15.2716342 15.2732189,12.3411344 15.2732189,8.72617963 Z M8.72776437,13.089816 C6.31779456,13.089816 4.36412801,11.1361495 4.36412801,8.72617963 C4.36412801,6.31620982 6.31779456,4.36254327 8.72776437,4.36254327 C11.1377342,4.36254327 13.0914007,6.31620982 13.0914007,8.72617963 C13.0914007,11.1361495 11.1377342,13.089816 8.72776437,13.089816 Z" id="形状" fill-rule="nonzero"></path>
                            </g>
                        </g>
                    </g>
                </g>
            </g>
        </g>
    </g>
</svg>