<?xml version="1.0" encoding="UTF-8"?>
<svg width="18px" height="18px" viewBox="0 0 18 18" version="1.1" xmlns="http://www.w3.org/2000/svg" xmlns:xlink="http://www.w3.org/1999/xlink">
    <title></title>
    <g id="定稿" stroke="none" stroke-width="1" fill="none" fill-rule="evenodd">
        <g id="日历变大" transform="translate(-955.000000, -435.000000)">
            <g id="编组" transform="translate(955.000000, 435.000000)">
                <polygon id="路径" points="0 0 18 0 18 18 0 18"></polygon>
                <path d="M13.52325,12.46275 L16.2048131,15.143687 C16.4978691,15.4366746 16.4979246,15.911757 16.2049369,16.2048131 C16.2049163,16.2048337 16.2048956,16.2048544 16.204875,16.204875 C15.9118531,16.4978969 15.4367708,16.4978969 15.1437489,16.204875 C15.1437282,16.2048544 15.1437076,16.2048337 15.143687,16.2048131 L12.46275,13.52325 L12.46275,13.52325 C11.2678037,14.4811658 9.78150081,15.0021789 8.25,15 C4.524,15 1.5,11.976 1.5,8.25 C1.5,4.524 4.524,1.5 8.25,1.5 C11.976,1.5 15,4.524 15,8.25 C15.0021789,9.78150081 14.4811658,11.2678037 13.52325,12.46275 Z M13.5,8.25 C13.5,5.349 11.15025,3 8.25,3 C5.349,3 3,5.349 3,8.25 C3,11.15025 5.349,13.5 8.25,13.5 C9.61532196,13.5021503 10.9274142,12.9705847 11.90625,12.01875 L12.01875,11.90625 C12.9705847,10.9274142 13.5021503,9.61532196 13.5,8.25 Z M6,7.5 L10.5,7.5 C10.9142136,7.5 11.25,7.83578644 11.25,8.25 C11.25,8.66421356 10.9142136,9 10.5,9 L6,9 C5.58578644,9 5.25,8.66421356 5.25,8.25 C5.25,7.83578644 5.58578644,7.5 6,7.5 Z" id="形状" fill="currentColor" fill-rule="nonzero"></path>
            </g>
        </g>
    </g>
</svg>