<svg xmlns="http://www.w3.org/2000/svg" width="32" height="32" viewBox="0 0 32 32" fill="none">
  <rect width="32" height="32" rx="8" fill="white"/>
  <mask id="mask0_341_9530" style="mask-type:luminance" maskUnits="userSpaceOnUse" x="6" y="6" width="20" height="20">
    <rect x="6" y="6" width="20" height="20" fill="white"/>
  </mask>
  <g mask="url(#mask0_341_9530)">
    <path opacity="0.8" fill-rule="evenodd" clip-rule="evenodd" d="M12.0298 9.3564C11.28 9.03982 10.4131 9.20918 9.83762 9.78469L8.92471 10.6976C8.69556 10.9268 8.74159 11.31 9.01849 11.4784L15.5619 15.457L18.8028 12.2161L12.0298 9.3564ZM22.6122 19.9388C22.9288 20.6886 22.7594 21.5555 22.1839 22.131L21.271 23.0439C21.0419 23.2731 20.6586 23.227 20.4902 22.9501L16.5116 16.4067L19.7525 13.1658L22.6122 19.9388Z" fill="#6D7EFF" opacity="0.7"/>
    <path fill-rule="evenodd" clip-rule="evenodd" d="M13.1599 20.6893C14.6904 20.2031 16.862 18.7289 18.9433 16.6476C22.1171 13.4738 23.8791 10.0901 22.8789 9.08985C21.8787 8.08963 18.495 9.85166 15.3212 13.0255C13.2399 15.1068 11.7657 17.2784 11.2795 18.8089L9.08391 18.3284C8.95804 18.3008 8.82663 18.3149 8.70943 18.3684C8.27979 18.5647 8.23906 19.1592 8.63791 19.4122L11.0356 20.9332L12.5565 23.3308C12.8096 23.7297 13.4041 23.689 13.6004 23.2593C13.6539 23.1421 13.6679 23.0107 13.6404 22.8848L13.1599 20.6893Z" fill="#6D7EFF"/>
  </g>
</svg>
