<?xml version="1.0" encoding="UTF-8"?>
<svg width="16px" height="16px" viewBox="0 0 16 16" version="1.1" xmlns="http://www.w3.org/2000/svg" xmlns:xlink="http://www.w3.org/1999/xlink">
    <title></title>
    <g id="优化2期" stroke="none" stroke-width="1" fill="none" fill-rule="evenodd">
        <g id="锁定逻辑" transform="translate(-465.000000, -176.000000)">
            <g id="编组-5" transform="translate(230.000000, 174.000000)">
                <g id="ICON_未锁定" transform="translate(235.000000, 2.000000)">
                    <rect id="矩形" x="0" y="0" width="16" height="16"></rect>
                    <g id="编组备份" transform="translate(9.000000, 2.000000)" fill="#86909C" fill-rule="nonzero">
                        <path d="M5,3.5 C5,2.3954305 4.1045695,1.5 3,1.5 C1.8954305,1.5 1,2.3954305 1,3.5 L1,4 L0,4 L0,3.5 C0,1.84314575 1.34314575,0.5 3,0.5 C4.65685425,0.5 6,1.84314575 6,3.5 L6,4 L5,4 L5,3.5 Z" id="形状结合"></path>
                    </g>
                    <g id="编组备份-2" transform="translate(3.000000, 6.000000)" fill="#86909C" fill-rule="nonzero">
                        <path d="M9,0 C9.27614237,0 9.5,0.223857625 9.5,0.5 L9.5,6.5 C9.5,6.77614237 9.27614237,7 9,7 L1,7 C0.723857625,7 0.5,6.77614237 0.5,6.5 L0.5,0.5 C0.5,0.223857625 0.723857625,0 1,0 L9,0 Z M5,1.9999746 C4.54739432,1.9999746 4.15121714,2.30397204 4.03407417,2.74115555 C3.9169312,3.17833907 4.10803198,3.63969716 4.5,3.866 L4.5,5 L5.5,5 L5.5,3.866 C5.89196802,3.63969716 6.0830688,3.17833907 5.96592583,2.74115555 C5.84878286,2.30397204 5.45260568,1.9999746 5,1.9999746 Z" id="形状结合"></path>
                    </g>
                </g>
            </g>
        </g>
    </g>
</svg>