<?xml version="1.0" encoding="UTF-8"?>
<svg width="20px" height="20px" viewBox="0 0 20 20" version="1.1" xmlns="http://www.w3.org/2000/svg" xmlns:xlink="http://www.w3.org/1999/xlink">
    <g id="页面-1" stroke="none" stroke-width="1" fill="none" fill-rule="evenodd">
        <g id="个人考勤页面Hover样式" transform="translate(-1190.000000, -240.000000)">
            <g id="头部" transform="translate(130.000000, 68.000000)">
                <g id="编组-16备份-2" transform="translate(1038.000000, 150.000000)">
                    <g id="编组-4" transform="translate(16.000000, 16.000000)">
                        <g id="编组-19" transform="translate(6.000000, 6.000000)">
                            <rect id="矩形" x="0" y="0" width="20" height="20"></rect>
                            <g id="编组-8" transform="translate(0.000000, 0.000000)" fill="#FFFFFF">
                                <path d="M3.56689413,19.1224195 C2.10772075,19.1224195 0.920724779,17.9354235 0.920724779,16.4762501 C0.920724779,15.0170768 2.10772075,13.8300808 3.56689413,13.8300808 C5.02606752,13.8300808 6.21306349,15.0170768 6.21306349,16.4762501 C6.21306349,17.9354235 5.02606752,19.1224195 3.56689413,19.1224195 Z" id="路径备份-6" opacity="0.5"></path>
                                <path d="M13.8995554,19.1224195 C12.0925998,19.1224195 10.6233457,17.6531655 10.6233457,15.8462098 C10.6233457,14.0392542 12.0925998,12.5700001 13.8995554,12.5700001 C15.7065111,12.5700001 17.1757651,14.0392542 17.1757651,15.8462098 C17.1757651,17.6531655 15.7065111,19.1224195 13.8995554,19.1224195 Z" id="路径备份-7" opacity="0.5"></path>
                                <path d="M12.2866522,0.979778374 C13.2140716,1.47372999 14.0129627,2.1239316 14.6606441,2.91526224 C15.3245361,3.72283228 15.8009339,4.64241176 16.0778702,5.64767235 C16.0848866,5.66408912 16.0900261,5.68069098 16.0946159,5.69752031 L16.1233856,5.8156984 C16.7218004,4.75495726 17.6934743,3.92920063 18.8441119,3.51506063 C19.237257,3.3739316 19.6707248,3.57806466 19.8118538,3.96868966 C19.9529828,4.36183483 19.7488498,4.79530257 19.3582248,4.9364316 C18.4484466,5.26405257 17.6999587,5.95709692 17.299253,6.83915337 L16.0769748,9.75497999 C16.0611964,9.79278241 16.0427168,9.82861253 16.0218492,9.86234172 C15.2224275,12.56117 13.0192098,14.8614806 10.0840312,15.6471171 C9.37082559,15.8386493 8.64501913,15.9344155 7.92677317,15.9344155 C6.49784171,15.9344155 5.08655139,15.5639518 3.81386994,14.8356251 C2.89401107,14.3114316 2.10016026,13.6309881 1.44995865,12.8144558 C0.779595747,11.9702018 0.300765102,11.0251413 0.0260675214,9.99943563 C-0.0822994141,9.59620983 0.157115909,9.18038321 0.560341715,9.07453644 L7.133,7.314 L5.50237801,1.22927434 C5.39401107,0.826048535 5.63342639,0.410221922 6.0366522,0.304375148 C8.17374897,-0.267701465 10.3914909,-0.0282861423 12.2866522,0.979778374 Z M12.2200835,2.54475218 L9.43702958,6.51902056 L13.3953689,3.74784538 C13.0611146,3.2878858 12.6639805,2.88387683 12.2200835,2.54475218 Z M13.6275716,4.09278089 L10.199,6.493 L14.233,5.413 L14.1822619,5.25442551 C14.0380632,4.84031315 13.851007,4.45190131 13.6275716,4.09278089 Z M10.6687877,1.69522468 L9.08202958,6.30002056 L11.880985,2.30425153 C11.5022653,2.05534927 11.0953181,1.85074316 10.6687877,1.69522468 Z M8.72552092,1.34301621 L8.72502958,6.05802056 L10.27272,1.56659674 C9.77467969,1.42426328 9.25470144,1.34738328 8.72552092,1.34301621 Z M8.30862148,1.35459849 C7.99938446,1.37434854 7.68817206,1.41911723 7.37746978,1.49028231 L7.06702958,1.57029721 L8.30802958,5.90002056 L8.30862148,1.35459849 Z" id="形状结合" fill-rule="nonzero"></path>
                            </g>
                        </g>
                    </g>
                </g>
            </g>
        </g>
    </g>
</svg>