<?xml version="1.0" encoding="UTF-8"?>
<svg width="16px" height="17px" viewBox="0 0 16 17" version="1.1" xmlns="http://www.w3.org/2000/svg" xmlns:xlink="http://www.w3.org/1999/xlink">
    <title></title>
    <g id="页面-1" stroke="none" stroke-width="1" fill="none" fill-rule="evenodd">
        <g id="团队考勤" transform="translate(-1031.000000, -153.000000)">
            <g id="编组-7" transform="translate(130.000000, 124.000000)">
                <g id="编组-28" transform="translate(895.000000, 24.000000)">
                    <g id="编组" transform="translate(14.000000, 14.000000) rotate(-270.000000) translate(-14.000000, -14.000000) translate(6.000000, 6.000000)">
                        <rect id="Rectangle" fill-rule="nonzero" x="0" y="0" width="16" height="16"></rect>
                        <path d="M10.6264807,4.48840678 C10.8868274,4.74875612 10.8868274,5.17086012 10.6264807,5.43122013 L7.71973377,8.33795348 L10.543174,11.1613935 C10.8035207,11.4217535 10.8035207,11.8438602 10.543174,12.1042069 L10.0717607,12.5756202 C9.81141397,12.8359669 9.38930726,12.8359669 9.12896057,12.5756202 L5.35771622,8.80436682 C5.09736673,8.54402015 5.0973658,8.12191348 5.35771489,7.86155348 L5.8291216,7.39015348 C5.85251627,7.36675348 5.87721627,7.34546014 5.90298827,7.32627348 L9.21226724,4.01700278 C9.47261393,3.75665278 9.89472064,3.75665278 10.1550673,4.01700278 L10.6264807,4.48840678 Z" id="形状结合" fill="currentColor" transform="translate(7.992097, 8.296310) rotate(-90.000000) translate(-7.992097, -8.296310) "></path>
                    </g>
                </g>
            </g>
        </g>
    </g>
</svg>