<?xml version="1.0" encoding="UTF-8"?>
<svg width="24px" height="24px" viewBox="0 0 24 24" version="1.1" xmlns="http://www.w3.org/2000/svg" xmlns:xlink="http://www.w3.org/1999/xlink">
    <title>编组 9</title>
    <g id="定稿" stroke="none" stroke-width="1" fill="none" fill-rule="evenodd">
        <g id="个人考勤页面" transform="translate(-373.000000, -1406.000000)" fill-rule="nonzero">
            <g id="编组-20" transform="translate(130.000000, 1162.000000)">
                <g id="编组-5备份-3" transform="translate(30.000000, 218.000000)">
                    <g id="编组-4备份" transform="translate(205.000000, 18.000000)">
                        <g id="编组-9" transform="translate(8.000000, 8.000000)">
                            <path d="M12,24 C5.372583,24 0,18.627417 0,12 C0,5.372583 5.372583,0 12,0 C18.627417,0 24,5.372583 24,12 C24,18.627417 18.627417,24 12,24 Z" id="路径"></path>
                            <path d="M12.0129132,4.08373827 C13.1767503,4.08373827 14.287395,4.31148172 15.3027129,4.72483415 L15.3017942,4.73021385 C16.0483303,5.03280941 16.7370724,5.43170349 17.3556416,5.9094567 L17.2951568,5.86255104 C17.3870101,5.93245841 17.477436,6.00414482 17.5663832,6.07755892 L17.5666742,6.07773705 C17.6980344,6.18621951 17.8264459,6.29866494 17.9514513,6.41472862 L17.9518271,6.41420848 C18.7208828,7.12912234 19.3612662,7.9805982 19.8337536,8.93030823 L19.8033829,8.86868243 C19.8421536,8.94515147 19.8798154,9.02222936 19.9163518,9.09989255 L19.8337536,8.93030823 C19.8710725,9.00531998 19.907344,9.08094457 19.9425489,9.15716284 L19.9428995,9.15685561 C20.0175381,9.31951376 20.0876881,9.48455838 20.152814,9.6521117 L20.1530799,9.65168537 C20.2378966,9.87100913 20.3144041,10.0941883 20.3819239,10.3212368 L20.3123579,10.0968013 C20.3501203,10.2121133 20.3855267,10.3283864 20.4185307,10.4455554 L20.3819239,10.3212368 C20.4059543,10.4020436 20.4288462,10.4833405 20.4505811,10.5651089 L20.4185307,10.4455554 C20.4423673,10.5301783 20.4649507,10.6152686 20.4862637,10.7008016 L20.4505811,10.5651089 C20.4729346,10.6492044 20.4940643,10.7337987 20.51395,10.8188715 L20.5147444,10.8185911 C20.6637118,11.4595679 20.7429132,12.1274038 20.7429132,12.8137383 C20.7429132,14.609743 20.2005671,16.2790761 19.270715,17.6668973 C19.2643217,17.6648474 19.2583497,17.6625577 19.2523825,17.660246 C17.6342408,20.078038 14.916656,21.5293072 12.0073432,21.5293072 C9.09803043,21.5293072 6.38044557,20.078038 4.7623039,17.660246 C3.82447717,16.2766678 3.28291321,14.6084475 3.28291321,12.8137383 C3.28291321,12.6697692 3.28639818,12.5266141 3.29328838,12.3843528 L3.29861325,12.3836182 C3.51374902,7.96966283 6.99754709,4.41488756 11.4062665,4.11078363 C11.6074862,4.09070301 11.8093864,4.08373827 12.0129132,4.08373827 Z M16.5590082,15.0999344 L7.88698519,15.0999344 C8.05401572,17.3872887 9.93021922,19.1741492 12.2229967,19.2294692 C14.5166541,19.1762757 16.3940587,17.3882713 16.5590082,15.0999344 Z M8.42814799,10.6 C7.87586324,10.6 7.42814799,11.0477153 7.42814799,11.6 C7.42814799,12.1522847 7.87586324,12.6 8.42814799,12.6 C8.98043274,12.6 9.42814799,12.1522847 9.42814799,11.6 C9.42814799,11.0477153 8.98043274,10.6 8.42814799,10.6 Z M15.7695431,10.6 C15.2172583,10.6 14.7695431,11.0477153 14.7695431,11.6 C14.7695431,12.1522847 15.2172583,12.6 15.7695431,12.6 C16.3218278,12.6 16.7695431,12.1522847 16.7695431,11.6 C16.7695431,11.0477153 16.3218278,10.6 15.7695431,10.6 Z" id="形状结合" fill="#FD7F8B"></path>
                            <path d="M3.28291321,12.8137383 C3.28291321,14.6084475 3.82447717,16.2766678 4.75309981,17.6638937 C3.78300755,18.0460911 2.66941812,17.8397844 1.89333589,17.128733 C1.11725366,16.4176815 0.814528213,15.3263515 1.11341682,14.3171125 C1.41191689,13.3091855 2.25828475,12.5593397 3.29456563,12.3842989 C3.28639818,12.5266141 3.28291321,12.6697692 3.28291321,12.8137383 Z M20.7344266,12.3836182 C21.7645255,12.5689702 22.6004229,13.3224021 22.8913898,14.3277863 C23.1823566,15.3331704 22.8780585,16.4165849 22.1061739,17.1234464 C21.3390087,17.8259861 20.2418583,18.0357737 19.2702985,17.6671153 C20.2005671,16.2790761 20.7429132,14.609743 20.7429132,12.8137383 C20.7429132,12.1276982 20.6637797,11.4601407 20.5141426,10.8196958 C20.6339643,11.3273138 20.7083412,11.8504626 20.7344266,12.3836182 Z M10.8510735,1.5 C14.0751695,1.96189611 15.5694493,2.98204414 15.3339128,4.56044408 C15.3250092,4.61831766 15.3031476,4.67187191 15.3018542,4.72529761 C14.287395,4.31148172 13.1767503,4.08373827 12.0129132,4.08373827 C11.8093864,4.08373827 11.6074862,4.09070301 11.4074381,4.10440716 C11.4122549,4.0544822 11.4328135,4.00071356 11.4659153,3.95477899 C11.8758099,3.39805653 11.6708626,2.57979686 10.8510735,1.5 Z" id="形状结合" fill="#FD7F8B" opacity="0.75"></path>
                            <path d="M10.8510735,1.5 C14.0751695,1.96189611 15.5694493,2.98204414 15.3339128,4.56044408 C15.3250092,4.61831766 15.3031476,4.67187191 15.3018542,4.72529761 C14.287395,4.31148172 13.1767503,4.08373827 12.0129132,4.08373827 C11.8093864,4.08373827 11.6074862,4.09070301 11.4074381,4.10440716 C11.4122549,4.0544822 11.4328135,4.00071356 11.4659153,3.95477899 C11.8758099,3.39805653 11.6708626,2.57979686 10.8510735,1.5 Z" id="形状结合" fill="#FD7F8B"></path>
                        </g>
                    </g>
                </g>
            </g>
        </g>
    </g>
</svg>