<svg xmlns="http://www.w3.org/2000/svg" width="32" height="32" viewBox="0 0 32 32" fill="none">
  <rect width="32" height="32" rx="8" fill="white"/>
  <path opacity="0.6" fill-rule="evenodd" clip-rule="evenodd" d="M25.9998 13.4999C25.9998 12.5833 25.2498 11.8333 24.3332 11.8333H23.4998L22.6665 13.4999H24.3332V15.9999C24.3332 16.4599 23.9598 16.8333 23.4998 16.8333H22.6665V18.4999H23.4998C24.8807 18.4999 25.9998 17.3808 25.9998 15.9999V13.4999Z" fill="#2DC588"/>
  <path opacity="0.6" fill-rule="evenodd" clip-rule="evenodd" d="M6.00016 13.4999C6.00016 12.5833 6.75016 11.8333 7.66683 11.8333H8.50016L9.3335 13.4999H7.66683V15.9999C7.66683 16.4599 8.04016 16.8333 8.50016 16.8333H9.3335V18.4999H8.50016C7.11933 18.4999 6.00016 17.3808 6.00016 15.9999V13.4999Z" fill="#2DC588"/>
  <path fill-rule="evenodd" clip-rule="evenodd" d="M16.4042 8.60078L22.8692 10.2174C23.24 10.3091 23.5 10.6424 23.5 11.0258V11.8333L23.1492 18.4999C22.7033 19.6249 21.8558 20.5716 20.7358 21.1316L16.745 23.1274C16.2758 23.3616 15.7242 23.3616 15.255 23.1274L11.2633 21.1316C10.145 20.5716 9.2975 19.6249 8.85167 18.4999L8.5 11.8333V11.0249C8.5 10.6433 8.76 10.3099 9.13083 10.2166L15.5958 8.60078C15.8608 8.53411 16.1392 8.53411 16.4042 8.60078Z" fill="#2DC588"/>
</svg>