<?xml version="1.0" encoding="UTF-8"?>
<svg width="40px" height="40px" viewBox="0 0 40 40" version="1.1" xmlns="http://www.w3.org/2000/svg" xmlns:xlink="http://www.w3.org/1999/xlink">
    <defs>
        <linearGradient x1="0%" y1="0%" x2="100%" y2="100%" id="linearGradient-1">
            <stop stop-color="#FFA775" offset="0%"></stop>
            <stop stop-color="#FF6E41" offset="100%"></stop>
        </linearGradient>
        <linearGradient x1="50%" y1="12.9157789%" x2="50%" y2="100%" id="linearGradient-2">
            <stop stop-color="#FFFFFF" stop-opacity="0.798148777" offset="0%"></stop>
            <stop stop-color="#FFFFFF" stop-opacity="0.916839859" offset="58.8012695%"></stop>
            <stop stop-color="#FFFFFF" offset="100%"></stop>
        </linearGradient>
        <path d="M19.778,4.222 C22.121,6.565 22.121,10.364 19.778,12.707 L17.656,14.827 L12.707,19.778 C10.364,22.121 6.565,22.121 4.222,19.778 C1.879,17.435 1.879,13.636 4.222,11.293 L11.292,4.222 C13.636,1.879 17.435,1.879 19.778,4.222 Z M14.828,14.828 L9.172,9.172 L5.636,12.707 C4.074,14.269 4.074,16.802 5.636,18.364 C7.198,19.926 9.731,19.926 11.293,18.364 L14.828,14.828 Z" id="path-3"></path>
        <filter x="-21.0%" y="-21.0%" width="157.7%" height="151.8%" filterUnits="objectBoundingBox" id="filter-4">
            <feMorphology radius="1" operator="erode" in="SourceAlpha" result="shadowSpreadOuter1"></feMorphology>
            <feOffset dx="0" dy="5" in="shadowSpreadOuter1" result="shadowOffsetOuter1"></feOffset>
            <feGaussianBlur stdDeviation="2.5" in="shadowOffsetOuter1" result="shadowBlurOuter1"></feGaussianBlur>
            <feColorMatrix values="0 0 0 0 0.959874575   0 0 0 0 0.391691243   0 0 0 0 0.435965269  0 0 0 1 0" type="matrix" in="shadowBlurOuter1"></feColorMatrix>
        </filter>
    </defs>
    <g id="定稿" stroke="none" stroke-width="1" fill="none" fill-rule="evenodd">
        <g id="我要休假" transform="translate(-465.000000, -276.000000)">
            <g id="mk_控件备份-5" transform="translate(445.000000, 258.000000)">
                <g id="编组" transform="translate(20.000000, 18.000000)">
                    <g id="编组-4备份" fill="url(#linearGradient-1)">
                        <rect id="矩形" x="0" y="0" width="40" height="40" rx="10"></rect>
                    </g>
                    <g transform="translate(8.000000, 8.000000)">
                        <polygon id="路径" points="0 0 24 0 24 24 0 24"></polygon>
                        <g id="形状">
                            <use fill="black" fill-opacity="1" filter="url(#filter-4)" xlink:href="#path-3"></use>
                            <use fill="url(#linearGradient-2)" fill-rule="evenodd" xlink:href="#path-3"></use>
                        </g>
                    </g>
                </g>
            </g>
        </g>
    </g>
</svg>