<?xml version="1.0" encoding="UTF-8"?>
<svg width="40px" height="40px" viewBox="0 0 40 40" version="1.1" xmlns="http://www.w3.org/2000/svg" xmlns:xlink="http://www.w3.org/1999/xlink">
    <defs>
        <linearGradient x1="0%" y1="0%" x2="100%" y2="100%" id="linearGradient-1">
            <stop stop-color="#B3B9CD" offset="0%"></stop>
            <stop stop-color="#7C839F" offset="100%"></stop>
        </linearGradient>
        <linearGradient x1="50%" y1="0%" x2="50%" y2="100%" id="linearGradient-2">
            <stop stop-color="#FFFFFF" stop-opacity="0.798148777" offset="0%"></stop>
            <stop stop-color="#FFFFFF" stop-opacity="0.916839859" offset="58.8012695%"></stop>
            <stop stop-color="#FFFFFF" offset="100%"></stop>
        </linearGradient>
        <path d="M7.2,9.9 C7.69705627,9.9 8.1,10.3029437 8.1,10.8 L8.1,17.1 C8.1,17.5970563 7.69705627,18 7.2,18 L0.9,18 C0.402943725,18 -5.01504649e-17,17.5970563 0,17.1 L0,10.8 C-6.08718376e-17,10.3029437 0.402943725,9.9 0.9,9.9 L7.2,9.9 Z M7.2,0 C7.69705627,-9.13077564e-17 8.1,0.402943725 8.1,0.9 L8.1,7.2 C8.1,7.69705627 7.69705627,8.1 7.2,8.1 L0.9,8.1 C0.402943725,8.1 -5.01504649e-17,7.69705627 0,7.2 L0,0.9 C-6.08718376e-17,0.402943725 0.402943725,-1.97145461e-17 0.9,0 L7.2,0 Z M17.1,0 C17.5970563,-9.13077564e-17 18,0.402943725 18,0.9 L18,7.2 C18,7.69705627 17.5970563,8.1 17.1,8.1 L10.8,8.1 C10.3029437,8.1 9.9,7.69705627 9.9,7.2 L9.9,0.9 C9.9,0.402943725 10.3029437,-1.97145461e-17 10.8,0 L17.1,0 Z" id="path-3"></path>
        <filter x="-38.9%" y="-22.2%" width="177.8%" height="188.9%" filterUnits="objectBoundingBox" id="filter-4">
            <feMorphology radius="1" operator="erode" in="SourceAlpha" result="shadowSpreadOuter1"></feMorphology>
            <feOffset dx="0" dy="5" in="shadowSpreadOuter1" result="shadowOffsetOuter1"></feOffset>
            <feGaussianBlur stdDeviation="2.5" in="shadowOffsetOuter1" result="shadowBlurOuter1"></feGaussianBlur>
            <feColorMatrix values="0 0 0 0 0.370402009   0 0 0 0 0.404171803   0 0 0 0 0.529602466  0 0 0 1 0" type="matrix" in="shadowBlurOuter1"></feColorMatrix>
        </filter>
        <rect id="path-5" x="9.9" y="9.9" width="8.1" height="8.1" rx="0.9"></rect>
        <filter x="-86.4%" y="-49.4%" width="272.8%" height="297.5%" filterUnits="objectBoundingBox" id="filter-6">
            <feMorphology radius="1" operator="erode" in="SourceAlpha" result="shadowSpreadOuter1"></feMorphology>
            <feOffset dx="0" dy="5" in="shadowSpreadOuter1" result="shadowOffsetOuter1"></feOffset>
            <feGaussianBlur stdDeviation="2.5" in="shadowOffsetOuter1" result="shadowBlurOuter1"></feGaussianBlur>
            <feColorMatrix values="0 0 0 0 0.370402009   0 0 0 0 0.404171803   0 0 0 0 0.529602466  0 0 0 1 0" type="matrix" in="shadowBlurOuter1"></feColorMatrix>
        </filter>
    </defs>
    <g id="定稿" stroke="none" stroke-width="1" fill="none" fill-rule="evenodd">
        <g id="我要休假" transform="translate(-180.000000, -468.000000)">
            <g id="mk_控件备份-7" transform="translate(160.000000, 450.000000)">
                <g id="编组" transform="translate(20.000000, 18.000000)">
                    <g id="编组-4备份" fill="url(#linearGradient-1)">
                        <rect id="矩形" x="0" y="0" width="40" height="40" rx="10"></rect>
                    </g>
                    <g id="编组-7" transform="translate(11.000000, 11.000000)">
                        <g id="Combined-Shape">
                            <use fill="black" fill-opacity="1" filter="url(#filter-4)" xlink:href="#path-3"></use>
                            <use fill="url(#linearGradient-2)" fill-rule="evenodd" xlink:href="#path-3"></use>
                        </g>
                        <g id="Rectangle-4-Copy-3" opacity="0.600000024">
                            <use fill="black" fill-opacity="1" filter="url(#filter-6)" xlink:href="#path-5"></use>
                            <use fill="url(#linearGradient-2)" fill-rule="evenodd" xlink:href="#path-5"></use>
                        </g>
                    </g>
                </g>
            </g>
        </g>
    </g>
</svg>