<?xml version="1.0" encoding="UTF-8"?>
<svg width="40px" height="40px" viewBox="0 0 40 40" version="1.1" xmlns="http://www.w3.org/2000/svg" xmlns:xlink="http://www.w3.org/1999/xlink">
    <defs>
        <linearGradient x1="0%" y1="0%" x2="100%" y2="100%" id="linearGradient-1">
            <stop stop-color="#FFA775" offset="0%"></stop>
            <stop stop-color="#FF6E41" offset="100%"></stop>
        </linearGradient>
        <linearGradient x1="50%" y1="12.9157789%" x2="50%" y2="100%" id="linearGradient-2">
            <stop stop-color="#FFFFFF" stop-opacity="0.798148777" offset="0%"></stop>
            <stop stop-color="#FFFFFF" stop-opacity="0.916839859" offset="58.8012695%"></stop>
            <stop stop-color="#FFFFFF" offset="100%"></stop>
        </linearGradient>
    </defs>
    <g id="页面-1" stroke="none" stroke-width="1" fill="none" fill-rule="evenodd">
        <g id="特殊考勤申请" transform="translate(-750.000000, -180.000000)">
            <g id="mk_控件备份-2" transform="translate(730.000000, 162.000000)">
                <g id="编组" transform="translate(20.000000, 18.000000)">
                    <g id="编组-4备份" fill="url(#linearGradient-1)">
                        <rect id="矩形" x="0" y="0" width="40" height="40" rx="10"></rect>
                    </g>
                    <g transform="translate(20.000000, 20.000000) rotate(-315.000000) translate(-20.000000, -20.000000) translate(10.500000, 8.000000)">
                        <path d="M11.60625,6.82767857 C11.4610714,6.09133929 11.4139286,5.85321429 11.26875,5.11714286 C11.7948214,4.57633929 12.1216071,3.84026786 12.1216071,3.02598214 C12.1216071,1.36767857 10.7772321,0.0233035714 9.11892857,0.0233035714 C7.460625,0.0233035714 6.11625,1.36767857 6.11625,3.02598214 C6.11625,3.84026786 6.44303571,4.57633929 6.969375,5.11714286 L6.631875,6.82767857 C4.87955357,7.67973214 3.63080357,9.40205357 3.44732143,11.4334821 L14.7908036,11.4334821 C14.6073214,9.40205357 13.3585714,7.68 11.60625,6.82767857 Z" id="路径" fill="#FFFFFF" fill-rule="nonzero"></path>
                        <path d="M17.5240179,11.4334821 L0.714107143,11.4334821 C0.334285714,11.4334821 0.0233035714,11.7441964 0.0233035714,12.1242857 L0.0233035714,14.3284821 C0.0233035714,14.7083036 0.334017857,15.0192857 0.714107143,15.0192857 L2.97348214,15.0192857 L2.97348214,17.7771429 C2.97348214,21.2094643 5.75598214,23.9916964 9.18803571,23.9916964 C12.6203571,23.9916964 15.4025893,21.2094643 15.4025893,17.7771429 L15.4025893,15.0192857 L17.5240179,15.0192857 C17.9038393,15.0192857 18.2148214,14.7085714 18.2148214,14.3284821 L18.2148214,12.1242857 C18.2148214,11.7444643 17.9038393,11.4334821 17.5240179,11.4334821 Z M9.18803571,21.4265625 C7.21547174,21.4265625 5.61624215,19.8275687 5.61624215,17.8547689 L5.61624215,15.9373416 C5.61624215,15.3850568 6.0639574,14.9373416 6.61624215,14.9373416 L11.7598293,14.9373416 C12.312114,14.9373416 12.7598293,15.3850568 12.7598293,15.9373416 L12.7598293,17.8547689 L12.7598293,17.8547689 C12.7598293,19.8273329 11.1605997,21.4265625 9.18803571,21.4265625 Z" id="形状" fill="url(#linearGradient-2)" opacity="0.800000012"></path>
                    </g>
                </g>
            </g>
        </g>
    </g>
</svg>