<svg xmlns="http://www.w3.org/2000/svg" width="32" height="32" viewBox="0 0 32 32" fill="none">
  <rect width="32" height="32" rx="8" fill="white"/>
  <path opacity="0.5" fill-rule="evenodd" clip-rule="evenodd" d="M9.56707 25.1224C8.10789 25.1224 6.9209 23.9354 6.9209 22.4762C6.9209 21.0171 8.10789 19.8301 9.56707 19.8301C11.0262 19.8301 12.2132 21.0171 12.2132 22.4762C12.2132 23.9354 11.0262 25.1224 9.56707 25.1224Z" fill="url(#paint0_linear_354_8774)"/>
  <path opacity="0.5" fill-rule="evenodd" clip-rule="evenodd" d="M19.8997 25.1222C18.0928 25.1222 16.6235 23.653 16.6235 21.846C16.6235 20.0391 18.0928 18.5698 19.8997 18.5698C21.7067 18.5698 23.176 20.0391 23.176 21.846C23.176 23.653 21.7067 25.1222 19.8997 25.1222Z" fill="url(#paint1_linear_354_8774)"/>
  <path fill-rule="evenodd" clip-rule="evenodd" d="M11.5024 10.6995L12.2655 13.5467L6.56034 15.0744C6.15712 15.1803 5.9177 15.5961 6.02607 15.9993C6.30077 17.025 6.7796 17.9701 7.44996 18.8143C8.10016 19.6309 8.89401 20.3113 9.81387 20.8355C11.0866 21.5638 12.4978 21.9343 13.9268 21.9343C14.645 21.9343 15.3708 21.8385 16.084 21.647C19.0186 20.8615 21.2215 18.5621 22.0209 15.8637C22.0422 15.8296 22.061 15.7932 22.077 15.7549L23.2993 12.839C23.7 11.957 24.4484 11.2639 25.3582 10.9363C25.7488 10.7952 25.953 10.3617 25.8119 9.96857C25.6707 9.57795 25.2373 9.37381 24.8441 9.51494C23.6943 9.92879 22.7232 10.7537 22.1247 11.8133C22.115 11.7747 22.105 11.736 22.0946 11.6974C22.0417 11.5033 21.9157 11.3395 21.7418 11.2387C21.5679 11.1379 21.3612 11.1102 21.1672 11.1631L19.8308 11.521C19.367 11.1085 18.8506 10.7503 18.2867 10.45C16.3915 9.44193 14.1737 9.20251 12.0367 9.77459C11.6334 9.88044 11.394 10.2963 11.5024 10.6995ZM13.6773 13.1687L14.309 12.9996V10.8248C13.8966 10.8511 13.4806 10.9219 13.067 11.0405L13.6773 13.1687ZM14.7257 12.888L15.7273 12.6198L16.2724 11.0367C15.7745 10.8945 15.2547 10.8176 14.7257 10.8132V12.888ZM16.2127 12.4898L17.649 12.1052L17.8807 11.7743C17.5021 11.5255 17.0952 11.3209 16.6688 11.1654L16.2127 12.4898Z" fill="#FEB32E"/>
  <defs>
    <linearGradient id="paint0_linear_354_8774" x1="4.27473" y1="22.4762" x2="9.56707" y2="27.7686" gradientUnits="userSpaceOnUse">
      <stop stop-color="#FDC557"/>
      <stop offset="1" stop-color="#FEB028"/>
    </linearGradient>
    <linearGradient id="paint1_linear_354_8774" x1="13.3473" y1="21.846" x2="19.8997" y2="28.3985" gradientUnits="userSpaceOnUse">
      <stop stop-color="#FDC557"/>
      <stop offset="1" stop-color="#FEB028"/>
    </linearGradient>
  </defs>
</svg>