<?xml version="1.0" encoding="UTF-8"?>
<svg width="24px" height="24px" viewBox="0 0 24 24" version="1.1" xmlns="http://www.w3.org/2000/svg" xmlns:xlink="http://www.w3.org/1999/xlink">
    <defs>
        <polygon id="path-1" points="0 0 24 0 24 24 0 24"></polygon>
        <circle id="path-3" cx="15" cy="12" r="3"></circle>
        <filter x="-116.7%" y="-83.3%" width="333.3%" height="333.3%" filterUnits="objectBoundingBox" id="filter-4">
            <feOffset dx="0" dy="2" in="SourceAlpha" result="shadowOffsetOuter1"></feOffset>
            <feGaussianBlur stdDeviation="2" in="shadowOffsetOuter1" result="shadowBlurOuter1"></feGaussianBlur>
            <feColorMatrix values="0 0 0 0 0.310588235   0 0 0 0 0.776470588   0 0 0 0 0.372431026  0 0 0 0.2 0" type="matrix" in="shadowBlurOuter1"></feColorMatrix>
        </filter>
        <circle id="path-5" cx="9" cy="5" r="3"></circle>
        <filter x="-116.7%" y="-83.3%" width="333.3%" height="333.3%" filterUnits="objectBoundingBox" id="filter-6">
            <feOffset dx="0" dy="2" in="SourceAlpha" result="shadowOffsetOuter1"></feOffset>
            <feGaussianBlur stdDeviation="2" in="shadowOffsetOuter1" result="shadowBlurOuter1"></feGaussianBlur>
            <feColorMatrix values="0 0 0 0 0.310588235   0 0 0 0 0.776470588   0 0 0 0 0.372431026  0 0 0 0.2 0" type="matrix" in="shadowBlurOuter1"></feColorMatrix>
        </filter>
        <circle id="path-7" cx="9" cy="19" r="3"></circle>
        <filter x="-100.0%" y="-100.0%" width="300.0%" height="300.0%" filterUnits="objectBoundingBox" id="filter-8">
            <feOffset dx="0" dy="0" in="SourceAlpha" result="shadowOffsetOuter1"></feOffset>
            <feGaussianBlur stdDeviation="2" in="shadowOffsetOuter1" result="shadowBlurOuter1"></feGaussianBlur>
            <feColorMatrix values="0 0 0 0 0.310588235   0 0 0 0 0.776470588   0 0 0 0 0.372431026  0 0 0 0.2 0" type="matrix" in="shadowBlurOuter1"></feColorMatrix>
        </filter>
    </defs>
    <g id="页面-1" stroke="none" stroke-width="1" fill="none" fill-rule="evenodd">
        <g id="个人考勤页面Hover样式" transform="translate(-943.000000, -1260.000000)">
            <g id="编组-20" transform="translate(130.000000, 1162.000000)">
                <g id="编组-5备份-4" transform="translate(600.000000, 72.000000)">
                    <g id="编组-26" transform="translate(213.000000, 26.000000)">
                        <mask id="mask-2" fill="white">
                            <use xlink:href="#path-1"></use>
                        </mask>
                        <g id="路径"></g>
                        <path d="M22,5 C22,5.55228475 21.5522847,6 21,6 L3,6 C2.44771525,6 2,5.55228475 2,5 C2,4.44771525 2.44771525,4 3,4 L21,4 C21.5522847,4 22,4.44771525 22,5 Z" id="路径备份" fill="#FFFFFF" opacity="0.699999988" mask="url(#mask-2)"></path>
                        <path d="M22,12 C22,12.5522847 21.5522847,13 21,13 L3,13 C2.44771525,13 2,12.5522847 2,12 C2,11.4477153 2.44771525,11 3,11 L21,11 C21.5522847,11 22,11.4477153 22,12 Z" id="路径备份-2" fill="#FFFFFF" opacity="0.699999988" mask="url(#mask-2)"></path>
                        <path d="M22,19 C22,19.5522847 21.5522847,20 21,20 L3,20 C2.44771525,20 2,19.5522847 2,19 C2,18.4477153 2.44771525,18 3,18 L21,18 C21.5522847,18 22,18.4477153 22,19 Z" id="路径备份-3" fill="#FFFFFF" opacity="0.699999988" mask="url(#mask-2)"></path>
                        <g id="椭圆形" mask="url(#mask-2)">
                            <use fill="black" fill-opacity="1" filter="url(#filter-4)" xlink:href="#path-3"></use>
                            <use fill="#FFFFFF" fill-rule="evenodd" xlink:href="#path-3"></use>
                        </g>
                        <g id="椭圆形备份" mask="url(#mask-2)">
                            <use fill="black" fill-opacity="1" filter="url(#filter-6)" xlink:href="#path-5"></use>
                            <use fill="#FFFFFF" fill-rule="evenodd" xlink:href="#path-5"></use>
                        </g>
                        <g id="椭圆形备份-2" mask="url(#mask-2)">
                            <use fill="black" fill-opacity="1" filter="url(#filter-8)" xlink:href="#path-7"></use>
                            <use fill="#FFFFFF" fill-rule="evenodd" xlink:href="#path-7"></use>
                        </g>
                    </g>
                </g>
            </g>
        </g>
    </g>
</svg>