<?xml version="1.0" encoding="UTF-8"?>
<svg width="14px" height="14px" viewBox="0 0 14 14" version="1.1" xmlns="http://www.w3.org/2000/svg" xmlns:xlink="http://www.w3.org/1999/xlink">
    <title></title>
    <g id="定稿" stroke="none" stroke-width="1" fill="none" fill-rule="evenodd">
        <g id="个人考勤页面" transform="translate(-1178.000000, -393.000000)">
            <g id="编组-14" transform="translate(130.000000, 362.000000)">
                <g id="编组-8备份-2" transform="translate(1048.000000, 30.000000)">
                    <g id="编组" transform="translate(0.000000, 1.000000)">
                        <polygon id="路径" points="0 0 14 0 14 14 0 14"></polygon>
                        <path d="M7,13 C3.6862,13 1,10.3138 1,7 C1,3.6862 3.6862,1 7,1 C10.3138,1 13,3.6862 13,7 C13,10.3138 10.3138,13 7,13 Z M7,11.8 C9.6509668,11.8 11.8,9.6509668 11.8,7 C11.8,4.3490332 9.6509668,2.2 7,2.2 C4.3490332,2.2 2.2,4.3490332 2.2,7 C2.2,9.6509668 4.3490332,11.8 7,11.8 Z M6.4,8.8 L7.6,8.8 L7.6,10 L6.4,10 L6.4,8.8 Z M7.6,7.813 L7.6,8.2 L6.4,8.2 L6.4,7.3 C6.4,6.96862915 6.66862915,6.7 7,6.7 C7.47409083,6.69997024 7.86686727,6.33217037 7.89800077,5.85910291 C7.92913427,5.38603545 7.58794804,4.96993206 7.11795018,4.90776997 C6.64795232,4.84560788 6.2103218,5.15870468 6.1174,5.6236 L4.9402,5.3878 C5.14209133,4.37874659 6.04524952,3.66451207 7.07366852,3.70061287 C8.10208751,3.73671368 8.95294049,4.51251963 9.08358004,5.53324594 C9.21421959,6.55397226 8.58617777,7.51905729 7.6,7.813 L7.6,7.813 Z" id="形状" fill="currentColor" fill-rule="nonzero"></path>
                    </g>
                </g>
            </g>
        </g>
    </g>
</svg>