<svg xmlns="http://www.w3.org/2000/svg" width="32" height="32" viewBox="0 0 32 32" fill="none">
  <rect width="32" height="32" rx="8" fill="white"/>
  <rect opacity="0.6" x="7.6665" y="11.1755" width="3.50877" height="2.63158" rx="1.31579" fill="url(#paint0_linear_354_8740)"/>
  <rect opacity="0.6" x="20.8242" y="11.1755" width="3.50877" height="2.63158" rx="1.31579" fill="url(#paint1_linear_354_8740)"/>
  <path fill-rule="evenodd" clip-rule="evenodd" d="M13.3907 7.66675C11.3735 7.66675 9.67185 9.16889 9.42163 11.1706L8.98242 14.6843H23.0175L22.5783 11.1706C22.3281 9.16889 20.6265 7.66675 18.6092 7.66675H13.3907ZM13.8427 9.85973C12.8236 9.85973 11.9675 10.626 11.8549 11.6389L11.7127 12.9188C11.6601 13.3926 12.031 13.8071 12.5078 13.8071H19.4921C19.9689 13.8071 20.3399 13.3926 20.2872 12.9188L20.145 11.6389C20.0325 10.626 19.1763 9.85973 18.1572 9.85973H13.8427Z" fill="#06C6F8"/>
  <path fill-rule="evenodd" clip-rule="evenodd" d="M7.6665 17.6568C7.6665 16.596 8.08793 15.5786 8.83808 14.8284L9.42089 14.2456H22.5782L23.1611 14.8283C23.9115 15.5785 24.3332 16.5962 24.3332 17.6573V22.1377C24.3332 22.1386 24.3332 22.1395 24.3332 22.1403C24.3332 23.1093 23.5477 23.8947 22.5788 23.8947C21.6099 23.8947 20.8244 23.1093 20.8244 22.1403H11.1753C11.1753 23.1093 10.3898 23.8947 9.42089 23.8947C8.45197 23.8947 7.6665 23.1093 7.6665 22.1403V17.6568ZM12.9297 17.7544C12.9297 18.4811 12.3406 19.0702 11.6139 19.0702C10.8872 19.0702 10.2981 18.4811 10.2981 17.7544C10.2981 17.0277 10.8872 16.4386 11.6139 16.4386C12.3406 16.4386 12.9297 17.0277 12.9297 17.7544ZM20.3858 19.0702C21.1125 19.0702 21.7016 18.4811 21.7016 17.7544C21.7016 17.0277 21.1125 16.4386 20.3858 16.4386C19.6591 16.4386 19.07 17.0277 19.07 17.7544C19.07 18.4811 19.6591 19.0702 20.3858 19.0702Z" fill="#06C6F8"/>
  <defs>
    <linearGradient id="paint0_linear_354_8740" x1="7.6665" y1="11.1755" x2="7.6665" y2="13.8071" gradientUnits="userSpaceOnUse">
      <stop stop-color="#07D4FA"/>
      <stop offset="1" stop-color="#03A9F4"/>
    </linearGradient>
    <linearGradient id="paint1_linear_354_8740" x1="20.8242" y1="11.1755" x2="20.8242" y2="13.8071" gradientUnits="userSpaceOnUse">
      <stop stop-color="#07D4FA"/>
      <stop offset="1" stop-color="#03A9F4"/>
    </linearGradient>
  </defs>
</svg>