<?xml version="1.0" encoding="UTF-8"?>
<svg width="24px" height="24px" viewBox="0 0 24 24" version="1.1" xmlns="http://www.w3.org/2000/svg" xmlns:xlink="http://www.w3.org/1999/xlink">
    <defs>
        <rect id="path-1" x="0" y="0" width="24" height="24"></rect>
    </defs>
    <g id="页面-1" stroke="none" stroke-width="1" fill="none" fill-rule="evenodd">
        <g id="个人考勤页面Hover样式" transform="translate(-373.000000, -1406.000000)">
            <g id="编组-20" transform="translate(130.000000, 1162.000000)">
                <g id="编组-5备份-2" transform="translate(30.000000, 218.000000)">
                    <g id="编组-2" transform="translate(213.000000, 26.000000)">
                        <mask id="mask-2" fill="white">
                            <use xlink:href="#path-1"></use>
                        </mask>
                        <g id="矩形" transform="translate(12.000000, 12.000000) rotate(-360.000000) translate(-12.000000, -12.000000) "></g>
                        <g id="编组" mask="url(#mask-2)" fill="#FFFFFF">
                            <g transform="translate(11.760408, 12.414986) rotate(-675.000000) translate(-11.760408, -12.414986) translate(4.260408, 0.914986)">
                                <rect id="矩形" opacity="0.75" transform="translate(7.500000, 17.970563) rotate(-360.000000) translate(-7.500000, -17.970563) " x="6" y="12.9705627" width="3" height="10" rx="1"></rect>
                                <path d="M7.5,0 C11.6421356,0 15,3.35786438 15,7.5 C15,11.6421356 11.6421356,15 7.5,15 C3.35786438,15 0,11.6421356 0,7.5 C0,3.35786438 3.35786438,0 7.5,0 Z M7.5,4 C5.56700338,4 4,5.56700338 4,7.5 C4,9.43299662 5.56700338,11 7.5,11 C9.43299662,11 11,9.43299662 11,7.5 C11,5.56700338 9.43299662,4 7.5,4 Z" id="椭圆形" transform="translate(7.500000, 7.500000) rotate(-360.000000) translate(-7.500000, -7.500000) "></path>
                                <rect id="矩形备份-15" transform="translate(7.500000, 18.117009) rotate(-270.000000) translate(-7.500000, -18.117009) " x="6" y="12.1170094" width="3" height="12" rx="1"></rect>
                            </g>
                        </g>
                    </g>
                </g>
            </g>
        </g>
    </g>
</svg>