<?xml version="1.0" encoding="UTF-8"?>
<svg width="20px" height="20px" viewBox="0 0 20 20" version="1.1" xmlns="http://www.w3.org/2000/svg" xmlns:xlink="http://www.w3.org/1999/xlink">
    <title></title>
    <defs>
        <linearGradient x1="50%" y1="0%" x2="50%" y2="100%" id="linearGradient-1">
            <stop stop-color="#ffffff" offset="0%"></stop>
            <stop stop-color="#ffffff" offset="100%"></stop>
        </linearGradient>
    </defs>
    <g id="定稿" stroke="none" stroke-width="1" fill="none" fill-rule="evenodd">
        <g id="个人考勤页面" transform="translate(-916.000000, -240.000000)">
            <g id="头部" transform="translate(130.000000, 68.000000)">
                <g id="编组-16备份" transform="translate(764.000000, 150.000000)">
                    <g id="编组-12" transform="translate(16.000000, 16.000000)">
                        <g id="编组-2" transform="translate(6.000000, 6.000000)">
                            <rect id="矩形" x="0" y="0" width="20" height="20"></rect>
                            <g id="编组" transform="translate(1.666667, 1.666667)">
                                <rect id="矩形" fill="url(#linearGradient-1)" opacity="0.600000024" x="0" y="3.50877193" width="3.50877193" height="2.63157895" rx="1.31578947"></rect>
                                <rect id="矩形备份-2" fill="url(#linearGradient-1)" opacity="0.600000024" x="13.1578947" y="3.50877193" width="3.50877193" height="2.63157895" rx="1.31578947"></rect>
                                <path d="M10.9425553,0 C12.9598484,5.17607693e-16 14.6614524,1.50214577 14.9116668,3.50386106 L15.3508772,7.01754386 L1.31578947,7.01754386 L1.75499982,3.50386106 C2.00521423,1.50214577 3.70681825,1.25874915e-15 5.72411133,0 L10.9425553,0 Z M10.4906162,2.19298246 L6.1760505,2.19298246 C5.15695206,2.19298246 4.30082362,2.95925404 4.18828303,3.9721194 L4.18828303,3.9721194 L4.04607345,5.25200566 C4.04281394,5.28134125 4.04118043,5.31083475 4.04118043,5.34035088 C4.04118043,5.78217868 4.39935263,6.14035088 4.84118043,6.14035088 L4.84118043,6.14035088 L11.8254862,6.14035088 C11.8550024,6.14035088 11.8844959,6.13871738 11.9138315,6.13545786 C12.3529569,6.08666615 12.6693849,5.69113112 12.6205932,5.25200566 L12.6205932,5.25200566 L12.4783836,3.9721194 C12.365843,2.95925404 11.5097146,2.19298246 10.4906162,2.19298246 L10.4906162,2.19298246 Z" id="形状结合" fill="#ffffff"></path>
                                <path d="M14.9116469,6.57894737 L15.4945829,7.16167288 C16.245041,7.91185988 16.6666667,8.92949448 16.6666667,9.99061077 L16.6666667,14.4736842 C16.6666667,15.4426048 15.8812013,16.2280702 14.9122807,16.2280702 C13.9433601,16.2280702 13.1578947,15.4426048 13.1578947,14.4736842 L13.1578947,14.4736842 L3.50877193,14.4736842 C3.50877193,15.4426048 2.72330658,16.2280702 1.75438596,16.2280702 C0.785465351,16.2280702 0,15.4426048 0,14.4736842 L0,14.4736842 L0,9.99018758 C1.64643823e-15,8.92932162 0.421427361,7.91190597 1.17157288,7.16176046 L1.75438596,6.57894737 L14.9116469,6.57894737 Z M3.94736842,8.77192982 C3.22067796,8.77192982 2.63157895,9.36102884 2.63157895,10.0877193 C2.63157895,10.8144098 3.22067796,11.4035088 3.94736842,11.4035088 C4.67405888,11.4035088 5.26315789,10.8144098 5.26315789,10.0877193 C5.26315789,9.36102884 4.67405888,8.77192982 3.94736842,8.77192982 Z M12.7192982,8.77192982 C11.9926078,8.77192982 11.4035088,9.36102884 11.4035088,10.0877193 C11.4035088,10.8144098 11.9926078,11.4035088 12.7192982,11.4035088 C13.4459887,11.4035088 14.0350877,10.8144098 14.0350877,10.0877193 C14.0350877,9.36102884 13.4459887,8.77192982 12.7192982,8.77192982 Z" id="形状结合" fill="#ffffff"></path>
                            </g>
                        </g>
                    </g>
                </g>
            </g>
        </g>
    </g>
</svg>