<?xml version="1.0" encoding="UTF-8"?>
<svg width="40px" height="40px" viewBox="0 0 40 40" version="1.1" xmlns="http://www.w3.org/2000/svg" xmlns:xlink="http://www.w3.org/1999/xlink">
    <defs>
        <linearGradient x1="50%" y1="0%" x2="50%" y2="100%" id="linearGradient-1">
            <stop stop-color="#07D4FA" offset="0%"></stop>
            <stop stop-color="#03A9F4" offset="100%"></stop>
        </linearGradient>
        <linearGradient x1="50%" y1="12.9157789%" x2="50%" y2="100%" id="linearGradient-2">
            <stop stop-color="#FFFFFF" stop-opacity="0.798148777" offset="0%"></stop>
            <stop stop-color="#FFFFFF" stop-opacity="0.916839859" offset="58.8012695%"></stop>
            <stop stop-color="#FFFFFF" offset="100%"></stop>
        </linearGradient>
    </defs>
    <g id="定稿" stroke="none" stroke-width="1" fill="none" fill-rule="evenodd">
        <g id="特殊考勤申请" transform="translate(-1037.000000, -180.000000)">
            <g id="mk_控件备份-3" transform="translate(1017.000000, 162.000000)">
                <g id="编组" transform="translate(20.000000, 18.000000)">
                    <g id="编组-4" fill="url(#linearGradient-1)">
                        <rect id="矩形" x="0" y="0" width="40" height="40" rx="10"></rect>
                    </g>
                    <g transform="translate(7.000000, 7.000000)">
                        <polygon id="路径" points="0 0 26 0 26 26 0 26"></polygon>
                        <path d="M11.9166667,2.16666667 C16.3236667,2.16666667 19.9615,5.45566667 20.5118333,9.71208333 L22.9493333,13.546 C23.1096667,13.7984167 23.0771667,14.1743333 22.7055833,14.3346667 L20.5833333,15.2425 L20.5833333,18.4166667 C20.5833333,19.61375 19.61375,20.5833333 18.4166667,20.5833333 L16.2510833,20.5833333 L16.25,23.8333333 L6.5,23.8333333 L6.5,19.8315 C6.5,18.5531667 6.02766667,17.3430833 5.15233333,16.2510833 C3.96175,14.7669167 3.25,12.883 3.25,10.8333333 C3.25,6.04716667 7.1305,2.16666667 11.9166667,2.16666667 Z M11.9166667,7.58333333 C11.3186667,7.58333333 10.8333333,8.06866667 10.8333333,8.66666667 L10.8333333,9.74891667 L9.75,9.75 C9.152,9.75 8.66666667,10.2353333 8.66666667,10.8333333 C8.66666667,11.4313333 9.152,11.9166667 9.75,11.9166667 L10.8333333,11.9155833 L10.8333333,13 C10.8333333,13.598 11.3186667,14.0833333 11.9166667,14.0833333 C12.5146667,14.0833333 13,13.598 13,13 L13,11.9166667 L14.0833333,11.9166667 C14.6813333,11.9166667 15.1666667,11.4313333 15.1666667,10.8333333 C15.1666667,10.2353333 14.6813333,9.75 14.0833333,9.75 L13,9.75 L13,8.66666667 C13,8.06866667 12.5146667,7.58333333 11.9166667,7.58333333 Z" id="形状" fill="url(#linearGradient-2)"></path>
                    </g>
                </g>
            </g>
        </g>
    </g>
</svg>