<?xml version="1.0" encoding="UTF-8"?>
<svg width="28px" height="28px" viewBox="0 0 28 28" version="1.1" xmlns="http://www.w3.org/2000/svg" xmlns:xlink="http://www.w3.org/1999/xlink">
    <title></title>
    <defs>
        <linearGradient x1="50%" y1="0%" x2="50%" y2="100%" id="linearGradient-1">
            <stop stop-color="#66D7FF" offset="0%"></stop>
            <stop stop-color="#4CB9F6" offset="100%"></stop>
        </linearGradient>
    </defs>
    <g id="页面-1" stroke="none" stroke-width="1" fill="none" fill-rule="evenodd">
        <g id="个人考勤详情页面备份" transform="translate(-160.000000, -914.000000)">
            <g id="编组-23" transform="translate(130.000000, 890.000000)">
                <g id="编组-13" transform="translate(30.000000, 24.000000)">
                    <g id="ICON/绩效成绩">
                        <rect id="矩形" x="0" y="0" width="28" height="28"></rect>
                        <g id="编组-15" transform="translate(2.000000, 2.000000)">
                            <rect id="矩形" fill="url(#linearGradient-1)" x="0" y="0" width="22" height="22" rx="5"></rect>
                            <rect id="矩形" fill="#FFFFFF" transform="translate(5.853553, 13.146447) rotate(-90.000000) translate(-5.853553, -13.146447) " x="2.85355339" y="11.6464466" width="6" height="3" rx="1"></rect>
                            <rect id="矩形备份-9" fill="#FFFFFF" transform="translate(10.853553, 11.146447) rotate(-90.000000) translate(-10.853553, -11.146447) " x="5.85355339" y="9.64644661" width="10" height="3" rx="1"></rect>
                            <rect id="矩形备份-11" fill="#FFFFFF" transform="translate(15.853553, 12.146447) rotate(-90.000000) translate(-15.853553, -12.146447) " x="11.8535534" y="10.6464466" width="8" height="3" rx="1"></rect>
                        </g>
                    </g>
                    <rect id="矩形" fill="#9AD8FF" x="17" y="17" width="10" height="10" rx="3"></rect>
                    <path d="M24,17 L24,19 C24,21.7614237 21.7614237,24 19,24 L17,24 L17,20 C17,18.3431458 18.3431458,17 20,17 L24,17 Z" id="形状结合" fill="#42A8FC"></path>
                </g>
            </g>
        </g>
    </g>
</svg>