<?xml version="1.0" encoding="UTF-8"?><svg version="1.1" width="12px" height="12px" viewBox="0 0 12.0 12.0" xmlns="http://www.w3.org/2000/svg" xmlns:xlink="http://www.w3.org/1999/xlink"><defs><clipPath id="i0"><path d="M1440,0 L1440,900 L0,900 L0,0 L1440,0 Z"></path></clipPath><clipPath id="i1"><path d="M3.74446031,0.146446876 L4.09802034,0.5 C4.29328036,0.695261881 4.29328036,1.01183988 4.09802034,1.20710989 L1.91796014,3.38715991 L4.03554033,5.50473992 C4.23080035,5.70000993 4.23080035,6.01658993 4.03554033,6.21184993 L3.6819803,6.56540993 C3.48672028,6.76066994 3.17014025,6.76066994 2.97488023,6.56540993 L0.146446976,3.73696991 C-0.048815142,3.54170991 -0.048815842,3.2251299 0.146445976,3.0298599 L0.5,2.6763099 C0.51754701,2.6587599 0.536072012,2.6427899 0.555401013,2.6283999 L3.03736024,0.146446876 C3.23262026,-0.0488156254 3.54920029,-0.0488156254 3.74446031,0.146446876 Z"></path></clipPath></defs><g transform="translate(-1184.0 -839.0)"><g clip-path="url(#i0)"><g transform="translate(1170.0 828.0)"><g transform="translate(14.0 7.0)"><g transform="translate(0.0 4.0)"><g transform="translate(3.660000000000025 2.658847920843982)"><g clip-path="url(#i1)"><polygon points="2.77555756e-17,0 4.24446535,0 4.24446535,6.71185493 2.77555756e-17,6.71185493 2.77555756e-17,0" stroke="none" fill="currentColor"></polygon></g></g></g></g></g></g></g></svg>