<?xml version="1.0" encoding="UTF-8"?><svg version="1.1" width="18px" height="19px" viewBox="0 0 18.0 19.0" xmlns="http://www.w3.org/2000/svg" xmlns:xlink="http://www.w3.org/1999/xlink"><defs><clipPath id="i0"><path d="M9,0 C13.9705627,-9.13077564e-16 18,4.02943725 18,9 C18,13.9705627 13.9705627,18 9,18 C4.02943725,18 6.08718376e-16,13.9705627 0,9 C-6.08718376e-16,4.02943725 4.02943725,9.13077564e-16 9,0 Z"></path></clipPath><linearGradient id="i1" x1="9px" y1="0px" x2="9px" y2="18px" gradientUnits="userSpaceOnUse"><stop stop-color="#FF90A8" offset="0%"></stop><stop stop-color="#F94F70" offset="100%"></stop></linearGradient><clipPath id="i2"><path d="M2.41541195,0.159085682 C2.63611398,-0.0552568713 2.98802353,-0.0526849034 3.20556906,0.164860628 C3.42311459,0.38240616 3.42568656,0.734315707 3.21134401,0.955017738 L1.92079074,2.24557102 L4.50207317,2.24557102 C6.36429036,2.245571 7.87928767,3.76056831 7.87928767,5.6227855 C7.87928767,7.48500269 6.36429034,9 4.50207317,9 L1.68772775,9 C1.37686374,9 1.12485867,8.74799493 1.12485867,8.43713092 C1.12485867,8.12626691 1.37686374,7.87426183 1.68772775,7.87426183 L4.50207317,7.87426183 C5.74552921,7.87426183 6.7535495,6.86624154 6.7535495,5.6227855 C6.7535495,4.37932946 5.74552921,3.37130917 4.50207317,3.37130917 L1.92096664,3.37130917 L3.21134401,4.66203835 C3.43118315,4.88182892 3.43122252,5.23821921 3.21143196,5.45805835 C2.99164139,5.67789749 2.63525109,5.67793687 2.41541195,5.4581463 L0.163935619,3.20666997 C0.157368807,3.20010317 0.150977897,3.19336046 0.144762888,3.18644186 L0.136319853,3.17676755 L0.126821427,3.16568607 C0.12330351,3.16146455 0.119961472,3.15724303 0.116619434,3.15284562 L0.109935358,3.14422669 C0.106241546,3.13947747 0.102899508,3.13472826 0.0995574701,3.12980316 C0.0905867485,3.11678682 0.0874206063,3.1116858 0.084254464,3.10658481 C0.0763390996,3.09356847 0.0733488708,3.08846745 0.0705345202,3.08336646 L0.0656094198,3.07457163 C0.0631468608,3.06964651 0.0606843195,3.06489731 0.0582217605,3.05997221 L0.0531207643,3.04959432 C0.0511859104,3.04519691 0.0488992472,3.04027181 0.0471402891,3.03622618 L0.0418633795,3.0240893 L0.0371141749,3.01212833 C0.0353552168,3.00737913 0.0330685536,3.00139866 0.0318372829,2.99788072 C0.0306060123,2.99436279 0.0300783072,2.99260381 0.0283193491,2.98732692 L0.0232183529,2.97149623 C0.01882094,2.95619324 0.0172378601,2.95038864 0.0158306936,2.94458406 C0.0124886555,2.93016053 0.0110814714,2.92418004 0.0098502007,2.91819957 C0.00721174589,2.90360014 0.00650816265,2.8949812 0.00527689197,2.89163917 C0.0040456213,2.88829715 0.00474922219,2.88776947 0.0040456213,2.88143718 C0.00334202041,2.8751049 0.0031661246,2.86842082 0.00211074973,2.86384751 C0.00105537487,2.8592742 0.00211074973,2.85470091 0.00105537487,2.85012759 C0,2.84555426 0,2.84098095 0,2.83640764 L0.000527687433,2.77396436 C0.00211074973,2.76253108 0.00158304465,2.75971675 0.00211074973,2.75338447 C0.00263845481,2.74705218 0.00281435062,2.73913682 0.0040456213,2.7357948 C0.00527689197,2.73245278 0.00439741292,2.73122151 0.00527689197,2.72559281 C0.00615637103,2.7199641 0.00721176354,2.71398361 0.00826713841,2.70800314 L0.0137199262,2.68144276 C0.0174137559,2.66649155 0.0197004014,2.6580485 0.0205798981,2.65505827 C0.0214593948,2.65206804 0.0216352906,2.65101265 0.0232183529,2.64573575 C0.0248014152,2.64045886 0.0272639742,2.633423 0.0283193491,2.62990506 C0.0293747239,2.62638713 0.0302542207,2.62427636 0.0318372829,2.61935126 C0.0334203452,2.61442616 0.0355311126,2.60914927 0.0371141749,2.60510365 L0.0418633795,2.59314268 L0.0471402891,2.58100581 L0.0531207643,2.56763766 L0.0582217605,2.55725977 C0.0605084237,2.55233466 0.062970965,2.54740956 0.0656094198,2.54266035 L0.0705345202,2.53386552 C0.0733488884,2.52876453 0.0763391172,2.52366351 0.0793293637,2.51856252 L0.0891795577,2.50299567 L0.0995574701,2.48742882 L0.109935358,2.47300529 L0.116619434,2.46438636 C0.119961455,2.46016484 0.123303493,2.45576743 0.126821427,2.45154591 L0.136319853,2.44046443 L0.144762888,2.43079012 C0.150977908,2.42387152 0.157368819,2.41712881 0.163935619,2.41056201 Z"></path></clipPath></defs><g transform="translate(0.0 0.5)"><g clip-path="url(#i0)"><polygon points="0,0 18,0 18,18 0,18 0,0" stroke="none" fill="url(#i1)"></polygon></g><g transform="translate(5.060356166557387 4.5)"><g clip-path="url(#i2)"><polygon points="0,2.49800181e-16 7.87928767,2.49800181e-16 7.87928767,9 0,9 0,2.49800181e-16" stroke="none" fill="#FFFFFF"></polygon></g></g></g></svg>