<?xml version="1.0" encoding="UTF-8"?><svg version="1.1" width="18px" height="19px" viewBox="0 0 18.0 19.0" xmlns="http://www.w3.org/2000/svg" xmlns:xlink="http://www.w3.org/1999/xlink"><defs><clipPath id="i0"><path d="M9,0 C13.9705627,-9.13077564e-16 18,4.02943725 18,9 C18,13.9705627 13.9705627,18 9,18 C4.02943725,18 6.08718376e-16,13.9705627 0,9 C-6.08718376e-16,4.02943725 4.02943725,9.13077564e-16 9,0 Z"></path></clipPath><linearGradient id="i1" x1="9px" y1="0px" x2="9px" y2="18px" gradientUnits="userSpaceOnUse"><stop stop-color="#82D6FF" offset="0%"></stop><stop stop-color="#4FB6FF" offset="100%"></stop></linearGradient><clipPath id="i2"><path d="M9.79225629,0.20660558 C9.99024099,0.404590286 10.0525003,0.700944751 9.95039502,0.962433986 L6.59586169,9.51686751 C6.48254969,9.8107316 6.20611822,10 5.89233114,10 C5.56609219,9.99626444 5.28966071,9.80077011 5.18008427,9.50192527 L4.33460241,7.1921037 C4.07435836,6.4823472 3.51775985,5.92574869 2.80800336,5.66550464 L0.498181786,4.82002279 C0.199336947,4.71044634 0.00384261486,4.43526006 5.27503665e-05,4.11649223 C-0.00362850612,3.79896959 0.185639892,3.51880255 0.481994358,3.40175499 L9.03642788,0.0484668524 C9.29791712,-0.0536384677 9.59427158,0.00862087385 9.79225629,0.20660558 Z M8.99035597,1.00975109 L1.09587147,4.10528555 L3.10933857,4.84243615 C4.06315168,5.19108846 4.81026378,5.93820056 5.15891609,6.89076848 L5.8960667,8.90423559 L8.99035597,1.00975109 Z"></path></clipPath></defs><g transform="translate(0.0 0.3441931761228716)"><g clip-path="url(#i0)"><polygon points="0,0 18,0 18,18 0,18 0,0" stroke="none" fill="url(#i1)"></polygon></g><g transform="translate(3.0005690662331164 4.4330479999998715)"><g clip-path="url(#i2)"><polygon points="3.86070841e-16,1.38777878e-17 9.99886187,1.38777878e-17 9.99886187,10 3.86070841e-16,10 3.86070841e-16,1.38777878e-17" stroke="none" fill="#FFFFFF"></polygon></g><path d="M5.89233114,10 L5.88361483,10 C5.56609219,9.99626444 5.28966071,9.80077011 5.18008427,9.50192527 L4.33460241,7.1921037 C4.07435836,6.4823472 3.51775985,5.92574869 2.80800336,5.66550464 L0.498181786,4.82002279 C0.199336947,4.71044634 0.00384261486,4.43526006 5.27503665e-05,4.11649223 C-0.00362850612,3.79896959 0.185639892,3.51880255 0.481994358,3.40175499 L9.03642788,0.0484668524 C9.29791712,-0.0536384677 9.59427158,0.00862087385 9.79225629,0.20660558 C9.99024099,0.404590286 10.0525003,0.700944751 9.95039502,0.962433986 L6.59586169,9.51686751 C6.48254969,9.8107316 6.20611822,10 5.89233114,10 Z M1.09587147,4.10528555 L3.10933857,4.84243615 C4.06315168,5.19108846 4.81026378,5.93820056 5.15891609,6.89076848 L5.8960667,8.90423559 L8.99035597,1.00975109 L1.09587147,4.10528555 Z" stroke="#FFFFFF" stroke-width="0.4" fill="none" stroke-miterlimit="10"></path></g></g></svg>