<?xml version="1.0" encoding="UTF-8"?><svg version="1.1" width="18px" height="18px" viewBox="0 0 18.0 18.0" xmlns="http://www.w3.org/2000/svg" xmlns:xlink="http://www.w3.org/1999/xlink"><defs><clipPath id="i0"><path d="M9,0 C13.9705627,-9.13077564e-16 18,4.02943725 18,9 C18,13.9705627 13.9705627,18 9,18 C4.02943725,18 6.08718376e-16,13.9705627 0,9 C-6.08718376e-16,4.02943725 4.02943725,9.13077564e-16 9,0 Z"></path></clipPath><linearGradient id="i1" x1="1.96110764px" y1="0px" x2="14.9548243px" y2="16.2649968px" gradientUnits="userSpaceOnUse"><stop stop-color="#FDCF53" offset="0%"></stop><stop stop-color="#FDA037" offset="100%"></stop></linearGradient><clipPath id="i2"><path d="M1.25,0 C1.94035594,0 2.5,0.559644063 2.5,1.25 C2.5,1.94035594 1.94035594,2.5 1.25,2.5 C0.559644063,2.5 0,1.94035594 0,1.25 C0,0.559644063 0.559644063,0 1.25,0 Z"></path></clipPath></defs><g clip-path="url(#i0)"><polygon points="0,0 18,0 18,18 0,18 0,0" stroke="none" fill="url(#i1)"></polygon></g><g transform="translate(3.2171635147051347 7.75)"><g clip-path="url(#i2)"><polygon points="0,0 2.5,0 2.5,2.5 0,2.5 0,0" stroke="none" fill="#FFFFFF"></polygon></g><g transform="translate(4.532836485294865 0.0)"><g clip-path="url(#i2)"><polygon points="0,0 2.5,0 2.5,2.5 0,2.5 0,0" stroke="none" fill="#FFFFFF"></polygon></g></g><g transform="translate(9.06567297058973 0.0)"><g clip-path="url(#i2)"><polygon points="0,0 2.5,0 2.5,2.5 0,2.5 0,0" stroke="none" fill="#FFFFFF"></polygon></g></g></g></svg>