<svg width="14" height="14" viewBox="0 0 14 14" fill="none" xmlns="http://www.w3.org/2000/svg">
<g id="Frame" clip-path="url(#clip0_501_7170)">
<path id="Vector" d="M7.00034 1.75C10.1457 1.75 12.7626 4.01319 13.3112 7C12.7626 9.98678 10.1457 12.25 7.00034 12.25C3.8549 12.25 1.23808 9.98678 0.689453 7C1.23808 4.01319 3.8549 1.75 7.00034 1.75ZM7.00034 11.0833C9.47111 11.0833 11.5853 9.36367 12.1205 7C11.5853 4.63635 9.47111 2.91667 7.00034 2.91667C4.52951 2.91667 2.41529 4.63635 1.88012 7C2.41529 9.36367 4.52951 11.0833 7.00034 11.0833ZM7.00034 9.625C5.55057 9.625 4.37531 8.44976 4.37531 7C4.37531 5.55025 5.55057 4.375 7.00034 4.375C8.45004 4.375 9.62534 5.55025 9.62534 7C9.62534 8.44976 8.45004 9.625 7.00034 9.625ZM7.00034 8.45833C7.80575 8.45833 8.45867 7.80541 8.45867 7C8.45867 6.19459 7.80575 5.54167 7.00034 5.54167C6.19493 5.54167 5.54198 6.19459 5.54198 7C5.54198 7.80541 6.19493 8.45833 7.00034 8.45833Z" fill="#00BEBD"/>
</g>
<defs>
<clipPath id="clip0_501_7170">
<rect width="14" height="14" fill="white"/>
</clipPath>
</defs>
</svg>
