<svg width="14" height="14" viewBox="0 0 14 14" fill="none" xmlns="http://www.w3.org/2000/svg">
<g id="interactive-button/heart">
<path id="Vector" fill-rule="evenodd" clip-rule="evenodd" d="M6.58804 4.17874C5.68148 3.27375 4.21123 3.27375 3.30467 4.17874C2.41346 5.06841 2.39892 6.50156 3.26092 7.40874L3.30724 7.45615L6.89883 11.0415C6.95468 11.0973 7.04564 11.0973 7.10149 11.0415L10.6931 7.45615L10.7394 7.40875C11.6014 6.50157 11.5869 5.06841 10.6957 4.17874C9.78909 3.27375 8.31885 3.27375 7.41228 4.17874L7.00016 4.59015L6.58804 4.17874ZM7.00016 3.00056C5.63607 2.00583 3.71229 2.12334 2.48042 3.35307C1.13877 4.6924 1.11815 6.85135 2.41871 8.21609L2.42122 8.21872L2.47785 8.27668L6.07459 11.8672C6.58588 12.3776 7.41444 12.3776 7.92573 11.8672L11.5225 8.27668L11.5791 8.21872L11.5816 8.21609C12.8822 6.85135 12.8616 4.6924 11.5199 3.35307C10.288 2.12334 8.36426 2.00583 7.00016 3.00056Z" fill="currentColor"/>
</g>
</svg>
