<svg width="14" height="14" viewBox="0 0 14 14" fill="none" xmlns="http://www.w3.org/2000/svg">
<g id="interactive-button/heart">
<path id="Vector" fill-rule="evenodd" clip-rule="evenodd" d="M6.5878 4.17876C5.68123 3.27376 4.21098 3.27376 3.30442 4.17876C2.41322 5.06842 2.39868 6.50158 3.26068 7.40875L3.30699 7.45616L6.89859 11.0415C6.95443 11.0973 7.0454 11.0973 7.10125 11.0415L10.6928 7.45616L10.7392 7.40876C11.6012 6.50158 11.5866 5.06842 10.6954 4.17876C9.78885 3.27376 8.3186 3.27376 7.41204 4.17876L6.99992 4.59016L6.5878 4.17876ZM6.99992 3.00057C5.63582 2.00584 3.71205 2.12335 2.48018 3.35308C1.13852 4.69241 1.11791 6.85137 2.41846 8.2161L2.42098 8.21874L2.47761 8.27669L6.07434 11.8672C6.58564 12.3776 7.4142 12.3776 7.92549 11.8672L11.5222 8.27669L11.5789 8.21873L11.5814 8.2161C12.8819 6.85137 12.8613 4.69241 11.5197 3.35308C10.2878 2.12335 8.36401 2.00584 6.99992 3.00057Z" fill="#00BEBD"/>
</g>
</svg>
