<svg width="16" height="16" viewBox="0 0 16 16" fill="none" xmlns="http://www.w3.org/2000/svg">
<g id="edit/edit">
<path id="Vector" fill-rule="evenodd" clip-rule="evenodd" d="M9.26625 1.63002C9.65677 1.2395 10.2899 1.2395 10.6805 1.63002L12.5424 3.49192C12.9329 3.88244 12.9329 4.51561 12.5424 4.90613L5.72573 11.7228C5.5666 11.8819 5.35844 11.9827 5.13491 12.0089L3.11926 12.2449C2.49464 12.318 1.95836 11.8033 2.00583 11.1762L2.16504 9.07282C2.18309 8.83437 2.28599 8.61028 2.45508 8.44119L9.26625 1.63002ZM8.76919 4.0127L10.1597 5.40319L11.3638 4.19902L9.97336 2.80853L8.76919 4.0127ZM9.21688 6.346L7.82638 4.95551L3.48524 9.29664L3.36588 10.8735L4.86483 10.698L9.21688 6.346ZM14 14.6666L2 14.6666V13.3333L14 13.3333V14.6666Z" fill="#00BEBD"/>
</g>
</svg>
