<svg width="14" height="14" viewBox="0 0 14 14" fill="none" xmlns="http://www.w3.org/2000/svg">
<g id="Frame" clip-path="url(#clip0_501_7158)">
<path id="Vector" d="M0.875 7C1.42363 4.01319 4.04045 1.75 7.18589 1.75C10.3313 1.75 12.9481 4.01319 13.4967 7C12.9481 9.98678 10.3313 12.25 7.18589 12.25C4.04045 12.25 1.42363 9.98678 0.875 7ZM7.18589 9.91667C8.7967 9.91667 10.1026 8.61082 10.1026 7C10.1026 5.38917 8.7967 4.08333 7.18589 4.08333C5.57503 4.08333 4.2692 5.38917 4.2692 7C4.2692 8.61082 5.57503 9.91667 7.18589 9.91667ZM7.18589 8.75C6.21936 8.75 5.43586 7.96652 5.43586 7C5.43586 6.03347 6.21936 5.25 7.18589 5.25C8.15235 5.25 8.93589 6.03347 8.93589 7C8.93589 7.96652 8.15235 8.75 7.18589 8.75Z" fill="#00BEBD"/>
</g>
<defs>
<clipPath id="clip0_501_7158">
<rect width="14" height="14" fill="white"/>
</clipPath>
</defs>
</svg>
