<svg width="14" height="14" viewBox="0 0 14 14" fill="none" xmlns="http://www.w3.org/2000/svg">
<g id="Frame" clip-path="url(#clip0_501_4276)">
<path id="Vector" d="M7.58342 12.25V13.4167H6.41675V12.25H1.75008C1.42792 12.25 1.16675 11.9888 1.16675 11.6667V2.33333C1.16675 2.01117 1.42792 1.75 1.75008 1.75H5.25008C5.94699 1.75 6.57256 2.05552 7.00008 2.53994C7.42761 2.05552 8.05317 1.75 8.75008 1.75H12.2501C12.5723 1.75 12.8334 2.01117 12.8334 2.33333V11.6667C12.8334 11.9888 12.5723 12.25 12.2501 12.25H7.58342ZM11.6667 11.0833V2.91667H8.75008C8.10573 2.91667 7.58342 3.439 7.58342 4.08333V11.0833H11.6667ZM6.41675 11.0833V4.08333C6.41675 3.439 5.89443 2.91667 5.25008 2.91667H2.33341V11.0833H6.41675Z" fill="#00BEBD"/>
</g>
<defs>
<clipPath id="clip0_501_4276">
<rect width="14" height="14" fill="white"/>
</clipPath>
</defs>
</svg>
