<svg width="45" height="45" viewBox="0 0 45 45" fill="none" xmlns="http://www.w3.org/2000/svg">
<g clip-path="url(#clip0_389_6822)">
<path fill-rule="evenodd" clip-rule="evenodd" d="M7.8046 19.2222C10.3363 11.3324 18.3709 6.58497 26.5031 8.17369C26.5413 8.07463 26.6046 7.98723 26.6869 7.9201C27.6994 7.11073 27.7253 5.52931 26.7646 3.17585C32.3796 5.577 34.5909 8.14976 33.3983 10.8941C33.3804 10.9349 33.3589 10.9734 33.3378 11.0111L33.3378 11.0112C33.3054 11.0692 33.274 11.1256 33.2578 11.186C38.338 15.0231 40.7281 21.4608 39.3828 27.6835C41.1585 28.5191 42.3067 30.2893 42.3458 32.2514C42.3849 34.2135 41.308 36.028 39.567 36.9336C37.826 37.8392 35.7221 37.6793 34.138 36.5209C30.034 40.1145 24.4079 41.4241 19.1388 40.0123C13.8697 38.6004 9.65214 34.6532 7.89483 29.4891C5.93397 29.7126 4.01726 28.7986 2.95675 27.1342C1.89624 25.4697 1.87758 23.3463 2.90867 21.6635C3.93976 19.9807 5.84011 19.0331 7.8046 19.2222ZM15.669 20.0671C15.3831 21.1341 16.0163 22.2308 17.0832 22.5166C18.1501 22.8025 19.2468 22.1694 19.5327 21.1024C19.8186 20.0355 19.1854 18.9388 18.1185 18.6529C17.0515 18.367 15.9549 19.0002 15.669 20.0671ZM30.5025 30.5767C29.0932 34.641 24.8253 36.9682 20.6454 35.9515C16.5198 34.7387 13.9889 30.592 14.7965 26.3683L30.5025 30.5767ZM28.226 23.4318C27.9401 24.4987 28.5733 25.5954 29.6402 25.8813C30.7072 26.1672 31.8038 25.534 32.0897 24.4671C32.3756 23.4001 31.7424 22.3035 30.6755 22.0176C29.6086 21.7317 28.5119 22.3649 28.226 23.4318Z" fill="url(#paint0_linear_389_6822)"/>
</g>
<defs>
<linearGradient id="paint0_linear_389_6822" x1="10.2409" y1="3.76996" x2="1.77639" y2="35.36" gradientUnits="userSpaceOnUse">
<stop stop-color="white"/>
<stop offset="0.588013" stop-color="white" stop-opacity="0.8"/>
<stop offset="1" stop-color="white" stop-opacity="0"/>
</linearGradient>
<clipPath id="clip0_389_6822">
<rect width="45" height="45" fill="white"/>
</clipPath>
</defs>
</svg>
