<?xml version="1.0" encoding="UTF-8"?>
<svg width="8px" height="8px" viewBox="0 0 8 8" version="1.1" xmlns="http://www.w3.org/2000/svg" xmlns:xlink="http://www.w3.org/1999/xlink">
    <title>icon/close</title>
    <g id="页面-1" stroke="none" stroke-width="1" fill="none" fill-rule="evenodd">
        <g id="胜任力规范标注" transform="translate(-912.000000, -19.000000)" fill="#4E5969">
            <g id="编组-3" transform="translate(292.000000, 0.000000)">
                <g id="icon/close" transform="translate(616.000000, 15.000000)">
                    <path d="M11.6728695,11.2354611 C11.8535395,11.0547911 11.8535395,10.7618611 11.6728695,10.5811811 L9.07629958,7.98450115 L11.6729995,5.3879112 C11.8536795,5.2072412 11.8536795,4.91431921 11.6730095,4.73364721 L11.2666195,4.32725722 C11.0859495,4.14658532 10.7930195,4.14658242 10.6123396,4.32725022 L8.0156596,6.92382117 L5.41909964,4.32715022 C5.23843965,4.14647442 4.94551265,4.14647132 4.76484166,4.32714322 L4.35845066,4.73353321 C4.17777927,4.91420521 4.17777637,5.2071312 4.35844366,5.3878112 L6.95497962,7.98446115 L4.35830866,10.5810211 C4.17763287,10.7616811 4.17762977,11.0546111 4.35830166,11.2352811 L4.76469166,11.6416711 C4.94536365,11.8223411 5.23828965,11.8223411 5.41896964,11.6416811 L8.0156196,9.04514113 L10.6122096,11.6418411 C10.7928795,11.8225211 11.0857995,11.8225211 11.2664695,11.6418511 L11.6728695,11.2354611 Z" id="Union"></path>
                </g>
            </g>
        </g>
    </g>
</svg>