<?xml version="1.0" encoding="UTF-8"?>
<svg width="16px" height="16px" viewBox="0 0 16 16" version="1.1" xmlns="http://www.w3.org/2000/svg" xmlns:xlink="http://www.w3.org/1999/xlink">
    <title></title>
    <g id="ICON/16px/标题" stroke="none" stroke-width="1" fill="none" fill-rule="evenodd">
        <g id="编组">
            <polygon id="路径" points="0 0 16 0 16 16 0 16"></polygon>
            <path d="M11.3333333,7.33333333 L11.3333333,3.16666667 C11.3333333,2.89052429 11.557191,2.66666667 11.8333333,2.66666667 L12.1666667,2.66666667 C12.442809,2.66666667 12.6666667,2.89052429 12.6666667,3.16666667 L12.6666667,13.5 C12.6666667,13.7761424 12.442809,14 12.1666667,14 L11.8333333,14 C11.557191,14 11.3333333,13.7761424 11.3333333,13.5 L11.3333333,8.66666667 L11.3333333,8.66666667 L4.66666667,8.66666667 L4.66666667,13.5 C4.66666667,13.7761424 4.44280904,14 4.16666667,14 L3.83333333,14 C3.55719096,14 3.33333333,13.7761424 3.33333333,13.5 L3.33333333,3.16666667 C3.33333333,2.89052429 3.55719096,2.66666667 3.83333333,2.66666667 L4.16666667,2.66666667 C4.44280904,2.66666667 4.66666667,2.89052429 4.66666667,3.16666667 L4.66666667,7.33333333 L4.66666667,7.33333333 L11.3333333,7.33333333 Z" id="路径" stroke="#C9CDD4" stroke-width="0.2" fill="currentColor" fill-rule="nonzero"></path>
        </g>
    </g>
</svg>