<?xml version="1.0" encoding="UTF-8"?>
<svg width="16px" height="16px" viewBox="0 0 16 16" version="1.1" xmlns="http://www.w3.org/2000/svg" xmlns:xlink="http://www.w3.org/1999/xlink">
    <title></title>
    <g id="ICON/16px/日期范围" stroke="none" stroke-width="1" fill="none" fill-rule="evenodd">
        <g id="编组">
            <polygon id="路径" points="0 0 16 0 16 16 0 16"></polygon>
            <path d="M11.3333333,2.53333333 L14,2.53333333 C14.3681898,2.53333333 14.6666667,2.83181017 14.6666667,3.2 L14.6666667,13.8666667 C14.6666667,14.2348565 14.3681898,14.5333333 14,14.5333333 L2,14.5333333 C1.63181017,14.5333333 1.33333333,14.2348565 1.33333333,13.8666667 L1.33333333,3.2 C1.33333333,2.83181017 1.63181017,2.53333333 2,2.53333333 L4.66666667,2.53333333 L4.66666667,1.2 L6,1.2 L6,2.53333333 L10,2.53333333 L10,1.2 L11.3333333,1.2 L11.3333333,2.53333333 Z M10,3.86666667 L6,3.86666667 L6,5.2 L4.66666667,5.2 L4.66666667,3.86666667 L2.66666667,3.86666667 L2.66666667,6.53333333 L13.3333333,6.53333333 L13.3333333,3.86666667 L11.3333333,3.86666667 L11.3333333,5.2 L10,5.2 L10,3.86666667 Z M13.3333333,7.86666667 L2.66666667,7.86666667 L2.66666667,13.2 L13.3333333,13.2 L13.3333333,7.86666667 Z M4,9.86666667 L5.33333333,9.86666667 L5.33333333,11.2 L4,11.2 L4,9.86666667 Z M6.66666667,9.86666667 L12,9.86666667 L12,11.2 L6.66666667,11.2 L6.66666667,9.86666667 Z" id="形状" fill="currentColor" fill-rule="nonzero"></path>
        </g>
    </g>
</svg>