<?xml version="1.0" encoding="UTF-8"?>
<svg width="16px" height="16px" viewBox="0 0 16 16" version="1.1" xmlns="http://www.w3.org/2000/svg" xmlns:xlink="http://www.w3.org/1999/xlink">
    <title></title>
    <g id="ICON/16px/多选默认" stroke="none" stroke-width="1" fill="none" fill-rule="evenodd">
        <g id="编组">
            <polygon id="路径" points="0 0 16 0 16 16 0 16"></polygon>
            <path d="M14,2 C14.3681898,2 14.6666667,2.29847683 14.6666667,2.66666667 L14.6666667,13.3333333 C14.6666667,13.7015232 14.3681898,14 14,14 L2,14 C1.63181017,14 1.33333333,13.7015232 1.33333333,13.3333333 L1.33333333,2.66666667 C1.33333333,2.29847683 1.63181017,2 2,2 L14,2 Z M7.33333333,8.66666667 L2.66666667,8.66666667 L2.66666667,12.6666667 L7.33333333,12.6666667 L7.33333333,8.66666667 Z M13.3333333,8.66666667 L8.66666667,8.66666667 L8.66666667,12.6666667 L13.3333333,12.6666667 L13.3333333,8.66666667 Z M7.33333333,3.33333333 L2.66666667,3.33333333 L2.66666667,7.33333333 L7.33333333,7.33333333 L7.33333333,3.33333333 Z M13.3333333,3.33333333 L8.66666667,3.33333333 L8.66666667,7.33333333 L13.3333333,7.33333333 L13.3333333,3.33333333 Z" id="形状" fill="currentColor" fill-rule="nonzero"></path>
        </g>
    </g>
</svg>