<?xml version="1.0" encoding="UTF-8"?>
<svg width="16px" height="16px" viewBox="0 0 16 16" version="1.1" xmlns="http://www.w3.org/2000/svg" xmlns:xlink="http://www.w3.org/1999/xlink">
    <title></title>
    <g id="ICON/16px/附件" stroke="none" stroke-width="1" fill="none" fill-rule="evenodd">
        <g id="编组">
            <polygon id="路径" points="0 0 16 0 16 16 0 16"></polygon>
            <path d="M9.41404166,5.64270833 L6.11466667,8.94266667 L6.11466667,8.94266667 C5.94136228,9.11004965 5.87185827,9.35791859 5.93286856,9.59100488 C5.99387886,9.82409117 6.17590883,10.0061211 6.40899512,10.0671314 C6.64208141,10.1281417 6.88995035,10.0586377 7.05733333,9.88533333 L10.8286667,6.11466667 C11.6097814,5.33355194 11.6097814,4.06711473 10.8286667,3.286 C10.0475519,2.50488527 8.78111473,2.50488527 8,3.286 L4.22866667,7.05733333 C3.36883127,7.89576597 3.02648286,9.13190888 3.33249127,10.2932207 C3.63849968,11.4545324 4.54555106,12.3614556 5.70690611,12.6672997 C6.86826116,12.9731439 8.10435565,12.6306206 8.94266667,11.7706667 L12.242625,8.47129167 C12.502965,8.21099773 12.9250164,8.21101638 13.1853333,8.47133333 C13.4456435,8.73164355 13.4456435,9.15368979 13.1853333,9.414 L9.88533333,12.714 L9.88533333,12.714 C8.70635689,13.8929765 6.98796127,14.3534192 5.37744947,13.9218839 C3.76693768,13.4903486 2.50898477,12.2323957 2.07744945,10.6218839 C1.64591412,9.01137206 2.10635686,7.29297644 3.28533333,6.114 L7.05733333,2.34333333 C8.36526296,1.08009263 10.4442826,1.09815875 11.7300619,2.38393808 C13.0158412,3.66971741 13.0339074,5.74873704 11.7706667,7.05666667 L8,10.8293333 C7.49458828,11.334626 6.75799817,11.5319017 6.06769605,11.3468486 C5.37739392,11.1617956 4.83825309,10.6225277 4.6533627,9.93218195 C4.4684723,9.24183623 4.66592159,8.50529263 5.17133333,8 L8.47133333,4.7 C8.73164355,4.43968979 9.15368979,4.43968979 9.414,4.7 C9.67431695,4.96031695 9.6743356,5.38236837 9.41404166,5.64270833 Z" id="路径" fill="currentColor" fill-rule="nonzero"></path>
        </g>
    </g>
</svg>