<?xml version="1.0" encoding="UTF-8"?>
<svg width="20px" height="20px" viewBox="0 0 20 20" version="1.1" xmlns="http://www.w3.org/2000/svg" xmlns:xlink="http://www.w3.org/1999/xlink">
    <title></title>
    <g id="页面-1" stroke="none" stroke-width="1" fill="none" fill-rule="evenodd">
        <g id="添加候选人弹窗备份" transform="translate(-980.000000, -711.000000)">
            <g id="评价" transform="translate(980.000000, 711.000000)">
                <circle id="椭圆形备份" fill="#CCE4FF" cx="10" cy="10" r="10"></circle>
                <path d="M4.50000074,8.29670895 C4.49941589,7.42161837 4.84701095,6.58224915 5.46610304,5.96377615 C6.08519513,5.34530315 6.9249117,4.99854805 7.80000125,5.00000457 L12.200001,5.00000457 C14.0221508,5.00000457 15.5000007,6.48225907 15.5000007,8.29670895 L15.5000007,11.9000085 C15.5000007,13.5568628 14.156855,14.9000085 12.5000007,14.9000085 L7.80000125,14.9000085 L7.80000125,14.9000085 C5.97785138,14.9000085 4.50000074,13.4177586 4.50000074,11.6033087 L4.50000074,8.29670895 Z" id="路径" fill="#007AFF" fill-rule="nonzero"></path>
                <polygon id="路径-3" fill="#007AFF" points="8.6 14.5053683 10 16.175931 11.3 14.5053683"></polygon>
                <path d="M10.3,9.2 C10.5761424,9.2 10.8,9.42385763 10.8,9.7 L10.8,9.7 L10.8,10.2 C10.8,10.4761424 10.5761424,10.7 10.3,10.7 L10.3,10.7 L9.8,10.7 C9.52385763,10.7 9.3,10.4761424 9.3,10.2 L9.3,10.2 L9.3,9.7 C9.3,9.42385763 9.52385763,9.2 9.8,9.2 L9.8,9.2 Z M13,9.2 C13.2761424,9.2 13.5,9.42385763 13.5,9.7 L13.5,9.7 L13.5,10.2 C13.5,10.4761424 13.2761424,10.7 13,10.7 L13,10.7 L12.5,10.7 C12.2238576,10.7 12,10.4761424 12,10.2 L12,10.2 L12,9.7 C12,9.42385763 12.2238576,9.2 12.5,9.2 L12.5,9.2 Z M7.6,9.2 C7.87614237,9.2 8.1,9.42385763 8.1,9.7 L8.1,9.7 L8.1,10.2 C8.1,10.4761424 7.87614237,10.7 7.6,10.7 L7.6,10.7 L7.1,10.7 C6.82385763,10.7 6.6,10.4761424 6.6,10.2 L6.6,10.2 L6.6,9.7 C6.6,9.42385763 6.82385763,9.2 7.1,9.2 L7.1,9.2 Z" id="形状结合" fill="#FFFFFF" fill-rule="nonzero"></path>
            </g>
        </g>
    </g>
</svg>