<?xml version="1.0" encoding="UTF-8"?>
<svg width="20px" height="20px" viewBox="0 0 20 20" version="1.1" xmlns="http://www.w3.org/2000/svg" xmlns:xlink="http://www.w3.org/1999/xlink">
    <title></title>
    <g id="页面-1" stroke="none" stroke-width="1" fill="none" fill-rule="evenodd">
        <g id="添加候选人弹窗备份" transform="translate(-950.000000, -711.000000)">
            <g id="考勤" transform="translate(950.000000, 711.000000)">
                <circle id="椭圆形" fill="#DFF4E9" cx="10" cy="10" r="10"></circle>
                <g id="编组-17" transform="translate(4.500000, 4.500000)">
                    <path d="M9.16666667,-4.4408921e-16 C10.1791887,-4.4408921e-16 11,0.820811292 11,1.83333333 C11,2.41737446 10.7269003,2.93762973 10.301437,3.27336312 C11.4743536,5.36721883 11.1703027,8.06614303 9.38915517,9.84735275 C7.24130906,11.9952738 3.75890167,11.9953346 1.61098058,9.84748851 C-0.170510576,8.06605953 -0.474470296,5.36657448 0.699127998,3.27186661 C0.273099689,2.93762973 4.4408921e-16,2.41737446 4.4408921e-16,1.83333333 C4.4408921e-16,0.820811292 0.820811292,-4.4408921e-16 1.83333333,-4.4408921e-16 C2.49517701,-4.4408921e-16 3.07510853,0.350707616 3.39742745,0.876422399 C4.7400753,0.319432516 6.25972786,0.319405993 7.60379211,0.875038853 C7.92489147,0.350707616 8.50482299,-4.4408921e-16 9.16666667,-4.4408921e-16 Z" id="形状结合" fill="#61C990"></path>
                    <path d="M5.45833333,3.66666667 C5.73447571,3.66666667 5.95833333,3.89052429 5.95833333,4.16666667 L5.95833333,5.87566667 L7.45535848,6.7055606 C7.69687804,6.83943708 7.78414,7.1437557 7.65026352,7.38527526 L7.46845992,7.71325765 C7.33458344,7.95477722 7.03026482,8.04203918 6.78874525,7.9081627 L4.8572934,6.83754145 C4.77434729,6.79156367 4.70959542,6.72548273 4.66574694,6.64874654 C4.61342975,6.57047501 4.58333333,6.4762522 4.58333333,6.375 L4.58333333,4.16666667 C4.58333333,3.89052429 4.80719096,3.66666667 5.08333333,3.66666667 L5.45833333,3.66666667 Z" id="形状结合" fill="#FFFFFF"></path>
                </g>
            </g>
        </g>
    </g>
</svg>