<?xml version="1.0" encoding="UTF-8"?>
<svg width="351px" height="241px" viewBox="0 0 351 241" version="1.1" xmlns="http://www.w3.org/2000/svg" xmlns:xlink="http://www.w3.org/1999/xlink">
    <defs>
        <polygon id="path-1" points="0.718612531 0.542389407 41.571 0.542389407 41.571 43.2628694 0.718612531 43.2628694"></polygon>
    </defs>
    <g id="Web" stroke="none" stroke-width="1" fill="none" fill-rule="evenodd">
        <g id="创建工资表" transform="translate(-99.000000, -348.000000)">
            <g id="编组-7" transform="translate(11.000000, 260.000000)">
                <g id="编组-6" transform="translate(88.000000, 88.000000)">
                    <g id="编组-3" transform="translate(67.000000, 0.000000)">
                        <rect id="矩形" stroke="#00BEBD" fill="#FFFFFF" x="0.5" y="0.5" width="196" height="145" rx="10"></rect>
                        <path d="M88,38 C91.3137085,38 94,40.6862915 94,44 L94,116 C94,119.313708 91.3137085,122 88,122 L39,122 C35.6862915,122 33,119.313708 33,116 L33,44 C33,40.6862915 35.6862915,38 39,38 L88,38 Z M64,92 L49,92 C47.8954305,92 47,92.8954305 47,94 L47,94 L47,95 C47,96.1045695 47.8954305,97 49,97 L49,97 L64,97 C65.1045695,97 66,96.1045695 66,95 L66,95 L66,94 C66,92.8954305 65.1045695,92 64,92 L64,92 Z M79,79 L49,79 C47.8954305,79 47,79.8954305 47,81 L47,81 L47,82 C47,83.1045695 47.8954305,84 49,84 L49,84 L79,84 C80.1045695,84 81,83.1045695 81,82 L81,82 L81,81 C81,79.8954305 80.1045695,79 79,79 L79,79 Z M79,66 L49,66 C47.8954305,66 47,66.8954305 47,68 L47,68 L47,69 C47,70.1045695 47.8954305,71 49,71 L49,71 L79,71 C80.1045695,71 81,70.1045695 81,69 L81,69 L81,68 C81,66.8954305 80.1045695,66 79,66 L79,66 Z M79,53 L49,53 C47.8954305,53 47,53.8954305 47,55 L47,55 L47,56 C47,57.1045695 47.8954305,58 49,58 L49,58 L79,58 C80.1045695,58 81,57.1045695 81,56 L81,56 L81,55 C81,53.8954305 80.1045695,53 79,53 L79,53 Z" id="形状结合" fill="#00BEBD" opacity="0.200000003"></path>
                        <rect id="矩形备份" fill="#00BEBD" opacity="0.200000003" x="103" y="38" width="61" height="56" rx="6"></rect>
                        <rect id="矩形备份-6" fill="#00BEBD" opacity="0.200000003" x="103" y="99" width="61" height="22" rx="6"></rect>
                        <path d="M10,1 L187,1 C191.970563,1 196,5.02943725 196,10 L196,17 L196,17 L1,17 L1,10 C1,5.02943725 5.02943725,1 10,1 Z" id="矩形" fill="#00BEBD" opacity="0.5"></path>
                    </g>
                    <g id="编组" transform="translate(0.000000, 15.000000)">
                        <polygon id="Fill-1" fill="#FDCAB9" points="307.1915 188.7964 307.1915 205.3564 328.2395 205.3564 328.2395 183.6104"></polygon>
                        <polygon id="Fill-2" fill="#FDCAB9" points="252.3976 182.606 247.9836 198.566 268.2906 204.181 274.0856 183.223"></polygon>
                        <g transform="translate(0.000000, 0.990000)">
                            <g transform="translate(309.000000, 4.000000)">
                                <mask id="mask-2" fill="white">
                                    <use xlink:href="#path-1"></use>
                                </mask>
                                <g id="Clip-4"></g>
                                <path d="M3.9464,6.4177 C3.9464,6.4177 9.3454,-2.6653 17.9704,1.7557 C26.5964,6.1777 25.6524,15.3247 32.2004,17.4217 C38.7494,19.5187 44.1084,25.1677 40.3034,32.4497 C37.1204,38.5417 28.4984,36.6047 28.4984,36.6047 C28.4984,36.6047 23.1384,45.7337 13.6634,42.6127 C4.1874,39.4907 -0.1336,34.5687 0.8574,26.7137 C1.8484,18.8587 3.9464,6.4177 3.9464,6.4177" id="Fill-3" fill="#471E1D" mask="url(#mask-2)"></path>
                            </g>
                            <path d="M297.5392,23.614 C297.5392,23.614 292.4182,16.134 302.7852,10.239 C313.1522,4.344 320.7092,12.426 320.7952,16.771 C320.8812,21.116 318.4082,23.128 318.4082,23.128 C318.4082,23.128 319.3742,32.54 310.3322,31.893 C301.2892,31.246 297.5392,23.614 297.5392,23.614" id="Fill-5" fill="#471E1D"></path>
                            <path d="M311.1974,30.3821 L311.3884,37.9861 C311.3884,37.9861 310.0714,40.2061 305.6334,40.6791 C302.3254,41.0321 301.1424,40.3121 301.1424,40.3121 L301.5084,36.4491 L301.8694,32.6821 L309.8574,30.7141 L311.1974,30.3821 Z" id="Fill-7" fill="#FDCAB9"></path>
                            <path d="M311.1749,30.0203 C311.1609,30.2283 311.0879,30.4753 310.9729,30.7593 C309.3659,34.6003 303.4169,36.2293 301.5079,36.4493 L301.8689,32.6823 L311.1749,30.0203 Z" id="Fill-9" fill="#F3917C"></path>
                            <path d="M299.7384,15.3923 C299.7384,15.3923 295.9874,25.0263 297.6934,30.2843 C299.3994,35.5413 304.2114,34.5073 307.0674,33.3623 C309.9254,32.2163 311.1984,30.3833 311.1984,30.3833 C311.1984,30.3833 313.9434,31.1923 315.6524,28.6003 C317.3624,26.0083 316.1294,23.1623 314.5554,22.5623 C312.9834,21.9623 311.1894,23.1533 311.1894,23.1533 L312.5184,20.3433 C312.5184,20.3433 305.8874,6.6093 299.7384,15.3923" id="Fill-11" fill="#FDCAB9"></path>
                            <path d="M299.1368,27.821 C298.9648,27.821 298.8138,27.697 298.7838,27.522 C298.2518,24.292 299.5178,22.577 299.5728,22.506 C299.6908,22.348 299.9128,22.318 300.0708,22.437 C300.2278,22.554 300.2598,22.778 300.1418,22.936 C300.1308,22.951 299.0098,24.5 299.4898,27.406 C299.5218,27.601 299.3898,27.784 299.1948,27.817 C299.1748,27.82 299.1558,27.821 299.1368,27.821" id="Fill-13" fill="#000000"></path>
                            <path d="M311.3976,27.0554 C311.2696,27.0554 311.1466,26.9864 311.0826,26.8664 C310.9896,26.6914 311.0556,26.4754 311.2296,26.3824 L314.9336,24.4114 C315.1086,24.3204 315.3246,24.3854 315.4176,24.5594 C315.5096,24.7334 315.4436,24.9504 315.2696,25.0424 L311.5656,27.0134 C311.5116,27.0414 311.4546,27.0554 311.3976,27.0554" id="Fill-15" fill="#000000"></path>
                            <path d="M314.8488,27.7239 C314.7658,27.7239 314.6818,27.6949 314.6148,27.6359 L312.8298,26.0799 C312.6808,25.9509 312.6658,25.7249 312.7948,25.5759 C312.9258,25.4269 313.1518,25.4119 313.2988,25.5419 L315.0828,27.0979 C315.2328,27.2269 315.2468,27.4529 315.1188,27.6019 C315.0468,27.6829 314.9488,27.7239 314.8488,27.7239" id="Fill-17" fill="#000000"></path>
                            <path d="M298.2501,20.1628 C298.2501,20.1628 298.4281,17.8118 300.2181,15.8078 C302.1261,13.6698 303.7381,14.0238 303.7381,14.0238 C303.7381,14.0238 300.9241,20.1868 305.6621,22.3588 C309.0311,23.9038 311.1891,23.1528 311.1891,23.1528 L316.0131,18.3648 L306.4171,10.5718 C306.4171,10.5718 297.6701,9.3448 298.2501,20.1628" id="Fill-19" fill="#471E1D"></path>
                            <path d="M301.5148,29.7727 C301.3678,29.7727 301.2298,29.6797 301.1778,29.5327 C301.1138,29.3467 301.2118,29.1437 301.3978,29.0777 C301.4078,29.0747 302.3478,28.7337 302.9518,27.7137 C303.0528,27.5437 303.2738,27.4887 303.4408,27.5887 C303.6108,27.6887 303.6668,27.9077 303.5668,28.0777 C302.8238,29.3327 301.6788,29.7367 301.6308,29.7527 C301.5918,29.7667 301.5528,29.7727 301.5148,29.7727" id="Fill-21" fill="#000000"></path>
                            <path d="M302.4923,23.8 C302.4673,23.8 302.4393,23.797 302.4133,23.791 C302.2213,23.747 302.1003,23.556 302.1433,23.364 L302.4943,21.816 L302.0303,21.084 C301.9253,20.918 301.9743,20.697 302.1403,20.592 C302.3083,20.487 302.5283,20.536 302.6343,20.702 L303.1773,21.559 C303.2273,21.639 303.2443,21.737 303.2233,21.829 L302.8413,23.521 C302.8033,23.687 302.6553,23.8 302.4923,23.8" id="Fill-23" fill="#000000"></path>
                            <path d="M297.7579,23.7605 C297.7329,23.7605 297.7049,23.7575 297.6789,23.7515 C297.4869,23.7075 297.3659,23.5165 297.4089,23.3235 L297.7609,21.7765 L297.2969,21.0445 C297.1919,20.8785 297.2409,20.6575 297.4069,20.5525 C297.5739,20.4465 297.7939,20.4955 297.9009,20.6625 L298.4439,21.5195 C298.4939,21.5995 298.5109,21.6975 298.4899,21.7895 L298.1069,23.4825 C298.0689,23.6475 297.9209,23.7605 297.7579,23.7605" id="Fill-25" fill="#000000"></path>
                            <path d="M298.5597,19.3665 C298.3947,19.3665 298.2467,19.2515 298.2097,19.0835 C298.1687,18.8905 298.2917,18.7005 298.4857,18.6595 L299.5367,18.4365 C299.7297,18.3935 299.9177,18.5175 299.9597,18.7115 C300.0007,18.9045 299.8777,19.0935 299.6847,19.1345 L298.6337,19.3585 C298.6087,19.3635 298.5837,19.3665 298.5597,19.3665" id="Fill-27" fill="#000000"></path>
                            <polygon id="Fill-29" fill="#00BEBD" points="261.3986 34.7678 244.2856 45.2648 225.3366 19.6908 242.7236 8.9228"></polygon>
                            <polygon id="Fill-31" fill="#80BAFF" points="263.6115 33.5442 246.4985 44.0412 227.3205 18.3712 244.4335 7.8742"></polygon>
                            <path d="M232.1261,20.4597 C232.0061,20.4597 231.8891,20.3987 231.8211,20.2897 C231.7191,20.1217 231.7721,19.9017 231.9391,19.7987 L244.4991,12.0937 C244.6641,11.9907 244.8871,12.0427 244.9901,12.2117 C245.0931,12.3797 245.0401,12.5997 244.8721,12.7027 L232.3131,20.4067 C232.2551,20.4427 232.1901,20.4597 232.1261,20.4597" id="Fill-33" fill="#FFFFFF"></path>
                            <path d="M234.1612,23.1106 C234.0412,23.1106 233.9242,23.0496 233.8562,22.9406 C233.7542,22.7726 233.8072,22.5526 233.9742,22.4496 L246.5352,14.7446 C246.6992,14.6406 246.9232,14.6936 247.0262,14.8626 C247.1292,15.0306 247.0762,15.2506 246.9082,15.3536 L234.3482,23.0576 C234.2902,23.0936 234.2252,23.1106 234.1612,23.1106" id="Fill-35" fill="#FFFFFF"></path>
                            <path d="M236.1495,25.7898 C236.0295,25.7898 235.9125,25.7288 235.8445,25.6198 C235.7425,25.4518 235.7955,25.2318 235.9625,25.1288 L248.5235,17.4248 C248.6875,17.3208 248.9115,17.3728 249.0145,17.5418 C249.1175,17.7098 249.0645,17.9298 248.8965,18.0328 L236.3365,25.7368 C236.2785,25.7728 236.2135,25.7898 236.1495,25.7898" id="Fill-37" fill="#FFFFFF"></path>
                            <path d="M238.1427,28.467 C238.0227,28.467 237.9057,28.406 237.8377,28.297 C237.7357,28.129 237.7887,27.909 237.9557,27.806 L250.5167,20.101 C250.6807,19.997 250.9047,20.05 251.0077,20.219 C251.1107,20.387 251.0577,20.607 250.8897,20.71 L238.3297,28.414 C238.2717,28.45 238.2067,28.467 238.1427,28.467" id="Fill-39" fill="#FFFFFF"></path>
                            <polygon id="Fill-41" fill="#FDCAB9" points="281.8781 21.4363 300.4301 46.1493 282.6151 56.5593 271.0841 26.0193"></polygon>
                            <path d="M303.9679,19.7966 C303.9289,19.7966 303.8899,19.7896 303.8509,19.7766 L301.6459,19.0086 C301.4589,18.9436 301.3609,18.7396 301.4259,18.5536 C301.4889,18.3676 301.6929,18.2696 301.8799,18.3336 L304.0849,19.1016 C304.2719,19.1666 304.3699,19.3706 304.3049,19.5566 C304.2539,19.7036 304.1149,19.7966 303.9679,19.7966" id="Fill-43" fill="#000000"></path>
                            <path d="M255.0148,45.9446 C255.0148,45.9446 254.6168,38.8986 252.4888,36.1066 C250.3618,33.3146 246.6388,31.1456 245.8408,32.7616 C245.0428,34.3776 247.5698,36.7156 247.1708,37.6736 C246.7718,38.6326 244.1128,38.1506 240.1238,36.7296 C236.1358,35.3086 233.4768,30.6936 233.4768,30.6936 C233.4768,30.6936 232.6788,32.5276 232.9448,34.1836 C233.2098,35.8406 233.7428,36.7296 233.7428,36.7296 C233.7428,36.7296 232.8948,34.8146 232.890514,38.3196 C232.8878,40.0776 234.4078,41.3096 234.4078,41.3096 C234.4078,41.3096 233.2098,42.7536 235.7368,45.9446 C238.2628,49.1356 245.3098,52.0606 245.3098,52.0606 C245.3098,52.0606 253.1538,71.2056 266.0498,76.2576 C278.9468,81.3106 289.0508,74.5296 289.0508,74.5296 L285.0628,53.5226 C285.0628,53.5226 271.2358,58.4426 255.0148,45.9446" id="Fill-45" fill="#FDCAB9"></path>
                            <path d="M240.0411,40.7346 C240.0181,40.7346 239.9921,40.7316 239.9681,40.7266 C236.8051,40.0636 233.3311,36.4766 233.1851,36.3246 C233.0481,36.1816 233.0531,35.9556 233.1951,35.8196 C233.3381,35.6826 233.5631,35.6886 233.7001,35.8296 C233.7341,35.8656 237.1681,39.4096 240.1141,40.0276 C240.3081,40.0676 240.4311,40.2576 240.3911,40.4506 C240.3551,40.6186 240.2071,40.7346 240.0411,40.7346" id="Fill-47" fill="#000000"></path>
                            <path d="M239.4425,44.2078 C239.4225,44.2078 239.4035,44.2068 239.3825,44.2028 C235.7465,43.5878 234.1885,41.6108 234.1245,41.5268 C234.0045,41.3718 234.0335,41.1478 234.1885,41.0278 C234.3455,40.9068 234.5695,40.9358 234.6895,41.0908 C234.7045,41.1088 236.1595,42.9338 239.5025,43.4988 C239.6965,43.5318 239.8275,43.7158 239.7955,43.9108 C239.7645,44.0848 239.6145,44.2078 239.4425,44.2078" id="Fill-49" fill="#000000"></path>
                            <path d="M337.0753,136.9578 C337.0333,138.2738 336.9793,139.5898 336.9273,140.9058 C335.8543,166.0368 332.5543,191.4328 332.5543,191.4328 L297.6813,192.6528 L305.3963,130.1028 L279.1733,193.4908 L243.1113,191.2628 C243.1113,191.2628 250.9433,159.1708 265.0263,133.5198 C279.1093,107.8688 296.2493,84.7658 296.2493,84.7658 L327.3333,72.8258 C327.3333,72.8258 332.0553,78.5888 336.0783,105.9798 C336.6823,110.0868 337.0223,114.8728 337.1713,120.0628 C337.1813,120.3078 337.1813,120.5618 337.1923,120.8158 C337.3193,125.9318 337.2563,131.3968 337.0753,136.9578" id="Fill-51" fill="#FFAF45"></path>
                            <path d="M317.0011,24.3557 C316.9231,24.3557 316.8451,24.3307 316.7791,24.2787 C316.6241,24.1557 316.5991,23.9307 316.7221,23.7767 C322.3641,16.6747 314.9611,10.4737 314.6431,10.2127 C314.4901,10.0877 314.4681,9.8627 314.5931,9.7097 C314.7171,9.5567 314.9441,9.5357 315.0951,9.6597 C315.1791,9.7277 323.3641,16.5647 317.2801,24.2207 C317.2101,24.3097 317.1051,24.3557 317.0011,24.3557" id="Fill-53" fill="#00BEBD"></path>
                            <path d="M276.4874,53.7888 C276.4874,53.7888 290.2124,38.4328 306.7824,37.4348 C323.3534,36.4378 328.9374,44.4158 329.7344,48.2048 C330.5324,51.9938 331.9284,79.1168 330.9314,80.9118 C329.9344,82.7068 323.1344,85.8968 312.0764,86.6948 C301.0164,87.4928 295.2334,86.0968 294.4354,85.4988 C293.6374,84.8998 292.6404,76.5238 292.6404,76.5238 L283.2674,78.9168 L276.4874,53.7888 Z" id="Fill-55" fill="#00BEBD"></path>
                            <path d="M311.1984,31.3083 C311.1984,31.3083 306.5334,41.8073 311.3884,45.9703 C316.2434,50.1333 323.4674,47.4393 323.4674,47.4393 C323.4674,47.4393 325.9044,49.0003 330.5624,47.4243 C335.2214,45.8483 337.4984,41.5293 337.4984,41.5293 L311.1984,31.3083 Z" id="Fill-57" fill="#471E1D"></path>
                            <path d="M281.8781,21.4363 C281.8781,21.4363 277.2191,14.1253 274.8761,12.5193 C272.5331,10.9123 259.4801,5.7783 258.1901,7.0313 C256.9001,8.2853 264.5331,13.5213 264.5331,13.5213 C264.5331,13.5213 263.2211,13.8063 262.8991,14.8623 C262.5781,15.9183 263.1551,16.7793 263.1551,16.7793 C263.1551,16.7793 261.5281,16.7253 261.0701,17.8283 C260.6131,18.9303 261.3661,20.1443 261.3661,20.1443 C261.3661,20.1443 264.3661,25.6213 266.0701,25.7383 C267.7741,25.8543 267.5521,22.8253 267.5521,22.8253 C267.5521,22.8253 268.1721,25.5893 269.6601,27.1103 C271.1481,28.6313 274.1961,28.7913 277.3521,27.1293 C280.5061,25.4673 281.8781,21.4363 281.8781,21.4363" id="Fill-59" fill="#FDCAB9"></path>
                            <path d="M278.2365,26.2268 C274.6595,25.8518 273.4645,22.1298 273.1705,20.9358 C271.9775,21.1728 269.4075,21.5618 268.7225,20.6818 C268.5585,20.4708 268.4225,20.1018 268.7035,19.5398 C269.7575,17.4388 274.1845,15.4898 274.3735,15.4078 C274.5515,15.3288 274.7645,15.4118 274.8425,15.5928 C274.9225,15.7728 274.8395,15.9838 274.6585,16.0618 C274.6145,16.0808 270.2795,17.9898 269.3415,19.8598 C269.2785,19.9858 269.2175,20.1548 269.2865,20.2428 C269.6225,20.6748 271.6675,20.5398 273.3665,20.1658 C273.4635,20.1438 273.5605,20.1648 273.6415,20.2178 C273.7225,20.2708 273.7775,20.3558 273.7955,20.4518 C273.8035,20.4978 274.6775,25.1358 278.2735,25.5148 C278.4695,25.5358 278.6125,25.7108 278.5915,25.9078 C278.5725,26.0908 278.4175,26.2268 278.2365,26.2268" id="Fill-61" fill="#000000"></path>
                            <path d="M269.4288,19.4543 C269.3918,19.4543 269.3548,19.4483 269.3178,19.4363 C267.0008,18.6773 264.3328,13.8973 264.2208,13.6943 C264.1248,13.5223 264.1878,13.3053 264.3608,13.2093 C264.5328,13.1153 264.7498,13.1763 264.8458,13.3493 C264.8718,13.3963 267.4888,18.0853 269.5398,18.7573 C269.7278,18.8193 269.8288,19.0203 269.7688,19.2083 C269.7188,19.3583 269.5788,19.4543 269.4288,19.4543" id="Fill-63" fill="#000000"></path>
                            <path d="M268.5714,23.4524 C266.3504,23.4524 263.1954,17.6174 262.8404,16.9464 C262.7474,16.7714 262.8134,16.5564 262.9884,16.4634 C263.1624,16.3724 263.3784,16.4374 263.4704,16.6124 C264.7454,19.0174 267.2984,22.7874 268.5984,22.7374 C269.0744,22.7124 269.4214,22.5614 269.6294,22.2894 C270.0264,21.7684 269.8524,20.9384 269.8504,20.9304 C269.8084,20.7384 269.9304,20.5474 270.1224,20.5054 C270.3154,20.4614 270.5054,20.5834 270.5484,20.7754 C270.5584,20.8224 270.7984,21.9314 270.1994,22.7194 C269.8584,23.1684 269.3324,23.4144 268.6354,23.4504 C268.6144,23.4524 268.5924,23.4524 268.5714,23.4524" id="Fill-65" fill="#000000"></path>
                            <path d="M293.506,69.5085 C293.074,69.6795 292.854,71.9985 292.922,74.8015 C293.711,72.5375 294.253,70.0065 293.506,69.5085 M292.641,76.8815 C292.621,76.8815 292.601,76.8795 292.58,76.8755 C292.417,76.8485 292.295,76.7115 292.284,76.5465 C292.181,74.9115 291.933,69.5265 293.099,68.8535 C293.243,68.7715 293.535,68.6715 293.902,68.9145 C295.655,70.0825 293.433,75.5745 292.969,76.6635 C292.912,76.7975 292.782,76.8815 292.641,76.8815" id="Fill-67" fill="#FFAF45"></path>
                            <path d="M307.5128,91.2615 C302.2558,91.2615 298.2738,90.6335 297.8908,90.5715 C297.6968,90.5385 297.5648,90.3555 297.5958,90.1605 C297.6268,89.9665 297.8058,89.8375 298.0058,89.8655 C298.2298,89.9035 320.3648,93.3855 330.3188,83.6845 C330.4598,83.5475 330.6858,83.5495 330.8238,83.6915 C330.9608,83.8315 330.9578,84.0585 330.8168,84.1965 C324.8448,90.0165 314.9138,91.2615 307.5128,91.2615" id="Fill-69" fill="#FFFFFF"></path>
                            <path d="M305.2335,130.4617 C305.1715,130.4617 305.1105,130.4457 305.0535,130.4127 C304.8835,130.3137 304.8255,130.0957 304.9245,129.9247 C304.9745,129.8387 310.1085,121.2057 323.3795,116.1587 C323.5645,116.0887 323.7685,116.1827 323.8395,116.3657 C323.9105,116.5507 323.8175,116.7567 323.6325,116.8267 C310.6145,121.7777 305.5905,130.1987 305.5425,130.2837 C305.4755,130.3987 305.3565,130.4617 305.2335,130.4617" id="Fill-71" fill="#FFFFFF"></path>
                            <path d="M335.6456,111.0613 C332.8116,111.0613 330.4936,110.2193 328.7426,108.5523 C325.2016,105.1813 325.2516,99.6903 325.2556,99.4583 C325.2586,99.3143 325.3476,99.1863 325.4816,99.1323 L334.2786,95.6373 C334.4586,95.5673 334.6686,95.6553 334.7426,95.8373 C334.8146,96.0213 334.7256,96.2283 334.5416,96.3013 L325.9736,99.7063 C326.0066,100.7773 326.3206,105.2643 329.2386,108.0393 C331.0416,109.7523 333.5126,110.5193 336.6056,110.3143 C336.7996,110.3123 336.9726,110.4513 336.9856,110.6473 C336.9986,110.8433 336.8496,111.0143 336.6526,111.0273 C336.3106,111.0493 335.9736,111.0613 335.6456,111.0613" id="Fill-73" fill="#FFFFFF"></path>
                            <path d="M295.7804,98.4158 C295.1824,100.0268 292.5924,107.5578 294.7544,111.3798 C295.4264,112.5668 296.5194,113.2908 298.0054,113.5308 C305.1204,114.6748 307.9804,104.3048 308.4564,102.3448 L295.7804,98.4158 Z M299.0944,114.3348 C298.7074,114.3348 298.3054,114.3038 297.8914,114.2358 C296.1804,113.9598 294.9154,113.1168 294.1324,111.7308 C291.5474,107.1588 295.0824,98.2208 295.2344,97.8428 C295.3034,97.6698 295.4924,97.5788 295.6714,97.6348 L308.9844,101.7608 C309.1604,101.8138 309.2654,101.9928 309.2284,102.1738 C309.2024,102.3018 306.6344,114.3348 299.0944,114.3348 L299.0944,114.3348 Z" id="Fill-75" fill="#FFFFFF"></path>
                            <path d="M268.8429,218.4353 C268.8429,218.4353 273.9539,194.4753 270.0919,194.4013 C266.2299,194.3263 259.9929,196.8183 259.9929,196.8183 C259.9929,196.8183 252.0459,190.9213 247.8709,192.8753 C243.6969,194.8313 240.6639,200.0773 240.6639,200.0773 L217.4849,210.5353 C217.4849,210.5353 214.3119,214.2023 214.7329,216.3433 C215.0619,218.0153 247.2469,222.0583 261.3779,223.7543 C265.0229,224.1923 268.3199,221.8403 268.8429,218.4353" id="Fill-77" fill="#00BEBD"></path>
                            <path d="M238.3224,207.4285 C238.2864,207.4285 238.2504,207.4225 238.2144,207.4105 L231.0094,205.1175 C230.8214,205.0585 230.7174,204.8585 230.7774,204.6695 C230.8374,204.4825 231.0394,204.3775 231.2254,204.4385 L237.6434,206.4805 L236.1774,203.4225 C236.1184,203.2975 236.1354,203.1485 236.2244,203.0415 C236.3124,202.9345 236.4504,202.8865 236.5904,202.9225 L244.8774,205.0675 L240.4034,200.3225 C240.2674,200.1785 240.2744,199.9515 240.4184,199.8175 C240.5624,199.6805 240.7884,199.6885 240.9234,199.8315 L246.2464,205.4785 C246.3554,205.5945 246.3754,205.7685 246.2944,205.9055 C246.2134,206.0415 246.0544,206.1095 245.8964,206.0695 L237.1544,203.8065 L238.6444,206.9165 C238.7064,207.0455 238.6854,207.1985 238.5924,207.3055 C238.5224,207.3845 238.4244,207.4285 238.3224,207.4285" id="Fill-79" fill="#FFFFFF"></path>
                            <g transform="translate(293.000000, 192.000000)" fill="#00BEBD" id="Fill-81">
                                <path d="M11.9552,5.1687 C11.9552,5.1687 -1.7988,27.6327 0.5742,30.4057 C2.9472,33.1787 19.7032,33.5637 27.3512,32.3397 C34.9992,31.1157 37.9312,30.1957 38.5102,28.3297 C39.0892,26.4637 35.4592,3.3807 35.4592,3.3807 C35.4592,3.3807 32.0892,-0.4123 27.4732,0.5647 C22.8552,1.5407 15.6212,5.1147 15.6212,5.1147 C15.6212,5.1147 13.8252,2.0287 11.9552,5.1687"></path>
                            </g>
                            <path d="M305.4874,199.3259 C305.3654,199.3259 305.2474,199.2639 305.1794,199.1499 C305.0794,198.9799 305.1354,198.7619 305.3054,198.6609 L308.4394,196.8069 C308.6074,196.7099 308.8274,196.7629 308.9284,196.9329 C309.0294,197.1029 308.9724,197.3219 308.8024,197.4229 L305.6694,199.2759 C305.6124,199.3089 305.5494,199.3259 305.4874,199.3259" id="Fill-83" fill="#FFFFFF"></path>
                            <path d="M224.5284,76.9001 L188.8964,76.9001 C187.3544,76.9001 186.1044,75.6501 186.1044,74.1081 L186.1044,57.8881 C186.1044,56.3461 187.3544,55.0961 188.8964,55.0961 L224.5284,55.0961 C226.0704,55.0961 227.3204,56.3461 227.3204,57.8881 L227.3204,74.1081 C227.3204,75.6501 226.0704,76.9001 224.5284,76.9001" id="Fill-85" fill="#FFFFFF"></path>
                            <polygon id="Fill-87" fill="#FFFFFF" points="208.9728 56.6917 222.0018 47.3847 218.8118 56.6917"></polygon>
                            <polygon id="Fill-89" fill="#ADA4F7" points="193.583 72.646 198.104 72.646 198.104 59.35 193.583 59.35"></polygon>
                            <polygon id="Fill-91" fill="#FFAF45" points="200.829 72.646 205.35 72.646 205.35 61.743 200.829 61.743"></polygon>
                            <polygon id="Fill-92" fill="#80BAFF" points="215.321 72.646 219.842 72.646 219.842 61.743 215.321 61.743"></polygon>
                            <polygon id="Fill-93" fill="#8758E7" points="208.075 72.646 212.596 72.646 212.596 65.998 208.075 65.998"></polygon>
                            <path d="M314.0616,30.6931 C314.0616,31.5301 313.3826,32.2091 312.5456,32.2091 C311.7086,32.2091 311.0306,31.5301 311.0306,30.6931 C311.0306,29.8561 311.7086,29.1781 312.5456,29.1781 C313.3826,29.1781 314.0616,29.8561 314.0616,30.6931" id="Fill-94" fill="#FFFFFF"></path>
                            <path d="M283.2677,79.2742 C283.1637,79.2742 283.0617,79.2292 282.9917,79.1422 C282.8667,78.9902 282.8897,78.7642 283.0417,78.6402 C283.0587,78.6272 284.6727,77.2852 284.5157,75.5612 C284.4827,75.2002 284.3397,74.9202 284.0797,74.7082 C283.3457,74.1062 281.9647,74.2422 281.9497,74.2462 C281.8027,74.2532 281.6577,74.1832 281.5917,74.0492 C281.5257,73.9162 281.5487,73.7552 281.6507,73.6462 C281.6687,73.6272 283.4987,71.6382 283.4987,69.3222 C283.4987,67.1512 279.7477,66.3562 279.7097,66.3482 C279.5897,66.3232 279.4917,66.2392 279.4477,66.1252 C279.4047,66.0112 279.4217,65.8822 279.4957,65.7852 C279.5107,65.7642 281.0567,63.6742 281.5307,61.6622 C281.9447,59.9062 278.4037,58.5432 278.3677,58.5302 C278.2457,58.4842 278.1577,58.3762 278.1377,58.2472 C278.1197,58.1172 278.1717,57.9882 278.2767,57.9092 C278.8387,57.4872 280.3887,56.0812 280.1517,55.1882 C279.9557,54.4552 277.8747,54.1672 276.4887,54.1462 C276.2807,54.1552 276.1307,53.9892 276.128695,53.7912 C276.1277,53.5772 276.2727,53.4302 276.5407,53.4311949 C277.3107,53.4311949 280.4477,53.5242 280.8407,55.0042 C281.1487,56.1602 279.9027,57.4562 279.1747,58.0962 C280.2977,58.6142 282.6677,59.9492 282.2257,61.8262 C281.8467,63.4352 280.8707,65.0332 280.3707,65.7792 C281.5307,66.1112 284.2137,67.1172 284.2137,69.3222 C284.2137,71.1292 283.2697,72.7042 282.6637,73.5282 C283.2307,73.5652 283.9847,73.7072 284.5317,74.1532 C284.9417,74.4902 285.1757,74.9412 285.2267,75.4972 C285.4187,77.6032 283.5717,79.1292 283.4937,79.1942 C283.4267,79.2482 283.3467,79.2742 283.2677,79.2742" id="Fill-95" fill="#FFAF45"></path>
                            <polygon id="Fill-102" fill="#FDCAB9" points="70.3194 191.2468 70.3194 201.6998 90.3844 200.9628 90.3844 191.2468"></polygon>
                            <polygon id="Fill-103" fill="#FDCAB9" points="20.9781 190.0691 20.9781 200.5231 39.5531 199.7851 39.5531 190.0691"></polygon>
                            <path d="M44.1632,217.8025 C44.1632,219.6475 43.5312,221.7575 42.2372,222.2885 C40.9422,222.8205 30.4692,223.9265 21.3042,223.1445 C12.5302,222.3925 10.7092,221.7575 10.0622,220.9755 C9.7462,220.5765 10.3632,218.7325 11.0702,216.9465 C11.1152,216.8575 11.1452,216.7545 11.1902,216.6655 C11.5522,215.7655 11.9282,214.8955 12.1992,214.2755 C12.4702,213.6845 12.8012,213.1235 13.1922,212.5775 C14.1402,211.2935 16.0212,208.6375 16.5032,207.2655 C17.1352,205.4355 18.0982,201.4805 18.7452,199.6195 C19.3922,197.7895 20.9732,197.4065 20.9732,197.4065 C20.9732,197.4065 39.0172,196.1965 40.3102,197.2585 C41.5902,198.3065 42.2372,207.0145 42.2372,208.3275 L42.2372,209.6415 C42.2372,210.8655 43.0952,213.2855 43.6512,215.2935 C43.8022,215.7945 43.9222,216.2675 44.0132,216.6955 C44.1022,217.1235 44.1632,217.4915 44.1632,217.8025" id="Fill-104" fill="#ADA4F7"></path>
                            <path d="M124.1788,221.5652 C122.9758,222.0522 71.7628,223.4242 70.5748,221.5652 C70.2128,221.0042 69.9568,219.1012 69.7918,216.7102 C69.3698,211.0732 69.3698,202.6902 69.3698,202.6902 C69.3698,202.6902 68.9938,199.8272 69.0698,198.4992 C69.1298,197.1852 93.7648,197.6872 93.7648,197.6872 L109.6108,207.9472 C109.6108,207.9472 114.1708,209.3012 118.9718,210.0692 C121.5158,210.4672 123.1568,213.5222 123.9688,216.4002 C124.6908,218.9532 124.7508,221.3292 124.1788,221.5652" id="Fill-105" fill="#ADA4F7"></path>
                            <path d="M57.4034,74.5974 C57.4034,74.5974 79.4414,97.7674 90.3174,133.0254 C98.6254,159.9574 98.7454,194.5174 98.7454,194.5174 L64.6074,194.5174 C64.6074,194.5174 63.7124,172.8714 59.9594,155.1614 C56.2064,137.4524 50.7354,124.4174 50.7354,124.4174 L47.0584,194.5174 L12.9864,194.5174 C12.9864,194.5174 19.2394,92.7754 25.3034,77.5824 C30.2384,65.2224 57.4034,74.5974 57.4034,74.5974" id="Fill-106" fill="#00BEBD"></path>
                            <path d="M35.1935,205.2908 C35.1765,205.2908 35.1605,205.2898 35.1435,205.2868 C35.0835,205.2778 29.0895,204.4548 22.8825,205.2868 C22.6865,205.3228 22.5065,205.1758 22.4815,204.9808 C22.4555,204.7848 22.5925,204.6048 22.7885,204.5798 C29.0955,203.7338 35.1815,204.5708 35.2435,204.5798 C35.4385,204.6068 35.5745,204.7878 35.5475,204.9828 C35.5215,205.1618 35.3695,205.2908 35.1935,205.2908" id="Fill-107" fill="#FFFFFF"></path>
                            <path d="M22.8351,209.7019 C22.6581,209.7019 22.5051,209.5709 22.4811,209.3919 C22.4551,209.1959 22.5931,209.0159 22.7881,208.9909 C29.0961,208.1439 35.1821,208.9819 35.2431,208.9909 C35.4391,209.0179 35.5741,209.1989 35.5471,209.3939 C35.5201,209.5909 35.3391,209.7309 35.1441,209.6979 C35.0831,209.6889 29.0901,208.8669 22.8831,209.6979 C22.8661,209.7009 22.8511,209.7019 22.8351,209.7019" id="Fill-108" fill="#FFFFFF"></path>
                            <path d="M50.7355,124.7751 C50.5345,124.7721 50.3765,124.6101 50.379458,124.4141 L50.6745,100.1711 C50.6765,100.0251 50.7675,99.8951 50.9035,99.8421 L59.8115,96.4121 C59.9945,96.3381 60.2015,96.4311 60.2725,96.6171 C60.3435,96.8001 60.2525,97.0071 60.0675,97.0781 L51.3855,100.4211 L51.0925,124.4211 C51.0895,124.6181 50.9305,124.7751 50.7355,124.7751" id="Fill-109" fill="#50447E"></path>
                            <path d="M96.4903,203.7 C96.2953,203.7 96.1363,203.543 96.133258,203.347 C96.1303,203.15 96.2883,202.988 96.4853,202.985 L101.8393,202.907 C102.0393,202.907 102.1983,203.064 102.201342,203.26 C102.2043,203.457 102.0463,203.619 101.8483,203.622 L96.4953,203.7 L96.4903,203.7 Z" id="Fill-110" fill="#FFFFFF"></path>
                            <path d="M100.2101,206.5828 C100.0151,206.5828 99.8561,206.4258 99.853058,206.2298 C99.8501,206.0328 100.0081,205.8708 100.2051,205.8678 L105.5591,205.7898 C105.7591,205.7898 105.9181,205.9468 105.921142,206.1428 C105.9241,206.3398 105.7661,206.5018 105.5681,206.5048 L100.2151,206.5828 L100.2101,206.5828 Z" id="Fill-111" fill="#FFFFFF"></path>
                            <path d="M96.5108,43.4446 C96.9938,40.8196 98.0058,38.3126 99.5368,36.1266 C101.6908,33.0556 104.9788,29.1306 107.9478,28.7326 C112.8918,28.0686 120.4178,30.2586 120.8608,33.7016 C121.3028,37.1436 119.4548,37.9186 119.4548,37.9186 C119.4548,37.9186 119.8648,40.1026 118.9788,41.0576 L118.0938,42.0136 C118.0938,42.0136 118.6468,44.7806 115.4378,45.1126 C112.2278,45.4446 110.4568,44.7976 109.9038,44.3466 C109.3498,43.8946 109.0518,43.4446 109.0518,43.4446 C109.0518,43.4446 110.7888,46.7396 107.0258,48.1946 C103.2628,49.6506 96.5108,43.4446 96.5108,43.4446" id="Fill-112" fill="#FDCAB9"></path>
                            <path d="M118.046,38.3406 C116.537,38.3406 114.091,38.1446 111.854,37.0906 C109.733,36.0916 108.667,35.0756 108.774,34.1526 C108.825,33.7096 109.165,33.1236 110.493,32.8396 C111.369,32.6526 112.09,32.6946 112.725,32.7326 C113.78,32.7936 114.612,32.8426 115.898,31.9446 C116.055,31.8306 116.28,31.8686 116.395,32.0326 C116.507,32.1946 116.468,32.4166 116.306,32.5296 C114.818,33.5696 113.782,33.5096 112.684,33.4446 C112.065,33.4086 111.423,33.3726 110.642,33.5376 C109.95,33.6856 109.517,33.9456 109.483,34.2346 C109.436,34.6506 110.108,35.4786 112.158,36.4446 C115.451,37.9966 119.376,37.5686 119.414,37.5636 C119.605,37.5396 119.787,37.6806 119.81,37.8776 C119.832,38.0726 119.692,38.2506 119.496,38.2726 C119.437,38.2796 118.887,38.3406 118.046,38.3406" id="Fill-113" fill="#000000"></path>
                            <path d="M104.8126,32.2371 C104.8126,32.2371 111.6736,34.2621 111.0096,35.8131 C110.3456,37.3651 106.2506,37.3041 106.2506,37.3041 C106.2506,37.3041 110.0136,43.1201 105.8086,46.1091 L104.8126,32.2371 Z" id="Fill-114" fill="#FDCAB9"></path>
                            <path d="M105.8077,46.4656 C105.6967,46.4656 105.5857,46.4136 105.5167,46.3156 C105.4027,46.1546 105.4407,45.9316 105.6007,45.8176 C109.4837,43.0596 105.9877,37.5536 105.9517,37.4986 C105.8797,37.3876 105.8747,37.2466 105.9387,37.1316 C106.0017,37.0176 106.1207,36.9476 106.2507,36.9476 C107.7417,36.9506 110.2667,36.6406 110.6817,35.6726 C110.7007,35.6286 110.7127,35.5686 110.6617,35.4616 C110.2147,34.5096 106.7747,33.1886 104.7097,32.5796 C104.5217,32.5236 104.4127,32.3246 104.4687,32.1356 C104.5247,31.9476 104.7247,31.8366 104.9117,31.8946 C105.4907,32.0656 110.5787,33.6056 111.3087,35.1576 C111.4357,35.4266 111.4457,35.7026 111.3377,35.9536 C110.7457,37.3366 108.1067,37.6046 106.8607,37.6526 C107.6907,39.2186 109.6677,43.8036 106.0147,46.3996 C105.9527,46.4446 105.8797,46.4656 105.8077,46.4656" id="Fill-115" fill="#000000"></path>
                            <path d="M55.337,98.8748 C55.174,98.8748 55.027,98.7638 54.989,98.5988 L51.371,83.0388 C51.326,82.8468 51.445,82.6548 51.638,82.6098 C51.831,82.5618 52.022,82.6848 52.066,82.8768 L55.685,98.4368 C55.73,98.6288 55.61,98.8198 55.418,98.8648 C55.391,98.8718 55.363,98.8748 55.337,98.8748" id="Fill-117" fill="#50447E"></path>
                            <path d="M118.0939,42.3704 C117.8839,42.3694 112.9639,42.3304 110.1099,41.2554 C107.0319,40.0974 107.5779,37.2614 107.5839,37.2324 C107.6229,37.0394 107.8159,36.9214 108.0039,36.9544 C108.1979,36.9944 108.3229,37.1824 108.2829,37.3754 C108.2659,37.4674 107.8649,39.6474 110.3619,40.5874 C113.0949,41.6174 118.0459,41.6564 118.0959,41.6564 C118.2929,41.6574 118.4519,41.8184 118.450905,42.0154 C118.4499,42.2124 118.2899,42.3704 118.0939,42.3704" id="Fill-120" fill="#000000"></path>
                            <polygon id="Fill-121" fill="#8758E7" points="111.056 33.108 113.888 33.108 113.888 22.089 111.056 22.089"></polygon>
                            <path d="M107.5011,11.2874 C107.5011,17.3184 109.2121,22.2084 111.3221,22.2084 C113.4321,22.2084 115.1431,17.3184 115.1431,11.2874 C115.1431,5.2554 113.4321,0.3664 111.3221,0.3664 C109.2121,0.3664 107.5011,5.2554 107.5011,11.2874" id="Fill-122" fill="#FFFFFF"></path>
                            <path d="M72.3419,188.1521 C72.1519,188.1521 71.9929,188.0021 71.9859,187.8091 C71.9649,187.3111 69.7439,137.7911 50.6109,115.8551 C50.4809,115.7071 50.4959,115.4811 50.6449,115.3511 C50.7939,115.2231 51.0199,115.2381 51.1489,115.3861 C70.4479,137.5111 72.6789,187.2801 72.6979,187.7801 C72.7069,187.9771 72.5539,188.1431 72.3569,188.1511 C72.3519,188.1521 72.3469,188.1521 72.3419,188.1521" id="Fill-123" fill="#50447E"></path>
                            <path d="M96.8741,33.7322 L110.6751,50.5552 C110.6751,50.5552 100.8601,62.6562 89.8201,66.6402 C78.7791,70.6252 66.5131,66.6402 66.5131,66.6402 L66.5131,84.4972 L22.9641,84.4972 C22.9641,84.4972 24.9031,35.3952 26.3371,34.9132 C36.6231,31.4552 50.7431,30.1382 57.3111,31.6662 C60.0001,32.2912 76.3261,40.8152 78.7791,41.1102 C81.2331,41.4052 96.8741,33.7322 96.8741,33.7322" id="Fill-126" fill="#ADA4F7"></path>
                            <path d="M38.7716,19.5408 C38.7716,19.5408 41.4396,18.6988 42.6106,17.0588 C43.7816,15.4178 43.7466,11.5468 43.7466,11.5468 C43.7466,11.5468 48.8156,13.7888 50.0876,13.4228 C51.3596,13.0568 53.5206,7.1188 51.6596,4.7308 C49.7976,2.3428 46.5486,5.6518 46.5486,5.6518 C46.5486,5.6518 45.6156,2.1308 41.9006,3.2018 C37.5406,4.4588 36.6806,9.0228 36.6806,9.0228 C36.6806,9.0228 36.0746,4.1678 33.1336,6.5028 C30.1926,8.8378 31.6546,14.3538 31.6546,14.3538 C31.6546,14.3538 29.2606,15.5778 29.9006,17.8648 C30.5406,20.1528 34.0046,22.1738 34.0046,22.1738 L38.7716,19.5408 Z" id="Fill-127" fill="#471E1D"></path>
                            <path d="M38.7765,26.5642 L38.5975,33.9532 C38.5975,33.9532 39.9255,36.1022 44.3915,36.5352 C47.7175,36.8582 48.9065,36.1512 48.9065,36.1512 L48.5325,32.4012 L48.1625,28.7432 L40.1255,26.8782 L38.7765,26.5642 Z" id="Fill-128" fill="#FDCAB9"></path>
                            <path d="M40.1251,26.8787 C40.1401,27.0807 40.2131,27.3207 40.3301,27.5957 C41.9521,31.3177 46.6111,32.1997 48.5321,32.4007 L48.1621,28.7437 L40.1251,26.8787 Z" id="Fill-129" fill="#F3917C"></path>
                            <path d="M50.2755,11.9324 C50.2755,11.9324 54.0655,21.2704 52.3585,26.3884 C50.6515,31.5064 45.8105,30.5314 42.9345,29.4344 C40.0595,28.3384 38.7755,26.5654 38.7755,26.5654 C38.7755,26.5654 36.0155,27.3674 34.2925,24.8594 C32.5695,22.3514 33.8035,19.5784 35.3845,18.9864 C36.9655,18.3944 38.7715,19.5404 38.7715,19.5404 L37.4295,16.8194 C37.4295,16.8194 44.0755,3.4354 50.2755,11.9324" id="Fill-130" fill="#FDCAB9"></path>
                            <path d="M38.3995,23.5876 C38.3275,23.5876 38.2535,23.5656 38.1905,23.5196 L34.8025,21.0626 C34.6425,20.9466 34.6075,20.7236 34.7225,20.5646 C34.8375,20.4036 35.0615,20.3686 35.2215,20.4846 L38.6095,22.9416 C38.7695,23.0576 38.8045,23.2806 38.6895,23.4406 C38.6195,23.5366 38.5105,23.5876 38.3995,23.5876" id="Fill-131" fill="#000000"></path>
                            <path d="M43.215,16.5593 C43.134,16.5593 43.053,16.5323 42.986,16.4763 C42.834,16.3503 42.815,16.1243 42.941,15.9733 C44.274,14.3783 45.874,14.9343 45.942,14.9593 C46.127,15.0263 46.223,15.2313 46.156,15.4163 C46.089,15.6013 45.883,15.6963 45.701,15.6313 C45.651,15.6143 44.492,15.2303 43.488,16.4313 C43.418,16.5163 43.317,16.5593 43.215,16.5593" id="Fill-132" fill="#000000"></path>
                            <path d="M51.2091,15.5637 C51.1281,15.5637 51.0471,15.5367 50.9801,15.4807 C50.2171,14.8457 49.3821,15.2727 49.3481,15.2927 C49.1741,15.3827 48.9581,15.3187 48.8651,15.1457 C48.7721,14.9727 48.8361,14.7577 49.0081,14.6637 C49.0611,14.6357 50.2971,13.9827 51.4381,14.9327 C51.5891,15.0587 51.6091,15.2837 51.4831,15.4357 C51.4131,15.5207 51.3111,15.5637 51.2091,15.5637" id="Fill-133" fill="#000000"></path>
                            <path d="M51.0235,19.1174 C50.8655,19.1174 50.7195,19.0104 50.6785,18.8484 L50.2415,17.1454 C50.1915,16.9544 50.3065,16.7604 50.4985,16.7114 C50.6865,16.6614 50.8835,16.7774 50.9325,16.9684 L51.3705,18.6714 C51.4195,18.8624 51.3035,19.0564 51.1135,19.1054 C51.0835,19.1134 51.0535,19.1174 51.0235,19.1174" id="Fill-134" fill="#000000"></path>
                            <path d="M45.5118,19.4675 C45.3528,19.4675 45.2078,19.3605 45.1658,19.1985 L44.7288,17.4955 C44.6788,17.3045 44.7938,17.1095 44.9858,17.0605 C45.1738,17.0135 45.3708,17.1265 45.4198,17.3175 L45.8578,19.0215 C45.9078,19.2125 45.7918,19.4065 45.6008,19.4555 C45.5718,19.4635 45.5408,19.4675 45.5118,19.4675" id="Fill-135" fill="#000000"></path>
                            <path d="M46.2462,24.5784 C46.4832,24.9994 46.7452,25.2534 47.0142,25.3144 C47.1682,25.3494 47.3192,25.3184 47.4482,25.2644 L46.2462,24.5784 Z M47.1482,26.0434 C47.0572,26.0434 46.9622,26.0344 46.8642,26.0134 C46.1532,25.8574 45.5832,25.1314 45.1692,23.8564 C45.1232,23.7164 45.1692,23.5624 45.2832,23.4694 C45.3982,23.3764 45.5592,23.3634 45.6852,23.4364 L48.2912,24.9234 C48.3862,24.9764 48.4512,25.0714 48.4682,25.1784 C48.4842,25.2864 48.4512,25.3954 48.3772,25.4754 C48.3522,25.5014 47.8442,26.0434 47.1482,26.0434 L47.1482,26.0434 Z" id="Fill-136" fill="#000000"></path>
                            <path d="M38.7716,19.5408 C38.7716,19.5408 41.6456,18.8508 42.5696,16.4058 C43.4926,13.9598 43.1986,11.8308 43.1986,11.8308 C43.1986,11.8308 44.7676,13.3458 47.2956,12.9158 C49.8246,12.4848 50.3566,9.8258 50.3566,9.8258 L47.8506,7.2398 C47.8506,7.2398 38.3976,9.8698 38.1406,9.5868 C37.8836,9.3048 34.7916,15.7418 34.7916,15.7418 L38.7716,19.5408 Z" id="Fill-137" fill="#471E1D"></path>
                            <path d="M35.2755,23.7205 C35.1565,23.7205 35.0395,23.6605 34.9715,23.5515 C34.8685,23.3835 34.9205,23.1635 35.0875,23.0595 L36.8725,21.9555 C37.0395,21.8515 37.2595,21.9035 37.3635,22.0715 C37.4665,22.2395 37.4155,22.4585 37.2485,22.5625 L35.4625,23.6675 C35.4045,23.7035 35.3395,23.7205 35.2755,23.7205" id="Fill-138" fill="#000000"></path>
                            <path d="M46.0841,17.4211 C46.0671,17.4211 42.3061,17.6601 42.3061,17.6601 C42.1591,17.6691 42.0481,17.7961 42.0571,17.9421 L42.1651,19.6441 C42.1881,19.9981 42.3461,20.3221 42.6121,20.5571 C42.8791,20.7921 43.2251,20.9111 43.5751,20.8861 L45.2151,20.7821 C45.5691,20.7591 45.8941,20.6011 46.1291,20.3341 C46.3631,20.0681 46.4801,19.7261 46.4571,19.3711 L46.3501,17.6701 C46.3451,17.5991 46.3131,17.5341 46.2601,17.4871 C46.2111,17.4441 46.1491,17.4211 46.0841,17.4211 M43.4881,21.6031 C42.9911,21.6031 42.5171,21.4241 42.1411,21.0931 C41.7301,20.7331 41.4861,20.2341 41.4521,19.6891 L41.3441,17.9881 C41.3271,17.7271 41.4131,17.4751 41.5871,17.2781 C41.7601,17.0811 41.9991,16.9631 42.2601,16.9471 L46.0221,16.7091 C46.2831,16.6911 46.5351,16.7771 46.7321,16.9511 C46.9291,17.1251 47.0461,17.3641 47.0631,17.6251 L47.1701,19.3261 C47.2051,19.8711 47.0251,20.3971 46.6641,20.8061 C46.3041,21.2161 45.8051,21.4611 45.2601,21.4951 L43.6201,21.5991 C43.5761,21.6021 43.5321,21.6031 43.4881,21.6031" id="Fill-139" fill="#EA366E"></path>
                            <path d="M62.2023,66.3669 L45.5273,66.3669 C44.1453,66.3669 43.0253,65.2469 43.0253,63.8649 L43.0253,47.1909 C43.0253,45.8089 44.1453,44.6889 45.5273,44.6889 L62.2023,44.6889 C63.5833,44.6889 64.7033,45.8089 64.7033,47.1909 L64.7033,63.8649 C64.7033,65.2469 63.5833,66.3669 62.2023,66.3669" id="Fill-140" fill="#FFFFFF"></path>
                            <polygon id="Fill-141" fill="#FFAF45" points="46.079 63.189 50.371 63.189 50.371 47.955 46.079 47.955"></polygon>
                            <polygon id="Fill-142" fill="#FFAF45" points="51.719 63.189 56.011 63.189 56.011 51.129 51.719 51.129"></polygon>
                            <polygon id="Fill-143" fill="#FFAF45" points="57.403 63.189 61.695 63.189 61.695 55.572 57.403 55.572"></polygon>
                            <path d="M41.6261,19.3069 C41.6011,19.3069 41.5741,19.3049 41.5481,19.2989 C41.5191,19.2919 38.5851,18.6479 35.9831,19.2029 C35.7951,19.2449 35.6011,19.1219 35.5601,18.9289 C35.5181,18.7359 35.6411,18.5459 35.8341,18.5049 C38.5901,17.9129 41.5791,18.5729 41.7051,18.6019 C41.8971,18.6449 42.0181,18.8359 41.9751,19.0289 C41.9381,19.1949 41.7901,19.3069 41.6261,19.3069" id="Fill-144" fill="#EA366E"></path>
                            <path d="M48.2472,22.6653 C48.2102,22.6653 48.1722,22.6593 48.1342,22.6463 C47.9472,22.5833 47.8462,22.3813 47.9082,22.1943 C48.7652,19.6343 47.7222,18.6123 47.6772,18.5693 C47.5342,18.4353 47.5242,18.2103 47.6572,18.0663 C47.7892,17.9233 48.0122,17.9103 48.1572,18.0413 C48.2172,18.0953 49.6012,19.3853 48.5862,22.4213 C48.5362,22.5703 48.3962,22.6653 48.2472,22.6653" id="Fill-145" fill="#000000"></path>
                            <path d="M52.3829,17.1067 C52.3709,17.1067 49.5909,17.2837 49.5909,17.2837 C49.5399,17.2867 49.4929,17.3097 49.4599,17.3477 C49.4259,17.3867 49.4089,17.4357 49.4119,17.4867 L49.5379,19.4647 C49.5769,20.0847 50.1179,20.5507 50.7339,20.5177 L51.6469,20.4597 C51.9459,20.4407 52.2209,20.3057 52.4199,20.0807 C52.6179,19.8547 52.7179,19.5647 52.6979,19.2637 L52.5729,17.2857 C52.5699,17.2347 52.5469,17.1887 52.5089,17.1537 C52.4739,17.1237 52.4299,17.1067 52.3829,17.1067 M50.6599,21.2337 C49.6979,21.2337 48.8879,20.4837 48.8249,19.5107 L48.6989,17.5317 C48.6679,17.0327 49.0479,16.6017 49.5459,16.5707 L52.3249,16.3947 C52.5669,16.3767 52.7989,16.4587 52.9809,16.6187 C53.1619,16.7777 53.2709,16.9987 53.2859,17.2407 L53.4109,19.2187 C53.4429,19.7097 53.2799,20.1837 52.9559,20.5517 C52.6309,20.9207 52.1819,21.1417 51.6919,21.1727 L50.7789,21.2307 C50.7389,21.2327 50.6989,21.2337 50.6599,21.2337" id="Fill-146" fill="#EA366E"></path>
                            <path d="M46.5724,19.428 C46.4524,19.428 46.3344,19.367 46.2664,19.257 C46.1644,19.089 46.2174,18.869 46.3854,18.766 C46.4604,18.72 48.2674,17.632 49.3584,18.492 C49.5124,18.615 49.5394,18.84 49.4174,18.994 C49.2944,19.15 49.0704,19.175 48.9154,19.053 C48.3354,18.592 47.1614,19.13 46.7584,19.376 C46.7004,19.411 46.6354,19.428 46.5724,19.428" id="Fill-147" fill="#EA366E"></path>
                            <path d="M39.1983,63.4724 C39.1983,63.4724 44.2233,60.8794 47.5203,60.5094 C50.8173,60.1394 52.3793,63.4724 52.3793,63.4724 C52.3793,63.4724 55.3293,64.3984 58.6263,64.7684 C61.9233,65.1394 64.5253,65.5104 64.5253,66.6204 C64.5253,67.7324 61.9233,68.4724 61.9233,68.4724 C61.9233,68.4724 66.0873,69.0294 64.5253,70.6964 C62.9643,72.3624 60.1873,72.9174 60.1873,72.9174 C60.1873,72.9174 63.6583,73.8444 58.9723,75.5114 C54.2883,77.1774 44.0013,77.5484 38.8203,73.6594 C33.6383,69.7694 39.1983,63.4724 39.1983,63.4724" id="Fill-148" fill="#FDCAB9"></path>
                            <path d="M26.337,34.9128 C26.337,34.9128 -3.104,48.4888 0.269,65.0168 C3.643,81.5448 42.591,79.1838 42.591,79.1838 L42.591,58.0808 L28.561,57.1068 L26.337,34.9128 Z" id="Fill-149" fill="#ADA4F7"></path>
                            <path d="M42.5919,58.4387 C42.5659,58.4387 42.5389,58.4357 42.5119,58.4297 C42.4279,58.4107 33.9909,56.5217 25.7989,56.7427 C25.6159,56.7427 25.4379,56.5927 25.4327326,56.3947 C25.4269,56.1977 25.5829,56.0337 25.7799,56.0287 C34.0709,55.8067 42.5849,57.7127 42.6699,57.7327 C42.8629,57.7767 42.9839,57.9677 42.9399,58.1607 C42.9019,58.3257 42.7549,58.4387 42.5919,58.4387" id="Fill-150" fill="#8758E7"></path>
                            <path d="M19.9537,54.6204 C19.5917,54.6204 19.3027,54.6744 19.1137,54.7964 C19.0207,54.8574 18.9137,54.9584 18.9137,55.2074 C18.9137,55.4404 19.0047,55.6244 19.1997,55.7884 C20.2517,56.6704 23.6097,56.4704 25.7597,56.2004 C23.8057,55.4144 21.3427,54.6204 19.9537,54.6204 M22.4787,57.1514 C20.9647,57.1514 19.4877,56.9624 18.7417,56.3354 C18.3877,56.0394 18.2007,55.6494 18.1997,55.2084 C18.1997,54.7704 18.3807,54.4204 18.7247,54.1974 C20.4647,53.0714 26.5307,55.7344 27.2157,56.0414 C27.3597,56.1054 27.4437,56.2554 27.4247,56.4114 C27.4057,56.5674 27.2867,56.6924 27.1317,56.7194 C26.7427,56.7874 24.5757,57.1514 22.4787,57.1514" id="Fill-151" fill="#8758E7"></path>
                            <path d="M46.215,36.9739 C46.236,36.9829 46.257,36.9939 46.277,37.0069 C47.133,37.5759 48.577,38.3169 49.085,38.1699 C49.219,37.8999 48.96,37.1779 48.625,36.5619 C48.201,36.6799 47.332,36.8879 46.215,36.9739 M38.928,35.0089 C39.628,37.0209 40.988,39.9429 42.592,40.0199 C44.94,40.1489 45.703,37.3339 45.734,37.2149 C45.758,37.1209 45.819,37.0419 45.903,36.9949 C45.424,37.0209 44.906,37.0219 44.361,36.9859 C42.257,36.8449 40.435,36.1809 38.928,35.0089 M42.728,40.7379 C42.671,40.7379 42.614,40.7369 42.557,40.7339 C39.653,40.5929 37.93,34.2429 37.858,33.9719 C37.817,33.8149 37.886,33.6499 38.027,33.5699 C38.167,33.4889 38.346,33.5149 38.459,33.6319 C40.004,35.2229 42.006,36.1119 44.409,36.2729 C46.766,36.4349 48.662,35.8069 48.68,35.8009 C48.839,35.7469 49.013,35.8109 49.099,35.9539 C49.267,36.2309 50.09,37.6499 49.79,38.4029 C49.699,38.6309 49.516,38.7929 49.274,38.8589 C48.463,39.0819 47.019,38.3039 46.278,37.8539 C45.828,39.0579 44.694,40.7379 42.728,40.7379" id="Fill-152" fill="#8758E7"></path>
                            <path d="M78.4825,42.7542 C77.7545,44.6432 77.3525,46.2552 77.5845,46.5262 C78.1755,46.4342 78.4755,44.7092 78.4825,42.7542 M77.5795,47.2302 C77.3465,47.2302 77.1485,47.1352 77.0135,46.9562 C76.2935,46.0012 77.9335,42.1292 78.4535,40.9652 C78.5205,40.8162 78.6805,40.7322 78.8395,40.7582 C79.0015,40.7862 79.1235,40.9202 79.1355,41.0832 C79.2425,42.4602 79.4545,46.9712 77.7105,47.2202 C77.6655,47.2272 77.6215,47.2302 77.5795,47.2302" id="Fill-153" fill="#8758E7"></path>
                            <path d="M52.379,63.8298 C52.354,63.8298 52.327,63.8268 52.301,63.8208 L48.331,62.9318 C48.139,62.8888 48.018,62.6978 48.061,62.5048 C48.104,62.3128 48.294,62.1908 48.487,62.2348 L52.457,63.1238 C52.65,63.1668 52.771,63.3578 52.728,63.5508 C52.691,63.7168 52.543,63.8298 52.379,63.8298" id="Fill-154" fill="#000000"></path>
                            <path d="M59.0607,69.0457 C57.4497,69.0457 55.2597,68.8767 52.7067,68.2427 C52.5157,68.1947 52.3987,68.0017 52.4467,67.8097 C52.4947,67.6187 52.6917,67.5027 52.8787,67.5487 C58.0787,68.8417 61.8167,68.1297 61.8537,68.1237 C62.0477,68.0817 62.2347,68.2117 62.2737,68.4037 C62.3117,68.5977 62.1857,68.7857 61.9927,68.8237 C61.9107,68.8397 60.8357,69.0457 59.0607,69.0457" id="Fill-155" fill="#000000"></path>
                            <path d="M56.7843,73.6189 C55.2823,73.6189 53.5603,73.4029 52.1913,72.6349 C52.0193,72.5379 51.9583,72.3199 52.0553,72.1479 C52.1513,71.9749 52.3683,71.9139 52.5413,72.0119 C55.3583,73.5929 60.0623,72.5789 60.1103,72.5689 C60.3073,72.5259 60.4933,72.6479 60.5363,72.8409 C60.5793,73.0329 60.4573,73.2229 60.2643,73.2659 C60.1523,73.2909 58.6353,73.6189 56.7843,73.6189" id="Fill-156" fill="#000000"></path>
                            <path d="M113.004,0.7234 C111.331,0.7234 109.541,4.9684 109.541,11.2874 C109.541,17.6064 111.331,21.8514 113.004,21.8514 C114.677,21.8514 116.468,17.6064 116.468,11.2874 C116.468,4.9684 114.677,0.7234 113.004,0.7234 M113.004,22.5654 C110.661,22.5654 108.826,17.6114 108.826,11.2874 C108.826,4.9634 110.661,0.0094 113.004,0.0094 C115.347,0.0094 117.183,4.9634 117.183,11.2874 C117.183,17.6114 115.347,22.5654 113.004,22.5654" id="Fill-157" fill="#80BAFF"></path>
                            <path d="M111.7814,19.2747 C111.6904,19.2747 111.6004,19.2407 111.5314,19.1707 C111.4314,19.0717 110.5474,18.0977 110.1754,14.6777 C110.1544,14.4817 110.2964,14.3057 110.4914,14.2837 C110.6944,14.2577 110.8634,14.4037 110.8854,14.6007 C111.2294,17.7687 112.0334,18.6617 112.0414,18.6707 C112.1744,18.8137 112.1704,19.0387 112.0304,19.1737 C111.9604,19.2407 111.8704,19.2747 111.7814,19.2747" id="Fill-158" fill="#8758E7"></path>
                            <path d="M38.3868,79.6443 C30.6858,79.6443 23.2648,78.7343 23.1768,78.7233 C22.9818,78.6993 22.8418,78.5203 22.8658,78.3253 C22.8908,78.1283 23.0738,77.9883 23.2648,78.0143 C23.3678,78.0273 33.6818,79.2873 42.5728,78.8283 C42.7668,78.7943 42.9378,78.9683 42.9478,79.1653 C42.9578,79.3633 42.8068,79.5313 42.6098,79.5403 C41.2218,79.6133 39.7998,79.6443 38.3868,79.6443" id="Fill-159" fill="#8758E7"></path>
                            <path d="M47.4112,188.1521 L13.4192,188.1521 C13.2222,188.1521 13.0622,187.9921 13.0622,187.7951 C13.0622,187.5971 13.2222,187.4371 13.4192,187.4371 L47.4112,187.4371 C47.6082,187.4371 47.7672,187.5971 47.7672,187.7951 C47.7672,187.9921 47.6082,188.1521 47.4112,188.1521" id="Fill-160" fill="#50447E"></path>
                            <path d="M98.6251,188.1521 L64.2031,188.1521 C64.0061,188.1521 63.8461,187.9921 63.8461,187.7951 C63.8461,187.5971 64.0061,187.4371 64.2031,187.4371 L98.6251,187.4371 C98.8221,187.4371 98.9821,187.5971 98.9821,187.7951 C98.9821,187.9921 98.8221,188.1521 98.6251,188.1521" id="Fill-161" fill="#50447E"></path>
                            <path d="M31.3292,219.2478 C20.4612,219.2478 11.1262,217.3228 10.9972,217.2958 C10.8042,217.2548 10.6802,217.0648 10.7212,216.8728 C10.7622,216.6798 10.9542,216.5578 11.1432,216.5968 C11.3222,216.6348 29.1062,220.2968 44.0972,217.4518 C44.2912,217.4108 44.4772,217.5418 44.5152,217.7358 C44.5512,217.9298 44.4242,218.1168 44.2292,218.1528 C39.9982,218.9568 35.5482,219.2478 31.3292,219.2478" id="Fill-164" fill="#FFFFFF"></path>
                            <path d="M94.962,218.4382 C79.814,218.4382 69.895,217.0842 69.742,217.0632 C69.547,217.0362 69.411,216.8552 69.439,216.6602 C69.465,216.4652 69.637,216.3232 69.842,216.3562 C70.077,216.3902 93.733,219.6142 123.926,216.0452 C124.126,216.0152 124.299,216.1622 124.322,216.3582 C124.346,216.5542 124.205,216.7312 124.01,216.7542 C113.249,218.0262 103.311,218.4382 94.962,218.4382" id="Fill-165" fill="#FFFFFF"></path>
                        </g>
                    </g>
                </g>
            </g>
        </g>
    </g>
</svg>