<?xml version="1.0" encoding="UTF-8"?>
<svg width="14px" height="14px" viewBox="0 0 14 14" version="1.1" xmlns="http://www.w3.org/2000/svg" xmlns:xlink="http://www.w3.org/1999/xlink">
    <title>ICON/16px/删除_Normal</title>
    <g id="ICON/16px/删除_Normal" stroke="none" stroke-width="1" fill="none" fill-rule="evenodd">
        <g id="编组">
            <polygon id="路径" points="0 0 14 0 14 14 0 14"></polygon>
            <path d="M12.8333333,2.91666667 L12.8333333,4.08333333 L11.6666667,4.08333333 L11.6666667,11.6666667 C11.6666667,12.3109989 11.1443322,12.8333333 10.5,12.8333333 L3.5,12.8333333 C2.85566779,12.8333333 2.33333333,12.3109989 2.33333333,11.6666667 L2.33333333,4.08333333 L1.16666667,4.08333333 L1.16666667,2.91666667 L12.8333333,2.91666667 Z M10.5,4.08333333 L3.5,4.08333333 L3.5,11.6666667 L10.5,11.6666667 L10.5,4.08333333 Z M6.41666667,5.25 L6.41666667,9.91666667 L5.25,9.91666667 L5.25,5.25 L6.41666667,5.25 Z M8.75,5.25 L8.75,9.91666667 L7.58333333,9.91666667 L7.58333333,5.25 L8.75,5.25 Z M9.84375,1.16666667 L9.84375,2.33333333 L4.15625,2.33333333 L4.15625,1.16666667 L9.84375,1.16666667 Z" id="形状结合" fill="#86909C" fill-rule="nonzero"></path>
        </g>
    </g>
</svg>