<?xml version="1.0" encoding="UTF-8"?>
<svg width="16px" height="16px" viewBox="0 0 16 16" version="1.1" xmlns="http://www.w3.org/2000/svg" xmlns:xlink="http://www.w3.org/1999/xlink">
    <title></title>
    <g id="页面-1" stroke="none" stroke-width="1" fill="none" fill-rule="evenodd">
        <g id="员工查询-已选条件" transform="translate(-1562.000000, -121.000000)" fill="#C0C4CC">
            <g id="编组-67" transform="translate(1448.000000, 109.000000)">
                <g id="shanchu复制-2" transform="translate(114.000000, 12.000000)">
                    <path d="M8,0 C12.418278,0 16,3.581722 16,8 C16,12.418278 12.418278,16 8,16 C3.581722,16 0,12.418278 0,8 C0,3.581722 3.581722,0 8,0 Z M5.7843055,5.08859116 C5.58943736,4.95359511 5.32001296,4.97288026 5.14644661,5.14644661 L5.14644661,5.14644661 L5.08859116,5.2156945 C4.95359511,5.41056264 4.97288026,5.67998704 5.14644661,5.85355339 L5.14644661,5.85355339 L7.268,7.975 L5.14644661,10.0961941 C4.95118446,10.2914562 4.95118446,10.6080387 5.14644661,10.8033009 C5.34170876,10.998563 5.65829124,10.998563 5.85355339,10.8033009 L5.85355339,10.8033009 L7.975,8.682 L10.0961941,10.8033009 L10.165442,10.8611563 C10.3603101,10.9961524 10.6297345,10.9768672 10.8033009,10.8033009 L10.8033009,10.8033009 L10.8611563,10.734053 C10.9961524,10.5391848 10.9768672,10.2697604 10.8033009,10.0961941 L10.8033009,10.0961941 L8.682,7.975 L10.8033009,5.85355339 C10.998563,5.65829124 10.998563,5.34170876 10.8033009,5.14644661 C10.6080387,4.95118446 10.2914562,4.95118446 10.0961941,5.14644661 L10.0961941,5.14644661 L7.975,7.268 L5.85355339,5.14644661 Z" id="形状结合"></path>
                </g>
            </g>
        </g>
    </g>
</svg>