<?xml version="1.0" encoding="UTF-8"?>
<svg width="24px" height="24px" viewBox="0 0 24 24" version="1.1" xmlns="http://www.w3.org/2000/svg" xmlns:xlink="http://www.w3.org/1999/xlink">
    <title></title>
    <g id="页面-1" stroke="none" stroke-width="1" fill="none" fill-rule="evenodd">
        <g id="弹窗与标注" transform="translate(-779.000000, -454.000000)">
            <g id="编组-6备份" transform="translate(444.000000, 441.000000)">
                <g id="ICON/16px/删除备份" transform="translate(335.000000, 13.000000)">
                    <rect id="矩形" fill="currentColor" opacity="0.05" x="0" y="0" width="24" height="24" rx="12"></rect>
                    <path d="M17.8333333,7.91666667 L17.8333333,9.08333333 L16.6666667,9.08333333 L16.6666667,16.6666667 C16.6666667,17.3109989 16.1443322,17.8333333 15.5,17.8333333 L8.5,17.8333333 C7.85566779,17.8333333 7.33333333,17.3109989 7.33333333,16.6666667 L7.33333333,9.08333333 L6.16666667,9.08333333 L6.16666667,7.91666667 L17.8333333,7.91666667 Z M15.5,9.08333333 L8.5,9.08333333 L8.5,16.6666667 L15.5,16.6666667 L15.5,9.08333333 Z M11.4166667,10.25 L11.4166667,14.9166667 L10.25,14.9166667 L10.25,10.25 L11.4166667,10.25 Z M13.75,10.25 L13.75,14.9166667 L12.5833333,14.9166667 L12.5833333,10.25 L13.75,10.25 Z M14.9166667,6.16666667 L14.9166667,7.33333333 L9.08333333,7.33333333 L9.08333333,6.16666667 L14.9166667,6.16666667 Z" id="形状结合" fill="#4E5969" fill-rule="nonzero"></path>
                </g>
            </g>
        </g>
    </g>
</svg>