<svg width="90" height="90" viewBox="0 0 90 90" fill="none" xmlns="http://www.w3.org/2000/svg">
<path d="M15.4687 84.375H73.5936C77.2181 84.375 80.1562 81.4368 80.1562 77.8124V21.5125C80.1562 20.0344 79.5745 18.6157 78.5367 17.5632L68.4179 7.30068C67.3608 6.22858 65.9181 5.625 64.4125 5.625H15.4688C12.3621 5.625 9.84375 8.1434 9.84375 11.25V78.75C9.84375 81.8566 12.3621 84.375 15.4687 84.375Z" fill="url(#paint0_linear_141_466)"/>
<mask id="mask0_141_466" style="mask-type:alpha" maskUnits="userSpaceOnUse" x="9" y="5" width="72" height="80">
<path d="M15.4687 84.375H73.5936C77.2181 84.375 80.1562 81.4368 80.1562 77.8124V21.5125C80.1562 20.0344 79.5745 18.6157 78.5367 17.5632L68.4179 7.30068C67.3608 6.22858 65.9181 5.625 64.4125 5.625H15.4688C12.3621 5.625 9.84375 8.1434 9.84375 11.25V78.75C9.84375 81.8566 12.3621 84.375 15.4687 84.375Z" fill="url(#paint1_linear_141_466)"/>
</mask>
<g mask="url(#mask0_141_466)">
<path d="M28.125 31.6406V59.7656L45 46.4062L61.875 59.7656V32.3438" stroke="white" stroke-width="5.625" stroke-linecap="round" stroke-linejoin="round"/>
<path opacity="0.6" d="M64.6875 5.625H80.1562V21.0938H67.5C65.9467 21.0938 64.6875 19.8346 64.6875 18.2812V5.625Z" fill="white"/>
</g>
<defs>
<linearGradient id="paint0_linear_141_466" x1="9.14063" y1="5.625" x2="78.4081" y2="86.4992" gradientUnits="userSpaceOnUse">
<stop stop-color="#5A88FF"/>
<stop offset="1" stop-color="#3C71FF"/>
<stop offset="1" stop-color="#497BFF"/>
</linearGradient>
<linearGradient id="paint1_linear_141_466" x1="9.14062" y1="5.625" x2="75.9366" y2="86.4234" gradientUnits="userSpaceOnUse">
<stop stop-color="#5A85F6"/>
<stop offset="1" stop-color="#00A063"/>
</linearGradient>
</defs>
</svg>
