<svg width="16" height="16" viewBox="0 0 16 16" fill="none" xmlns="http://www.w3.org/2000/svg">
<path fill-rule="evenodd" clip-rule="evenodd" d="M1.88638 3.0562C2.40935 3.0562 2.8333 2.63225 2.8333 2.10928C2.8333 1.58631 2.40935 1.16235 1.88638 1.16235C1.36341 1.16235 0.939453 1.58631 0.939453 2.10928C0.939453 2.63225 1.36341 3.0562 1.88638 3.0562ZM4.47852 1.35928C4.0643 1.35928 3.72852 1.69507 3.72852 2.10928C3.72852 2.5235 4.0643 2.85928 4.47852 2.85928H14.9619C15.3761 2.85928 15.7119 2.5235 15.7119 2.10928C15.7119 1.69507 15.3761 1.35928 14.9619 1.35928H4.47852ZM4.47852 7.24991C4.0643 7.24991 3.72852 7.58569 3.72852 7.99991C3.72852 8.41412 4.0643 8.74991 4.47852 8.74991H14.9619C15.3761 8.74991 15.7119 8.41412 15.7119 7.99991C15.7119 7.58569 15.3761 7.24991 14.9619 7.24991H4.47852ZM3.72852 13.8905C3.72852 13.4763 4.0643 13.1405 4.47852 13.1405H14.9619C15.3761 13.1405 15.7119 13.4763 15.7119 13.8905C15.7119 14.3047 15.3761 14.6405 14.9619 14.6405H4.47852C4.0643 14.6405 3.72852 14.3047 3.72852 13.8905ZM2.83336 7.9999C2.83336 8.52181 2.41027 8.9449 1.88836 8.9449C1.36645 8.9449 0.943359 8.52181 0.943359 7.9999C0.943359 7.47799 1.36645 7.0549 1.88836 7.0549C2.41027 7.0549 2.83336 7.47799 2.83336 7.9999ZM1.88836 14.8355C2.41027 14.8355 2.83336 14.4124 2.83336 13.8905C2.83336 13.3686 2.41027 12.9455 1.88836 12.9455C1.36645 12.9455 0.943359 13.3686 0.943359 13.8905C0.943359 14.4124 1.36645 14.8355 1.88836 14.8355Z" fill="currentColor"/>
</svg>
