<svg width="16" height="16" viewBox="0 0 16 16" fill="none" xmlns="http://www.w3.org/2000/svg">
<g clip-path="url(#clip0_30_13822)">
<path fill-rule="evenodd" clip-rule="evenodd" d="M0.845703 2.55635C0.845703 1.61158 1.61158 0.845703 2.55635 0.845703H8H13.4437C14.3884 0.845703 15.1543 1.61159 15.1543 2.55635V8V13.4437C15.1543 14.3884 14.3884 15.1543 13.4437 15.1543H8H2.55635C1.61159 15.1543 0.845703 14.3884 0.845703 13.4437V8V2.55635ZM2.3457 8.75V13.4437C2.3457 13.56 2.44001 13.6543 2.55635 13.6543H7.25V8.75H2.3457ZM7.25 7.25H2.3457V2.55635C2.3457 2.44001 2.44001 2.3457 2.55635 2.3457H7.25V7.25ZM8.75 8.75V13.6543H13.4437C13.56 13.6543 13.6543 13.56 13.6543 13.4437V8.75H8.75ZM13.6543 7.25H8.75V2.3457H13.4437C13.56 2.3457 13.6543 2.44001 13.6543 2.55635V7.25Z" fill="currentColor"/>
</g>
<defs>
<clipPath id="clip0_30_13822">
<rect width="16" height="16" fill="white"/>
</clipPath>
</defs>
</svg>
