<?xml version="1.0" encoding="UTF-8"?>
<svg width="10px" height="10px" viewBox="0 0 10 10" version="1.1" xmlns="http://www.w3.org/2000/svg" xmlns:xlink="http://www.w3.org/1999/xlink">
    <title>编组 11</title>
    <g id="页面-1" stroke="none" stroke-width="1" fill="none" fill-rule="evenodd">
        <g id="我的信息-新（多数据情况）" transform="translate(-1385.000000, -324.000000)">
            <g id="编组-9" transform="translate(230.000000, 312.000000)">
                <g id="编组-6" transform="translate(1040.000000, 0.000000)">
                    <g id="编组-11" transform="translate(115.000000, 12.000000)">
                        <rect id="矩形" x="0" y="0" width="10" height="10"></rect>
                        <path d="M5.46852129,3.58565161 L8.35012198,7.18765248 C8.52262676,7.40328344 8.48766607,7.71792963 8.2720351,7.8904344 C8.18337858,7.96135962 8.07322332,8 7.95968758,8 L2.04031242,8 C1.76417005,8 1.54031242,7.77614237 1.54031242,7.5 C1.54031242,7.38646425 1.5789528,7.276309 1.64987802,7.18765248 L4.53147871,3.58565161 C4.73848444,3.32689445 5.11605987,3.28494162 5.37481703,3.49194735 C5.40941585,3.51962641 5.44084223,3.55105279 5.46852129,3.58565161 Z" id="三角形备份-2" fill="#AAAAAA" transform="translate(5.000000, 5.500000) scale(1, -1) translate(-5.000000, -5.500000) "></path>
                    </g>
                </g>
            </g>
        </g>
    </g>
</svg>