<?xml version="1.0" encoding="UTF-8"?>
<svg width="16px" height="16px" viewBox="0 0 16 16" version="1.1" xmlns="http://www.w3.org/2000/svg" xmlns:xlink="http://www.w3.org/1999/xlink">
    <title>16px/线性/通用/icon-download</title>
    <g id="页面-1" stroke="none" stroke-width="1" fill="none" fill-rule="evenodd">
        <g id="软件下载hover" transform="translate(-978.000000, -226.000000)">
            <g id="软件列表备份-3" transform="translate(630.000000, 204.000000)">
                <g id="16px/线性/通用/icon-download" transform="translate(348.000000, 22.000000)">
                    <rect id="矩形" x="0" y="0" width="16" height="16" rx="2"></rect>
                    <path d="M3.75,10.33333 C3.98012,10.33333 4.16667,10.51988 4.16667,10.75 L4.16667,12 L11.83333,12 L11.83333,10.75 C11.83333,10.51988 12.01988,10.33333 12.25,10.33333 L13.0833,10.33333 C13.3135,10.33333 13.5,10.51988 13.5,10.75 L13.5,12.8333 C13.5,13.2936 13.1269,13.6667 12.6667,13.6667 L3.333333,13.6667 C2.873096,13.6667 2.5,13.2936 2.5,12.8333 L2.5,10.75 C2.5,10.51988 2.686548,10.33333 2.916667,10.33333 L3.75,10.33333 Z M8.39578,9.40767 L11.52057,6.28289 C11.68329,6.12017 11.68329,5.85635 11.52057,5.69363 L10.93131,5.10437 C10.76859,4.94166 10.50478,4.94166 10.34206,5.10437 L8.83325,6.61308 L8.83333,2.416666 C8.83333,2.186547 8.64679,2 8.41667,2 L7.58333,2 C7.35321,2 7.16667,2.186547 7.16667,2.416666 L7.16624,6.41096 L5.86024,5.10437 C5.69753,4.94166 5.43371,4.94166 5.27099,5.10437 L4.68173,5.69363 C4.51902,5.85635 4.51902,6.12017 4.68173,6.28289 L7.80652,9.40767 C7.96924,9.57039 8.23306,9.57039 8.39578,9.40767 Z" id="Combined-Shape" fill="#4E5969" fill-rule="nonzero"></path>
                </g>
            </g>
        </g>
    </g>
</svg>