<?xml version="1.0" encoding="UTF-8"?>
<svg width="16px" height="16px" viewBox="0 0 16 16" version="1.1" xmlns="http://www.w3.org/2000/svg" xmlns:xlink="http://www.w3.org/1999/xlink">
    <title></title>
    <g id="页面-1" stroke="none" stroke-width="1" fill="none" fill-rule="evenodd">
        <g id="输入完后Hover选项" transform="translate(-1024.000000, -144.000000)">
            <g id="编组-6备份-2" transform="translate(260.000000, 80.000000)">
                <g id="编组" transform="translate(764.000000, 64.000000)">
                    <polygon id="路径" points="0 0 16 0 16 16 0 16"></polygon>
                    <path d="M8,14.6666667 C4.318,14.6666667 1.33333333,11.682 1.33333333,8 C1.33333333,4.318 4.318,1.33333333 8,1.33333333 C11.682,1.33333333 14.6666667,4.318 14.6666667,8 C14.6666667,11.682 11.682,14.6666667 8,14.6666667 Z M8,13.3333333 C10.9455187,13.3333333 13.3333333,10.9455187 13.3333333,8 C13.3333333,5.05448133 10.9455187,2.66666667 8,2.66666667 C5.05448133,2.66666667 2.66666667,5.05448133 2.66666667,8 C2.66666667,10.9455187 5.05448133,13.3333333 8,13.3333333 Z M5.16666667,7.33333333 L10.8333333,7.33333333 C11.1094757,7.33333333 11.3333333,7.55719096 11.3333333,7.83333333 L11.3333333,8.16666667 C11.3333333,8.44280904 11.1094757,8.66666667 10.8333333,8.66666667 L5.16666667,8.66666667 C4.89052429,8.66666667 4.66666667,8.44280904 4.66666667,8.16666667 L4.66666667,7.83333333 C4.66666667,7.55719096 4.89052429,7.33333333 5.16666667,7.33333333 Z" id="形状" fill="#86909C" fill-rule="nonzero"></path>
                </g>
            </g>
        </g>
    </g>
</svg>