<?xml version="1.0" encoding="UTF-8"?>
<svg width="16px" height="16px" viewBox="0 0 16 16" version="1.1" xmlns="http://www.w3.org/2000/svg" xmlns:xlink="http://www.w3.org/1999/xlink">
    <title></title>
    <g id="页面-1" stroke="none" stroke-width="1" fill="none" fill-rule="evenodd">
        <g id="输入完后Hover选项" transform="translate(-996.000000, -144.000000)">
            <g id="编组-6备份-2" transform="translate(260.000000, 80.000000)">
                <g id="编组" transform="translate(736.000000, 64.000000)">
                    <polygon id="路径" points="0 0 16 0 16 16 0 16"></polygon>
                    <path d="M8.50103627,1.29007363 L13.5010363,4.18481047 C13.8098532,4.36359924 14,4.69339878 14,5.05023676 L14,10.8445001 C14,11.2013381 13.8098532,11.5311376 13.5010363,11.7099264 L8.50103627,14.6046632 C8.19110893,14.7840948 7.80889107,14.7840948 7.49896373,14.6046632 L2.49896373,11.7099264 C2.19014676,11.5311376 2,11.2013381 2,10.8445001 L2,5.05023676 C2,4.69339878 2.19014676,4.36359924 2.49896373,4.18481047 L7.49896373,1.29007363 C7.80889107,1.11064201 8.19110893,1.11064201 8.50103627,1.29007363 Z M8,2.45957895 L3.26315789,5.20189474 L3.26315789,10.6928421 L8,13.4351579 L12.7368421,10.6928421 L12.7368421,5.20189474 L8,2.45957895 Z M8,10.4736842 C6.60475432,10.4736842 5.47368421,9.3426141 5.47368421,7.94736842 C5.47368421,6.55212274 6.60475432,5.42105263 8,5.42105263 C9.39524568,5.42105263 10.5263158,6.55212274 10.5263158,7.94736842 C10.5263158,9.3426141 9.39524568,10.4736842 8,10.4736842 Z M8,9.21052632 C8.69762284,9.21052632 9.26315789,8.64499126 9.26315789,7.94736842 C9.26315789,7.24974558 8.69762284,6.68421053 8,6.68421053 C7.30237716,6.68421053 6.73684211,7.24974558 6.73684211,7.94736842 C6.73684211,8.64499126 7.30237716,9.21052632 8,9.21052632 Z" id="形状" fill="#86909C" fill-rule="nonzero"></path>
                </g>
            </g>
        </g>
    </g>
</svg>