<?xml version="1.0" encoding="UTF-8"?>
<svg width="14px" height="14px" viewBox="0 0 14 14" version="1.1" xmlns="http://www.w3.org/2000/svg" xmlns:xlink="http://www.w3.org/1999/xlink">
    <title>ICON/14px/编辑_hover</title>
    <g id="ICON/14px/编辑_hover" stroke="none" stroke-width="1" fill="none" fill-rule="evenodd">
        <g id="编组">
            <polygon id="路径" points="0 0 14 0 14 14 0 14"></polygon>
        </g>
        <g id="编组-2" transform="translate(1.400000, 0.500000)" fill="#86909C" fill-rule="nonzero">
            <path d="M11.52,3.70991438 L11.52,10.595692 C11.52,11.6560788 10.6603867,12.515692 9.6,12.515692 L1.92,12.515692 C0.85961328,12.515692 2.18491891e-13,11.6560788 2.18491891e-13,10.595692 L2.18491891e-13,2.91569204 C2.18491891e-13,1.85530532 0.85961328,0.995692042 1.92,0.995692042 L8.80393907,0.995303161 L7.46054933,2.33869291 L1.92,2.33969204 C1.63369559,2.33969204 1.39617912,2.54857807 1.35153887,2.82226185 L1.344,2.91569204 L1.344,10.595692 C1.344,10.8819965 1.55288603,11.1195129 1.82656981,11.1641532 L1.92,11.171692 L9.6,11.171692 C9.88630441,11.171692 10.1238209,10.962806 10.1684611,10.6891222 L10.176,10.595692 L10.1765182,5.05330413 L11.52,3.70991438 Z" id="路径"></path>
            <polygon id="路径" transform="translate(8.614057, 3.920200) rotate(-315.000000) translate(-8.614057, -3.920200) " points="9.33405743 0.000395979798 9.33405743 7.28008858 8.61405743 7.84039999 7.89518432 7.28008858 7.89405743 4.21250234e-13"></polygon>
        </g>
    </g>
</svg>