<?xml version="1.0" encoding="UTF-8"?>
<svg width="16px" height="16px" viewBox="0 0 16 16" version="1.1" xmlns="http://www.w3.org/2000/svg" xmlns:xlink="http://www.w3.org/1999/xlink">
    <title></title>
    <g id="页面-1" stroke="none" stroke-width="1" fill="none" fill-rule="evenodd">
        <g id="员工查询-已选条件-展开" transform="translate(-1628.000000, -139.000000)">
            <g id="编辑" transform="translate(1628.000000, 137.000000)">
                <g id="编组-22" transform="translate(0.000000, 2.000000)">
                    <rect id="矩形" x="0" y="0" width="16" height="16"></rect>
                    <path d="M7.59001572,8.36217571 C7.69663915,8.46879914 7.83765723,8.52211085 7.97695558,8.52211085 C8.11625393,8.52211085 8.25555228,8.46879914 8.36389544,8.36217571 L14.7870971,1.93897406 C15.0003439,1.7257272 15.0003439,1.38006093 14.7870971,1.16681407 C14.5738502,0.953567217 14.228184,0.953567217 14.0149371,1.16681407 L7.59001572,7.59001572 C7.37504914,7.80326258 7.37504914,8.14892885 7.59001572,8.36217571 L7.59001572,8.36217571 Z" id="路径" fill="#00CFC5" fill-rule="nonzero"></path>
                    <path d="M9.5,1 L9.5,2 L3,2 C2.48716416,2 2.06449284,2.38604019 2.00672773,2.88337887 L2,3 L2,13 C2,13.5128358 2.38604019,13.9355072 2.88337887,13.9932723 L3,14 L13,14 C13.5128358,14 13.9355072,13.6139598 13.9932723,13.1166211 L14,13 L14,6.5 L15,6.5 L15,13 C15,14.1045695 14.1045695,15 13,15 L3,15 C1.8954305,15 1,14.1045695 1,13 L1,3 C1,1.8954305 1.8954305,1 3,1 L9.5,1 Z" id="形状结合" fill="#00CFC5" fill-rule="nonzero"></path>
                    <circle id="椭圆形" fill="#00CFC5" cx="9.5" cy="1.5" r="1"></circle>
                    <circle id="椭圆形备份" fill="#00CFC5" cx="14.5" cy="6.5" r="1"></circle>
                </g>
            </g>
        </g>
    </g>
</svg>