<?xml version="1.0" encoding="UTF-8"?>
<svg version="1.1" width="79px" height="91px" viewBox="0 0 79.0 91.0"
    xmlns="http://www.w3.org/2000/svg" xmlns:xlink="http://www.w3.org/1999/xlink">
    <defs>
        <clipPath id="i0">
            <path d="M79,0 L79,90 L0,90 L0,0 L79,0 Z"></path>
        </clipPath>
        <clipPath id="i1">
            <path
                d="M46.454561,0 L80.9825893,21.2475486 C82.7571028,22.3395328 83.8380551,24.2739442 83.8380551,26.3575295 L83.8380551,60.9936994 C83.8380551,65.4119774 80.2563331,68.9936994 75.8380551,68.9936994 L8,68.9936994 C3.581722,68.9936994 4.46530217e-15,65.4119774 0,60.9936994 L0,26.728863 C-3.8320476e-15,24.4479284 1.29331424,22.3642586 3.33734625,21.3520354 L46.454561,0 Z">
            </path>
        </clipPath>
        <clipPath id="i2">
            <path
                d="M59.8042578,0 C63.6702511,2.72352034e-15 66.8042578,3.13400675 66.8042578,7 L66.8042578,62.3648323 C66.8042578,66.2308255 63.6702511,69.3648323 59.8042578,69.3648323 L7,69.3648323 C3.13400675,69.3648323 4.73447626e-16,66.2308255 0,62.3648323 L0,7 C-4.73447626e-16,3.13400675 3.13400675,7.10171439e-16 7,0 L59.8042578,0 Z">
            </path>
        </clipPath>
        <clipPath id="i3">
            <path
                d="M21.157173,0 C27.2680752,0 32.2223558,6.11005297 32.2223558,13.6459265 C32.2223558,18.5254768 27.418385,23.8971432 27.0235032,25.2189358 C26.6286214,26.5407284 26.5963515,27.5754886 27.0426104,28.0141046 C27.7368381,28.6964434 29.5239968,29.3902465 29.5239968,29.3902465 L38.8950092,33.0422663 C40.8689937,33.7509306 42.4154018,35.6692919 42.4154018,37.7698083 L42.4154018,38.7659296 C42.4154018,41.0579425 40.5539374,42.4604098 38.2657459,42.4604098 L4.14923125,42.4604098 C1.86146437,42.4604098 0,41.0579425 0,38.7659296 L0,37.7698083 C0,35.6697165 1.54640813,33.8082521 3.51996797,33.0991633 L11.9678911,29.3341987 C11.9678911,29.3341987 12.0314992,29.3146433 12.140414,29.2787997 L12.3354788,29.2132264 C13.0088877,28.9823081 14.4144599,28.4546313 14.8844967,27.92791 C15.3018825,27.4604208 15.4305375,25.9169849 14.9019054,24.9043042 C14.3736979,23.8916234 10.0928394,18.3199684 10.0928394,13.6463511 C10.0928394,6.11005297 15.0466954,0 21.157173,0 Z">
            </path>
        </clipPath>
        <clipPath id="i4">
            <path
                d="M0.929608595,7.68819643 C2.70132662,4.88789658 6.40767942,4.05406627 9.20797927,5.8257843 L41.9190275,26.5216944 L74.6300758,5.8257843 C75.5898653,5.21853633 76.7022972,4.8961757 77.8380551,4.8961757 C81.1517636,4.8961757 83.8380551,7.5824672 83.8380551,10.8961757 L83.8380551,37.9889799 C83.8380551,42.4072579 80.2563331,45.9889799 75.8380551,45.9889799 L8,45.9889799 C3.581722,45.9889799 5.41083001e-16,42.4072579 0,37.9889799 L0,10.8961757 C-5.22890817e-16,9.76041779 0.322360624,8.64798595 0.929608595,7.68819643 Z">
            </path>
        </clipPath>
        <linearGradient id="i5" x1="41.9190275px" y1="0px" x2="41.9190275px" y2="36.3980529px"
            gradientUnits="userSpaceOnUse">
            <stop stop-color="#D1E2F3" offset="0%"></stop>
            <stop stop-color="#ECF3FC" offset="100%"></stop>
        </linearGradient>
        <clipPath id="i6">
            <path
                d="M34.2732919,0 C68.1725299,-2.73303082e-14 95.7174767,27.2059544 96.2649857,60.9747166 L96.2732919,62 L0,62 L0,0 L34.2732919,0 Z">
            </path>
        </clipPath>
        <linearGradient id="i7" x1="96.2732919px" y1="42.0158796px" x2="43.7466479px" y2="56.5333175px"
            gradientUnits="userSpaceOnUse">
            <stop stop-color="rgba(255, 255, 255, 0)" offset="0%"></stop>
            <stop stop-color="#FFFFFF" offset="100%"></stop>
        </linearGradient>
    </defs>
    <g transform="translate(0.0 0.21753078955225646)">
        <g clip-path="url(#i0)">
            <!-- <polygon points="0,0 79,0 79,90 0,90 0,0" stroke="none" fill="#FFFFFF"></polygon> -->
            <g transform="translate(13.911944908144505 16.0113567734561)">
                <g transform="translate(0.0 14.006300564952376)">
                    <g clip-path="url(#i1)">
                        <polygon points="0,0 65.0880551,0 65.0880551,59.9823427 0,59.9823427 0,0" stroke="none"
                            fill="#EEF5FD"></polygon>
                    </g>
                </g>
                <g transform="translate(8.516898642327583 0.0)">
                    <g clip-path="url(#i2)">
                        <polygon points="0,0 56.5711564,0 56.5711564,69.3648323 0,69.3648323 0,0" stroke="none"
                            fill="#ECF4FC"></polygon>
                    </g>
                </g>
                <g transform="translate(20.711326654752934 21.07230469660416)">
                    <g clip-path="url(#i3)">
                        <polygon points="0,0 42.4154018,0 42.4154018,42.4604098 0,42.4604098 0,0" stroke="none"
                            fill="#FFFFFF"></polygon>
                    </g>
                </g>
                <g transform="translate(0.0 37.01102010054211)">
                    <g clip-path="url(#i4)">
                        <polygon
                            points="0,4.89540392 65.0880551,4.89540392 65.0880551,36.9776231 0,36.9776231 0,4.89540392"
                            stroke="none" fill="url(#i5)"></polygon>
                    </g>
                </g>
            </g>
            <g transform="translate(-40.44231947139269 28.677073426634706)">
                <g clip-path="url(#i6)">
                    <polygon points="40.4423195,0 96.2732919,0 96.2732919,61.3229266 40.4423195,61.3229266 40.4423195,0"
                        stroke="none" fill="url(#i7)"></polygon>
                </g>
            </g>
        </g>
    </g>
</svg>