<?xml version="1.0" encoding="UTF-8"?>
<svg width="16px" height="16px" viewBox="0 0 16 16" version="1.1" xmlns="http://www.w3.org/2000/svg" xmlns:xlink="http://www.w3.org/1999/xlink">
    <title>眼睛_隐藏备份</title>
    <g id="页面-1" stroke="none" stroke-width="1" fill="none" fill-rule="evenodd">
        <g id="图标" transform="translate(-251.000000, -225.000000)" fill-rule="nonzero">
            <g id="眼睛_隐藏备份" transform="translate(251.000000, 225.000000)">
                <rect id="矩形" fill="#000000" opacity="0" x="0" y="0" width="16" height="16"></rect>
                <path d="M6.6,12.1333333 L7.8,10.9333333 L7.93333333,10.9333333 C10.2,10.9333333 11.8666667,10.0666667 13.1333333,8.26666667 C12.7333333,7.73333334 12.2666667,7.26666667 11.8,6.86666667 L12.8,6 C13.5333333,6.6 14.1333333,7.4 14.6666667,8.26666667 C13.1333333,10.9333333 10.8666667,12.2 8,12.2 C7.53333333,12.2666667 7.06666667,12.2 6.6,12.1333333 L6.6,12.1333333 Z M2.86666667,10.2666667 C2.33333333,9.73333334 1.8,9.06666667 1.33333333,8.26666667 C2.86666666,5.6 5.13333333,4.33333333 8,4.33333333 L8.73333333,4.33333333 L7.4,5.66666667 C5.4,5.8 3.86666667,6.66666667 2.73333333,8.26666667 C3,8.66666667 3.33333333,9.06666667 3.66666667,9.33333333 L2.86666667,10.2666667 Z M11.8,3.33333333 L12.7333333,4.26666667 L4.33333333,12.6666667 L3.4,11.7333333 L11.8,3.33333333 Z" id="形状" fill="currentColor"></path>
            </g>
        </g>
    </g>
</svg>