<?xml version="1.0" encoding="UTF-8"?>
<svg width="16px" height="16px" viewBox="0 0 16 16" version="1.1" xmlns="http://www.w3.org/2000/svg" xmlns:xlink="http://www.w3.org/1999/xlink">
    <title></title>
    <g id="页面-1" stroke="none" stroke-width="1" fill="none" fill-rule="evenodd">
        <g id="图标" transform="translate(-275.000000, -225.000000)">
            <g id="眼睛_隐藏备份-5" transform="translate(275.000000, 225.000000)">
                <rect id="矩形" fill="#000000" fill-rule="nonzero" opacity="0" x="0" y="0" width="16" height="16"></rect>
                <g id="编组">
                    <polygon id="路径" points="0 0 16 0 16 16 0 16"></polygon>
                    <path d="M8,2 C11.5946667,2 14.5853333,4.58666667 15.2126667,8 C14.586,11.4133333 11.5946667,14 8,14 C4.40533333,14 1.41466667,11.4133333 0.787333333,8 C1.414,4.58666667 4.40533333,2 8,2 Z M8,12.6666667 C10.8000826,12.6660597 13.2278836,10.7297936 13.8513333,8 C13.2256107,5.27246562 10.7983875,3.33901883 8,3.33901883 C5.2016125,3.33901883 2.7743893,5.27246562 2.14866667,8 C2.77211643,10.7297936 5.19991743,12.6660597 8,12.6666667 Z M8,11 C6.34314575,11 5,9.65685425 5,8 C5,6.34314575 6.34314575,5 8,5 C9.65685425,5 11,6.34314575 11,8 C11,9.65685425 9.65685425,11 8,11 Z M8,9.66666667 C8.92047458,9.66666667 9.66666667,8.92047458 9.66666667,8 C9.66666667,7.07952542 8.92047458,6.33333333 8,6.33333333 C7.07952542,6.33333333 6.33333333,7.07952542 6.33333333,8 C6.33333333,8.92047458 7.07952542,9.66666667 8,9.66666667 L8,9.66666667 Z" id="形状" fill="currentColor" fill-rule="nonzero"></path>
                </g>
            </g>
        </g>
    </g>
</svg>