<?xml version="1.0" encoding="UTF-8"?><svg version="1.1" width="12px" height="13px" viewBox="0 0 12.0 13.0" xmlns="http://www.w3.org/2000/svg" xmlns:xlink="http://www.w3.org/1999/xlink"><defs><clipPath id="i0"><path d="M1440,0 L1440,978 L0,978 L0,0 L1440,0 Z"></path></clipPath><clipPath id="i1"><path d="M12,0 L12,12 L0,12 L0,0 L12,0 Z"></path></clipPath><clipPath id="i2"><path d="M6.66667,1.1812773e-13 C7.03486,1.1812773e-13 7.33333,0.298477 7.33333,0.666667 L7.33333,0.833333 C7.33333,1.10948 7.55719,1.33333 7.83333,1.33333 L10.8,1.33333 C10.9867,1.33333 11.08,1.33333 11.1513,1.36966 C11.2141,1.40162 11.265,1.45262 11.297,1.51534 C11.32604,1.57238 11.331848,1.6435256 11.3330096,1.76528752 L11.3333,2.13333 C11.3333,2.32002 11.3333,2.41336 11.297,2.48466 C11.265,2.54738 11.2141,2.59838 11.1513,2.63034 C11.09426,2.659404 11.02314,2.6652168 10.9013832,2.66637936 L10.5,2.66667 C10.2239,2.66667 10,2.89052 10,3.16667 L10,9.66667 C10,10.0349 9.70152,10.3333 9.33333,10.3333 L2,10.3333 C1.63181,10.3333 1.33333,10.0349 1.33333,9.66667 L1.33333,3.16667 C1.33333,2.89052 1.10948,2.66667 0.833333,2.66667 L0.533333,2.66667 C0.346649,2.66667 0.253307,2.66667 0.182003,2.63034 C0.119282,2.59838 0.068289,2.54738 0.0363312,2.48466 C0.00726624,2.42762 0.001453248,2.3564744 0.000290649599,2.23471248 L-7.91366972e-13,1.86667 C-7.91366972e-13,1.67998 -7.91366972e-13,1.58664 0.0363312,1.51534 C0.068289,1.45262 0.119282,1.40162 0.182003,1.36966 C0.2390462,1.340596 0.31019372,1.3347832 0.431953208,1.33362064 L3.5,1.33333 C3.77614,1.33333 4,1.10948 4,0.833333 L4,0.666667 C4,0.298477 4.29848,1.1812773e-13 4.66667,1.1812773e-13 L6.66667,1.1812773e-13 Z M4.66667,4.66667 L4,4.66667 C3.81591,4.66667 3.66667,4.8159 3.66667,5 L3.66667,7.66667 C3.66667,7.85076 3.81591,8 4,8 L4.66667,8 C4.85076,8 5,7.85076 5,7.66667 L5,5 C5,4.81591 4.85076,4.66667 4.66667,4.66667 Z M7.33333,4.66667 L6.66667,4.66667 C6.48257,4.66667 6.33333,4.8159 6.33333,5 L6.33333,7.66667 C6.33333,7.85076 6.48257,8 6.66667,8 L7.33333,8 C7.51743,8 7.66667,7.85076 7.66667,7.66667 L7.66667,5 C7.66667,4.81591 7.51743,4.66667 7.33333,4.66667 Z"></path></clipPath></defs><g transform="translate(-664.0 -638.0)"><g clip-path="url(#i0)"><g transform="translate(260.0 282.75)"><g transform="translate(404.0 355.5)"><g clip-path="url(#i1)"><polygon points="0,0 12,0 12,12 0,12 0,0" stroke="none" fill="#FFFFFF" opacity="0.00999999975%"></polygon></g><g transform="translate(0.33333334326664854 0.8000000119210462)"><g clip-path="url(#i2)"><polygon points="-7.91366972e-13,1.1812773e-13 11.3333,1.1812773e-13 11.3333,10.3333 -7.91366972e-13,10.3333 -7.91366972e-13,1.1812773e-13" stroke="none" fill="currentColor"></polygon></g></g></g></g></g></g></svg>