<?xml version="1.0" encoding="UTF-8"?><svg version="1.1" width="16px" height="17px" viewBox="0 0 16.0 17.0" xmlns="http://www.w3.org/2000/svg" xmlns:xlink="http://www.w3.org/1999/xlink"><defs><clipPath id="i0"><path d="M1440,0 L1440,978 L0,978 L0,0 L1440,0 Z"></path></clipPath><clipPath id="i1"><path d="M7.21266667,0 C10.8073333,0 13.798,2.58666667 14.4253333,6 C13.7986667,9.41333333 10.8073333,12 7.21266667,12 C3.618,12 0.627333333,9.41333333 0,6 C0.626666667,2.58666667 3.618,0 7.21266667,0 Z M7.21266667,1.33901883 C4.41427916,1.33901883 1.98705596,3.27246562 1.36133333,6 C1.98478309,8.72979362 4.41258409,10.6660597 7.21266667,10.6666667 C10.0127492,10.6660597 12.4405502,8.72979362 13.064,6 C12.4382774,3.27246562 10.0110542,1.33901883 7.21266667,1.33901883 Z M7.21266667,3 C8.86952092,3 10.2126667,4.34314575 10.2126667,6 C10.2126667,7.65685425 8.86952092,9 7.21266667,9 C5.55581242,9 4.21266667,7.65685425 4.21266667,6 C4.21266667,4.34314575 5.55581242,3 7.21266667,3 Z M7.21266667,4.33333333 C6.29219208,4.33333333 5.546,5.07952542 5.546,6 C5.546,6.92047458 6.29219208,7.66666667 7.21266667,7.66666667 C8.13314125,7.66666667 8.87933333,6.92047458 8.87933333,6 C8.87933333,5.07952542 8.13314125,4.33333333 7.21266667,4.33333333 Z"></path></clipPath></defs><g transform="translate(-588.0 -699.0)"><g clip-path="url(#i0)"><g transform="translate(260.0 282.75)"><g transform="translate(0.0 398.5)"><g transform="translate(328.0 18.0)"><g transform="translate(0.7873333333333337 2.0)"><g clip-path="url(#i1)"><polygon points="0,0 14.4253333,0 14.4253333,12 0,12 0,0" stroke="none" fill="currentColor"></polygon></g></g></g></g></g></g></g></svg>