<?xml version="1.0" encoding="UTF-8"?><svg version="1.1" width="16px" height="17px" viewBox="0 0 16.0 17.0" xmlns="http://www.w3.org/2000/svg" xmlns:xlink="http://www.w3.org/1999/xlink"><defs><clipPath id="i0"><path d="M1440,0 L1440,978 L0,978 L0,0 L1440,0 Z"></path></clipPath><clipPath id="i1"><path d="M1.25,8.33333 C1.48012,8.33333 1.66667,8.51988 1.66667,8.75 L1.66667,10 L9.33333,10 L9.33333,8.75 C9.33333,8.51988 9.51988,8.33333 9.75,8.33333 L10.5833,8.33333 C10.8135,8.33333 11,8.51988 11,8.75 L11,10.8333 C11,11.2936 10.6269,11.6667 10.1667,11.6667 L0.833333,11.6667 C0.373096,11.6667 0,11.2936 0,10.8333 L0,8.75 C0,8.51988 0.186548,8.33333 0.416667,8.33333 L1.25,8.33333 Z M5.91667,0 C6.14679,0 6.33333,0.186547004 6.33333,0.416666004 L6.33325,4.61308 L7.84206,3.10437 C8.00478,2.94166 8.26859,2.94166 8.43131,3.10437 L9.02057,3.69363 C9.18329,3.85635 9.18329,4.12017 9.02057,4.28289 L5.89578,7.40767 C5.73306,7.57039 5.46924,7.57039 5.30652,7.40767 L2.18173,4.28289 C2.01902,4.12017 2.01902,3.85635 2.18173,3.69363 L2.77099,3.10437 C2.93371,2.94166 3.19753,2.94166 3.36024,3.10437 L4.66624,4.41096 L4.66667,0.416666004 C4.66667,0.186547004 4.85321,0 5.08333,0 Z"></path></clipPath></defs><g transform="translate(-620.0 -699.0)"><g clip-path="url(#i0)"><g transform="translate(260.0 282.75)"><g transform="translate(0.0 398.5)"><g transform="translate(360.0 18.0)"><g transform="translate(2.5 1.9999999999998819)"><g clip-path="url(#i1)"><polygon points="0,0 11,0 11,11.6667 0,11.6667 0,0" stroke="none" fill="currentColor"></polygon></g></g></g></g></g></g></g></svg>