<?xml version="1.0" encoding="UTF-8"?>
<svg width="16px" height="12px" viewBox="0 0 16 12" version="1.1" xmlns="http://www.w3.org/2000/svg" xmlns:xlink="http://www.w3.org/1999/xlink">
    <title></title>
    <g id="页面-1" stroke="none" stroke-width="1" fill="none" fill-rule="evenodd">
        <g id="图标" transform="translate(-371.000000, -257.000000)" fill="currentColor" fill-rule="nonzero">
            <path d="M379,257 C382.594667,257 385.585333,259.586667 386.212667,263 C385.586,266.413333 382.594667,269 379,269 C375.405333,269 372.414667,266.413333 371.787333,263 C372.414,259.586667 375.405333,257 379,257 Z M379,267.666667 C381.800083,267.66606 384.227884,265.729794 384.851333,263 C384.225611,260.272466 381.798388,258.339019 379,258.339019 C376.201612,258.339019 373.774389,260.272466 373.148667,263 C373.772116,265.729794 376.199917,267.66606 379,267.666667 Z M379,266 C377.343146,266 376,264.656854 376,263 C376,261.343146 377.343146,260 379,260 C380.656854,260 382,261.343146 382,263 C382,264.656854 380.656854,266 379,266 Z M379,264.666667 C379.920475,264.666667 380.666667,263.920475 380.666667,263 C380.666667,262.079525 379.920475,261.333333 379,261.333333 C378.079525,261.333333 377.333333,262.079525 377.333333,263 C377.333333,263.920475 378.079525,264.666667 379,264.666667 L379,264.666667 Z" id="形状备份"></path>
        </g>
    </g>
</svg>