<?xml version="1.0" encoding="UTF-8"?>
<svg width="12px" height="12px" viewBox="0 0 12 12" version="1.1" xmlns="http://www.w3.org/2000/svg" xmlns:xlink="http://www.w3.org/1999/xlink">
    <title></title>
    <g id="页面-1" stroke="none" stroke-width="1" fill="none" fill-rule="evenodd">
        <g id="图标" transform="translate(-417.000000, -257.000000)">
            <g id="编组-5备份" transform="translate(417.000000, 257.000000)">
                <rect id="矩形" fill="#FFFFFF" fill-rule="nonzero" opacity="9.99999975e-05" x="0" y="0" width="12" height="12"></rect>
                <path d="M7.00000334,0.800000012 C7.36819334,0.800000012 7.66666334,1.09847701 7.66666334,1.46666701 L7.66666334,1.63333301 C7.66666334,1.90948001 7.89052334,2.13333001 8.16666334,2.13333001 L11.1333333,2.13333001 C11.3200333,2.13333001 11.4133333,2.13333001 11.4846333,2.16966001 C11.5474333,2.20162001 11.5983333,2.25262001 11.6303333,2.31534001 C11.6593733,2.37238001 11.6651813,2.44352561 11.6663429,2.56528753 L11.6666333,2.93333001 C11.6666333,3.12002001 11.6666333,3.21336001 11.6303333,3.28466001 C11.5983333,3.34738001 11.5474333,3.39838001 11.4846333,3.43034001 C11.4275933,3.45940401 11.3564733,3.46521681 11.2347165,3.46637937 L10.8333333,3.46667001 C10.5572333,3.46667001 10.3333333,3.69052001 10.3333333,3.96667001 L10.3333333,10.46667 C10.3333333,10.8349 10.0348533,11.1333 9.66666334,11.1333 L2.33333334,11.1333 C1.96514334,11.1333 1.66666334,10.8349 1.66666334,10.46667 L1.66666334,3.96667001 C1.66666334,3.69052001 1.44281334,3.46667001 1.16666634,3.46667001 L0.866666343,3.46667001 C0.679982343,3.46667001 0.586640343,3.46667001 0.515336343,3.43034001 C0.452615343,3.39838001 0.401622343,3.34738001 0.369664543,3.28466001 C0.340599583,3.22762001 0.334786591,3.15647441 0.333623993,3.03471249 L0.333333343,2.66667001 C0.333333343,2.47998001 0.333333343,2.38664001 0.369664543,2.31534001 C0.401622343,2.25262001 0.452615343,2.20162001 0.515336343,2.16966001 C0.572379543,2.14059601 0.643527063,2.13478321 0.765286551,2.13362065 L3.83333334,2.13333001 C4.10947334,2.13333001 4.33333334,1.90948001 4.33333334,1.63333301 L4.33333334,1.46666701 C4.33333334,1.09847701 4.63181334,0.800000012 5.00000334,0.800000012 L7.00000334,0.800000012 Z M5.00000334,5.46667001 L4.33333334,5.46667001 C4.14924334,5.46667001 4.00000334,5.61590001 4.00000334,5.80000001 L4.00000334,5.80000001 L4.00000334,8.46667001 C4.00000334,8.65076001 4.14924334,8.80000001 4.33333334,8.80000001 L4.33333334,8.80000001 L5.00000334,8.80000001 C5.18409334,8.80000001 5.33333334,8.65076001 5.33333334,8.46667001 L5.33333334,8.46667001 L5.33333334,5.80000001 C5.33333334,5.61591001 5.18409334,5.46667001 5.00000334,5.46667001 L5.00000334,5.46667001 Z M7.66666334,5.46667001 L7.00000334,5.46667001 C6.81590334,5.46667001 6.66666334,5.61590001 6.66666334,5.80000001 L6.66666334,5.80000001 L6.66666334,8.46667001 C6.66666334,8.65076001 6.81590334,8.80000001 7.00000334,8.80000001 L7.00000334,8.80000001 L7.66666334,8.80000001 C7.85076334,8.80000001 8.00000334,8.65076001 8.00000334,8.46667001 L8.00000334,8.46667001 L8.00000334,5.80000001 C8.00000334,5.61591001 7.85076334,5.46667001 7.66666334,5.46667001 L7.66666334,5.46667001 Z" id="形状结合" fill="currentColor"></path>
            </g>
        </g>
    </g>
</svg>