<?xml version="1.0" encoding="UTF-8"?>
<svg width="14px" height="14px" viewBox="0 0 14 14" version="1.1" xmlns="http://www.w3.org/2000/svg" xmlns:xlink="http://www.w3.org/1999/xlink">
    <title></title>
    <g id="ICON/14px/全屏" stroke="none" stroke-width="1" fill="none" fill-rule="evenodd">
        <rect fill="" x="0" y="0" width="14" height="14"></rect>
        <rect id="矩形" stroke="#FFFFFF" x="3.5" y="3.5" width="7" height="7" rx="1"></rect>
        <path d="M12,0 C13.1045695,0 14,0.8954305 14,2 L14,12 C14,13.1045695 13.1045695,14 12,14 L10,14 L10,13 L12,13 C12.5128358,13 12.9355072,12.6139598 12.9932723,12.1166211 L13,12 L13,10 L14,10 L14,4 L13,4 L13,2 C13,1.48716416 12.6139598,1.06449284 12.1166211,1.00672773 L12,1 L10,1 L10,0 L12,0 Z M1,9.999 L1,12 C1,12.5128358 1.38604019,12.9355072 1.88337887,12.9932723 L2,13 L4,13 L4,14 L2,14 C0.8954305,14 -8.8817842e-16,13.1045695 -8.8817842e-16,12 L-9.12159237e-13,10 L1,9.999 Z M-8.8817842e-16,2 C-8.8817842e-16,0.8954305 0.8954305,0 2,0 L4,0 L4,1 L2,1 C1.48716416,1 1.06449284,1.38604019 1.00672773,1.88337887 L1,2 L1,3.999 L-9.1038288e-13,4 L-8.8817842e-16,2 Z" id="形状结合" fill="#FFFFFF" fill-rule="nonzero"></path>
    </g>
</svg>