<?xml version="1.0" encoding="UTF-8"?>
<svg width="12px" height="12px" viewBox="0 0 12 12" version="1.1" xmlns="http://www.w3.org/2000/svg" xmlns:xlink="http://www.w3.org/1999/xlink">
    <title></title>
    <g id="页面-1" stroke="none" stroke-width="1" fill="none" fill-rule="evenodd">
        <g id="下拉、编辑不同状态" transform="translate(-1296.000000, -546.000000)" fill-rule="nonzero">
            <g id="tianjia_normal" transform="translate(1296.000000, 546.000000)">
                <path d="M6,12 C2.68619999,12 0,9.31320001 0,6 C0,2.68620001 2.68619999,0 6,0 C9.31379999,0 12,2.68620001 12,6 C12,9.31320001 9.31379999,12 6,12 Z" id="形状" fill="#00BEBD"></path>
                <path d="M8.38578908,6.59012714 C8.38578908,6.59012714 6.59012714,6.59012714 6.59012714,6.59012714 C6.59012714,6.59012714 6.59012714,8.38578908 6.59012714,8.38578908 C6.59012714,8.71608078 6.32266268,8.98354524 5.99237098,8.98354524 C5.99237098,8.98354524 5.99117427,8.98354524 5.99117427,8.98354524 C5.66088257,8.98354524 5.3934181,8.71608078 5.3934181,8.38578908 C5.3934181,8.38578908 5.3934181,6.59012714 5.3934181,6.59012714 C5.3934181,6.59012714 3.59775617,6.59012714 3.59775617,6.59012714 C3.26746447,6.59012714 3,6.32266268 3,5.99237098 C3,5.99237098 3,5.99117427 3,5.99117427 C3,5.66088257 3.26746447,5.3934181 3.59775617,5.3934181 C3.59775617,5.3934181 5.3934181,5.3934181 5.3934181,5.3934181 C5.3934181,5.3934181 5.3934181,3.59775617 5.3934181,3.59775617 C5.3934181,3.26746447 5.66088257,3 5.99117427,3 C5.99117427,3 5.99237098,3 5.99237098,3 C6.32266268,3 6.59012714,3.26746447 6.59012714,3.59775617 C6.59012714,3.59775617 6.59012714,5.3934181 6.59012714,5.3934181 C6.59012714,5.3934181 8.38578908,5.3934181 8.38578908,5.3934181 C8.71608078,5.3934181 8.98354524,5.66088257 8.98354524,5.99117427 C8.98354524,5.99117427 8.98354524,5.99237098 8.98354524,5.99237098 C8.98354524,6.32266268 8.71608078,6.59012714 8.38578908,6.59012714 Z" id="路径" fill="#FFFFFF"></path>
            </g>
        </g>
    </g>
</svg>