<?xml version="1.0" encoding="UTF-8"?>
<svg width="46px" height="32px" viewBox="0 0 46 32" version="1.1" xmlns="http://www.w3.org/2000/svg" xmlns:xlink="http://www.w3.org/1999/xlink">
    <!-- Generator: Sketch 60.1 (88133) - https://sketch.com -->
    <title></title>
    <desc>Created with Sketch.</desc>
    <g id="页面-1" stroke="none" stroke-width="1" fill="none" fill-rule="evenodd">
        <g id="下拉、编辑不同状态" transform="translate(-480.000000, -303.000000)" fill="#BBBBBB" fill-rule="nonzero">
            <g id="编组-2" transform="translate(480.400000, 303.000000)">
                <path d="M14.8672867,30.4564344 C15.2426884,30.4854271 15.6204381,30.5 16,30.5 L16.8274563,30.5 L16.8274563,31.5 L16,31.5 C15.5947355,31.5 15.1912996,31.4844362 14.790285,31.4534654 L14.8672867,30.4564344 Z M28.8274563,30.5 L28.8274563,31.5 L26.8274563,31.5 L26.8274563,30.5 L28.8274563,30.5 Z M24.8274563,30.5 L24.8274563,31.5 L22.8274563,31.5 L22.8274563,30.5 L24.8274563,30.5 Z M20.8274563,30.5 L20.8274563,31.5 L18.8274563,31.5 L18.8274563,30.5 L20.8274563,30.5 Z M32.7641842,30.2369331 L32.9536635,31.2188178 C32.2795688,31.3489013 31.5949496,31.4343501 30.9030212,31.4741186 L30.8456409,30.4757662 C31.4931699,30.4385495 32.1336594,30.3586087 32.7641842,30.2369331 Z M11.0913357,29.6482057 C11.6968934,29.8660321 12.3174035,30.0433511 12.9495463,30.1786769 L12.7402143,31.1565216 C12.0641632,31.011796 11.4005103,30.8221484 10.7528562,30.5891795 L11.0913357,29.6482057 Z M36.4593596,28.9854739 L36.9054454,29.8804641 C36.288561,30.1879349 35.6513483,30.4539804 34.9975934,30.6765314 L34.6753346,29.7298798 C35.2866205,29.5217861 35.8824696,29.2730105 36.4593596,28.9854739 Z M7.61963012,27.8344641 C8.14569268,28.2076858 8.69604084,28.5455259 9.2670762,28.8454708 L8.80205841,29.7307721 C8.19158417,29.4101114 7.60328585,29.0489749 7.04099965,28.6500539 L7.61963012,27.8344641 Z M39.621412,26.8481904 L40.2852321,27.5960827 C39.7694501,28.0538845 39.2237753,28.4770223 38.6519457,28.8623989 L38.0930791,28.0331414 C38.6281273,27.672553 39.1387436,27.2766009 39.621412,26.8481904 Z M4.80048267,25.2104945 C5.21064391,25.7086346 5.65356388,26.1791521 6.12604702,26.6187022 L5.44491747,27.3508651 C4.94005493,26.8811926 4.46678227,26.3784311 4.02849784,25.8461354 L4.80048267,25.2104945 Z M42.17565,23.8775087 L43.0147198,24.4215325 C42.6395863,25.000116 42.2262172,25.553187 41.7776472,26.0769837 L41.018105,25.4265256 C41.4378645,24.9363711 41.8246611,24.4188529 42.17565,23.8775087 Z M2.75327429,21.9061392 C3.01637417,22.4953156 3.31864307,23.0659701 3.6578078,23.6145073 L2.80726111,24.1404068 C2.44467617,23.5539918 2.12150216,22.9438704 1.8401795,22.3138866 L2.75327429,21.9061392 Z M23,9 C23.5522847,9 24,9.44771525 24,10 L24,15 L29,15 C29.5522847,15 30,15.4477153 30,16 C30,16.5522847 29.5522847,17 29,17 L24,17 L24,22 C24,22.5522847 23.5522847,23 23,23 C22.4477153,23 22,22.5522847 22,22 L22,17 L17,17 C16.4477153,17 16,16.5522847 16,16 C16,15.4477153 16.4477153,15 17,15 L22,15 L22,10 C22,9.44771525 22.4477153,9 23,9 Z M43.8263047,20.3817823 L44.7796609,20.6836297 C44.5711883,21.3420705 44.318913,21.9847431 44.0248163,22.6078878 L43.1204746,22.1810787 C43.3954903,21.5983635 43.6313798,20.997434 43.8263047,20.3817823 Z M1.66934674,18.2235018 C1.76776453,18.8632156 1.90860304,19.4930937 2.09057573,20.1099499 L1.13143969,20.3928952 C0.936824729,19.7331839 0.786209482,19.0595809 0.680975109,18.3755594 L1.66934674,18.2235018 Z M44.4891098,16.5673864 L45.4883713,16.6058124 C45.461723,17.2987955 45.3893701,17.9850611 45.2722966,18.6614479 L44.2869477,18.4908972 C44.3964674,17.8581522 44.4641668,17.2160248 44.4891098,16.5673864 Z M0.605000156,14.1865914 L1.59827442,14.3023767 C1.54922454,14.7231553 1.51847014,15.1470132 1.50615885,15.575123 L1.50000077,16.0046935 C1.50002538,16.0825338 1.50066295,16.1603002 1.50191224,16.2379882 L0.502041512,16.254067 L0.500000768,16.0048524 C0.500000768,15.3912545 0.535117996,14.7860815 0.605000156,14.1865914 Z M45.090304,12.445078 C45.2473044,13.114022 45.3598625,13.7948667 45.4267981,14.4842836 L44.4314783,14.5809194 C44.3688582,13.9359512 44.2635822,13.2991547 44.1167578,12.6735683 L45.090304,12.445078 Z M1.62902154,10.1820939 L2.55582004,10.5576528 C2.313902,11.1546544 2.11200754,11.7679636 1.95176745,12.3941769 L0.98298183,12.1462769 C1.15436089,11.4765328 1.37029359,10.8205786 1.62902154,10.1820939 Z M43.5970068,8.55295569 C43.9286497,9.15723413 44.2196974,9.78330143 44.4679203,10.4273383 L43.5348257,10.7869691 C43.3027111,10.184727 43.0305305,9.59924426 42.7203562,9.03408319 L43.5970068,8.55295569 Z M3.67897445,6.5943317 L4.47340858,7.20168201 C4.08162989,7.71414138 3.72431275,8.25209645 3.40410292,8.81196416 L2.53605047,8.31549165 C2.87833969,7.71701945 3.26025711,7.14202771 3.67897445,6.5943317 Z M41.1762206,5.26022965 C41.6539899,5.75729543 42.0983572,6.28559296 42.5060954,6.84145286 L41.6997649,7.43291801 C41.3182212,6.91276848 40.9023753,6.41837944 40.4552581,5.95320374 L41.1762206,5.26022965 Z M6.63772181,3.64592274 L7.24228369,4.44248092 C6.72842866,4.83248026 6.24087864,5.25633747 5.78305725,5.71097198 L5.07842443,5.00139986 C5.56762582,4.51560379 6.0886043,4.06268516 6.63772181,3.64592274 Z M37.9017834,2.66267086 C38.4946852,3.01467249 39.0635088,3.40591517 39.6044506,3.83350845 L38.9843294,4.61801444 C38.4781706,4.21791581 37.9459632,3.85185814 37.3912809,3.52254713 L37.9017834,2.66267086 Z M10.1934203,1.62443705 L10.5682438,2.55153325 C9.96985595,2.79346048 9.3887821,3.07519593 8.82859901,3.3946034 L8.33327528,2.52589494 C8.93220325,2.18439575 9.55352864,1.88314421 10.1934203,1.62443705 Z M34.0968863,1.04732622 C34.7635435,1.22957651 35.415838,1.4561786 36.0500644,1.72530964 L35.6594342,2.64585734 C35.0664011,2.39420648 34.4565069,2.18233392 33.8331835,2.0119302 L34.0968863,1.04732622 Z M14.2335339,0.599600475 L14.3462966,1.59322242 C13.7026712,1.66626525 13.0676933,1.78191067 12.4444459,1.93900073 L12.200039,0.969327955 C12.8665209,0.801340611 13.5454766,0.677685713 14.2335339,0.599600475 Z M30,0.5 C30.6939023,0.5 31.3822683,0.545628106 32.0620582,0.636021808 L31.9302454,1.62729644 C31.2941233,1.54270937 30.6497906,1.5 30,1.5 L28.3450874,1.5 L28.3450874,0.5 L30,0.5 Z M18.3450874,0.5 L18.3450874,1.5 L16.3450874,1.5 L16.3450874,0.5 L18.3450874,0.5 Z M22.3450874,0.5 L22.3450874,1.5 L20.3450874,1.5 L20.3450874,0.5 L22.3450874,0.5 Z M26.3450874,0.5 L26.3450874,1.5 L24.3450874,1.5 L24.3450874,0.5 L26.3450874,0.5 Z" id="形状结合"></path>
            </g>
        </g>
    </g>
</svg>