<?xml version="1.0" encoding="UTF-8"?>
<svg width="12px" height="12px" viewBox="0 0 12 12" version="1.1" xmlns="http://www.w3.org/2000/svg" xmlns:xlink="http://www.w3.org/1999/xlink">
    <title></title>
    <g id="页面-1" stroke="none" stroke-width="1" fill="none" fill-rule="evenodd">
        <g id="下拉、编辑不同状态" transform="translate(-1302.000000, -420.000000)" fill-rule="nonzero">
            <g id="jianshao_normal" transform="translate(1302.000000, 420.000000)">
                <path d="M6,12 C2.68619999,12 0,9.31320001 0,6 C0,2.68620001 2.68619999,0 6,0 C9.31379999,0 12,2.68620001 12,6 C12,9.31320001 9.31379999,12 6,12 Z" id="形状" fill="currentColor"></path>
                <path d="M8.38578908,6.59670904 C8.38578908,6.59670904 6.59012714,6.59670904 6.59012714,6.59670904 C4.59521316,6.59670904 3.59775617,6.59670904 3.59775617,6.59670904 C3.26746447,6.59670904 3,6.32924458 3,5.99895288 C3,5.66746447 3.26746447,5.4 3.59775617,5.4 C3.59775617,5.4 8.38578908,5.4 8.38578908,5.4 C8.71608078,5.4 8.98354524,5.66746447 8.98354524,5.99775617 C8.98354524,6.32924458 8.71608078,6.59670904 8.38578908,6.59670904 Z" id="路径" fill="#FFFFFF"></path>
            </g>
        </g>
    </g>
</svg>