<?xml version="1.0" encoding="UTF-8"?>
<svg width="50px" height="50px" viewBox="0 0 50 50" version="1.1" xmlns="http://www.w3.org/2000/svg" xmlns:xlink="http://www.w3.org/1999/xlink">
    <title></title>
    <g id="页面-1" stroke="none" stroke-width="1" fill="none" fill-rule="evenodd">
        <g id="BZL文化调整切图" transform="translate(-196.000000, -61.000000)">
            <g id="大" transform="translate(196.000000, 61.000000)">
                <rect id="矩形" x="0" y="0" width="50" height="50"></rect>
                <path d="M17.8873333,41.304 C20.9233333,41.304 24.6033333,40.108 27.1793333,37.532 C30.2153333,34.496 31.0893333,30.356 32.2393333,24.652 C32.8833333,21.478 33.2053333,19.04 33.2053333,17.568 C33.2053333,12.646 29.6633333,8 22.9013333,8 C19.8653333,8 16.1853333,9.196 13.6093333,11.772 C10.5733333,14.808 9.69933333,18.948 8.54933333,24.652 C7.90533333,27.826 7.58333333,30.264 7.58333333,31.736 C7.58333333,36.658 11.1253333,41.304 17.8873333,41.304 Z M18.5313333,34.588 C16.6913333,34.588 15.3113333,33.346 15.3113333,31.092 C15.3113333,29.39 15.8173333,26.538 16.1853333,24.652 C17.3353333,19.086 17.9333333,17.384 18.9453333,16.28 C19.7733333,15.36 20.9693333,14.716 22.2573333,14.716 C24.0973333,14.716 25.4773333,15.958 25.4773333,18.212 C25.4773333,19.914 24.9713333,22.766 24.6033333,24.652 C23.4533333,30.218 22.8553333,31.92 21.8433333,33.024 C21.0153333,33.944 19.8193333,34.588 18.5313333,34.588 Z" id="O" fill="#E4D1FF" fill-rule="nonzero"></path>
            </g>
        </g>
    </g>
</svg>