<?xml version="1.0" encoding="UTF-8"?>
<svg width="50px" height="50px" viewBox="0 0 50 50" version="1.1" xmlns="http://www.w3.org/2000/svg" xmlns:xlink="http://www.w3.org/1999/xlink">
    <title></title>
    <g id="页面-1" stroke="none" stroke-width="1" fill="none" fill-rule="evenodd">
        <g id="BZL文化调整切图" transform="translate(-521.000000, -61.000000)">
            <g id="编组-20" transform="translate(521.000000, 61.000000)">
                <rect id="矩形" x="0" y="0" width="50" height="50"></rect>
                <path d="M14.592,41.304 C21.584,41.304 28.162,38.13 28.162,30.218 C28.162,25.526 26.276,22.858 20.526,21.386 L18.042,20.742 C16.708,20.374 15.236,20.006 15.236,18.258 C15.236,16.602 17.03,14.67 20.158,14.67 C22.32,14.67 24.114,15.084 25.494,16.786 L30.83,12.094 C28.76,9.426 25.126,8 21.032,8 C13.166,8 7.6,12.324 7.6,19.5 C7.6,22.03 8.612,25.848 15.236,27.55 L17.72,28.194 C19.514,28.654 20.48,29.252 20.48,31 C20.48,32.886 18.272,34.542 15.282,34.542 C12.43,34.542 10.13,33.806 8.52,31.966 L3,36.796 C5.852,40.062 9.118,41.304 14.592,41.304 Z" id="S" fill="#FFEBCC" fill-rule="nonzero"></path>
            </g>
        </g>
    </g>
</svg>