<?xml version="1.0" encoding="UTF-8"?>
<svg width="50px" height="50px" viewBox="0 0 50 50" version="1.1" xmlns="http://www.w3.org/2000/svg" xmlns:xlink="http://www.w3.org/1999/xlink">
    <title></title>
    <g id="页面-1" stroke="none" stroke-width="1" fill="none" fill-rule="evenodd">
        <g id="BZL文化调整切图" transform="translate(-66.000000, -61.000000)">
            <g id="大" transform="translate(66.000000, 61.000000)">
                <rect id="矩形" x="0" y="0" width="50" height="50"></rect>
                <path d="M18.122,41.752 C24.47,41.752 29.484,37.474 29.484,30.712 C29.484,27.768 28.288,26.434 26.724,25.192 C30.496,22.984 31.646,19.718 31.646,16.682 C31.646,12.082 28.426,9 22.952,9 L10.578,9 L4,41.752 L18.122,41.752 Z M20.146,21.788 L15.638,21.788 L16.88,15.762 L21.526,15.762 C23.412,15.762 23.872,17.096 23.872,18.2 C23.872,19.396 23.136,21.788 20.146,21.788 Z M17.892,34.99 L13.016,34.99 L14.304,28.55 L19.272,28.55 C21.158,28.55 21.756,29.838 21.756,31.08 C21.756,33.196 20.422,34.99 17.892,34.99 Z" id="B" fill="#D1E6FF" fill-rule="nonzero"></path>
            </g>
        </g>
    </g>
</svg>