<?xml version="1.0" encoding="UTF-8"?>
<svg width="9px" height="8px" viewBox="0 0 9 8" version="1.1" xmlns="http://www.w3.org/2000/svg" xmlns:xlink="http://www.w3.org/1999/xlink">
    <!-- Generator: Sketch 60.1 (88133) - https://sketch.com -->
    <title></title>
    <desc>Created with Sketch.</desc>
    <g id="页面-1" stroke="none" stroke-width="1" fill="none" fill-rule="evenodd">
        <g id="下拉、编辑不同状态" transform="translate(-365.000000, -782.000000)" fill="#00BEBD" fill-rule="nonzero">
            <g id="编组" transform="translate(365.000000, 782.000000)">
                <g id="编组-31">
                    <path d="M0.680160591,3.08859116 C0.875028732,2.95359511 1.14445313,2.97288026 1.31801948,3.14644661 L1.31801948,3.14644661 L4.5,6.32842712 L7.68198052,3.14644661 L7.7512284,3.08859116 C7.94609654,2.95359511 8.21552094,2.97288026 8.3890873,3.14644661 C8.58434944,3.34170876 8.58434944,3.65829124 8.3890873,3.85355339 L8.3890873,3.85355339 L4.5,7.74264069 L0.610912703,3.85355339 L0.553057253,3.7843055 C0.418061201,3.58943736 0.437346352,3.32001296 0.610912703,3.14644661 L0.610912703,3.14644661 Z M0.680160591,0.0885911588 C0.875028732,-0.0464048927 1.14445313,-0.0271197425 1.31801948,0.146446609 L1.31801948,0.146446609 L4.5,3.32842712 L7.68198052,0.146446609 L7.7512284,0.0885911588 C7.94609654,-0.0464048927 8.21552094,-0.0271197425 8.3890873,0.146446609 C8.58434944,0.341708755 8.58434944,0.658291245 8.3890873,0.853553391 L8.3890873,0.853553391 L4.5,4.74264069 L0.610912703,0.853553391 L0.553057253,0.784305503 C0.418061201,0.589437362 0.437346352,0.320012961 0.610912703,0.146446609 L0.610912703,0.146446609 Z" id="形状结合"></path>
                </g>
            </g>
        </g>
    </g>
</svg>