<svg width="14" height="14" viewBox="0 0 14 14" fill="none" xmlns="http://www.w3.org/2000/svg">
<g id="14px/&#229;&#136;&#160;&#233;&#153;&#164;/&#233;&#187;&#152;&#232;&#174;&#164;">
<path id="&#232;&#183;&#175;&#229;&#190;&#132;" d="M7 14C3.1339 14 0 10.8654 0 7C0 3.1339 3.1339 0 7 0C10.8661 0 14 3.1339 14 7C14 10.8654 10.8661 14 7 14Z" fill="currentColor"/>
<path id="Union" fill-rule="evenodd" clip-rule="evenodd" d="M5.58064 4.16682C5.19012 3.7763 4.55695 3.7763 4.16643 4.16682C3.7759 4.55735 3.7759 5.19051 4.16643 5.58104L5.58518 6.99978L4.16304 8.42192C3.77252 8.81245 3.77252 9.44561 4.16304 9.83614C4.55356 10.2267 5.18673 10.2267 5.57725 9.83613L6.99939 8.414L8.41888 9.83349C8.8094 10.224 9.44257 10.224 9.83309 9.83349C10.2236 9.44297 10.2236 8.8098 9.83309 8.41928L8.4136 6.99979L9.83542 5.57797C10.2259 5.18744 10.2259 4.55428 9.83542 4.16375C9.4449 3.77323 8.81173 3.77323 8.42121 4.16375L6.99939 5.58557L5.58064 4.16682Z" fill="white"/>
</g>
</svg>
