<?xml version="1.0" encoding="UTF-8"?>
<svg width="16px" height="15px" viewBox="0 0 16 15" version="1.1" xmlns="http://www.w3.org/2000/svg" xmlns:xlink="http://www.w3.org/1999/xlink">
    <!-- Generator: Sketch 60.1 (88133) - https://sketch.com -->
    <title></title>
    <desc>Created with Sketch.</desc>
    <g id="页面-1" stroke="none" stroke-width="1" fill="none" fill-rule="evenodd">
        <g id="下拉、编辑不同状态" transform="translate(-607.000000, -266.000000)" fill="#00BEBD" fill-rule="nonzero">
            <g id="shezhi备份-4" transform="translate(607.000000, 266.500000)">
                <path d="M11.334157,0.00847867566 C11.7789392,0.00847867566 12.1896017,0.246887463 12.410436,0.6329748 L12.410436,0.6329748 L15.7800485,6.52444767 C15.9982823,6.90598844 15.9982823,7.37453481 15.7800485,7.75607558 L15.7800485,7.75607558 L12.410436,13.6475485 C12.1895466,14.033732 11.77874,14.2720446 11.3338469,14.2720446 L11.3338469,14.2720446 L4.61012596,14.2720446 C4.16464298,14.2720446 3.75334342,14.0332582 3.5326066,13.6463081 L3.5326066,13.6463081 L0.171056195,7.75483527 C-0.0462329968,7.37392887 -0.0462329968,6.90659439 0.171056195,6.52568799 L0.171056195,6.52568799 L3.5326066,0.634215116 C3.75334342,0.247265054 4.16464298,0.00847867566 4.61012596,0.00847867566 L4.61012596,0.00847867566 Z M11.3338469,1.24878875 L4.61012596,1.24878875 L1.2482655,7.14026163 L4.61012596,13.0317345 L11.3338469,13.0317345 L14.7034593,7.14026163 L11.3338469,1.24878875 Z M7.97601744,4.34956395 C9.51727721,4.34956395 10.7667151,5.59900186 10.7667151,7.14026163 C10.7667151,8.68152139 9.51727721,9.9309593 7.97601744,9.9309593 C6.97899718,9.9309593 6.05771245,9.39905536 5.55920231,8.53561048 C5.06069217,7.67216561 5.06069217,6.60835765 5.55920231,5.74491277 C6.05771245,4.8814679 6.97899718,4.34956395 7.97601744,4.34956395 Z M7.97601744,5.58987404 C7.11976204,5.58987404 6.4256299,6.28400622 6.4256299,7.14026163 C6.4256299,7.99651703 7.11976204,8.69064922 7.97601744,8.69064922 C8.52991759,8.69064922 9.04174244,8.39514703 9.31869252,7.91545544 C9.5956426,7.43576384 9.5956426,6.84475942 9.31869252,6.36506782 C9.04174244,5.88537622 8.52991759,5.58987404 7.97601744,5.58987404 Z" id="形状结合"></path>
            </g>
        </g>
    </g>
</svg>