<?xml version="1.0" encoding="UTF-8"?>
<svg width="14px" height="14px" viewBox="0 0 14 14" version="1.1" xmlns="http://www.w3.org/2000/svg" xmlns:xlink="http://www.w3.org/1999/xlink">
    <title></title>
    <g id="页面-1" stroke="none" stroke-width="1" fill="none" fill-rule="evenodd">
        <g id="其余图标" transform="translate(-497.000000, -863.000000)">
            <g id="编组-57" transform="translate(132.000000, 680.000000)">
                <g id="编组-69" transform="translate(20.000000, 53.000000)">
                    <g id="编组-73" transform="translate(345.000000, 130.000000)">
                        <rect id="矩形" x="0" y="0" width="14" height="14"></rect>
                        <g id="编组" transform="translate(1.000000, 2.000000)" fill-rule="nonzero">
                            <path d="M6.25180008,5.16755443 L7.82752034,5.16755443 L7.82752034,3.20800486 L9.84767454,3.20800486 L9.84767454,1.55955904 C9.85381974,1.38781252 9.73061569,1.23857944 9.56081264,1.21209252 L4.1467994,1.21209252 L3.8074135,0.331305292 C3.73763722,0.151296522 3.57473325,0.0240762727 3.38318111,0 L1.51251833,0 C1.32025005,0.0223423631 1.15655354,0.150181545 1.08828595,0.331305292 L0.744859736,1.21209252 L0.296385509,1.21209252 C0.123357188,1.23485486 -0.00420302568,1.38513127 0.00144299057,1.55955904 L0.00144299057,9.29270929 C-0.0152595041,9.4746835 0.11512062,9.63721215 0.296385509,9.66037736 L7.82752034,9.66037736 L7.82752034,8.68666304 L6.25180008,8.68666304 L6.25180008,5.16755443 Z" id="路径" fill="#C9CDD4"></path>
                            <path d="M4.1467994,1.21209252 L3.8114538,0.331305292 C3.7402647,0.150680329 3.57589768,0.0235284835 3.38318111,0 L1.51655864,0 C1.32349173,0.0226732865 1.1587353,0.150126374 1.08828595,0.331305292 L0.744859736,1.21209252 L4.1467994,1.21209252 Z M11.0961298,6.15338968 L11.0961298,4.19788042 L9.59717542,4.19788042 L9.59717542,6.15338968 L7.69823047,6.15338968 L7.69823047,7.70082779 L9.59717542,7.70082779 L9.59717542,9.65633705 L11.0961298,9.65633705 L11.0961298,7.70082779 L12.9991151,7.70082779 L12.9991151,6.15338968 L11.0961298,6.15338968 Z" id="形状" fill="#86909C"></path>
                        </g>
                    </g>
                </g>
            </g>
        </g>
    </g>
</svg>