<?xml version="1.0" encoding="UTF-8"?>
<svg width="10px" height="10px" viewBox="0 0 10 10" version="1.1" xmlns="http://www.w3.org/2000/svg" xmlns:xlink="http://www.w3.org/1999/xlink">
    <title></title>
    <g id="页面-1" stroke="none" stroke-width="1" fill="none" fill-rule="evenodd">
        <g id="标注" transform="translate(-649.000000, -387.000000)">
            <g id="编组-72" transform="translate(359.000000, 364.000000)">
                <g id="编组-33" transform="translate(290.000000, 23.000000)">
                    <rect id="矩形" x="0" y="-4.54747351e-13" width="10" height="10"></rect>
                    <path d="M2.58062485,1.875 L8.41937515,1.875 C8.9716599,1.875 9.41937515,2.32271525 9.41937515,2.875 C9.41937515,3.1020715 9.3420944,3.322382 9.20024396,3.49969505 L6.28086881,7.14891399 C5.93585926,7.58017592 5.30656689,7.6500973 4.87530495,7.30508775 C4.81764025,7.25895599 4.76526295,7.20657869 4.71913119,7.14891399 L1.79975604,3.49969505 C1.45474649,3.06843311 1.52466786,2.43914074 1.9559298,2.09413119 C2.13324285,1.95228075 2.35355335,1.875 2.58062485,1.875 Z" id="Rectangle-16备份-2" fill="currentColor" transform="translate(5.500000, 5.000000) scale(-1, 1) rotate(90.000000) translate(-5.500000, -5.000000) "></path>
                </g>
            </g>
        </g>
    </g>
</svg>