<?xml version="1.0" encoding="UTF-8"?>
<svg width="16px" height="16px" viewBox="0 0 16 16" version="1.1" xmlns="http://www.w3.org/2000/svg" xmlns:xlink="http://www.w3.org/1999/xlink">
    <title></title>
    <g id="页面-1" stroke="none" stroke-width="1" fill="none" fill-rule="evenodd">
        <g id="其余图标" transform="translate(-1636.000000, -714.000000)">
            <g id="编组-23" transform="translate(1028.000000, 694.000000)">
                <g id="编组" transform="translate(608.000000, 20.000000)">
                    <polygon id="路径" points="0 0 16 0 16 16 0 16"></polygon>
                    <path d="M7.96666667,5.3 L7.024,6.24266667 L5.33333333,4.552 L5.33333333,13.3333333 L4,13.3333333 L4,4.552 L2.31,6.24266667 L1.36666667,5.3 L3.95955989,2.70710678 C4.35008418,2.31658249 4.98324916,2.31658249 5.37377345,2.70710678 L7.96666667,5.3 L7.96666667,5.3 Z M10.6262266,13.2928932 L8.03333333,10.7 L8.03333333,10.7 L8.976,9.75733333 L10.6673333,11.448 L10.6666667,2.66666667 L12,2.66666667 L12,11.448 L13.6906667,9.75733333 L14.6333333,10.7 L12.0404401,13.2928932 C11.6499158,13.6834175 11.0167508,13.6834175 10.6262266,13.2928932 Z" id="形状" fill="currentColor" fill-rule="nonzero"></path>
                </g>
            </g>
        </g>
    </g>
</svg>