<?xml version="1.0" encoding="UTF-8"?>
<svg width="12px" height="13px" viewBox="0 0 12 13" version="1.1" xmlns="http://www.w3.org/2000/svg" xmlns:xlink="http://www.w3.org/1999/xlink">
    <title></title>
    <g id="页面-1" stroke="none" stroke-width="1" fill="none" fill-rule="evenodd">
        <g id="标注" transform="translate(-1521.000000, -385.000000)">
            <g id="编组-57" transform="translate(1011.000000, 364.000000)">
                <g id="编组-29" transform="translate(389.000000, 15.000000)">
                    <g id="编组-28备份" transform="translate(127.000000, 12.000000) rotate(-180.000000) translate(-127.000000, -12.000000) translate(115.000000, 0.000000)">
                        <g id="编组" transform="translate(12.000000, 12.000000) rotate(-270.000000) translate(-12.000000, -12.000000) translate(6.000000, 6.000000)">
                            <rect id="Rectangle" fill-rule="nonzero" x="0" y="0" width="12" height="12"></rect>
                            <path d="M7.96986053,3.36630521 C8.16512055,3.56156709 8.16512055,3.87814509 7.96986053,4.07341509 L5.78980033,6.25346511 L7.90738052,8.37104513 C8.10264054,8.56631513 8.10264054,8.88289514 7.90738052,9.07815514 L7.55382049,9.43171514 C7.35856047,9.62697514 7.04198045,9.62697514 6.84672043,9.43171514 L4.01828717,6.60327512 C3.82302505,6.40801511 3.82302435,6.09143511 4.01828617,5.89616511 L4.37184019,5.54261511 C4.3893872,5.52506511 4.4079122,5.50909511 4.42724121,5.49470511 L6.90920043,3.01275208 C7.10446045,2.81748958 7.42104048,2.81748958 7.6163005,3.01275208 L7.96986053,3.36630521 Z" id="形状结合" fill="#4E5969" transform="translate(5.994073, 6.222233) rotate(-90.000000) translate(-5.994073, -6.222233) "></path>
                        </g>
                    </g>
                </g>
            </g>
        </g>
    </g>
</svg>