<?xml version="1.0" encoding="UTF-8"?>
<svg width="50px" height="50px" viewBox="0 0 50 50" version="1.1" xmlns="http://www.w3.org/2000/svg" xmlns:xlink="http://www.w3.org/1999/xlink">
    <title></title>
    <g id="页面-1" stroke="none" stroke-width="1" fill="none" fill-rule="evenodd">
        <g id="BZL文化调整切图" transform="translate(-353.000000, -61.000000)">
            <g id="编组-15" transform="translate(353.000000, 61.000000)">
                <rect id="矩形" x="0" y="0" width="50" height="50"></rect>
                <path d="M17.7586667,41.304 C24.7506667,41.304 31.3286667,38.13 31.3286667,30.218 C31.3286667,25.526 29.4426667,22.858 23.6926667,21.386 L21.2086667,20.742 C19.8746667,20.374 18.4026667,20.006 18.4026667,18.258 C18.4026667,16.602 20.1966667,14.67 23.3246667,14.67 C25.4866667,14.67 27.2806667,15.084 28.6606667,16.786 L33.9966667,12.094 C31.9266667,9.426 28.2926667,8 24.1986667,8 C16.3326667,8 10.7666667,12.324 10.7666667,19.5 C10.7666667,22.03 11.7786667,25.848 18.4026667,27.55 L20.8866667,28.194 C22.6806667,28.654 23.6466667,29.252 23.6466667,31 C23.6466667,32.886 21.4386667,34.542 18.4486667,34.542 C15.5966667,34.542 13.2966667,33.806 11.6866667,31.966 L6.16666667,36.796 C9.01866667,40.062 12.2846667,41.304 17.7586667,41.304 Z" id="S" fill="#FFD9D6" fill-rule="nonzero"></path>
            </g>
        </g>
    </g>
</svg>