
<?xml version="1.0" encoding="UTF-8"?>
<svg width="16px" height="16px" viewBox="0 0 16 16" version="1.1" xmlns="http://www.w3.org/2000/svg" xmlns:xlink="http://www.w3.org/1999/xlink">
    <title></title>
    <g id="页面-1" stroke="none" stroke-width="1" fill="none" fill-rule="evenodd">
        <g id="标注" transform="translate(-1524.000000, -84.000000)">
            <g id="编组-71" transform="translate(1012.000000, 64.000000)">
                <g id="编组" transform="translate(512.000000, 20.000000)">
                    <polygon id="路径" points="0 0 16 0 16 16 0 16"></polygon>
                    <path d="M8,0.666666667 L14.3333333,4.33333333 L14.3333333,11.6666667 L8,15.3333333 L1.66666667,11.6666667 L1.66666667,4.33333333 L8,0.666666667 Z M8,2.20733333 L3,5.102 L3,10.898 L8,13.7926667 L13,10.898 L13,5.102 L8,2.20733333 Z M8,10.6666667 C6.52724067,10.6666667 5.33333333,9.47275933 5.33333333,8 C5.33333333,6.52724067 6.52724067,5.33333333 8,5.33333333 C9.47275933,5.33333333 10.6666667,6.52724067 10.6666667,8 C10.6666667,9.47275933 9.47275933,10.6666667 8,10.6666667 Z M8,9.33333333 C8.73637967,9.33333333 9.33333333,8.73637967 9.33333333,8 C9.33333333,7.26362033 8.73637967,6.66666667 8,6.66666667 C7.26362033,6.66666667 6.66666667,7.26362033 6.66666667,8 C6.66666667,8.73637967 7.26362033,9.33333333 8,9.33333333 Z" id="形状" fill="currentColor" fill-rule="nonzero"></path>
                </g>
            </g>
        </g>
    </g>
</svg>