
<?xml version="1.0" encoding="UTF-8"?>
<svg width="24px" height="24px" viewBox="0 0 24 24" version="1.1" xmlns="http://www.w3.org/2000/svg" xmlns:xlink="http://www.w3.org/1999/xlink">
    <title></title>
    <g id="页面-1" stroke="none" stroke-width="1" fill="none" fill-rule="evenodd">
        <g id="课程目录" transform="translate(-170.000000, -474.000000)">
            <g id="编组-9备份" transform="translate(154.000000, 460.000000)">
                <g id="ICON/课程分类/表格" transform="translate(16.000000, 14.000000)">
                    <rect id="矩形" x="0" y="0" width="24" height="24"></rect>
                    <g id="编组">
                        <rect id="矩形" x="0" y="0" width="24" height="24"></rect>
                        <g id="编组-6" transform="translate(2.000000, 2.000000)" fill-rule="nonzero">
                            <path d="M4,9.09494702e-13 L14.9556929,9.09494702e-13 C15.220255,9.09890192e-13 15.4740362,0.104838982 15.6614629,0.291558947 L19.70577,4.32061763 C19.8941239,4.50826143 20,4.76318764 20,5.02905868 L20,16 C20,18.209139 18.209139,20 16,20 L4,20 C1.790861,20 2.705415e-16,18.209139 0,16 L0,4 C-2.705415e-16,1.790861 1.790861,9.09900514e-13 4,9.09494702e-13 Z" id="矩形" fill="#50D094"></path>
                            <path d="M15.7030952,0.335475923 L19.66182,4.27450288 C19.8734301,4.4852568 19.9861568,4.69601072 20,4.99880541 L16.0230246,4.99867017 C15.4546776,4.99867017 15,4.54399259 15,3.97564559 L15.0003315,1.66089364e-13 C15.2913282,0.0186001529 15.4972117,0.130425468 15.7030952,0.335475923 Z" id="路径" fill="#FFFFFF" opacity="0.6"></path>
                            <g id="编组-4" transform="translate(6.000000, 6.000000)" fill="#FEFEFE">
                                <path d="M6.82612564,0.201404998 C7.09466564,-0.0671349994 7.530055,-0.0671349994 7.798595,0.201404998 C8.05545935,0.458269344 8.06662736,0.867789818 7.83209905,1.13792861 L7.798595,1.17387436 L1.17387436,7.798595 C0.905334358,8.067135 0.469944996,8.067135 0.201404998,7.798595 C-0.0554593474,7.54173066 -0.0666273624,7.13221018 0.167900953,6.86207139 L0.201404998,6.82612564 L6.82612564,0.201404998 Z" id="路径"></path>
                                <path d="M6.82612564,0.201404998 C7.09466564,-0.0671349994 7.530055,-0.0671349994 7.798595,0.201404998 C8.05545935,0.458269344 8.06662736,0.867789818 7.83209905,1.13792861 L7.798595,1.17387436 L1.17387436,7.798595 C0.905334358,8.067135 0.469944996,8.067135 0.201404998,7.798595 C-0.0554593474,7.54173066 -0.0666273624,7.13221018 0.167900953,6.86207139 L0.201404998,6.82612564 L6.82612564,0.201404998 Z" id="路径" transform="translate(4.000000, 4.000000) scale(-1, 1) translate(-4.000000, -4.000000) "></path>
                            </g>
                        </g>
                    </g>
                </g>
            </g>
        </g>
    </g>
</svg>