<?xml version="1.0" encoding="UTF-8"?>
<svg width="66px" height="66px" viewBox="0 0 66 66" version="1.1" xmlns="http://www.w3.org/2000/svg" xmlns:xlink="http://www.w3.org/1999/xlink">
    <!-- Generator: Sketch 61.1 (89650) - https://sketch.com -->
    <title></title>
    <desc>Created with Sketch.</desc>
    <g id="页面-1" stroke="none" stroke-width="1" fill="none" fill-rule="evenodd">
        <path d="M33,0 C51.2253967,0 66,14.7746033 66,33 C66,51.2253967 51.2253967,66 33,66 C14.7746033,66 0,51.2253967 0,33 C0,14.7746033 14.7746033,0 33,0 Z M33,2 C15.8791728,2 2,15.8791728 2,33 C2,50.1208272 15.8791728,64 33,64 C50.1208272,64 64,50.1208272 64,33 C64,15.8791728 50.1208272,2 33,2 Z M31.066801,15.7972179 C32.1361206,14.7342607 33.8630794,14.7342607 34.932399,15.7972179 L34.932399,15.7972179 L38.4667971,19.3316556 L43.9339943,19.3316556 C45.4418954,19.3360493 46.6631991,20.5573667 46.6675928,22.0652847 L46.6675928,22.0652847 L46.6675928,27.5325429 L50.202791,31.0669805 C51.2657363,32.1363121 51.2657363,33.8632902 50.202791,34.9326217 L50.202791,34.9326217 L46.6675928,38.4670594 L46.6675928,43.9343176 C46.6631991,45.4422356 45.4418954,46.663553 43.9339943,46.6679467 L43.9339943,46.6679467 L38.4667971,46.6679467 L34.933199,50.2023844 C33.8637861,51.2658719 32.1362139,51.2658719 31.066801,50.2023844 L31.066801,50.2023844 L27.5324029,46.6679467 L22.0652057,46.6679467 C20.5573046,46.663553 19.3360008,45.4422356 19.3316071,43.9343176 L19.3316071,43.9343176 L19.3316071,38.4670594 L15.797209,34.9326217 C14.7342637,33.8632902 14.7342637,32.1363121 15.797209,31.0669805 L15.797209,31.0669805 L19.3316071,27.5325429 L19.3316071,22.0652847 C19.3360008,20.5573667 20.5573046,19.3360493 22.0652057,19.3316556 L22.0652057,19.3316556 L27.5324029,19.3316556 Z M31.200439,29.4 L28.2,29.4 L34.1997073,39 L40.2,29.4 L37.2001463,29.4 L34.1997073,34.6362243 L31.200439,29.4 Z" id="形状结合备份" fill="#F7AB60" fill-rule="nonzero"></path>
        <g id="编组备份" transform="translate(15.000000, 15.000000)"></g>
    </g>
</svg>