<?xml version="1.0" encoding="UTF-8"?>
<svg width="12px" height="12px" viewBox="0 0 12 12" version="1.1" xmlns="http://www.w3.org/2000/svg" xmlns:xlink="http://www.w3.org/1999/xlink">
    <title></title>
    <g id="页面-1" stroke="none" stroke-width="1" fill="none" fill-rule="evenodd">
        <g id="添加" transform="translate(-525.000000, -121.000000)">
            <g id="编组" transform="translate(417.000000, 88.000000)">
                <g id="编组-10" transform="translate(108.000000, 30.000000)">
                    <g id="编组" transform="translate(0.000000, 3.000000)">
                        <polygon id="路径" points="0 0 12 0 12 12 0 12"></polygon>
                        <path d="M6,9.94996103 L8.475,7.47496103 C9.84173241,6.10808915 9.84165704,3.89207665 8.47483164,2.52529775 C7.10800625,1.15851884 4.89199375,1.15851884 3.52516836,2.52529775 C2.15834296,3.89207665 2.15826759,6.10808915 3.525,7.47496103 L6,9.94996103 Z M6,11.363961 L2.818,8.18196103 C1.06065652,6.42459603 1.06066815,3.57536364 2.81802598,1.81801299 C4.57538381,0.0606623367 7.42461619,0.0606623367 9.18197402,1.81801299 C10.9393318,3.57536364 10.9393435,6.42459603 9.182,8.18196103 L6,11.363961 L6,11.363961 Z M6,5.99996103 C6.55228475,5.99996103 7,5.55224578 7,4.99996103 C7,4.44767628 6.55228475,3.99996103 6,3.99996103 C5.44771525,3.99996103 5,4.44767628 5,4.99996103 C5,5.55224578 5.44771525,5.99996103 6,5.99996103 Z M6,6.99996103 C4.8954305,6.99996103 4,6.10453053 4,4.99996103 C4,3.89539153 4.8954305,2.99996103 6,2.99996103 C7.1045695,2.99996103 8,3.89539153 8,4.99996103 C8,6.10453053 7.1045695,6.99996103 6,6.99996103 Z" id="形状" fill="#8A8E9A" fill-rule="nonzero"></path>
                    </g>
                </g>
            </g>
        </g>
    </g>
</svg>