<?xml version="1.0" encoding="UTF-8"?>
<svg width="14px" height="14px" viewBox="0 0 14 14" version="1.1" xmlns="http://www.w3.org/2000/svg" xmlns:xlink="http://www.w3.org/1999/xlink">
    <title></title>
    <g id="ICON/14px/协作_disable" stroke="none" stroke-width="1" fill="none" fill-rule="evenodd">
        <rect id="矩形" x="0" y="0" width="14" height="14"></rect>
        <g id="编组">
            <polygon id="路径" points="0 0 14 0 14 14 0 14"></polygon>
            <path d="M7.59047651,8.78695238 L7.59047651,10.0807619 C6.45353215,9.67879135 5.19220405,9.8537998 4.20764782,10.5501272 C3.22309159,11.2464546 2.63786527,12.3774217 2.63809556,13.5833333 L1.40000016,13.5827143 C1.39961095,12.0507829 2.1082031,10.6049065 3.31918205,9.66664001 C4.530161,8.72837352 6.10719025,8.40335042 7.59047651,8.78633333 L7.59047651,8.78695238 Z M6.35238127,8.01190476 C4.30023842,8.01190476 2.63809556,6.3497619 2.63809556,4.29761905 C2.63809556,2.24547619 4.30023842,0.583333333 6.35238127,0.583333333 C8.40452413,0.583333333 10.066667,2.24547619 10.066667,4.29761905 C10.066667,6.3497619 8.40452413,8.01190476 6.35238127,8.01190476 Z M6.35238127,6.77380952 C7.72047651,6.77380952 8.82857175,5.66571429 8.82857175,4.29761905 C8.82857175,2.92952381 7.72047651,1.82142857 6.35238127,1.82142857 C4.98428603,1.82142857 3.8761908,2.92952381 3.8761908,4.29761905 C3.8761908,5.66571429 4.98428603,6.77380952 6.35238127,6.77380952 Z M10.066667,10.4880952 L10.066667,8.63095238 L11.3047622,8.63095238 L11.3047622,10.4880952 L13.1619051,10.4880952 L13.1619051,11.7261905 L11.3047622,11.7261905 L11.3047622,13.5833333 L10.066667,13.5833333 L10.066667,11.7261905 L8.20952413,11.7261905 L8.20952413,10.4880952 L10.066667,10.4880952 Z" id="形状" fill="#D8DBE3" fill-rule="nonzero"></path>
        </g>
    </g>
</svg>