<?xml version="1.0" encoding="UTF-8"?>
<svg width="13px" height="11px" viewBox="0 0 13 11" version="1.1" xmlns="http://www.w3.org/2000/svg" xmlns:xlink="http://www.w3.org/1999/xlink">
    <title>16px/线性/Input/icon-eye</title>
    <g id="页面-1" stroke="none" stroke-width="1" fill="none" fill-rule="evenodd">
        <g id="添加导师" transform="translate(-555.000000, -1630.000000)" fill="currentColor" fill-rule="nonzero">
            <g id="16px/线性/Input/icon-eye" transform="translate(554.000000, 1627.000000)">
                <path d="M7.49128736,11.9817354 C9.42985736,11.9817354 11.2246974,10.7486554 12.8886974,8.08241544 C11.2674974,5.42572544 9.47673736,4.19864544 7.49128736,4.19864544 C5.50650736,4.19864544 3.72213736,5.42516544 2.11210736,8.08239544 C3.76491736,10.7491954 5.55340736,11.9817354 7.49128736,11.9817354 Z M7.49071736,3.00032544 C9.89819736,3.00032544 11.9703974,4.47191544 13.7072974,7.41510544 L13.8134974,7.59768544 L13.9249974,7.79654544 C14.0260974,7.97904544 14.0248974,8.20101544 13.9218974,8.38241544 L13.8021974,8.59011544 C12.0019974,11.6488354 9.89816736,13.1782254 7.49071736,13.1782254 C5.12975736,13.1782254 3.06645736,11.7073454 1.30079436,8.76562544 L1.21559136,8.62213544 C1.18639036,8.57242544 1.15105836,8.51105544 1.10959636,8.43801544 L1.07734566,8.38104544 C0.975334759,8.20035544 0.974155859,7.97973544 1.07422996,7.79796544 L1.17516136,7.61643544 C1.19491336,7.58134544 1.21288236,7.54977544 1.22906736,7.52170544 C2.96712736,4.50745544 5.05434736,3.00032544 7.49071736,3.00032544 Z M7.50054736,5.69502544 C6.17793736,5.69502544 5.10575736,6.76721544 5.10575736,8.08982544 C5.10575736,9.41243544 6.17793736,10.4846154 7.50054736,10.4846154 C8.82315736,10.4846154 9.89534736,9.41243544 9.89534736,8.08982544 C9.89534736,6.76721544 8.82315736,5.69502544 7.50054736,5.69502544 Z M7.50033736,6.89233544 C8.16163736,6.89233544 8.69772736,7.42842544 8.69772736,8.08973544 C8.69772736,8.75103544 8.16163736,9.28712544 7.50033736,9.28712544 C6.83902736,9.28712544 6.30293736,8.75103544 6.30293736,8.08973544 C6.30293736,7.42842544 6.83902736,6.89233544 7.50033736,6.89233544 Z" id="形状"></path>
            </g>
        </g>
    </g>
</svg>