<?xml version="1.0" encoding="UTF-8"?>
<svg width="20px" height="20px" viewBox="0 0 20 20" version="1.1" xmlns="http://www.w3.org/2000/svg" xmlns:xlink="http://www.w3.org/1999/xlink">
    <title></title>
    <g id="页面-1" stroke="none" stroke-width="1" fill="none" fill-rule="evenodd">
        <g id="人事管理-离职申请-编辑" transform="translate(-227.000000, -1160.000000)">
            <g id="编组-4备份-12" transform="translate(227.000000, 1160.000000)">
                <circle id="椭圆形" fill="#D9E0FC" cx="10" cy="10" r="10"></circle>
                <path d="M16,9 L16,14 C16,15.1045695 15.1045695,16 14,16 L6,16 C4.8954305,16 4,15.1045695 4,14 L4,9 L16,9 Z M10,10 C9.72385763,10 9.5,10.2238576 9.5,10.5 L9.5,10.5 L9.5,12.8 C9.5,13.0108438 9.63050503,13.1912064 9.81514353,13.2647164 L9.81514353,13.2647164 L9.8437827,13.2830127 L11.0562183,13.9830127 C11.2953646,14.1210839 11.6011598,14.0391463 11.739231,13.8 C11.8773022,13.5608537 11.7953646,13.2550585 11.5562183,13.1169873 L11.5562183,13.1169873 L10.5,12.507 L10.5,10.5 C10.5,10.2238576 10.2761424,10 10,10 Z M14,5 C15.1045695,5 16,5.8954305 16,7 L16,8 L4,8 L4,7 C4,5.8954305 4.8954305,5 6,5 L14,5 Z" id="形状结合" fill="#6785F2"></path>
                <rect id="矩形" fill="#6785F2" x="7" y="4" width="1" height="2" rx="0.5"></rect>
                <rect id="矩形备份-16" fill="#6785F2" x="12" y="4" width="1" height="2" rx="0.5"></rect>
            </g>
        </g>
    </g>
</svg>