
<?xml version="1.0" encoding="UTF-8"?>
<svg width="24px" height="24px" viewBox="0 0 24 24" version="1.1" xmlns="http://www.w3.org/2000/svg" xmlns:xlink="http://www.w3.org/1999/xlink">
    <title>编组</title>
    <g id="页面-1" stroke="none" stroke-width="1" fill="none" fill-rule="evenodd">
        <g id="课程目录" transform="translate(-68.000000, -717.000000)">
            <g id="编组" transform="translate(68.000000, 717.000000)">
                <rect id="矩形" x="0" y="0" width="24" height="24"></rect>
                <g id="编组-6" transform="translate(2.000000, 2.000000)" fill="#6D79FF" fill-rule="nonzero">
                    <rect id="矩形" x="0" y="9.09494702e-13" width="20" height="20" rx="4"></rect>
                </g>
                <path d="M12.9589003,9.27386657 L17.260244,15.0546905 C17.3003702,15.110867 17.3139275,15.1779897 17.3034092,15.2410997 C17.2928908,15.3042098 17.2582968,15.3633072 17.2021202,15.4034334 C17.15972,15.4337192 17.1089164,15.45 17.0568107,15.45 L17.0568107,15.45 L8.94318932,15.45 C8.87415373,15.45 8.81165373,15.4220178 8.76641263,15.3767767 C8.72117153,15.3315356 8.69318932,15.2690356 8.69318932,15.2 C8.69318932,15.1478943 8.70947011,15.0970906 8.73975596,15.0546905 L8.73975596,15.0546905 L12.7965666,9.3751555 C12.8366928,9.31897893 12.8957902,9.28438491 12.9589003,9.27386657 L12.9589003,9.27386657 Z" id="三角形" stroke="#FFFFFF" stroke-width="1.5" transform="translate(13.000000, 12.000000) rotate(-270.000000) translate(-13.000000, -12.000000) "></path>
            </g>
        </g>
    </g>
</svg>