<?xml version="1.0" encoding="UTF-8"?>
<svg width="20px" height="21px" viewBox="0 0 20 21" version="1.1" xmlns="http://www.w3.org/2000/svg" xmlns:xlink="http://www.w3.org/1999/xlink">
    <title></title>
    <g id="页面-1" stroke="none" stroke-width="1" fill="none" fill-rule="evenodd">
        <g id="人事管理-离职申请-编辑" transform="translate(-227.000000, -942.000000)">
            <g id="编组-4备份-14" transform="translate(227.000000, 943.000000)">
                <circle id="椭圆形" fill="#CBEBFF" cx="10" cy="10" r="10"></circle>
                <path d="M5.84982043,4.5 C5.38171132,4.5 5.00174412,4.81868386 5,5.21276251 L5,14.787258 C5.0017575,15.1813286 5.38172079,15.5 5.84982043,15.5 L14.1501796,15.5 C14.6182792,15.5 14.9982425,15.1813286 15,14.787258 L15,5.21276251 C14.9982425,4.81869187 14.6182792,4.5 14.1501796,4.5 L5.84982043,4.5 Z M7.5,6.5 L12.5,6.5 C12.7761424,6.5 13,6.72385763 13,7 C13,7.27614237 12.7761424,7.5 12.5,7.5 L7.5,7.5 C7.22385763,7.5 7,7.27614237 7,7 C7,6.72385763 7.22385763,6.5 7.5,6.5 Z M7.5,8.5 L12.5,8.5 C12.7761424,8.5 13,8.72385763 13,9 C13,9.27614237 12.7761424,9.5 12.5,9.5 L7.5,9.5 C7.22385763,9.5 7,9.27614237 7,9 C7,8.72385763 7.22385763,8.5 7.5,8.5 Z M11.7265547,12.7856545 L12.0572996,13.9298146 C12.0689416,13.9744262 12.0535685,14.02188 12.0182408,14.050382 C11.9997371,14.0630211 11.9779326,14.069565 11.9557266,14.0691629 C11.9345421,14.0682167 11.9139348,14.0617604 11.895843,14.050382 L10.9453176,13.3671052 L9.98698038,14.0369925 C9.97766247,14.0400707 9.96764183,14.0400707 9.95832392,14.0369925 L9.90625208,14.0369925 L9.87500498,14.0208963 C9.8410617,13.9926122 9.82672511,13.946262 9.83853675,13.9029945 L10.179704,12.7749306 L9.25000332,12.0541303 C9.21410968,12.0272549 9.19934051,11.9795062 9.21353509,11.9362285 C9.22782046,11.8922303 9.26742418,11.8622054 9.31249751,11.8612019 L10.479162,11.8612019 L10.5156302,11.7513379 L10.8645694,10.7465275 C10.8790764,10.7030685 10.9188934,10.6739603 10.9635517,10.6741634 C11.0074785,10.67621 11.0461788,10.7045132 11.0624942,10.7465275 L11.4010509,11.7593758 L11.4375191,11.8692397 L12.0052078,11.8692397 L12.5989624,11.8853154 C12.6430715,11.8874247 12.6813682,11.9172535 12.6953143,11.9603624 C12.7081046,12.004213 12.6924123,12.0515812 12.6562554,12.0782642 L11.7265547,12.7856545 Z" id="形状" fill="#02A0E3" fill-rule="nonzero"></path>
            </g>
        </g>
    </g>
</svg>