<?xml version="1.0" encoding="UTF-8"?>
<svg width="18px" height="18px" viewBox="0 0 18 18" version="1.1" xmlns="http://www.w3.org/2000/svg" xmlns:xlink="http://www.w3.org/1999/xlink">
    <title></title>
    <g id="页面-1" stroke="none" stroke-width="1" fill="none" fill-rule="evenodd">
        <g id="预约" transform="translate(-432.000000, -75.000000)">
            <g id="编组-5" transform="translate(420.000000, 70.000000)">
                <g id="编组" transform="translate(12.000000, 5.000000)">
                    <polygon id="路径" points="0 0 18 0 18 18 0 18"></polygon>
                    <path d="M4.125,16.197 C2.91922862,16.197 1.8050499,15.5537287 1.2021642,14.5095 C0.599278504,13.4652714 0.599278504,12.1787286 1.2021642,11.1345 C1.8050499,10.0902713 2.91922862,9.447 4.125,9.447 C5.988961,9.447 7.49999993,10.958039 7.49999993,12.822 C7.49999993,14.685961 5.988961,16.197 4.125,16.197 L4.125,16.197 Z M4.125,13.947 C4.74632034,13.947 5.25,13.4433203 5.25,12.822 C5.25,12.2006797 4.74632034,11.697 4.125,11.697 C3.50367966,11.697 3,12.2006797 3,12.822 C3,13.4433203 3.50367966,13.947 4.125,13.947 Z M13.875,16.197 C12.6692286,16.197 11.5550499,15.5537287 10.9521642,14.5095 C10.3492785,13.4652714 10.3492785,12.1787286 10.9521642,11.1345 C11.5550499,10.0902713 12.6692286,9.447 13.875,9.447 C15.738961,9.447 17.2499999,10.958039 17.2499999,12.822 C17.2499999,14.685961 15.738961,16.197 13.875,16.197 L13.875,16.197 Z M13.875,13.947 C14.4963203,13.947 15,13.4433203 15,12.822 C15,12.2006797 14.4963203,11.697 13.875,11.697 C13.2536797,11.697 12.75,12.2006797 12.75,12.822 C12.75,13.4433203 13.2536797,13.947 13.875,13.947 Z M8.64825,7.79475 L9.75,9.447 L9.75,13.947 L8.25,13.947 L8.25,10.197 L6.21075,8.4975 C5.84335863,8.2450248 5.60729773,7.84222102 5.5665728,7.39830478 C5.52584787,6.95438854 5.68467872,6.51535734 6,6.20025 L8.121,4.07925 C8.40232202,3.79781399 8.78394498,3.6396953 9.181875,3.6396953 C9.57980502,3.6396953 9.96142798,3.79781399 10.24275,4.07925 L11.30325,5.13975 C12.0975179,5.93686423 13.1278305,6.45636063 14.241,6.621 L14.2335,8.13225 C12.7231157,7.95836788 11.3162979,7.27756428 10.24275,6.201 L8.6475,7.79475 L8.64825,7.79475 Z M12,4.197 C11.1715729,4.197 10.5,3.52542712 10.5,2.697 C10.5,1.86857288 11.1715729,1.197 12,1.197 C12.8284271,1.197 13.5,1.86857288 13.5,2.697 C13.5,3.52542712 12.8284271,4.197 12,4.197 Z" id="形状" fill="#168CFF" fill-rule="nonzero"></path>
                </g>
            </g>
        </g>
    </g>
</svg>