<?xml version="1.0" encoding="UTF-8"?>
<svg width="24px" height="24px" viewBox="0 0 24 24" version="1.1" xmlns="http://www.w3.org/2000/svg" xmlns:xlink="http://www.w3.org/1999/xlink">
    <title></title>
    <g id="页面-1" stroke="none" stroke-width="1" fill="none" fill-rule="evenodd">
        <g id="课程目录" transform="translate(-68.000000, -629.000000)">
            <g id="编组" transform="translate(68.000000, 629.000000)">
                <rect id="矩形" x="0" y="0" width="24" height="24"></rect>
                <g id="编组-6" transform="translate(2.000000, 2.000000)" fill-rule="nonzero">
                    <path d="M4,9.09494702e-13 L14.9556929,9.09494702e-13 C15.220255,9.09890192e-13 15.4740362,0.104838982 15.6614629,0.291558947 L19.70577,4.32061763 C19.8941239,4.50826143 20,4.76318764 20,5.02905868 L20,16 C20,18.209139 18.209139,20 16,20 L4,20 C1.790861,20 2.705415e-16,18.209139 0,16 L0,4 C-2.705415e-16,1.790861 1.790861,9.09900514e-13 4,9.09494702e-13 Z" id="矩形" fill="#E05D58"></path>
                    <path d="M15.7030952,0.335475923 L19.66182,4.27450288 C19.8734301,4.4852568 19.9861568,4.69601072 20,4.99880541 L16.0230246,4.99867017 C15.4546776,4.99867017 15,4.54399259 15,3.97564559 L15.0003315,1.66089364e-13 C15.2913282,0.0186001529 15.4972117,0.130425468 15.7030952,0.335475923 Z" id="路径" fill="#FFFFFF" opacity="0.6"></path>
                </g>
                <path d="M8.87385411,8.02141153 C8.51349833,7.24748768 9.56197185,6.62108601 10.0756198,7.27088001 L10.1030949,7.30759575 L10.4028847,7.73037667 L10.4799098,7.82394008 C12.006924,9.65784791 14.0176123,10.9217773 16.0212529,11.1273657 L16.1439118,11.1386262 C16.5367603,11.1704337 16.829442,11.5146854 16.7976345,11.907534 C16.765827,12.3003825 16.4215753,12.5930642 16.0287267,12.5612567 C14.3255929,12.4233603 12.6608141,11.6770551 11.2064523,10.5249145 L11.0629152,10.4092555 L11.0816613,10.5393298 C11.1385001,10.9610096 11.1708317,11.3880135 11.1780265,11.8187559 L11.1795692,12.003584 C11.1795692,12.4965979 11.1466616,12.9850971 11.0817865,13.4666805 L11.0736971,13.5208696 L11.1575789,13.4560762 C11.7042658,13.0380849 12.3007119,12.6815254 12.9367002,12.3959114 L13.084164,12.3312642 C13.4465334,12.1762479 13.8659575,12.3443408 14.0209739,12.7067102 C14.1759902,13.0690797 14.0078973,13.4885038 13.6455279,13.6435201 C12.3201191,14.2105106 11.1912884,15.1404051 10.3861722,16.3144182 L10.3040442,16.4367338 L10.2714262,16.4823477 L10.0857997,16.7214849 C9.56442494,17.3931569 8.51630429,16.7536922 8.87504789,15.9827979 C9.4506235,14.7459593 9.75228326,13.3967593 9.75228326,12.003584 C9.75228326,10.6090939 9.45024201,9.25930018 8.87385411,8.02141153 Z" id="Stroke-1" fill="#FEFEFE" fill-rule="nonzero"></path>
            </g>
        </g>
    </g>
</svg>