<?xml version="1.0" encoding="utf-8"?>
<!-- Generator: Adobe Illustrator 21.0.0, SVG Export Plug-In . SVG Version: 6.00 Build 0)  -->
<svg version="1.1" id="图层_1" xmlns="http://www.w3.org/2000/svg" xmlns:xlink="http://www.w3.org/1999/xlink" x="0px" y="0px"
	 viewBox="0 0 18 18" style="enable-background:new 0 0 18 18;" xml:space="preserve">
<style type="text/css">
	.st0{fill:none;}
	.st1{fill:#FF8962;}
</style>
<title></title>
<rect id="矩形" class="st0" width="18" height="18"/>
<path class="st1" d="M16.4,3.9c0-0.2-0.2-0.5-0.4-0.6c-0.2-0.2-0.5-0.3-0.8-0.3h-0.1l-0.5,0c-0.8,0-1.5-0.1-2.3-0.2
	C11.3,2.6,10,1.5,9.6,1.3c-0.4-0.2-0.9-0.2-1.3,0c0,0-1.4,1.3-2.8,1.6C4.8,3,4,3.1,3.3,3.1c-0.2,0-0.4,0-0.4,0l0,0H2.7l-0.1,0
	c-0.2,0-0.4,0.1-0.6,0.3C1.7,3.5,1.6,3.8,1.6,4v2.4l0,0.4c0.2,8.4,6.8,9.8,7.4,9.8c0.6,0,6-2,7.1-7.1c0,0,0,0,0,0
	c0.2-1,0.3-2.1,0.3-3.1V4L16.4,3.9z M12.4,8.5c0,0.4-0.3,0.7-0.7,0.7h-2v2C9.7,11.7,9.3,12,9,12H8.8c-0.4,0-0.7-0.3-0.7-0.7v-2h-2
	c-0.4,0-0.7-0.3-0.7-0.7V8.4c0-0.4,0.3-0.7,0.7-0.7h2v-2C8.1,5.3,8.5,5,8.8,5H9c0.4,0,0.7,0.3,0.7,0.7v2h2c0.4,0,0.7,0.3,0.7,0.7
	V8.5z"/>
</svg>
