<?xml version="1.0" encoding="UTF-8"?>
<svg width="15px" height="16px" viewBox="0 0 15 16" version="1.1" xmlns="http://www.w3.org/2000/svg" xmlns:xlink="http://www.w3.org/1999/xlink">
    <!-- Generator: Sketch 60.1 (88133) - https://sketch.com -->
    <desc></desc>
    <g id="页面-1" stroke="none" stroke-width="1" fill="none" fill-rule="evenodd">
        <g id="导航" transform="translate(-1200.000000, -16.000000)" fill="#FFFFFF">
            <path d="M1212.05713,16 C1213.1617,16 1214.05713,16.8954305 1214.05713,18 L1214.05713,30 C1214.05713,31.1045695 1213.1617,32 1212.05713,32 L1202.05713,32 C1200.95256,32 1200.05713,31.1045695 1200.05713,30 L1200.05713,18 C1200.05713,16.8954305 1200.95256,16 1202.05713,16 L1212.05713,16 Z M1210.52838,28.0386736 L1203.52838,28.0386736 C1203.25224,28.0386736 1203.02838,28.2625312 1203.02838,28.5386736 C1203.02838,28.814816 1203.25224,29.0386736 1203.52838,29.0386736 L1203.52838,29.0386736 L1210.52838,29.0386736 C1210.80452,29.0386736 1211.02838,28.814816 1211.02838,28.5386736 C1211.02838,28.2625312 1210.80452,28.0386736 1210.52838,28.0386736 L1210.52838,28.0386736 Z M1210.52838,25.9882586 L1203.52838,25.9882586 C1203.25224,25.9882586 1203.02838,26.2121162 1203.02838,26.4882586 C1203.02838,26.7644009 1203.25224,26.9882586 1203.52838,26.9882586 L1203.52838,26.9882586 L1210.52838,26.9882586 C1210.80452,26.9882586 1211.02838,26.7644009 1211.02838,26.4882586 C1211.02838,26.2121162 1210.80452,25.9882586 1210.52838,25.9882586 L1210.52838,25.9882586 Z M1207.05645,17.9349845 C1206.00363,17.9349845 1205.14333,18.8057276 1205.14333,19.869969 C1205.14333,20.3537152 1205.33509,20.8374613 1205.71744,21.2244582 C1204.76117,21.7082043 1204.18706,22.6756966 1204.18706,23.7399381 C1204.18706,24.0301858 1204.37824,24.2236842 1204.6652,24.2236842 C1204.95216,24.2236842 1205.14333,24.0301858 1205.14333,23.7399381 C1205.14333,22.6756966 1206.0044,21.8049536 1207.05645,21.8049536 C1208.1085,21.8049536 1208.97034,22.6756966 1208.97034,23.7399381 C1208.97034,24.0301858 1209.16191,24.2236842 1209.44848,24.2236842 C1209.73505,24.2236842 1209.92719,24.0301858 1209.92719,23.7399381 C1209.92719,22.6756966 1209.35308,21.7082043 1208.39623,21.2244582 C1208.77917,20.8374613 1208.97034,20.3537152 1208.97034,19.869969 C1208.97034,18.8057276 1208.10928,17.9349845 1207.05645,17.9349845 Z M1207.05645,18.9024768 C1207.63037,18.9024768 1208.01408,19.2894737 1208.01408,19.869969 C1208.01408,20.4504644 1207.62998,20.8374613 1207.05645,20.8374613 C1206.48254,20.8374613 1206.10018,20.4504644 1206.10018,19.869969 C1206.10018,19.2894737 1206.48254,18.9024768 1207.05645,18.9024768 Z" id="形状结合"></path>
        </g>
    </g>
</svg>