<?xml version="1.0" encoding="UTF-8"?>
<svg width="14px" height="14px" viewBox="0 0 14 14" version="1.1" xmlns="http://www.w3.org/2000/svg" xmlns:xlink="http://www.w3.org/1999/xlink">
    <title></title>
    <g id="ICON/14px/通过_disable" stroke="none" stroke-width="1" fill="none" fill-rule="evenodd">
        <rect id="矩形" x="0" y="0" width="14" height="14"></rect>
        <path d="M7.04399324,0.5 C10.5634518,0.5 13.4780034,3.41455162 13.4780034,6.93401015 L13.4780034,6.93401015 L13.4780034,7.04399324 C13.4780034,10.5634518 10.5634518,13.4780034 7.04399324,13.4780034 L7.04399324,13.4780034 L6.93401015,13.4780034 C3.4145516,13.4780034 0.5,10.5634518 0.5,7.04399324 L0.5,7.04399324 L0.5,6.93401015 C0.5,3.41455162 3.41455162,0.5 6.93401015,0.5 L6.93401015,0.5 Z M6.98824906,1.59 C4.00591141,1.59 1.58824906,4.00766235 1.58824906,6.99 C1.58824906,9.97233765 4.00591141,12.39 6.98824906,12.39 C9.97058671,12.39 12.3882491,9.97233765 12.3882491,6.99 C12.3882491,4.00766235 9.97058671,1.59 6.98824906,1.59 Z" id="形状结合" fill="#D8DBE3" fill-rule="nonzero"></path>
        <path d="M10.5102212,4.27497009 L9.66839917,4.27497009 C9.48531635,4.27497009 9.31120817,4.36292165 9.2035124,4.51369573 L6.38188301,8.42664233 L5.10389311,6.65325186 C4.99619734,6.5042727 4.82388409,6.41452622 4.63900634,6.41452622 L3.79718434,6.41452622 C3.68051391,6.41452622 3.61230659,6.54735101 3.68051391,6.64248228 L5.91699624,9.74412069 C6.1449523,10.0618232 6.61701879,10.0618232 6.84497486,9.74412069 L10.6250967,4.50292616 C10.6950989,4.40779489 10.6268916,4.27497009 10.5102212,4.27497009 Z" id="路径" fill="#D8DBE3" fill-rule="nonzero"></path>
    </g>
</svg>