<?xml version="1.0" encoding="UTF-8"?>
<svg width="20px" height="20px" viewBox="0 0 20 20" version="1.1" xmlns="http://www.w3.org/2000/svg" xmlns:xlink="http://www.w3.org/1999/xlink">
    <title></title>
    <g id="页面-1" stroke="none" stroke-width="1" fill="none" fill-rule="evenodd">
        <g id="人事管理-离职申请-编辑" transform="translate(-227.000000, -1335.000000)">
            <g id="编组-10" transform="translate(227.000000, 1335.000000)">
                <circle id="椭圆形" fill="#D8F5E2" cx="10" cy="10" r="10"></circle>
                <path d="M7.75517827,5 C8.1879187,5 8.60898593,5.14035574 8.95517827,5.4 L10.1551783,6.3 C10.3282744,6.42982213 10.5388081,6.5 10.7551783,6.5 L14,6.5 C15.1045695,6.5 16,7.3954305 16,8.5 L16,13 C16,14.1045695 15.1045695,15 14,15 L6,15 C4.8954305,15 4,14.1045695 4,13 L4,7 C4,5.8954305 4.8954305,5 6,5 L7.75517827,5 Z M10,8.5 C9.72385763,8.5 9.5,8.72385763 9.5,9 L9.5,9 L9.5,10 L8.5,10 C8.25454011,10 8.05039163,10.1768752 8.00805567,10.4101244 L8,10.5 C8,10.7761424 8.22385763,11 8.5,11 L8.5,11 L9.5,11 L9.5,12 C9.5,12.2454599 9.67687516,12.4496084 9.91012437,12.4919443 L10,12.5 C10.2761424,12.5 10.5,12.2761424 10.5,12 L10.5,12 L10.5,11 L11.5,11 C11.7454599,11 11.9496084,10.8231248 11.9919443,10.5898756 L12,10.5 C12,10.2238576 11.7761424,10 11.5,10 L11.5,10 L10.5,10 L10.5,9 C10.5,8.75454011 10.3231248,8.55039163 10.0898756,8.50805567 Z" id="形状结合" fill="#3ACC6E"></path>
            </g>
        </g>
    </g>
</svg>