<?xml version="1.0" encoding="UTF-8"?>
<svg width="16px" height="16px" viewBox="0 0 16 16" version="1.1" xmlns="http://www.w3.org/2000/svg" xmlns:xlink="http://www.w3.org/1999/xlink" style="background: #393939;">
    <title></title>
    <g id="16px/线性/通用/icon-upload备份-2" stroke="none" stroke-width="1" fill="none" fill-rule="evenodd">
        <rect x="0" y="0" width="16" height="16"></rect>
        <path d="M3.75,10.5003221 C3.98012,10.5003221 4.16667,10.6868721 4.16667,10.9169921 L4.16667,12.1669921 L11.83333,12.1669921 L11.83333,10.9169921 C11.83333,10.6868721 12.01988,10.5003221 12.25,10.5003221 L13.0833,10.5003221 C13.3135,10.5003221 13.5,10.6868721 13.5,10.9169921 L13.5,13.0002921 C13.5,13.4605921 13.1269,13.8336921 12.6667,13.8336921 L3.333333,13.8336921 C2.873096,13.8336921 2.5,13.4605921 2.5,13.0002921 L2.5,10.9169921 C2.5,10.6868721 2.686548,10.5003221 2.916667,10.5003221 L3.75,10.5003221 Z M8.39578,2.28903114 L11.52057,5.41382214 C11.68329,5.57654214 11.68329,5.84036214 11.52057,6.00307214 L10.93131,6.59233214 C10.76859,6.75505214 10.50478,6.75505214 10.34206,6.59233214 L8.83325,5.08363214 L8.83333,9.28004214 C8.83333,9.51016214 8.64679,9.69670214 8.41667,9.69670214 L7.58333,9.69670214 C7.35321,9.69670214 7.16667,9.51016214 7.16667,9.28004214 L7.16624,5.28574214 L5.86024,6.59233214 C5.69753,6.75505214 5.43371,6.75505214 5.27099,6.59233214 L4.68173,6.00307214 C4.51902,5.84036214 4.51902,5.57654214 4.68173,5.41382214 L7.80652,2.28903114 C7.96924,2.12631254 8.23306,2.12631254 8.39578,2.28903114 Z" id="Combined-Shape" fill="currentColor"></path>
    </g>
</svg>