<?xml version="1.0" encoding="UTF-8"?>
<svg width="16px" height="16px" viewBox="0 0 16 16" version="1.1" xmlns="http://www.w3.org/2000/svg" xmlns:xlink="http://www.w3.org/1999/xlink">
    <title></title>
    <g id="Upload-fileIcon/word" stroke="none" stroke-width="1" fill="none" fill-rule="evenodd">
        <g id="apps-fill">
            <polygon id="路径" points="0 0 16 0 16 16 0 16"></polygon>
            <path d="M4.13157895,1 C5.86110224,1 7.26315789,2.40205565 7.26315789,4.13157895 L7.26315789,7.26315789 L4.13157895,7.26315789 C2.40205565,7.26315789 1,5.86110224 1,4.13157895 C1,2.40205565 2.40205565,1 4.13157895,1 L4.13157895,1 Z M4.13157895,8.73684211 L7.26315789,8.73684211 L7.26315789,11.8684211 C7.26315789,13.5979443 5.86110224,15 4.13157895,15 C2.40205565,15 1,13.5979443 1,11.8684211 C1,10.1388978 2.40205565,8.73684211 4.13157895,8.73684211 Z M11.8684211,1 C13.5979443,1 15,2.40205565 15,4.13157895 C15,5.86110224 13.5979443,7.26315789 11.8684211,7.26315789 L8.73684211,7.26315789 L8.73684211,4.13157895 C8.73684211,2.40205565 10.1388978,1 11.8684211,1 Z M8.73684211,8.73684211 L11.8684211,8.73684211 C13.5979443,8.73684211 15,10.1388978 15,11.8684211 C15,13.5979443 13.5979443,15 11.8684211,15 C10.1388978,15 8.73684211,13.5979443 8.73684211,11.8684211 L8.73684211,8.73684211 Z" id="形状" fill="#33A7FF" fill-rule="nonzero"></path>
        </g>
    </g>
</svg>