<?xml version="1.0" encoding="UTF-8"?>
<svg width="14px" height="14px" viewBox="0 0 14 14" version="1.1" xmlns="http://www.w3.org/2000/svg" xmlns:xlink="http://www.w3.org/1999/xlink">
    <title></title>
    <g id="ICON/14px/淘汰_disable" stroke="none" stroke-width="1" fill="none" fill-rule="evenodd">
        <rect id="矩形" x="0" y="0" width="14" height="14"></rect>
        <path d="M7.04399324,0.5 L6.93401015,0.5 C3.41455162,0.5 0.5,3.41455162 0.5,6.93401015 L0.5,7.04399324 C0.5,10.5634518 3.4145516,13.4780034 6.93401015,13.4780034 L7.04399324,13.4780034 C10.5634518,13.4780034 13.4780034,10.5634518 13.4780034,7.04399324 L13.4780034,6.93401015 C13.4780034,3.41455162 10.5634518,0.5 7.04399324,0.5 Z M6.93401015,12.3781726 C4.01945855,12.3781726 1.5998308,9.95854484 1.5998308,7.04399324 L1.5998308,6.93401015 C1.5998308,5.66920474 2.03976312,4.51438241 2.75465314,3.57952624 L10.3434856,11.1683587 C9.40862945,11.9382403 8.19881558,12.3231811 6.9890017,12.3231811 L6.93401015,12.3781726 L6.93401015,12.3781726 Z M12.3781726,7.04399324 C12.3781726,8.30879865 11.9382403,9.46362099 11.2233503,10.3984772 L3.57952624,2.80964467 C4.51438241,2.03976312 5.72419629,1.5998308 6.93401015,1.5998308 L7.04399324,1.5998308 C9.95854484,1.5998308 12.3781726,4.01945855 12.3781726,6.93401015 L12.3781726,7.04399324 Z" id="形状" fill="#D8DBE3" fill-rule="nonzero"></path>
    </g>
</svg>