
<?xml version="1.0" encoding="UTF-8"?>
<svg width="16px" height="16px" viewBox="0 0 16 16" version="1.1" xmlns="http://www.w3.org/2000/svg" xmlns:xlink="http://www.w3.org/1999/xlink">
    <title></title>
    <g id="433.9" stroke="none" stroke-width="1" fill="none" fill-rule="evenodd">
        <g id="附件管理" transform="translate(-974.000000, -177.000000)">
            <g id="编组-5备份-5" transform="translate(630.000000, 152.000000)">
                <g id="16px/线性/通用/icon-download" transform="translate(344.000000, 25.000000)">
                    <rect id="矩形" x="0" y="0" width="16" height="16" rx="2"></rect>
                    <path d="M3.75,10.33333 C3.98012,10.33333 4.16667,10.51988 4.16667,10.75 L4.16667,12 L11.83333,12 L11.83333,10.75 C11.83333,10.51988 12.01988,10.33333 12.25,10.33333 L13.0833,10.33333 C13.3135,10.33333 13.5,10.51988 13.5,10.75 L13.5,12.8333 C13.5,13.2936 13.1269,13.6667 12.6667,13.6667 L3.333333,13.6667 C2.873096,13.6667 2.5,13.2936 2.5,12.8333 L2.5,10.75 C2.5,10.51988 2.686548,10.33333 2.916667,10.33333 L3.75,10.33333 Z M8.39578,2.12204 L11.52057,5.24682 C11.68329,5.40954 11.68329,5.67336 11.52057,5.83608 L10.93131,6.42534 C10.76859,6.58805 10.50478,6.58805 10.34206,6.42534 L8.83325,4.91663 L8.83333,9.113044 C8.83333,9.343163 8.64679,9.52971 8.41667,9.52971 L7.58333,9.52971 C7.35321,9.52971 7.16667,9.343163 7.16667,9.113044 L7.16624,5.11875 L5.86024,6.42534 C5.69753,6.58805 5.43371,6.58805 5.27099,6.42534 L4.68173,5.83608 C4.51902,5.67336 4.51902,5.40954 4.68173,5.24682 L7.80652,2.12204 C7.96924,1.95932 8.23306,1.95932 8.39578,2.12204 Z" id="Combined-Shape" fill="#4E5969" fill-rule="nonzero"></path>
                </g>
            </g>
        </g>
    </g>
</svg>