<?xml version="1.0" encoding="UTF-8"?>
<svg width="12px" height="12px" viewBox="0 0 12 12" version="1.1" xmlns="http://www.w3.org/2000/svg" xmlns:xlink="http://www.w3.org/1999/xlink">
    <title></title>
    <g id="页面-1" stroke="none" stroke-width="1" fill="none" fill-rule="evenodd">
        <g id="预约" transform="translate(-384.000000, -78.000000)">
            <g id="编组-11" transform="translate(380.000000, 74.000000)">
                <g id="编组-2备份" transform="translate(10.000000, 10.000000) rotate(-180.000000) translate(-10.000000, -10.000000) translate(4.000000, 4.000000)">
                    <rect id="矩形" x="0" y="0" width="12" height="12"></rect>
                    <rect id="矩形备份" fill="currentColor" transform="translate(6.054544, 7.555456) rotate(-675.000000) translate(-6.054544, -7.555456) " x="3.05454365" y="6.80545635" width="6" height="1.5" rx="0.5"></rect>
                    <path d="M3.55454365,3.62347584 L8.55454365,3.62347584 C8.83068602,3.62347584 9.05454365,3.84733346 9.05454365,4.12347584 L9.05454365,4.62347584 C9.05454365,4.89961821 8.83068602,5.12347584 8.55454365,5.12347584 L3.55454365,5.12347584 C3.27840127,5.12347584 3.05454365,4.89961821 3.05454365,4.62347584 L3.05454365,4.12347584 C3.05454365,3.84733346 3.27840127,3.62347584 3.55454365,3.62347584 Z" id="矩形" fill="currentColor" transform="translate(6.054544, 4.373476) rotate(-405.000000) translate(-6.054544, -4.373476) "></path>
                </g>
            </g>
        </g>
    </g>
</svg>