<?xml version="1.0" encoding="UTF-8"?>
<svg width="20px" height="20px" viewBox="0 0 20 20" version="1.1" xmlns="http://www.w3.org/2000/svg" xmlns:xlink="http://www.w3.org/1999/xlink">
    <title></title>
    <g id="页面-1" stroke="none" stroke-width="1" fill="none" fill-rule="evenodd">
        <g id="人事管理异动申请-是" transform="translate(-227.000000, -420.000000)">
            <g id="编组-4备份-10" transform="translate(227.000000, 420.000000)">
                <circle id="椭圆形" fill="#FDEFCE" cx="10" cy="10" r="10"></circle>
                <path d="M14,4 C15.1045695,4 16,4.8954305 16,6 C16,7.1045695 15.1045695,8 14,8 C12.8954305,8 12,7.1045695 12,6 C12,4.8954305 12.8954305,4 14,4 Z M15,5.6 L13,5.6 C12.7790861,5.6 12.6,5.7790861 12.6,6 C12.6,6.2209139 12.7790861,6.4 13,6.4 L13,6.4 L15,6.4 C15.2209139,6.4 15.4,6.2209139 15.4,6 C15.4,5.7790861 15.2209139,5.6 15,5.6 L15,5.6 Z" id="形状结合" fill="#F7AE08" transform="translate(14.000000, 6.000000) rotate(-315.000000) translate(-14.000000, -6.000000) "></path>
                <path d="M9.49989904,10.5454545 C10.9134603,10.5454545 12.2070342,11.3399751 12.8462049,12.600775 L13.900203,14.679845 C14.1272274,15.1276633 13.9482386,15.6747315 13.5004203,15.9017559 C13.3730197,15.9663425 13.2321929,16 13.0893562,16 L5.91044191,16 C5.40836487,16 5.001351,15.5929861 5.001351,15.0909091 C5.001351,14.9480724 5.03500853,14.8072456 5.09959507,14.679845 L6.15359316,12.600775 C6.79276388,11.3399751 8.08633774,10.5454545 9.49989904,10.5454545 Z M9.49989904,6 C10.7725552,6 11.8042468,7.01753466 11.8042468,8.27272727 C11.8042468,9.52791989 10.7725552,10.5454545 9.49989904,10.5454545 C8.2272429,10.5454545 7.19555125,9.52791989 7.19555125,8.27272727 C7.19555125,7.01753466 8.2272429,6 9.49989904,6 Z" id="形状结合" fill="#F7AE08"></path>
            </g>
        </g>
    </g>
</svg>