<?xml version="1.0" encoding="UTF-8"?>
<svg width="24px" height="24px" viewBox="0 0 24 24" version="1.1" xmlns="http://www.w3.org/2000/svg" xmlns:xlink="http://www.w3.org/1999/xlink">
    <title></title>
    <g id="页面-1" stroke="none" stroke-width="1" fill="none" fill-rule="evenodd">
        <g id="课程目录" transform="translate(-68.000000, -673.000000)">
            <g id="编组" transform="translate(68.000000, 673.000000)">
                <rect id="矩形" x="0" y="0" width="24" height="24"></rect>
                <g id="编组-6" transform="translate(2.000000, 2.000000)" fill-rule="nonzero">
                    <path d="M4,9.09494702e-13 L14.9556929,9.09494702e-13 C15.220255,9.09890192e-13 15.4740362,0.104838982 15.6614629,0.291558947 L19.70577,4.32061763 C19.8941239,4.50826143 20,4.76318764 20,5.02905868 L20,16 C20,18.209139 18.209139,20 16,20 L4,20 C1.790861,20 2.705415e-16,18.209139 0,16 L0,4 C-2.705415e-16,1.790861 1.790861,9.09900514e-13 4,9.09494702e-13 Z" id="矩形" fill="#F9753C"></path>
                    <path d="M15.7030952,0.335475923 L19.66182,4.27450288 C19.8734301,4.4852568 19.9861568,4.69601072 20,4.99880541 L16.0230246,4.99867017 C15.4546776,4.99867017 15,4.54399259 15,3.97564559 L15.0003315,1.66089364e-13 C15.2913282,0.0186001529 15.4972117,0.130425468 15.7030952,0.335475923 Z" id="路径" fill="#FFFFFF" opacity="0.6"></path>
                </g>
                <path d="M8.5,8.6887207 L8.50037216,8.66417825 C8.50012469,8.65709955 8.5,8.64999192 8.5,8.64285714 C8.5,8.34918511 8.71125355,8.10150585 8.99983438,8.0246578 C9.00349622,8.02518544 9.00650536,8.02435461 9.00952268,8.02354375 C9.02998149,8.01698661 9.05136553,8.01259106 9.07309596,8.00914308 C9.08751653,8.00722322 9.10221762,8.00521763 9.11705857,8.00368331 C9.12603213,8.00264303 9.13514675,8.00192181 9.14431016,8.0013674 L9.18769838,8.00000074 L9.18769838,8.00000074 L13.7233957,8 C15.2549004,8 16.5,9.18286884 16.5,10.6256999 C16.5,12.0440763 15.2967495,13.2112279 13.8010173,13.2503849 L13.7233957,13.2513999 L9.87916667,13.251275 L9.87931034,16.3571429 C9.87931034,16.6979814 9.59474871,16.9768671 9.23500019,16.9986326 L9.18965517,17 C8.82400458,17 8.52481692,16.7347479 8.50146695,16.3994109 L8.5,16.3571429 L8.5,8.6887207 Z M9.877,11.965 L13.7233957,11.9656856 C14.487202,11.9656856 15.1206897,11.36386 15.1206897,10.6256999 C15.1206897,9.90696516 14.5201047,9.31748373 13.7834163,9.28695613 L13.7233957,9.28571429 L9.877,9.285 L9.877,11.965 Z" id="形状结合" fill="#FEFEFE"></path>
            </g>
        </g>
    </g>
</svg>