
<?xml version="1.0" encoding="UTF-8"?>
<svg width="24px" height="24px" viewBox="0 0 24 24" version="1.1" xmlns="http://www.w3.org/2000/svg" xmlns:xlink="http://www.w3.org/1999/xlink">
    <title></title>
    <g id="页面-1" stroke="none" stroke-width="1" fill="none" fill-rule="evenodd">
        <g id="课程目录" transform="translate(-68.000000, -585.000000)">
            <g id="编组" transform="translate(68.000000, 585.000000)">
                <rect id="矩形" x="0" y="0" width="24" height="24"></rect>
                <g id="编组-6" transform="translate(2.000000, 2.000000)" fill-rule="nonzero">
                    <path d="M4,9.09494702e-13 L14.9556929,9.09494702e-13 C15.220255,9.09890192e-13 15.4740362,0.104838982 15.6614629,0.291558947 L19.70577,4.32061763 C19.8941239,4.50826143 20,4.76318764 20,5.02905868 L20,16 C20,18.209139 18.209139,20 16,20 L4,20 C1.790861,20 2.705415e-16,18.209139 0,16 L0,4 C-2.705415e-16,1.790861 1.790861,9.09900514e-13 4,9.09494702e-13 Z" id="矩形" fill="#5A85F6"></path>
                    <path d="M14.2793701,6.5 C14.6441969,6.5 14.9457039,6.75280533 14.9934215,7.08080314 L15,7.17198792 L15,13.8267133 C15,14.3691075 14.3554943,14.6754495 13.8901607,14.3927444 L13.8100706,14.3366688 L10.1079241,11.3735094 L6.1744872,14.3486813 C5.72959235,14.6850621 5.07744086,14.4249039 5.00635271,13.9185535 L5,13.8267133 L5,7.17198792 C5,6.80085924 5.32263698,6.5 5.72062987,6.5 C6.08545669,6.5 6.38696361,6.75280533 6.43468124,7.08080314 L6.44125974,7.17198792 L6.44039847,12.4164346 L9.66751854,9.97738255 C9.90790029,9.79563217 10.2415894,9.77943225 10.498335,9.92656742 L10.5906754,9.98939511 L13.5582999,12.3644676 L13.5587403,7.17198792 C13.5587403,6.83178663 13.8298449,6.55063119 14.1815849,6.50613446 L14.2793701,6.5 Z" id="路径-2" fill="#FEFEFE"></path>
                    <path d="M15.7030952,0.335475923 L19.66182,4.27450288 C19.8734301,4.4852568 19.9861568,4.69601072 20,4.99880541 L16.0230246,4.99867017 C15.4546776,4.99867017 15,4.54399259 15,3.97564559 L15.0003315,1.66089364e-13 C15.2913282,0.0186001529 15.4972117,0.130425468 15.7030952,0.335475923 Z" id="路径" fill="#FFFFFF" opacity="0.6"></path>
                </g>
            </g>
        </g>
    </g>
</svg>