<?xml version="1.0" encoding="UTF-8"?>
<svg width="12px" height="14px" viewBox="0 0 12 14" version="1.1" xmlns="http://www.w3.org/2000/svg" xmlns:xlink="http://www.w3.org/1999/xlink">
    <title></title>
    <g id="页面-1" stroke="none" stroke-width="1" fill="none" fill-rule="evenodd" opacity="0.800000012">
        <g id="会议室管理-收起" transform="translate(-996.000000, -347.000000)">
            <g id="编组-7备份-2" transform="translate(948.000000, 142.000000)">
                <g id="锁" transform="translate(46.000000, 204.000000)">
                    <rect id="矩形" x="0" y="0" width="16" height="16"></rect>
                    <path d="M12.1601852,5.53703704 L11.9981481,5.53703704 L11.9981481,4.72685186 C11.9981481,2.67222224 10.3259259,1 8.27129629,1 C6.21666667,1 4.54444444,2.67222222 4.54444444,4.72685186 L4.54444444,5.53703704 L4.3824074,5.53703704 C3.39875072,5.53882065 2.60178361,6.33578776 2.6,7.31944444 L2.6,13.1527778 C2.6,14.1347222 3.40046296,14.9351852 4.3824074,14.9351852 L12.1601852,14.9351852 C13.1421296,14.9351852 13.9425926,14.1347222 13.9425926,13.1527778 L13.9425926,7.31944444 C13.9425926,6.3375 13.1421296,5.53703704 12.1601852,5.53703704 Z M5.51666667,4.72685186 C5.51666667,3.20694446 6.75138889,1.97222222 8.27129629,1.97222222 C9.79120369,1.97222222 11.0259259,3.20694444 11.0259259,4.72685186 L11.0259259,5.53703704 L5.51666667,5.53703704 L5.51666667,4.72685186 Z" id="形状" fill="#8A8E9A" fill-rule="nonzero"></path>
                    <path d="M8.4375,8.875 C8.19587542,8.875 8,9.08868228 8,9.35227273 L8,11.8977273 C8,12.1613177 8.19587542,12.375 8.4375,12.375 C8.67912458,12.375 8.875,12.1613177 8.875,11.8977273 L8.875,9.35227273 C8.875,9.08868228 8.67912458,8.875 8.4375,8.875 Z" id="路径" fill="#FFFFFF" fill-rule="nonzero"></path>
                </g>
            </g>
        </g>
    </g>
</svg>