<?xml version="1.0" encoding="UTF-8"?>
<svg width="16px" height="16px" viewBox="0 0 16 16" version="1.1" xmlns="http://www.w3.org/2000/svg" xmlns:xlink="http://www.w3.org/1999/xlink">
    <title>Upload__progress/finished</title>
    <g id="Upload__progress/finished" stroke="none" stroke-width="1" fill="none" fill-rule="evenodd">
        <path d="M16,0 L0,0 L0,16 L16,16 L16,0 Z" id="矩形" fill="#FFFFFF" fill-rule="nonzero" opacity="0"></path>
        <path d="M8.68806383,3.03410016 L9.56306132,3.03410016 C10.0463121,3.03386205 10.4380628,3.42561309 10.4380628,3.908862 C10.4380628,3.908941 10.4380628,3.909021 10.4378328,3.9091 L10.4353528,13.0101984 C10.4349828,13.4933983 10.0432721,13.8849982 9.56011132,13.8851982 L7.81010833,13.8851982 L7.8128244,3.9091 C7.8131942,3.42594409 8.20490701,3.03433856 8.68806383,3.03410016 Z" id="矩形" fill="#00B42A" transform="translate(9.124086, 8.459649) rotate(40.000001) translate(-9.124086, -8.459649) "></path>
        <path d="M4.58250763,7.22627338 L5.45990434,7.22627338 C5.93552418,7.22627338 6.32404406,7.60619837 6.33468405,8.08170336 L6.45613401,13.5105532 L4.70556959,13.5799632 C4.22270075,13.5991132 3.81573588,13.2231832 3.79658999,12.7403132 C3.79635389,12.7343632 3.79617889,12.7284032 3.79606449,12.7224432 L3.70766942,8.11806836 C3.69839369,7.63490837 4.08255279,7.23571025 4.56571264,7.22643455 C4.57131063,7.22627338 4.57690963,7.22627338 4.58250763,7.22627338 Z" id="矩形备份-3" fill="#00B42A" transform="translate(5.081819, 10.403468) rotate(-47.999999) translate(-5.081819, -10.403468) "></path>
    </g>
</svg>