<?xml version="1.0" encoding="UTF-8"?>
<svg width="14px" height="17px" viewBox="0 0 14 17" version="1.1" xmlns="http://www.w3.org/2000/svg" xmlns:xlink="http://www.w3.org/1999/xlink">
    <!-- Generator: Sketch 60.1 (88133) - https://sketch.com -->
    <title></title>
    <defs>
        <path d="M1.2121614,2.48050226 L6.2121614,0.337645113 C6.71525899,0.12203186 7.28474101,0.12203186 7.7878386,0.337645113 L10.4072434,1.46024717 L10.4072434,1.46024717 L12.7878386,2.48050226 C13.5232063,2.79565984 14,3.5187361 14,4.31879232 L14,11.8393549 C14,12.5570686 13.6154279,13.2197555 12.9922779,13.5758412 L7.99227788,16.4329841 C7.37741254,16.7843357 6.62258746,16.7843357 6.00772212,16.4329841 L1.00772212,13.5758412 C0.384572129,13.2197555 -8.00283842e-16,12.5570686 0,11.8393549 L0,4.31879232 C1.14549612e-15,3.5187361 0.476793707,2.79565984 1.2121614,2.48050226 Z" id="path-1"></path>
    </defs>
    <g id="页面-1" stroke="none" stroke-width="1" fill="none" fill-rule="evenodd">
        <g id="违规警示牌的替换" transform="translate(-216.000000, -123.000000)">
            <g id="编组-13" transform="translate(200.000000, 114.000000)">
                <g id="编组-12" transform="translate(16.000000, 9.000000)">
                    <g id="编组-29">
                        <g id="矩形">
                            <mask id="mask-2" fill="white">
                                <use xlink:href="#path-1"></use>
                            </mask>
                            <use id="蒙版" fill="#67A2FF" xlink:href="#path-1"></use>
                            <rect fill="#407BF2" mask="url(#mask-2)" x="7" y="0" width="9" height="17"></rect>
                        </g>
                        <path d="M6.75,5 C7.16421356,5 7.5,5.33578644 7.5,5.75 L7.5,7.75 L9.5,7.75 C9.91421356,7.75 10.25,8.08578644 10.25,8.5 C10.25,8.91421356 9.91421356,9.25 9.5,9.25 L7.5,9.25 L7.5,11.25 C7.5,11.6642136 7.16421356,12 6.75,12 C6.33578644,12 6,11.6642136 6,11.25 L6,9.25 L4,9.25 C3.58578644,9.25 3.25,8.91421356 3.25,8.5 C3.25,8.08578644 3.58578644,7.75 4,7.75 L6,7.75 L6,5.75 C6,5.33578644 6.33578644,5 6.75,5 Z" id="形状结合" fill="#FFFFFF"></path>
                    </g>
                </g>
            </g>
        </g>
    </g>
</svg>