<?xml version="1.0" encoding="UTF-8"?>
<svg width="14px" height="14px" viewBox="0 0 14 14" version="1.1" xmlns="http://www.w3.org/2000/svg" xmlns:xlink="http://www.w3.org/1999/xlink" style="background: #3E3E3E;">
    <title></title>
    <g id="ICON/14px/创建offer" stroke="none" stroke-width="1" fill="none" fill-rule="evenodd">
        <rect fill="#3E3E3E" x="0" y="0" width="14" height="14"></rect>
        <path d="M12,0 C13.1045695,0 14,0.8954305 14,2 L14,12 C14,13.1045695 13.1045695,14 12,14 L2,14 C0.8954305,14 0,13.1045695 0,12 L0,2 C0,0.8954305 0.8954305,0 2,0 L12,0 Z M12,1 L2,1 C1.48716416,1 1.06449284,1.38604019 1.00672773,1.88337887 L1,2 L1,12 C1,12.5128358 1.38604019,12.9355072 1.88337887,12.9932723 L2,13 L12,13 C12.5128358,13 12.9355072,12.6139598 12.9932723,12.1166211 L13,12 L13,2 C13,1.48716416 12.6139598,1.06449284 12.1166211,1.00672773 L12,1 Z" id="矩形" fill="#FFFFFF" fill-rule="nonzero"></path>
        <path d="M7.2141375,2.79077218 C7.372015,2.79077218 7.5,2.91875718 7.5,3.07663468 L7.5,4.79077218 L9.2141375,4.79077218 C9.372015,4.79077218 9.5,4.91875718 9.5,5.07663468 L9.5,5.50490968 C9.5,5.66278717 9.372015,5.79077218 9.2141375,5.79077218 L7.5,5.79077218 L7.5,7.50490968 C7.5,7.66278717 7.372015,7.79077218 7.2141375,7.79077218 L6.7858625,7.79077218 C6.627985,7.79077218 6.5,7.66278717 6.5,7.50490968 L6.5,5.79077218 L4.7858625,5.79077218 C4.627985,5.79077218 4.5,5.66278717 4.5,5.50490968 L4.5,5.07663468 C4.5,4.91875718 4.627985,4.79077218 4.7858625,4.79077218 L6.5,4.79077218 L6.5,3.07663468 C6.5,2.91875718 6.627985,2.79077218 6.7858625,2.79077218 L7.2141375,2.79077218 Z" id="形状结合" fill="#FFFFFF"></path>
        <path d="M1,7.5 L2.5,7.5 C2.77614237,7.5 3,7.72385763 3,8 L3,9.4 C3,10.0075132 3.49248678,10.5 4.1,10.5 L8,10.5 L8,10.5" id="路径-3" stroke="#FFFFFF"></path>
        <path d="M6,7.5 L7.5,7.5 C7.77614237,7.5 8,7.72385763 8,8 L8,9.4 C8,10.0075132 8.49248678,10.5 9.1,10.5 L13,10.5 L13,10.5" id="路径-3" stroke="#FFFFFF" transform="translate(9.500000, 9.000000) scale(-1, 1) translate(-9.500000, -9.000000) "></path>
    </g>
</svg>