<?xml version="1.0" encoding="UTF-8"?>
<svg width="12px" height="12px" viewBox="0 0 12 12" version="1.1" xmlns="http://www.w3.org/2000/svg" xmlns:xlink="http://www.w3.org/1999/xlink">
    <title>16px/线性/通用/icon-delete</title>
    <g id="页面-1" stroke="none" stroke-width="1" fill="none" fill-rule="evenodd">
        <g id="添加导师" transform="translate(-588.000000, -1629.000000)" fill="currentColor" fill-rule="nonzero">
            <g id="编组-4" transform="translate(554.000000, 1627.000000)">
                <g id="16px/线性/通用/icon-delete" transform="translate(32.000000, 0.000000)">
                    <path d="M9.79999988,2 C10.1313699,2 10.3999999,2.268629 10.3999999,2.6 L10.3996999,3.1997 L13.6153999,3.2 C13.7490999,3.2 13.7975999,3.21392 13.8464999,3.24007 C13.8953999,3.26622 13.9337999,3.30458 13.9598999,3.35347 C13.9860999,3.40236 13.9999999,3.45086 13.9999999,3.58458 L13.9999999,4.01542 C13.9999999,4.14915 13.9860999,4.19764 13.9598999,4.24653 C13.9337999,4.29542 13.8953999,4.33378 13.8464999,4.35993 C13.7975999,4.38608 13.7490999,4.4 13.6153999,4.4 L12.7996999,4.3997 L12.7999999,13.4 C12.7999999,13.7314 12.5313999,14 12.1999999,14 L3.79999988,14 C3.46862988,14 3.19999988,13.7314 3.19999988,13.4 L3.19969988,4.3997 L2.38458288,4.4 C2.25085488,4.4 2.20236188,4.38608 2.15347288,4.35993 C2.10458388,4.33378 2.06621588,4.29542 2.04006978,4.24653 C2.01392378,4.19764 1.99999988,4.14915 1.99999988,4.01542 L1.99999988,3.58458 C1.99999988,3.45086 2.01392378,3.40236 2.04006978,3.35347 C2.06621588,3.30458 2.10458388,3.26622 2.15347288,3.24007 C2.20236188,3.21392 2.25085488,3.2 2.38458288,3.2 L5.59969988,3.1997 L5.59999988,2.6 C5.59999988,2.268629 5.86862988,2 6.19999988,2 L9.79999988,2 Z M11.5996999,4.3997 L4.39969988,4.3997 L4.39999988,12.8 L11.5999999,12.8 L11.5996999,4.3997 Z M7.09999988,6.2 C7.26568988,6.2 7.39999988,6.33431 7.39999988,6.5 L7.39999988,10.7 C7.39999988,10.86569 7.26568988,11 7.09999988,11 L6.49999988,11 C6.33430988,11 6.19999988,10.86569 6.19999988,10.7 L6.19999988,6.5 C6.19999988,6.33431 6.33430988,6.2 6.49999988,6.2 L7.09999988,6.2 Z M9.49999988,6.2 C9.66568988,6.2 9.79999988,6.33431 9.79999988,6.5 L9.79999988,10.7 C9.79999988,10.86569 9.66568988,11 9.49999988,11 L8.89999988,11 C8.73430988,11 8.59999988,10.86569 8.59999988,10.7 L8.59999988,6.5 C8.59999988,6.33431 8.73430988,6.2 8.89999988,6.2 L9.49999988,6.2 Z" id="形状"></path>
                </g>
            </g>
        </g>
    </g>
</svg>