<?xml version="1.0" encoding="UTF-8"?>
<svg width="20px" height="20px" viewBox="0 0 20 20" version="1.1" xmlns="http://www.w3.org/2000/svg" xmlns:xlink="http://www.w3.org/1999/xlink">
    <title></title>
    <g id="设计稿" stroke="none" stroke-width="1" fill="none" fill-rule="evenodd">
        <g id="画板" transform="translate(-29.000000, 0.000000)">
            <g id="编组-3" transform="translate(29.000000, 0.000000)">
                <circle id="椭圆形" fill="#E8F7FF" cx="10" cy="10" r="10"></circle>
                <g id="编组" transform="translate(3.500000, 3.500000)">
                    <polygon id="路径" points="0 0 13 0 13 13 0 13"></polygon>
                    <path d="M11.9166667,7.10991667 C10.6729727,6.2159234 8.97389402,6.31162116 7.83845275,7.33961524 C6.70301148,8.36760933 6.43943018,10.0488444 7.20579167,11.375 L1.625,11.375 C1.32584576,11.375 1.08333333,11.1324876 1.08333333,10.8333333 L1.08333333,2.16666667 C1.08333333,1.86751243 1.32584576,1.625 1.625,1.625 L5.64091667,1.625 L6.72425,2.70833333 L11.375,2.70833333 C11.6741542,2.70833333 11.9166667,2.95084576 11.9166667,3.25 L11.9166667,7.10991667 Z M9.75,9.20833333 L9.75,7.3125 L12.4583333,9.75 L9.75,12.1875 L9.75,10.2916667 L8.125,10.2916667 L8.125,9.20833333 L9.75,9.20833333 Z" id="形状" fill="#168CFF" fill-rule="nonzero"></path>
                </g>
            </g>
        </g>
    </g>
</svg>