<?xml version="1.0" encoding="UTF-8"?>
<svg width="14px" height="14px" viewBox="0 0 14 14" version="1.1" xmlns="http://www.w3.org/2000/svg" xmlns:xlink="http://www.w3.org/1999/xlink">
    <title></title>
    <g id="ICON/14px/评估_disable" stroke="none" stroke-width="1" fill="none" fill-rule="evenodd">
        <rect id="矩形" x="0" y="0" width="14" height="14"></rect>
        <g id="编组">
            <polygon id="路径" points="0 0 14 0 14 14 0 14"></polygon>
            <path d="M7.70389179,12.3167305 L7.70389179,13.5507125 L0.3,13.5507125 L0.3,12.3167305 L7.70389179,12.3167305 Z M8.0654485,0.400166667 L12.8644044,5.19912253 L11.9919791,6.07278176 L11.3379687,5.85436695 L9.80968201,7.38080264 L13.3,10.8711206 L12.4275748,11.7435459 L8.93787375,8.25322789 L7.45462743,9.73647421 L7.62923588,10.434908 L6.75619364,11.3073333 L1.95723778,6.50837739 L2.83028002,5.63595214 L3.52747983,5.8099436 L7.41082107,1.92721935 L7.19302326,1.27320891 L8.0654485,0.400166667 Z M8.50166113,2.58184678 L4.13891789,6.94397303 L6.31998102,9.12565314 L10.6827243,4.76352689 L8.50166113,2.58184678 Z" id="形状" fill="#D8DBE3" fill-rule="nonzero"></path>
        </g>
    </g>
</svg>