<?xml version="1.0" encoding="UTF-8"?>
<svg width="16px" height="16px" viewBox="0 0 16 16" version="1.1" xmlns="http://www.w3.org/2000/svg" xmlns:xlink="http://www.w3.org/1999/xlink">
    <!-- Generator: Sketch 60.1 (88133) - https://sketch.com -->
    <desc></desc>
    <g id="页面-1" stroke="none" stroke-width="1" fill="none" fill-rule="evenodd">
        <g id="导航" transform="translate(-1161.000000, -16.000000)" fill="#FFFFFF">
            <path d="M1175.33438,30.6285714 C1175.71309,30.6285714 1176.0201,30.9355762 1176.0201,31.3142857 C1176.0201,31.6929953 1175.71309,32 1175.33438,32 L1162.07724,32 C1161.69853,32 1161.39152,31.6929953 1161.39152,31.3142857 C1161.39152,30.9355762 1161.69853,30.6285714 1162.07724,30.6285714 L1175.33438,30.6285714 Z M1168.70581,16 C1170.97807,16 1172.8201,17.8420285 1172.8201,20.1142857 C1172.8201,21.7296382 1171.88917,23.1275609 1170.53454,23.8008266 L1170.53352,25.142 L1174.19152,25.1428571 C1175.20142,25.1428571 1176.0201,25.9615365 1176.0201,26.9714286 L1176.0201,29.2571429 L1161.39152,29.2571429 L1161.39152,26.9714286 C1161.39152,25.9615365 1162.2102,25.1428571 1163.2201,25.1428571 L1166.87652,25.142 L1166.87654,23.8005577 C1165.57994,23.1558957 1164.67165,21.8472853 1164.59656,20.3196301 L1164.59152,20.1142857 C1164.59152,17.8420285 1166.43355,16 1168.70581,16 Z" id="形状结合"></path>
        </g>
    </g>
</svg>