<?xml version="1.0" encoding="UTF-8"?>
<svg width="14px" height="14px" viewBox="0 0 14 14" version="1.1" xmlns="http://www.w3.org/2000/svg" xmlns:xlink="http://www.w3.org/1999/xlink">
    <title></title>
    <g id="ICON/14px/更改_disable" stroke="none" stroke-width="1" fill="none" fill-rule="evenodd">
        <rect id="矩形" x="0" y="0" width="14" height="14"></rect>
        <g id="编组" transform="translate(1.000000, 1.000000)" fill="#D8DBE3" fill-rule="nonzero">
            <path d="M8.53465909,0.165495868 L8.5830062,0.216322314 L11.8173037,3.96570248 C12.0295579,4.21355463 12.0132972,4.58352569 11.7801168,4.81180052 C11.5469364,5.04007534 11.1767032,5.04846704 10.9334194,4.83099174 L10.878874,4.77520661 L8.73424587,2.28842975 L8.73424587,11.0305785 C8.73448212,11.345266 8.49887519,11.6101905 8.18631198,11.6466942 L8.11379132,11.6504132 C7.79955073,11.6504132 7.5350616,11.4151815 7.49829545,11.1030992 L7.49395661,11.0305785 L7.49395661,0.62107438 C7.49395661,0.070661157 8.14974174,-0.195867769 8.53465909,0.165495868 L8.53465909,0.165495868 Z M3.87350207,0 C4.18774266,0 4.45223179,0.235231681 4.48899793,0.54731405 L4.49333678,0.619834711 L4.49333678,11.0293388 C4.49333678,11.5797521 3.83755165,11.8469008 3.4526343,11.4849174 L3.40428719,11.4340909 L0.169989669,7.68595041 C-0.0445667135,7.43835212 -0.0293797201,7.06653966 0.204654963,6.83726445 C0.438689646,6.60798923 0.810735634,6.60044372 1.05387397,6.82004132 L1.10841942,6.87582645 L3.25366736,9.36260331 L3.25366736,0.619834711 C3.25370881,0.305594114 3.48889904,0.0411049904 3.8009814,0.00433884298 L3.87350207,0 Z" id="形状"></path>
        </g>
    </g>
</svg>