<?xml version="1.0" encoding="UTF-8"?>
<svg width="66px" height="66px" viewBox="0 0 66 66" version="1.1" xmlns="http://www.w3.org/2000/svg" xmlns:xlink="http://www.w3.org/1999/xlink">
    <!-- Generator: Sketch 61.1 (89650) - https://sketch.com -->
    <title></title>
    <desc>Created with Sketch.</desc>
    <g id="页面-1" stroke="none" stroke-width="1" fill="none" fill-rule="evenodd">
        <path d="M33,0 C51.2253967,0 66,14.7746033 66,33 C66,51.2253967 51.2253967,66 33,66 C14.7746033,66 0,51.2253967 0,33 C0,14.7746033 14.7746033,0 33,0 Z M33,2 C15.8791728,2 2,15.8791728 2,33 C2,50.1208272 15.8791728,64 33,64 C50.1208272,64 64,50.1208272 64,33 C64,15.8791728 50.1208272,2 33,2 Z M34.523189,18 C35.8653823,18 37.1335576,18.4732216 38.1195392,19.3390021 L38.3129113,19.5173684 L48.4356805,29.3231579 C50.4645655,31.2885113 50.5225336,34.4394165 48.5941446,36.4874726 L48.4188373,36.6652632 L37.2517891,47.4826316 C35.2246592,49.4462848 31.9757701,49.5040393 29.876772,47.6558951 L29.6891878,47.4826316 L19.5664185,37.6768421 C18.6347785,36.7590789 18.0732285,35.5401748 18.006674,34.2621179 L18,34.0057895 L18,23.1884211 C18,20.3886316 20.2736439,18.1161888 23.1349126,18.0043165 L23.3561408,18 L34.523189,18 Z M28.0465116,23.9047619 C25.7882919,23.9047619 23.9534884,25.7245484 23.9534884,27.9642857 C23.9534884,30.204023 25.7882919,32.0238095 28.0465116,32.0238095 C30.3047314,32.0238095 32.1395349,30.204023 32.1395349,27.9642857 C32.1395349,25.7245484 30.3047314,23.9047619 28.0465116,23.9047619 Z" id="形状结合备份-2" fill="#69C7A4" fill-rule="nonzero"></path>
    </g>
</svg>