<?xml version="1.0" encoding="UTF-8"?>
<svg width="16px" height="16px" viewBox="0 0 16 16" version="1.1" xmlns="http://www.w3.org/2000/svg" xmlns:xlink="http://www.w3.org/1999/xlink">
    <title></title>
    <g id="Upload-fileIcon/picture" stroke="none" stroke-width="1" fill="none" fill-rule="evenodd">
        <g id="编组-6">
            <path d="M2,9.09494702e-13 L14,9.09494702e-13 C15.1045695,9.09291796e-13 16,0.8954305 16,2 L16,14 C16,15.1045695 15.1045695,16 14,16 L2,16 C0.8954305,16 1.3527075e-16,15.1045695 0,14 L0,2 C-1.3527075e-16,0.8954305 0.8954305,9.09697608e-13 2,9.09494702e-13 Z" id="矩形" fill="#27C3FF" fill-rule="nonzero"></path>
            <g id="编组" transform="translate(2.000000, 2.000000)">
                <polygon id="路径" points="0 0 12 0 12 12 0 12"></polygon>
                <path d="M8.10786718,9.73943311 L6.00605565,5.8862591 C5.92114844,5.73060182 5.92502849,5.54161919 6.01625313,5.38957811 L7.29565127,3.25724788 C7.43772535,3.02045774 7.74485548,2.94367521 7.98164561,3.08574929 C8.05935331,3.13237391 8.12292857,3.19924107 8.16557421,3.27920164 L11.3578431,9.26470588 C11.4877925,9.50836092 11.3956158,9.81122712 11.1519608,9.94117647 C11.0795457,9.97979784 10.9987371,10 10.9166667,10 L8.54681112,10 C8.36384189,10 8.19548496,9.90005958 8.10786718,9.73943311 Z M4.68894779,5.30473761 L6.84667669,9.26057393 C6.97890806,9.5029981 6.88957914,9.80671642 6.64715497,9.93894779 C6.57371067,9.97900831 6.4913884,10 6.40772891,10 L2.09227109,10 C1.81612872,10 1.59227109,9.77614237 1.59227109,9.5 C1.59227109,9.41634051 1.61326278,9.33401823 1.65332331,9.26057393 L3.81105221,5.30473761 C3.94328358,5.06231344 4.2470019,4.97298452 4.48942607,5.10521589 C4.57370932,5.15118857 4.6429751,5.22045435 4.68894779,5.30473761 Z M3.25,4 C2.42157288,4 1.75,3.32842712 1.75,2.5 C1.75,1.67157288 2.42157288,1 3.25,1 C4.07842712,1 4.75,1.67157288 4.75,2.5 C4.75,3.32842712 4.07842712,4 3.25,4 Z" id="形状" fill="#FEFEFE" fill-rule="nonzero"></path>
            </g>
        </g>
    </g>
</svg>