<?xml version="1.0" encoding="UTF-8"?>
<svg width="16px" height="16px" viewBox="0 0 16 16" version="1.1" xmlns="http://www.w3.org/2000/svg" xmlns:xlink="http://www.w3.org/1999/xlink">
    <title>编组 3</title>
    <g id="页面-1" stroke="none" stroke-width="1" fill="none" fill-rule="evenodd">
        <g id="图标" transform="translate(-368.000000, -145.000000)" fill-rule="nonzero">
            <g id="编组-3" transform="translate(368.000000, 145.000000)">
                <g id="编组-6备份">
                    <path d="M2,0 L11.8819328,0 C12.1464949,-2.38006761e-15 12.4002761,0.104838982 12.5877028,0.291558947 L15.70577,3.39786997 C15.8941239,3.58551377 16,3.84043998 16,4.10631102 L16,14 C16,15.1045695 15.1045695,16 14,16 L2,16 C0.8954305,16 1.3527075e-16,15.1045695 0,14 L0,2 C-5.7935996e-16,0.8954305 0.8954305,-1.91384796e-17 2,0 Z" id="矩形" fill="#00BEBD"></path>
                    <path d="M12.5624762,0.268380738 L15.729456,3.41960231 C15.8987441,3.58820544 15.9889255,3.75680857 16,3.99904433 L12.8184197,3.99893614 C12.3637421,3.99893614 12,3.63519407 12,3.18051647 L12.0002652,0 C12.2330625,0.0148801223 12.3977694,0.104340374 12.5624762,0.268380738 Z" id="路径" fill="#FFFFFF" opacity="0.6"></path>
                </g>
                <g id="文件夹" transform="translate(4.022198, 4.521739)">
                    <rect id="矩形" fill="#000000" opacity="0" x="1.19519365" y="0" width="5.56521739" height="5.56521739"></rect>
                    <path d="M7.04575992,2.04537964 C7.16136392,2.05754849 7.27696793,2.08797059 7.39257194,2.13664596 C7.50817594,2.18532133 7.60856889,2.25377107 7.69375079,2.34199518 C7.77893269,2.43021929 7.84281912,2.54125998 7.88541006,2.67511725 C7.92800101,2.80897452 7.93408544,2.97021169 7.90366333,3.15882875 C7.89149449,3.20750412 7.8671568,3.32767144 7.83065027,3.51933071 C7.79414374,3.71098999 7.7515528,3.93155026 7.70287742,4.18101154 C7.65420205,4.43047281 7.59944226,4.68753961 7.53859805,4.95221194 C7.47775383,5.21688427 7.41995183,5.44352896 7.36519204,5.63214603 C7.33476993,5.74166561 7.29065788,5.85422741 7.23285588,5.96983141 C7.17505387,6.08543542 7.10051971,6.19039168 7.00925339,6.28470022 C6.91798707,6.37900875 6.80846749,6.45658512 6.68069464,6.51742933 C6.55292179,6.57827355 6.40081126,6.60869565 6.22436304,6.60869565 L1.1682089,6.60869565 C1.04043605,6.60869565 0.908099886,6.58131576 0.771200406,6.52655596 C0.634300925,6.47179617 0.508049182,6.3942198 0.392445177,6.29382685 C0.276841171,6.1934339 0.18253264,6.07174547 0.109519584,5.92876157 C0.0365065281,5.78577767 0,5.6260616 0,5.44961339 L0,1.53428825 C0,1.16313855 0.100392952,0.872607428 0.301178857,0.662694892 C0.501964761,0.452782355 0.784890354,0.347826087 1.14995563,0.347826087 L5.64025859,0.347826087 C5.77411586,0.347826087 5.91253644,0.373684878 6.05552034,0.425402459 C6.19850425,0.477120041 6.3277982,0.548611991 6.44340221,0.639878312 C6.55900621,0.731144632 6.65331474,0.837622005 6.7263278,0.959310432 C6.79934085,1.08099886 6.83584738,1.21181392 6.83584738,1.35175561 L6.83584738,1.45214856 L6.36126252,1.45214856 C6.11788566,1.45214856 5.83343897,1.45062746 5.50792242,1.44758525 C5.18240588,1.44454303 4.83559386,1.44302193 4.46748637,1.44302193 C4.09937888,1.44302193 3.75560908,1.44150082 3.43617696,1.43845861 C3.11674483,1.4354164 2.84142477,1.4338953 2.61021676,1.4338953 L2.19039168,1.4338953 C2.03219673,1.4338953 1.9089872,1.48409177 1.82076309,1.58448473 C1.73253898,1.68487768 1.66408924,1.81721384 1.61541387,1.98149322 C1.5667385,2.15794144 1.5119787,2.34503739 1.45113449,2.54278109 C1.39029028,2.74052478 1.33553049,2.92457853 1.28685511,3.09494232 C1.2260109,3.29572823 1.16516669,3.49042971 1.10432247,3.67904677 C1.09215363,3.72772214 1.08606921,3.76727088 1.08606921,3.79769299 C1.08606921,3.90112815 1.12105463,3.98783116 1.19102548,4.057802 C1.26099632,4.12777285 1.34769933,4.16275827 1.45113449,4.16275827 C1.63975155,4.16275827 1.7675244,4.04411205 1.83445304,3.80681962 L2.31816453,2.03625301 C3.10913931,2.04233743 3.83318545,2.04537964 4.49030295,2.04537964 L7.04575992,2.04537964 L7.04575992,2.04537964 Z" id="路径" fill="#FFFFFF"></path>
                </g>
            </g>
        </g>
    </g>
</svg>