<?xml version="1.0" encoding="UTF-8"?>
<svg width="16px" height="16px" viewBox="0 0 16 16" version="1.1" xmlns="http://www.w3.org/2000/svg" xmlns:xlink="http://www.w3.org/1999/xlink">
    <title>日期</title>
    <g id="日期" stroke="none" stroke-width="1" fill="none" fill-rule="evenodd">
        <g id="编组">
            <polygon id="路径" points="0 0 16 0 16 16 0 16"></polygon>
            <path d="M11.25,2.8 L13.85,2.8 C14.2089851,2.8 14.5,3.09101491 14.5,3.45 L14.5,13.85 C14.5,14.2089851 14.2089851,14.5 13.85,14.5 L2.15,14.5 C1.79101491,14.5 1.5,14.2089851 1.5,13.85 L1.5,3.45 C1.5,3.09101491 1.79101491,2.8 2.15,2.8 L4.75,2.8 L4.75,1.5 L6.05,1.5 L6.05,2.8 L9.95,2.8 L9.95,1.5 L11.25,1.5 L11.25,2.8 Z M9.95,4.1 L6.05,4.1 L6.05,5.4 L4.75,5.4 L4.75,4.1 L2.8,4.1 L2.8,6.7 L13.2,6.7 L13.2,4.1 L11.25,4.1 L11.25,5.4 L9.95,5.4 L9.95,4.1 Z M13.2,8 L2.8,8 L2.8,13.2 L13.2,13.2 L13.2,8 Z" id="形状" fill="#4E5969" fill-rule="nonzero"></path>
        </g>
    </g>
</svg>