<?xml version="1.0" encoding="UTF-8"?>
<svg width="16px" height="16px" viewBox="0 0 16 16" version="1.1" xmlns="http://www.w3.org/2000/svg" xmlns:xlink="http://www.w3.org/1999/xlink">
    <title>编组 13备份</title>
    <g id="页面-1" stroke="none" stroke-width="1" fill="none" fill-rule="evenodd">
        <g id="反显" transform="translate(-1125.000000, -1058.000000)" fill-rule="nonzero">
            <g id="添加" transform="translate(1125.000000, 1058.000000)">
                <rect id="矩形" fill="#000000" opacity="0" x="0" y="0" width="16" height="16"></rect>
                <path d="M9,6.66666667 L12.3333333,6.66666667 C12.7015232,6.66666667 13,6.9651435 13,7.33333333 L13,8 C13,8.36818984 12.7015232,8.66666667 12.3333333,8.66666667 L9,8.66666667 L9,12 C9,12.3681898 8.70152316,12.6666667 8.33333333,12.6666667 L7.66666667,12.6666667 C7.29847684,12.6666667 7,12.3681898 7,12 L7,8.66666667 L3.66666667,8.66666667 C3.29847684,8.66666667 3,8.36818984 3,8 L3,7.33333333 C3,6.9651435 3.29847684,6.66666667 3.66666667,6.66666667 L7,6.66666667 L7,3.33333333 C7,2.9651435 7.29847684,2.66666667 7.66666667,2.66666667 L8.33333333,2.66666667 C8.70152316,2.66666667 9,2.9651435 9,3.33333333 L9,6.66666667 L9,6.66666667 Z" id="路径" fill="#4E5969"></path>
            </g>
        </g>
    </g>
</svg>