<?xml version="1.0" encoding="UTF-8"?><svg version="1.1" width="12px" height="12px" viewBox="0 0 12.0 12.0" xmlns="http://www.w3.org/2000/svg" xmlns:xlink="http://www.w3.org/1999/xlink"><defs><clipPath id="i0"><path d="M1440,0 L1440,900 L0,900 L0,0 L1440,0 Z"></path></clipPath><clipPath id="i1"><path d="M1.5,0 C1.77614237,-5.07265313e-17 2,0.223857625 2,0.5 L2,11.5 C2,11.7761424 1.77614237,12 1.5,12 L0.5,12 C0.223857625,12 3.38176876e-17,11.7761424 0,11.5 L0,0.5 C-3.38176876e-17,0.223857625 0.223857625,5.07265313e-17 0.5,0 L1.5,0 Z"></path></clipPath></defs><g transform="translate(-380.0 -146.0)"><g clip-path="url(#i0)"><g transform="translate(260.0 112.0)"><g transform="translate(86.0 0.0)"><g transform="translate(32.0 32.0)"><g transform="translate(7.0 2.0)"><g clip-path="url(#i1)"><polygon points="0,0 2,0 2,12 0,12 0,0" stroke="none" fill="currentColor"></polygon></g></g><g transform="translate(1.9999999999999467 9.000000000000096) rotate(-90.0)"><g clip-path="url(#i1)"><polygon points="0,0 2,0 2,12 0,12 0,0" stroke="none" fill="currentColor"></polygon></g></g></g></g></g></g></g></svg>