<?xml version="1.0" encoding="UTF-8"?>
<svg width="20px" height="20px" viewBox="0 0 20 20" version="1.1" xmlns="http://www.w3.org/2000/svg" xmlns:xlink="http://www.w3.org/1999/xlink">
    <title></title>
    <g id="页面-1" stroke="none" stroke-width="1" fill="none" fill-rule="evenodd">
        <g id="完整-待入职-确定入职" transform="translate(-250.000000, -2774.000000)" fill="#FF5969">
            <g id="编组-4" transform="translate(250.000000, 2774.000000)">
                <circle id="椭圆形" opacity="0.200000003" cx="10" cy="10" r="10"></circle>
                <path d="M8.72264996,5 C10.0547896,5 10.9550582,6.36983337 10.9529096,7.67690976 C10.9550582,9.05539926 10.5511191,9.3908245 10.0354521,10.2131573 C9.45317816,11.2042848 10.4179051,11.6544038 10.8218442,11.9032677 C12.5557744,12.9614802 13.3142346,13.3596624 13.3142346,13.8747024 L13.3142346,13.8747024 L13.3142346,14.5780134 C13.3142346,14.805237 13.1573859,15 12.9210385,15 L12.9210385,15 L4.39319606,15 C4.1568487,15 4,14.805237 4,14.5780134 L4,14.5780134 L4,13.8747024 C4,13.3596624 4.75846016,12.9636442 6.49239033,11.9032677 C6.89418084,11.6544038 7.8610564,11.2042848 7.27878245,10.2131573 C6.76311549,9.38866046 6.36132498,9.05323523 6.36132498,7.67690976 C6.36132498,6.36983337 7.26159355,5 8.72264996,5 Z M15.4283636,11 C15.7447273,11 16,11.2232824 16,11.5 C16,11.7767176 15.7447273,12 15.4283636,12 L13.5716364,12 C13.2552727,12 13,11.7767176 13,11.5 C13,11.2232824 13.2552727,11 13.5716364,11 L15.4283636,11 Z M15.491509,9 C15.7729258,9 16,9.22328244 16,9.5 C16,9.77671756 15.7729258,10 15.491509,10 L12.508491,10 C12.2270742,10 12,9.77671756 12,9.5 C12,9.22328244 12.2270742,9 12.508491,9 L15.491509,9 Z M15.4257534,7 C15.7435616,7 16,7.22328244 16,7.5 C16,7.77671756 15.7413699,8 15.4235616,8 L12.5742466,8 C12.2564384,8 12,7.77671756 12,7.5 C12,7.22328244 12.2564384,7 12.5742466,7 L15.4257534,7 Z" id="形状结合" fill-rule="nonzero"></path>
            </g>
        </g>
    </g>
</svg>