<?xml version="1.0" encoding="UTF-8"?>
<svg width="20px" height="20px" viewBox="0 0 20 20" version="1.1" xmlns="http://www.w3.org/2000/svg" xmlns:xlink="http://www.w3.org/1999/xlink">
    <title></title>
    <g id="页面-1" stroke="none" stroke-width="1" fill="none" fill-rule="evenodd">
        <g id="完整-待入职-确定入职" transform="translate(-250.000000, -2980.000000)">
            <g id="编组-4备份-9" transform="translate(250.000000, 2980.000000)">
                <circle id="椭圆形" fill="#FDF2DA" cx="10" cy="10" r="10"></circle>
                <g id="党员" transform="translate(4.000000, 4.000000)" fill="#EFA90A" fill-rule="nonzero">
                    <path d="M0.0123096144,9.84867396 C0.142147139,9.32159172 0.589246787,9.18289936 1.1949775,9.15521216 L0.372762044,8.12899124 L1.45465255,7.24120632 C3.09108525,8.82527303 5.54306823,9.33594804 7.71458083,8.54506832 L3.67602062,5.02212856 L2.91165885,5.82659552 L1.23843441,4.203818 L3.97888598,1.55481957 C4.07992997,1.45765801 4.32520825,1.45765801 4.48383931,1.42997081 C4.64247037,1.40228361 4.98852603,1.42997081 5.23380431,1.42997081 C5.47854938,1.4071545 5.72009516,1.36075281 5.95497578,1.29127845 L6.09921007,1.29127845 L6.90702876,2.02627105 L5.63771365,3.30244585 L9.21477745,7.04713956 C12.1426536,3.95412048 6.24344436,0.00151640987 6.24344436,0.00151640987 C9.00682412,-0.0607797887 11.4140172,1.80272255 11.9408322,4.41198473 C12.1469526,5.91659967 11.8109594,7.44371317 10.9887793,8.73913508 L11.8976419,9.40490968 C11.3638951,9.97352272 10.3686518,11 10.3398583,11 C10.3110647,11 9.79171462,10.431387 9.5176428,10.195533 C9.40086901,10.1152914 9.25450186,10.085297 9.11373346,10.1122151 C6.86757094,11.1204906 4.26202243,11.069218 2.06064986,9.97352272 L1.16645057,11 C1.03634644,11 -0.131924679,10.4034434 0.0123096144,9.84867396 Z" id="路径"></path>
                </g>
            </g>
        </g>
    </g>
</svg>