<?xml version="1.0" encoding="UTF-8"?>
<svg width="20px" height="20px" viewBox="0 0 20 20" version="1.1" xmlns="http://www.w3.org/2000/svg" xmlns:xlink="http://www.w3.org/1999/xlink">
    <title></title>
    <g id="页面-1" stroke="none" stroke-width="1" fill="none" fill-rule="evenodd">
        <g id="完整-待入职-确定入职" transform="translate(-250.000000, -1248.000000)">
            <g id="编组-4备份-8" transform="translate(250.000000, 1248.000000)">
                <circle id="椭圆形" fill="#C8E9FF" cx="10" cy="10" r="10"></circle>
                <path d="M11.0240522,4.61043021 L14.5240522,6.69675633 C15.1292632,7.05751847 15.5,7.71011847 15.5,8.41469612 L15.5,12.9999997 C15.5,14.1045692 14.6045695,14.9999997 13.5,14.9999997 L6.5,14.9999997 C5.3954305,14.9999997 4.5,14.1045692 4.5,12.9999997 L4.5,8.41469612 C4.5,7.71011847 4.87073682,7.05751847 5.47594781,6.69675633 L8.97594781,4.61043021 C9.60685636,4.23434993 10.3931436,4.23434993 11.0240522,4.61043021 Z M11.9313509,8 C11.8102271,8.00038707 11.6943444,8.04667411 11.6097326,8.12846644 L9.96522885,9.70970977 L8.3207251,8.12846644 C8.2361133,8.04667411 8.12023058,8.00038707 7.9991068,8 C7.87798302,7.99961777 7.76177283,8.04516776 7.67657963,8.12642084 C7.49801296,8.29677396 7.49712876,8.57076798 7.67459264,8.74214432 L8.97336043,9.9909788 L7.96126087,9.9909788 C7.71007543,9.99567002 7.50904672,10.1891731 7.50904672,10.4262639 C7.50904672,10.6633548 7.71007543,10.8568578 7.96126087,10.8615491 L9.54037463,10.8615491 L9.54037463,11.6443293 L7.96126087,11.6443293 C7.70650031,11.6443719 7.5,11.8392813 7.5,12.0796996 C7.5,12.320118 7.70650031,12.5150274 7.96126087,12.51507 L9.54037463,12.51507 L9.54037463,13.5700846 C9.54037463,13.8075203 9.74433679,14 9.99593686,14 C10.2475369,14 10.4514991,13.8075203 10.4514991,13.5700846 L10.4514991,12.51507 L12.0297097,12.51507 C12.1945509,12.5150975 12.3468831,12.4321225 12.4293121,12.2974071 C12.5117412,12.1626917 12.5117412,11.9967076 12.4293121,11.8619922 C12.3468831,11.7272768 12.1945509,11.6443017 12.0297097,11.6443293 L10.4507765,11.6443293 L10.4507765,10.8615491 L12.029529,10.8615491 C12.1964944,10.8646674 12.3522105,10.7823912 12.4366616,10.6464313 C12.5211128,10.5104714 12.5211128,10.3420565 12.4366616,10.2060965 C12.3522105,10.0701366 12.1964944,9.98786049 12.029529,9.9909788 L10.9572779,9.9909788 L12.2560457,8.74214432 C12.4334597,8.57072156 12.4324951,8.29672737 12.2538781,8.12642084 C12.1686849,8.04516776 12.0524747,7.99961777 11.9313509,8 Z" id="形状结合" fill="#24A6FF"></path>
            </g>
        </g>
    </g>
</svg>