<?xml version="1.0" encoding="UTF-8"?>
<svg width="20px" height="20px" viewBox="0 0 20 20" version="1.1" xmlns="http://www.w3.org/2000/svg" xmlns:xlink="http://www.w3.org/1999/xlink">
    <title></title>
    <g id="页面-1" stroke="none" stroke-width="1" fill="none" fill-rule="evenodd">
        <g id="完整-待入职-确定入职" transform="translate(-250.000000, -658.000000)">
            <g id="编组-28备份" transform="translate(250.000000, 658.000000)">
                <circle id="椭圆形复制-4" fill="#CBEEFD" cx="10" cy="10" r="10"></circle>
                <path d="M12.910235,5 C13.788238,5 14.5,5.74706631 14.5,6.6686193 L14.5,13.8519724 C14.5,14.4663411 14.025492,14.9643853 13.4401567,14.9643853 C13.2629211,14.9643853 13.0885154,14.9177332 12.9328983,14.8286977 L10.4973273,13.4351999 C10.349467,13.3506026 10.1721,13.3448052 10.0195112,13.4195821 L7.00821702,14.8952829 C6.47784281,15.1551957 5.8471458,14.9146171 5.59951584,14.3579356 C5.53396946,14.2105849 5.5,14.0499422 5.5,13.887322 L5.5,6.6686193 C5.5,5.74706631 6.21176202,5 7.08976497,5 L12.910235,5 Z M12,10 L8,10 C7.72385763,10 7.5,10.2238576 7.5,10.5 C7.5,10.7761424 7.72385763,11 8,11 L8,11 L12,11 C12.2761424,11 12.5,10.7761424 12.5,10.5 C12.5,10.2238576 12.2761424,10 12,10 L12,10 Z M12,7 L8,7 C7.72385763,7 7.5,7.22385763 7.5,7.5 C7.5,7.77614237 7.72385763,8 8,8 L8,8 L12,8 C12.2761424,8 12.5,7.77614237 12.5,7.5 C12.5,7.22385763 12.2761424,7 12,7 L12,7 Z" id="形状结合" fill="#2CA6DD" fill-rule="nonzero"></path>
            </g>
        </g>
    </g>
</svg>