<?xml version="1.0" encoding="UTF-8"?>
<svg width="20px" height="20px" viewBox="0 0 20 20" version="1.1" xmlns="http://www.w3.org/2000/svg" xmlns:xlink="http://www.w3.org/1999/xlink">
    <title></title>
    <g id="页面-1" stroke="none" stroke-width="1" fill="none" fill-rule="evenodd">
        <g id="完整-待入职-确定入职" transform="translate(-250.000000, -1728.000000)">
            <g id="编组-4" transform="translate(250.000000, 1728.000000)">
                <circle id="椭圆形" fill="#FDF2DA" cx="10" cy="10" r="10"></circle>
                <path d="M6.99949517,4.58403497 C5.19744774,5.96290169 4.97421709,8.98833143 6.57711216,12.0379923 C8.14355224,15.0177291 10.6258681,16.6008296 13.1925705,15.7880482 C13.8597871,15.5768912 14.5,14.9921133 14.5,14.3334881 C14.500225,13.1886249 13.2227246,10.9088216 12.2658933,10.731819 C11.9974314,10.6824336 11.6729368,10.7816659 11.1902456,10.9953614 C11.1402887,11.0175156 11.0889817,11.0408236 11.0363244,11.0652855 L10.9161579,11.1220556 C10.7986918,11.1781333 10.6999032,11.2272879 10.5320302,11.312443 L10.4597953,11.3489051 L10.4564198,11.3456743 C10.4260454,11.3154813 10.3968437,11.2840718 10.3688828,11.251519 C10.2304888,11.0913628 10.0673414,10.8555131 9.9028438,10.5781244 L9.85513725,10.4964309 C9.63415691,10.1133482 9.43792997,9.70118823 9.31033745,9.35779849 L9.29841081,9.324798 L9.60332768,9.19094985 C9.66633634,9.16325713 9.72641959,9.13579518 9.78942823,9.10694859 L9.96720264,9.02456274 L10.1040214,8.95925409 C10.450569,8.79102081 10.6562472,8.66917284 10.7719131,8.54017091 C11.4328289,7.80239068 10.122699,4.23972216 9.04772639,4.03433447 C8.40818858,3.91202496 7.63543248,4.12502813 7.06227879,4.5374189 L6.99927013,4.58403497 L6.99949517,4.58403497 Z" id="路径" fill="#EFA90A" fill-rule="nonzero"></path>
            </g>
        </g>
    </g>
</svg>