<?xml version="1.0" encoding="UTF-8"?>
<svg width="20px" height="20px" viewBox="0 0 20 20" version="1.1" xmlns="http://www.w3.org/2000/svg" xmlns:xlink="http://www.w3.org/1999/xlink">
    <title></title>
    <g id="页面-1" stroke="none" stroke-width="1" fill="none" fill-rule="evenodd">
        <g id="完整-待入职-确定入职" transform="translate(-250.000000, -1934.000000)">
            <g id="编组-4备份-4" transform="translate(250.000000, 1934.000000)">
                <circle id="椭圆形" fill="#E7DEFF" cx="10" cy="10" r="10"></circle>
                <path d="M16,9 L16,13 C16,14.1045695 15.1045695,15 14,15 L6,15 C4.8954305,15 4,14.1045695 4,13 L4,9 L16,9 Z M9.5,12 L6.5,12 C6.22385763,12 6,12.2238576 6,12.5 C6,12.7761424 6.22385763,13 6.5,13 L6.5,13 L9.5,13 C9.77614237,13 10,12.7761424 10,12.5 C10,12.2238576 9.77614237,12 9.5,12 L9.5,12 Z M4,7 C4,5.8954305 4.8954305,5 6,5 L14,5 C15.1045695,5 16,5.8954305 16,7 L16,8 L4,8 L4,7 Z" id="形状结合" fill="#9770FF"></path>
            </g>
        </g>
    </g>
</svg>