<?xml version="1.0" encoding="UTF-8"?>
<svg width="20px" height="20px" viewBox="0 0 20 20" version="1.1" xmlns="http://www.w3.org/2000/svg" xmlns:xlink="http://www.w3.org/1999/xlink">
    <title></title>
    <g id="页面-1" stroke="none" stroke-width="1" fill="none" fill-rule="evenodd">
        <g id="完整-待入职-确定入职" transform="translate(-250.000000, -2306.000000)">
            <g id="编组-3" transform="translate(250.000000, 2306.000000)">
                <circle id="椭圆形" fill="#D9E0FC" cx="10" cy="10" r="10"></circle>
                <path d="M10.3363364,5.12012014 L15.945249,7.12330323 C16.1532929,7.19760462 16.2617126,7.42649068 16.1874113,7.63453456 C16.1470749,7.7474764 16.0581909,7.8363604 15.945249,7.87669677 L10.3363364,9.87987986 C10.1188395,9.95755731 9.88116047,9.95755731 9.6636636,9.87987986 L4.05475096,7.87669677 C3.84670708,7.80239538 3.73828736,7.57350932 3.81258875,7.36546544 C3.85292512,7.2525236 3.94180911,7.1636396 4.05475096,7.12330323 L9.6636636,5.12012014 C9.88116047,5.04244269 10.1188395,5.04244269 10.3363364,5.12012014 Z" id="多边形" fill="#6785F2"></path>
                <rect id="矩形" fill="#6785F2" x="15" y="9" width="1" height="3" rx="0.5"></rect>
                <path d="M5.99917652,9.499 L9.6597235,10.8239086 C9.87959771,10.9034747 10.1204023,10.9034747 10.3402765,10.8239086 L10.3402765,10.8239086 L13.9991765,9.5 L14,13.4843718 C13.9999521,13.7990254 13.815493,14.084454 13.5286142,14.2137113 C12.3652007,14.7379038 11.1940081,15 10.0150365,15 C8.83493703,15 7.65483752,14.7374021 6.47473802,14.2122062 C6.18602135,14.0837305 6,13.7973311 6,13.4813196 L5.99917652,9.499 Z" id="形状结合" fill="#6785F2"></path>
            </g>
        </g>
    </g>
</svg>