<?xml version="1.0" encoding="UTF-8"?>
<svg width="20px" height="20px" viewBox="0 0 20 20" version="1.1" xmlns="http://www.w3.org/2000/svg" xmlns:xlink="http://www.w3.org/1999/xlink">
    <title></title>
    <g id="页面-1" stroke="none" stroke-width="1" fill="none" fill-rule="evenodd">
        <g id="完整-待入职-确定入职" transform="translate(-250.000000, -3256.000000)">
            <g id="编组-4备份-7" transform="translate(250.000000, 3256.000000)">
                <circle id="椭圆形" fill="#D8F5E2" cx="10" cy="10" r="10"></circle>
                <path d="M14,5 C15.1045695,5 16,5.8954305 16,7 L16,14 C16,15.1045695 15.1045695,16 14,16 L6,16 C4.8954305,16 4,15.1045695 4,14 L4,7 C4,5.8954305 4.8954305,5 6,5 L14,5 Z M6.73139379,11.7495567 L5.7,13.5574075 C6.20911858,13.6785132 6.71370782,13.8085698 7.21387558,13.947685 C7.68320073,14.4143141 8.17894699,14.9795102 8.17894699,14.9795102 L8.17894699,14.9795102 L9.13506758,13.3106667 C8.23200489,13.0863569 7.2758843,12.4673481 6.73139379,11.7495567 L6.73139379,11.7495567 Z M13.1985262,11.7496645 C12.6541435,12.4718774 11.7864527,13.0864647 10.8834979,13.3107745 L10.8834979,13.3107745 L11.8307755,14.9795102 C11.8307755,14.9795102 12.4150594,14.3244824 12.8842767,13.8579611 C13.5526769,13.6695624 14.3097225,13.5619368 14.314144,13.5575153 L14.314144,13.5575153 Z M10,6 C8.11792133,6 6.5,7.70837573 6.5,9.5925973 C6.5,11.4768189 8.1178084,13 10,13 C11.8820787,13 13.5,11.3842216 13.5,9.5 C13.5,7.61577843 11.8820787,6 10,6 Z M9.99873795,7.5 C10.1424034,7.5 10.2687739,7.5783977 10.3341342,7.70902565 L10.3341342,7.70902565 L10.6694244,8.42737471 L10.7047079,8.49040772 C10.7600588,8.56761554 10.8471494,8.61636656 10.9481608,8.62331663 L10.9481608,8.62331663 L11.6885579,8.73656939 L11.7619704,8.75672027 C11.8100475,8.77476225 11.855531,8.80181359 11.8932334,8.83663375 C12.0326547,8.9804501 12.037005,9.21553854 11.8975837,9.35485409 L11.8975837,9.35485409 L11.3227097,9.95136746 L11.2805717,10.002299 C11.2312136,10.0750286 11.2102813,10.1655638 11.2312476,10.256166 L11.2312476,10.256166 L11.2312476,10.2692497 L11.3618622,11.0790802 L11.3662125,11.1581059 C11.3633123,11.2106735 11.3488114,11.2619384 11.3227097,11.3054811 C11.222547,11.4839431 11.0003642,11.5536532 10.8218965,11.4534842 L10.8218965,11.4534842 L10.1599107,11.1007469 L10.0944773,11.0736709 C10.0041578,11.0469089 9.90377444,11.0580625 9.82016411,11.1138306 L9.82016411,11.1138306 L9.17557939,11.4577757 L9.10006837,11.4872538 C9.04876096,11.5007833 8.99552009,11.5027139 8.94034576,11.4969222 C8.74437078,11.4664633 8.6050556,11.2749175 8.63550759,11.0789756 L8.63550759,11.0789756 L8.77057859,10.2386861 L8.77227626,10.1646551 C8.76594978,10.0919914 8.73574979,10.0242438 8.68346681,9.96874265 L8.68346681,9.96874265 L8.10424245,9.35485409 L8.0599065,9.2930795 C8.03312887,9.24889333 8.01278039,9.19955895 8.00407982,9.15022457 C7.97362784,8.95428264 8.1172933,8.76702831 8.31326828,8.73656939 L8.31326828,8.73656939 L9.05366534,8.61902517 L9.12228948,8.60835303 C9.21077213,8.5837012 9.28533387,8.51885614 9.32370125,8.43177084 L9.32370125,8.43177084 L9.66334169,7.70902565 L9.7078487,7.64046189 C9.77712389,7.55573459 9.88372069,7.5 9.99873795,7.5 Z" id="形状结合" fill="#3ACC6E"></path>
            </g>
        </g>
    </g>
</svg>