<?xml version="1.0" encoding="UTF-8"?>
<svg width="20px" height="20px" viewBox="0 0 20 20" version="1.1" xmlns="http://www.w3.org/2000/svg" xmlns:xlink="http://www.w3.org/1999/xlink">
    <title></title>
    <g id="页面-1" stroke="none" stroke-width="1" fill="none" fill-rule="evenodd">
        <g id="完整-待入职-确定入职" transform="translate(-250.000000, -2072.000000)">
            <g id="编组-3" transform="translate(250.000000, 2072.000000)">
                <circle id="椭圆形" fill="#C8F4F1" cx="10" cy="10" r="10"></circle>
                <path d="M16,9 L16,13 C16,14.1045695 15.1045695,15 14,15 L6,15 C4.8954305,15 4,14.1045695 4,13 L4,9 L16,9 Z M6,10 C5.72385763,10 5.5,10.2238576 5.5,10.5 C5.5,10.7761424 5.72385763,11 6,11 L6,11 L8,11 C8.27614237,11 8.5,10.7761424 8.5,10.5 C8.5,10.2238576 8.27614237,10 8,10 L8,10 Z M7.75517827,5 C8.1879187,5 8.60898593,5.14035574 8.95517827,5.4 L10.1551783,6.3 C10.3282744,6.42982213 10.5388081,6.5 10.7551783,6.5 L14,6.5 C14.9319128,6.5 15.7149582,7.13737692 15.9369863,7.99998077 L4,8 L4,7 C4,5.8954305 4.8954305,5 6,5 L7.75517827,5 Z" id="形状结合" fill="#22D3C9"></path>
            </g>
        </g>
    </g>
</svg>