<?xml version="1.0" encoding="UTF-8"?>
<svg width="20px" height="20px" viewBox="0 0 20 20" version="1.1" xmlns="http://www.w3.org/2000/svg" xmlns:xlink="http://www.w3.org/1999/xlink">
    <title></title>
    <g id="页面-1" stroke="none" stroke-width="1" fill="none" fill-rule="evenodd">
        <g id="完整-待入职-确定入职" transform="translate(-250.000000, -3118.000000)">
            <g id="编组-4备份-3" transform="translate(250.000000, 3118.000000)">
                <circle id="椭圆形" fill="#FDE2E2" cx="10" cy="10" r="10"></circle>
                <path d="M8.058,9.90941096 L9.3734599,12.8845102 L9.41865994,12.9663077 C9.62293692,13.2675498 10.0934639,13.2568906 10.2732558,12.915282 L10.2732558,12.915282 L11.315,10.934411 L11.5868129,11.4461609 L11.6368001,11.5225613 C11.7306075,11.6407576 11.874268,11.7116873 12.028426,11.7116873 L12.028426,11.7116873 L14.9579463,11.7118879 C14.2562759,12.653149 13.3140524,13.4376868 12.5004464,14.0850311 C11.4450893,14.9241668 10.6116071,15.5624898 10,16 C9.375,15.5810959 8.54151786,14.9423078 7.49955357,14.0836356 C6.6968432,13.421845 5.75209397,12.64437 5.04665799,11.7119663 L6.92308888,11.7116873 L7.00601473,11.70478 C7.1687057,11.6774494 7.30965741,11.5708166 7.37892079,11.4171557 L7.37892079,11.4171557 L8.058,9.90941096 Z M10,7.25468099 C11.9995536,4.12885376 16,5.49458806 16,8.87438875 C16,9.53840902 15.8359033,10.151773 15.5658108,10.7175545 L15.5,10.7116873 L12.329,10.711411 L11.7551291,9.63073523 L11.701738,9.54945409 C11.4842286,9.27858863 11.0425393,9.30651523 10.8710558,9.63233775 L10.8710558,9.63233775 L9.87,11.533411 L8.52050805,8.48031169 L8.47366676,8.39600629 C8.26170667,8.08673814 7.77140137,8.11297333 7.6073405,8.47694253 L7.6073405,8.47694253 L6.6,10.711411 L4.5,10.7116873 L4.4311641,10.7182818 C4.16311953,10.1620268 4,9.55776475 4,8.899507 C4,5.49458806 8.00044643,4.12885376 10,7.25468099 Z" id="形状结合" fill="#F66E6E" fill-rule="nonzero"></path>
            </g>
        </g>
    </g>
</svg>