<?xml version="1.0" encoding="UTF-8"?>
<svg width="16px" height="16px" viewBox="0 0 16 16" version="1.1" xmlns="http://www.w3.org/2000/svg" xmlns:xlink="http://www.w3.org/1999/xlink">
    <title>ICON/20px/问好</title>
    <g id="页面-1" stroke="none" stroke-width="1" fill="none" fill-rule="evenodd">
        <g id="软件下载hover" transform="translate(-416.000000, -376.000000)">
            <g id="软件列表备份-11" transform="translate(230.000000, 364.000000)">
                <g id="编组" transform="translate(12.000000, 10.000000)">
                    <g id="编组" transform="translate(174.000000, 2.000000)">
                        <rect id="矩形" x="0" y="0" width="16" height="16" rx="2"></rect>
                        <path d="M8,14.6666667 C4.318,14.6666667 1.33333333,11.682 1.33333333,8 C1.33333333,4.318 4.318,1.33333333 8,1.33333333 C11.682,1.33333333 14.6666667,4.318 14.6666667,8 C14.6666667,11.682 11.682,14.6666667 8,14.6666667 Z M8,13.3333333 C10.9455187,13.3333333 13.3333333,10.9455187 13.3333333,8 C13.3333333,5.05448133 10.9455187,2.66666667 8,2.66666667 C5.05448133,2.66666667 2.66666667,5.05448133 2.66666667,8 C2.66666667,10.9455187 5.05448133,13.3333333 8,13.3333333 Z M7.33333333,10 L8.66666667,10 L8.66666667,11.3333333 L7.33333333,11.3333333 L7.33333333,10 Z M8.66666667,8.90333333 L8.66666667,9.33333333 L7.33333333,9.33333333 L7.33333333,8.33333333 C7.33333333,7.9651435 7.63181017,7.66666667 8,7.66666667 C8.52676759,7.6666336 8.96318585,7.25796708 8.99777863,6.73233657 C9.03237141,6.20670606 8.6532756,5.74436896 8.13105575,5.67529997 C7.60883591,5.60623098 7.12257978,5.95411632 7.01933333,6.47066667 L5.71133333,6.20866667 C5.93565704,5.08749621 6.93916613,4.2939023 8.08185391,4.3340143 C9.22454168,4.37412631 10.1699339,5.23613292 10.3150889,6.37027327 C10.460244,7.50441362 9.76241974,8.57673033 8.66666667,8.90333333 L8.66666667,8.90333333 Z" id="形状" fill="#86909C" fill-rule="nonzero"></path>
                    </g>
                </g>
            </g>
        </g>
    </g>
</svg>