<?xml version="1.0" encoding="UTF-8"?>
<svg width="20px" height="20px" viewBox="0 0 20 20" version="1.1" xmlns="http://www.w3.org/2000/svg" xmlns:xlink="http://www.w3.org/1999/xlink">
    <title></title>
    <g id="页面-1" stroke="none" stroke-width="1" fill="none" fill-rule="evenodd">
        <g id="完整-待入职-确定入职" transform="translate(-250.000000, -2540.000000)">
            <g id="编组-10" transform="translate(250.000000, 2540.000000)">
                <circle id="椭圆形" fill="#FFE1D8" cx="10" cy="10" r="10"></circle>
                <path d="M11.0240522,4.61043052 L14.5240522,6.69675664 C15.1292632,7.05751878 15.5,7.71011878 15.5,8.41469643 L15.5,13 C15.5,14.1045695 14.6045695,15 13.5,15 L6.5,15 C5.3954305,15 4.5,14.1045695 4.5,13 L4.5,8.41469643 C4.5,7.71011878 4.87073682,7.05751878 5.47594781,6.69675664 L8.97594781,4.61043052 C9.60685636,4.23435024 10.3931436,4.23435024 11.0240522,4.61043052 Z M8.18774295,11.1202844 C8.01298002,10.9406359 7.74994477,10.9650096 7.60023729,11.1747245 C7.45052981,11.3844395 7.47084127,11.7000808 7.6456042,11.8797293 C8.36833897,12.6226682 9.1883058,13 10.0897296,13 C11.0026247,13 11.7766064,12.6117693 12.3851113,11.8447642 C12.543782,11.6447639 12.5372993,11.3282784 12.3706319,11.1378742 C12.2039645,10.9474699 11.9402258,10.9552491 11.7815552,11.1552495 C11.3322623,11.7215717 10.7771749,12 10.0897296,12 C9.39081288,12 8.76207571,11.7106727 8.18774295,11.1202844 Z" id="形状结合" fill="#FF8962"></path>
            </g>
        </g>
    </g>
</svg>