<?xml version="1.0" encoding="UTF-8"?>
<svg width="20px" height="20px" viewBox="0 0 20 20" version="1.1" xmlns="http://www.w3.org/2000/svg" xmlns:xlink="http://www.w3.org/1999/xlink">
    <title></title>
    <g id="页面-1" stroke="none" stroke-width="1" fill="none" fill-rule="evenodd">
        <g id="完整-待入职-确定入职" transform="translate(-250.000000, -1454.000000)">
            <g id="编组-4备份-2" transform="translate(250.000000, 1454.000000)">
                <circle id="椭圆形" fill="#C8F4F1" cx="10" cy="10" r="10"></circle>
                <path d="M14,5 C15.1045695,5 16,5.8954305 16,7 L16,13 C16,14.1045695 15.1045695,15 14,15 L6,15 C4.8954305,15 4,14.1045695 4,13 L4,7 C4,5.8954305 4.8954305,5 6,5 L14,5 Z M13.5,12 L6.5,12 C6.22385763,12 6,12.2238576 6,12.5 C6,12.7761424 6.22385763,13 6.5,13 L6.5,13 L13.5,13 C13.7761424,13 14,12.7761424 14,12.5 C14,12.2238576 13.7761424,12 13.5,12 L13.5,12 Z M8.5,7 L6.5,7 C6.22385763,7 6,7.22385763 6,7.5 L6,7.5 L6,9.5 C6,9.77614237 6.22385763,10 6.5,10 L6.5,10 L8.5,10 C8.77614237,10 9,9.77614237 9,9.5 L9,9.5 L9,7.5 C9,7.22385763 8.77614237,7 8.5,7 L8.5,7 Z M13.5,8 L10.5,8 C10.2238576,8 10,8.22385763 10,8.5 C10,8.77614237 10.2238576,9 10.5,9 L10.5,9 L13.5,9 C13.7761424,9 14,8.77614237 14,8.5 C14,8.22385763 13.7761424,8 13.5,8 L13.5,8 Z" id="形状结合" fill="#22D3C9"></path>
            </g>
        </g>
    </g>
</svg>