<?xml version="1.0" encoding="UTF-8"?>
<svg width="24px" height="24px" viewBox="0 0 24 24" version="1.1" xmlns="http://www.w3.org/2000/svg" xmlns:xlink="http://www.w3.org/1999/xlink">
    <title>编组 16备份</title>
    <defs>
        <linearGradient x1="50%" y1="0%" x2="50%" y2="100%" id="linearGradient-1">
            <stop stop-color="#69D3AD" offset="0%"></stop>
            <stop stop-color="#5BC27B" offset="100%"></stop>
        </linearGradient>
    </defs>
    <g id="页面-1" stroke="none" stroke-width="1" fill="none" fill-rule="evenodd">
        <g id="查看证明" transform="translate(-160.000000, -1112.000000)">
            <g id="编组-16备份" transform="translate(172.000000, 1124.000000) scale(-1, 1) translate(-172.000000, -1124.000000) translate(160.000000, 1112.000000)">
                <rect id="矩形" x="0" y="0" width="24" height="24"></rect>
                <g id="编组-8" transform="translate(2.000000, 2.000000)">
                    <path d="M3.99285995,11.4366168 L5.21041053,12.6541474 L5.21041053,12.6541474 L6.69905263,11.1655158 L4.7744,9.24088421 L6.26304211,7.7522 L8.18773684,9.67688421 L9.67636842,8.18825263 L7.75168421,6.26355789 L9.24036842,4.77491579 L11.165,6.69956842 L12.6536316,5.21092632 L11.436101,3.99337574 C11.0455932,3.60284242 11.0455941,2.96968481 11.436103,2.57915263 L13.7062632,0.308968421 L13.7062632,0.308968421 C14.1173158,-0.102105263 14.7838421,-0.102105263 15.1948947,0.308968421 L19.6608947,4.77491579 C20.0719474,5.18598947 20.0719474,5.85247368 19.6608947,6.26355789 L6.26304211,19.6614105 C5.85195789,20.0724632 5.18547368,20.0724632 4.7744,19.6614105 L0.308452632,15.1954105 C-0.102621053,14.7843579 -0.102621053,14.1178316 0.308452632,13.7067789 L2.57863684,11.4366188 C2.96916902,11.0461099 3.60232663,11.046109 3.99285995,11.4366168 Z" id="路径" fill="url(#linearGradient-1)" fill-rule="nonzero"></path>
                    <path d="M18.5792677,14.1133624 C19.1418768,14.6759716 19.4579474,15.4390333 19.4579474,16.2346828 L19.4579474,18.4586737 C19.4579474,19.0109584 19.0102321,19.4586737 18.4579474,19.4586737 L16.2354302,19.4586737 C15.4397807,19.4586737 14.676719,19.1426032 14.1141098,18.579994 L12.2176316,16.6835158 L0.308305263,4.77424211 C-0.102768421,4.36316842 -0.102768421,3.69668421 0.308305263,3.2856 L3.2856,0.308305263 C3.69667368,-0.102768421 4.36316842,-0.102768421 4.77424211,0.308305263 L18.5792677,14.1133624 Z" id="形状结合" fill="#7AE8BE"></path>
                    <path d="M2.77680268,2.80105398 L5.10979825,2.85162076 C5.51758283,2.86045934 5.8435461,3.1935643 5.8435461,3.60144466 L5.8435461,4.20635551 C5.8435461,4.62056908 5.50775967,4.95635551 5.0935461,4.95635551 C5.08812824,4.95635551 5.08271055,4.95629681 5.07729396,4.9561794 L2.74429839,4.90561262 C2.33651381,4.89677405 2.01055054,4.56366909 2.01055054,4.15578873 L2.01055054,3.55087788 C2.01055054,3.13666431 2.34633697,2.80087788 2.76055054,2.80087788 C2.76596839,2.80087788 2.77138609,2.80093658 2.77680268,2.80105398 Z" id="矩形" fill="#FFFFFF" transform="translate(3.927048, 3.878617) rotate(-45.000000) translate(-3.927048, -3.878617) "></path>
                    <path d="M9.24036842,4.77491579 L11.165,6.69956842 L15.1944,10.7289158 L10.7284,15.1949158 L5.9584,10.4239158 L4.7744,9.24088421 L5.55594532,8.45931678 C5.91641674,8.09882028 6.48364683,8.07108215 6.87594231,8.37610144 L6.97015082,8.45930485 L6.97015082,8.45930485 L8.18773684,9.67688421 L9.67636842,8.18825263 L8.45878906,6.97066661 C8.09829864,6.61018911 8.07057008,6.04295855 8.375596,5.65066822 L8.45880099,5.55646111 L8.45880099,5.55646111 L9.24036842,4.77491579 Z" id="形状结合" fill="#44B061"></path>
                </g>
            </g>
        </g>
    </g>
</svg>