<?xml version="1.0" encoding="UTF-8"?>
<svg width="24px" height="24px" viewBox="0 0 24 24" version="1.1" xmlns="http://www.w3.org/2000/svg" xmlns:xlink="http://www.w3.org/1999/xlink">
    <title>编组 11</title>
    <defs>
        <linearGradient x1="50%" y1="0%" x2="50%" y2="100%" id="linearGradient-1">
            <stop stop-color="#FE7086" offset="0%"></stop>
            <stop stop-color="#FF4B87" offset="100%"></stop>
        </linearGradient>
    </defs>
    <g id="页面-1" stroke="none" stroke-width="1" fill="none" fill-rule="evenodd">
        <g id="查看证明" transform="translate(-160.000000, -773.000000)">
            <g id="编组-11" transform="translate(160.000000, 773.000000)">
                <rect id="矩形" x="0" y="0" width="24" height="24"></rect>
                <g id="编组-21" transform="translate(2.571429, 0.600000)">
                    <path d="M2.72515528,-6.38619592e-14 L15.7220497,-6.38619592e-14 C17.2271114,-6.3698841e-14 18.447205,1.22009358 18.447205,2.72515528 L18.447205,3.45031056 C18.447205,4.55488006 17.5517745,5.45031056 16.447205,5.45031056 L2,5.45031056 C0.8954305,5.45031056 1.02018888e-12,4.55488006 1.02005361e-12,3.45031056 L1.02005361e-12,2.72515528 C1.01986929e-12,1.22009358 1.22009358,-6.35854838e-14 2.72515528,-6.38619592e-14 Z" id="矩形备份-25" fill="#FF95AC"></path>
                    <path d="M4,2.09627329 L14.447205,2.09627329 C16.656344,2.09627329 18.447205,3.88713429 18.447205,6.09627329 L18.447205,17.6614907 C18.447205,19.8706297 16.656344,21.6614907 14.447205,21.6614907 L4,21.6614907 C1.790861,21.6614907 1.02041702e-12,19.8706297 1.02005361e-12,17.6614907 L1.02005361e-12,6.09627329 C1.01978307e-12,3.88713429 1.790861,2.09627329 4,2.09627329 Z" id="矩形" fill="url(#linearGradient-1)"></path>
                    <path d="M14.447205,2.09627329 C16.1014473,2.09627329 17.5211494,3.10045899 18.1299872,4.5325062 C17.7734358,5.08469522 17.1530174,5.45031056 16.447205,5.45031056 L2,5.45031056 C1.29418756,5.45031056 0.673769155,5.08469522 0.317804307,4.53252406 C0.92605556,3.10045899 2.34575771,2.09627329 4,2.09627329 L14.447205,2.09627329 Z" id="形状结合" fill="#F4283F"></path>
                    <path d="M10.1848266,13.5871835 L12.3498926,13.5871835 C12.736492,13.5871835 13.0498926,13.9005842 13.0498926,14.2871835 L13.0498926,14.7972275 C13.0498926,15.1838268 12.736492,15.4972275 12.3498926,15.4972275 L10.1848266,15.4972275 L10.1848266,15.4972275 L10.1848266,16.7072715 C10.1848266,17.0938708 9.87142597,17.4072715 9.48482664,17.4072715 L8.97478264,17.4072715 C8.58818331,17.4072715 8.27478264,17.0938708 8.27478264,16.7072715 L8.27478264,15.4972275 L8.27478264,15.4972275 L6.10971664,15.4972275 C5.72311731,15.4972275 5.40971664,15.1838268 5.40971664,14.7972275 L5.40971664,14.2871835 C5.40971664,13.9005842 5.72311731,13.5871835 6.10971664,13.5871835 L8.27478264,13.5871835 L8.27478264,13.5871835 L8.27478264,12.6321615 L6.10971664,12.6321615 C5.72311731,12.6321615 5.40971664,12.3187608 5.40971664,11.9321615 L5.40971664,11.4221175 C5.40971664,11.0355182 5.72311731,10.7221175 6.10971664,10.7221175 L7.87940353,10.7221175 L7.87940353,10.7221175 L6.34793823,9.19137393 C6.07421547,8.91836284 6.07411101,8.47514737 6.34741358,8.20171594 C6.34751072,8.20161875 6.34760789,8.20152159 6.3479964,8.20171598 L6.71000844,7.8399596 C6.98341349,7.56663063 7.42662894,7.56678718 7.69989937,7.84025073 C7.69991887,7.84027025 7.69993837,7.84028977 7.69989932,7.84036778 L9.22980464,9.37171641 L9.22980464,9.37171641 L10.7605482,7.84025111 C11.0337341,7.56670307 11.4769496,7.56659861 11.750381,7.83990118 C11.7504199,7.83994006 11.7504588,7.83997894 11.7503811,7.84013447 L12.1117877,8.20154111 C12.3852713,8.47479147 12.3852713,8.91800695 12.1119043,9.19137396 C12.1118654,9.19141284 12.1118266,9.19145172 12.111671,9.19137393 L10.5802057,10.7221175 L10.5802057,10.7221175 L12.3498926,10.7221175 C12.736492,10.7221175 13.0498926,11.0355182 13.0498926,11.4221175 L13.0498926,11.9321615 C13.0498926,12.3187608 12.736492,12.6321615 12.3498926,12.6321615 L10.1848266,12.6321615 L10.1848266,12.6321615 L10.1848266,13.5871835 Z" id="路径" fill="#FFFFFF" fill-rule="nonzero"></path>
                </g>
            </g>
        </g>
    </g>
</svg>