<?xml version="1.0" encoding="UTF-8"?>
<svg width="24px" height="24px" viewBox="0 0 24 24" version="1.1" xmlns="http://www.w3.org/2000/svg" xmlns:xlink="http://www.w3.org/1999/xlink">
    <title>编组 14</title>
    <defs>
        <linearGradient x1="50%" y1="0%" x2="50%" y2="100%" id="linearGradient-1">
            <stop stop-color="#FFD772" offset="0%"></stop>
            <stop stop-color="#FFB02F" offset="100%"></stop>
        </linearGradient>
    </defs>
    <g id="页面-1" stroke="none" stroke-width="1" fill="none" fill-rule="evenodd">
        <g id="查看证明" transform="translate(-160.000000, -347.000000)">
            <g id="编组-14" transform="translate(160.000000, 347.000000)">
                <rect id="矩形" x="0" y="0" width="24" height="24"></rect>
                <g id="编组-13" transform="translate(2.142857, 0.642857)">
                    <rect id="矩形" fill="url(#linearGradient-1)" x="0" y="3.64285714" width="19.7142857" height="17.1428571" rx="4"></rect>
                    <path d="M4.42857143,11.3571429 L7.57142857,11.3571429 C8.12371332,11.3571429 8.57142857,11.8048581 8.57142857,12.3571429 L8.57142857,12.9285714 C8.57142857,13.4808562 8.12371332,13.9285714 7.57142857,13.9285714 L4.42857143,13.9285714 C3.87628668,13.9285714 3.42857143,13.4808562 3.42857143,12.9285714 L3.42857143,12.3571429 C3.42857143,11.8048581 3.87628668,11.3571429 4.42857143,11.3571429 Z" id="矩形" fill="#FFFFFF" transform="translate(6.000000, 12.642857) rotate(-270.000000) translate(-6.000000, -12.642857) "></path>
                    <path d="M12.1428571,11.3571429 L15.2857143,11.3571429 C15.837999,11.3571429 16.2857143,11.8048581 16.2857143,12.3571429 L16.2857143,12.9285714 C16.2857143,13.4808562 15.837999,13.9285714 15.2857143,13.9285714 L12.1428571,13.9285714 C11.5905724,13.9285714 11.1428571,13.4808562 11.1428571,12.9285714 L11.1428571,12.3571429 C11.1428571,11.8048581 11.5905724,11.3571429 12.1428571,11.3571429 Z" id="矩形备份-2" fill="#FFFFFF" transform="translate(13.714286, 12.642857) rotate(-270.000000) translate(-13.714286, -12.642857) "></path>
                    <path d="M10.8698413,4.04248064e-13 C13.6499171,4.04248064e-13 15.9564004,2.03516049 16.067258,4.63714467 L16.0714286,4.83333333 L16.0714286,6.76892593 L13.7698413,6.76892593 L13.7698413,4.83333333 C13.7698413,3.50987224 12.5841054,2.3846641 11.0425476,2.30598018 L10.8698413,2.3015873 L8.84444444,2.3015873 C7.27766786,2.3015873 6.03597571,3.37952898 5.94928185,4.68714105 L5.94444444,4.83333333 L5.94444444,6.76892593 L3.64285714,6.76892593 L3.64285714,4.83333333 C3.64285714,2.20392568 5.88153368,0.104633297 8.63685365,0.00379298315 L8.84444444,4.04248064e-13 L10.8698413,4.04248064e-13 Z" id="路径" fill="#FDCE76" fill-rule="nonzero"></path>
                    <path d="M14.7142857,3.64285714 C15.1417086,3.64285714 15.5566051,3.69648881 15.9526128,3.79738971 C16.0159939,4.06934773 16.0550152,4.34978962 16.067258,4.63714467 L16.0714286,4.83333333 L16.0714286,6.76892593 L13.7698413,6.76892593 L13.7698413,4.83333333 C13.7698413,4.40616082 13.6463113,3.99964229 13.4271582,3.64230179 L14.7142857,3.64285714 Z M5.94928185,4.68714105 L5.94444444,4.83333333 L5.94444444,6.76892593 L3.64285714,6.76892593 L3.64285714,4.83333333 C3.64285714,4.4772865 3.68390493,4.13095972 3.76172498,3.79799864 C4.15759886,3.69649938 4.57253502,3.64285714 5,3.64285714 L6.28726872,3.64207152 C6.09317949,3.95846605 5.97405909,4.31342353 5.94928185,4.68714105 Z" id="形状结合" fill="#FFAC5E"></path>
                </g>
            </g>
        </g>
    </g>
</svg>