<?xml version="1.0" encoding="UTF-8"?>
<svg width="24px" height="24px" viewBox="0 0 24 24" version="1.1" xmlns="http://www.w3.org/2000/svg" xmlns:xlink="http://www.w3.org/1999/xlink">
    <title>编组 10</title>
    <defs>
        <linearGradient x1="50%" y1="0%" x2="50%" y2="100%" id="linearGradient-1">
            <stop stop-color="#66D7FF" offset="0%"></stop>
            <stop stop-color="#4CB9F6" offset="100%"></stop>
        </linearGradient>
    </defs>
    <g id="页面-1" stroke="none" stroke-width="1" fill="none" fill-rule="evenodd">
        <g id="查看证明" transform="translate(-159.000000, -110.000000)">
            <g id="编组-10" transform="translate(159.000000, 110.000000)">
                <rect id="矩形" opacity="0.300000012" x="0" y="0" width="24" height="24"></rect>
                <rect id="矩形" fill="url(#linearGradient-1)" x="0" y="1.28571429" width="18.8571429" height="19.7142857" rx="4"></rect>
                <rect id="矩形" fill="#FFFFFF" x="4.28571429" y="7.28571429" width="10.2857143" height="2.57142857" rx="1"></rect>
                <rect id="矩形备份-3" fill="#FFFFFF" x="4.28571429" y="12.4285714" width="6" height="2.57142857" rx="1"></rect>
                <path d="M20.3780303,12.9091373 L22.8023964,15.3335034 C23.3044991,15.8356061 23.3044991,16.6496753 22.8023964,17.151778 L16.7342572,23.2199172 C16.4245247,23.5296497 16.0079779,23.7090693 15.5701222,23.7213464 L12.8021522,23.7989576 C12.3627513,23.811278 11.9913297,23.4906707 11.9298881,23.0659356 L11.920986,22.9432645 L11.920986,22.9432645 L11.9918925,20.1440378 C12.0030715,19.7046134 12.1826201,19.2862729 12.4934406,18.9754524 L18.5597557,12.9091373 C19.0618584,12.4070346 19.8759276,12.4070346 20.3780303,12.9091373 Z" id="矩形" fill="#9AD8FF"></path>
                <path d="M18.8568584,12.7514195 L18.8571429,16 C18.8571429,18.7614237 16.6185666,21 13.8571429,21 L11.97,20.9995792 L11.9889904,20.2581127 C12.0020326,19.745451 12.211506,19.257387 12.5741299,18.8947631 L18.4082328,13.0606602 C18.5417415,12.9271515 18.6941559,12.8240713 18.8568584,12.7514195 Z" id="形状结合" fill="#42A8FC"></path>
            </g>
        </g>
    </g>
</svg>