<?xml version="1.0" encoding="UTF-8"?><svg version="1.1" width="18px" height="18px" viewBox="0 0 18.0 18.0" xmlns="http://www.w3.org/2000/svg" xmlns:xlink="http://www.w3.org/1999/xlink"><defs><clipPath id="i0"><path d="M1434,0 L1434,900 L0,900 L0,0 L1434,0 Z"></path></clipPath><clipPath id="i1"><path d="M9,0 C13.9709886,0 18,4.02901138 18,9 C18,13.9709886 13.9709886,18 9,18 C4.02901138,18 0,13.9709886 0,9 C0,4.02901138 4.02901138,0 9,0 Z M9,1.28542736 C7.95759875,1.28542736 6.94733318,1.49029235 5.99732203,1.8919884 C5.07944655,2.27962508 4.25396117,2.83597411 3.54496764,3.54496764 C2.83597411,4.25396117 2.27962508,5.07944655 1.8919884,5.99732203 C1.48828387,6.94733318 1.28542736,7.95759875 1.28542736,9 C1.28542736,10.0424012 1.49029235,11.0526668 1.8919884,12.002678 C2.27962508,12.9205534 2.83597411,13.7460388 3.54496764,14.4550324 C4.25396117,15.1640259 5.07944655,15.7203749 5.99732203,16.1080116 C6.94733318,16.5117161 7.95759875,16.7145726 9,16.7145726 C10.0424012,16.7145726 11.0526668,16.5097077 12.002678,16.1080116 C12.9205534,15.7203749 13.7460388,15.1640259 14.4550324,14.4550324 C15.1640259,13.7460388 15.7203749,12.9205534 16.1080116,12.002678 C16.5117161,11.0526668 16.7145726,10.0424012 16.7145726,9 C16.7145726,7.95759875 16.5097077,6.94733318 16.1080116,5.99732203 C15.7203749,5.07944655 15.1640259,4.25396117 14.4550324,3.54496764 C13.7460388,2.83597411 12.9205534,2.27962508 12.002678,1.8919884 C11.0526668,1.48828387 10.0424012,1.28542736 9,1.28542736 Z"></path></clipPath><clipPath id="i2"><path d="M3.6876572,0 C4.79834678,0 5.68408657,0.301272037 6.34487657,0.905824593 C7.00566657,1.51037715 7.33706581,2.24146396 7.33706581,3.09908503 C7.33706581,3.59517965 7.22057396,4.05110466 6.98759025,4.47087704 C6.75460654,4.89064941 6.30069,5.39879491 5.62383216,5.99732203 C5.16991562,6.40102656 4.87266055,6.69627315 4.73206693,6.88908726 C4.59348179,7.07989288 4.48904082,7.29881723 4.42276097,7.54786878 C4.38961635,7.67140782 4.3594853,8.02699209 4.33236783,8.61462159 C4.31521143,8.98650034 4.00871524,9.27917875 3.63644095,9.27917875 C3.26536068,9.27917875 2.96366208,8.98002779 2.96051578,8.60896085 C2.95974102,8.51759957 2.95919868,8.44820291 2.95888877,8.4007709 L2.95857887,8.33519304 C2.95857887,7.78687793 3.0369096,7.31488507 3.19156258,6.91720598 C3.30604595,6.61794242 3.48881765,6.31466191 3.74188616,6.01138139 C3.92867483,5.78844008 4.26208255,5.46507476 4.74612629,5.03927695 C5.22816155,4.61347913 5.54349295,4.27404597 5.68810353,4.02097746 C5.8327141,3.76790895 5.90501939,3.49073867 5.90501939,3.19147512 C5.90501939,2.64918545 5.69412897,2.17317563 5.27033963,1.76143718 C4.8465503,1.35170721 4.3283624,1.14483374 3.71376744,1.14483374 C3.11925729,1.14483374 2.62316267,1.33162241 2.22548358,1.70319125 C1.82780449,2.0747601 1.56670205,2.65521089 1.44217628,3.44655211 C1.3176505,4.23789333 -0.120421356,4.33430038 0.00812137974,3.27583129 C0.136664116,2.2173622 0.520283843,1.40593617 1.15898056,0.843561705 C1.79767728,0.281187235 2.63923051,0 3.6876572,0 Z"></path></clipPath><clipPath id="i3"><path d="M0.64271368,0 C0.997674644,-6.52052713e-17 1.28542736,0.287752716 1.28542736,0.64271368 C1.28542736,0.997674644 0.997674644,1.28542736 0.64271368,1.28542736 C0.287752716,1.28542736 4.87559391e-16,0.997674644 0,0.64271368 C-4.34701808e-17,0.287752716 0.287752716,6.52052713e-17 0.64271368,0 Z"></path></clipPath></defs><g transform="translate(-397.0 -252.0)"><g clip-path="url(#i0)"><g transform="translate(397.0 252.0)"><g opacity="100.0363305%"><g clip-path="url(#i1)"><polygon points="0,0 18,0 18,18 0,18 0,0" stroke="none" fill="currentColor"></polygon></g><g transform="translate(5.328410644360156 3.2256192814106726)"><g clip-path="url(#i2)"><polygon points="-4.4408921e-16,0 7.33706581,0 7.33706581,9.27917875 -4.4408921e-16,9.27917875 -4.4408921e-16,0" stroke="none" fill="currentColor"></polygon></g></g><g transform="translate(8.357286320017854 13.49899575987577)"><g clip-path="url(#i3)"><polygon points="0,0 1.28542736,0 1.28542736,1.28542736 0,1.28542736 0,0" stroke="none" fill="currentColor"></polygon></g><path d="M0.64271368,0 C0.997674644,-6.52052713e-17 1.28542736,0.287752716 1.28542736,0.64271368 C1.28542736,0.997674644 0.997674644,1.28542736 0.64271368,1.28542736 C0.287752716,1.28542736 4.87559391e-16,0.997674644 0,0.64271368 C-4.34701808e-17,0.287752716 0.287752716,6.52052713e-17 0.64271368,0 Z" stroke="currentColor" stroke-width="0.4" fill="none" stroke-miterlimit="10"></path></g></g></g></g></g></svg>