<?xml version="1.0" encoding="UTF-8"?>
<svg width="19px" height="19px" viewBox="0 0 19 19" version="1.1" xmlns="http://www.w3.org/2000/svg" xmlns:xlink="http://www.w3.org/1999/xlink">
    <title>编组</title>
    <g id="页面-1" stroke="none" stroke-width="1" fill="none" fill-rule="evenodd">
        <g id="积分明细" transform="translate(-12.000000, -233.000000)">
            <g id="编组-2备份-2" transform="translate(0.000000, 220.000000)">
                <g id="编组" transform="translate(12.000000, 13.000000)">
                    <polygon id="路径" points="0 0 19 0 19 19 0 19"></polygon>
                    <path d="M15.4865833,9.57679167 L16.698625,11.6770833 C17.4641667,13.0023333 17.00975,14.6972917 15.6852917,15.4620417 C15.2633333,15.7050833 14.7859583,15.8333333 14.299875,15.8333333 L12.6666667,15.8333333 L12.6666667,17.8125 L8.70833333,15.0416667 L12.6666667,12.2708333 L12.6666667,14.25 L14.2990833,14.25 C14.5072917,14.25 14.7123333,14.1945833 14.8928333,14.090875 C15.46125,13.763125 15.6552083,13.036375 15.32825,12.46875 L14.1154167,10.3684583 L15.4865833,9.57679167 Z M5.78233333,7.23108333 L6.20191667,12.0444167 L4.48875,11.0548333 L3.67254167,12.46875 C3.56804167,12.64925 3.51341667,12.8542917 3.51341667,13.0625 C3.51341667,13.718 4.044625,14.25 4.70091667,14.25 L7.125,14.25 L7.125,15.8333333 L4.70091667,15.8333333 C3.170625,15.8333333 1.93008333,14.5927917 1.93008333,13.0625 C1.93008333,12.5764167 2.05833333,12.09825 2.301375,11.6770833 L3.11679167,10.262375 L1.403625,9.27358333 L5.78154167,7.23108333 L5.78233333,7.23108333 Z M10.8854167,2.35045833 C11.3065833,2.5935 11.6565,2.94341667 11.8995417,3.36458333 L12.7149583,4.77770833 L14.4297083,3.788125 L14.010125,8.60225 L9.630625,6.55975 L11.3445833,5.57016667 L10.528375,4.15625 C10.423875,3.97575 10.27425,3.826125 10.09375,3.721625 C9.526125,3.393875 8.799375,3.588625 8.471625,4.15625 L7.25879167,6.25654167 L5.887625,5.464875 L7.10125,3.36458333 C7.866,2.03933333 9.56095833,1.58491667 10.8862083,2.35045833 L10.8854167,2.35045833 Z" id="形状" fill="currentColor" fill-rule="nonzero"></path>
                </g>
            </g>
        </g>
    </g>
</svg>