<?xml version="1.0" encoding="UTF-8"?>
<svg width="8px" height="8px" viewBox="0 0 8 8" version="1.1" xmlns="http://www.w3.org/2000/svg" xmlns:xlink="http://www.w3.org/1999/xlink">
    <title>编组</title>
    <g id="页面-1" stroke="none" stroke-width="1" fill="none" fill-rule="evenodd">
        <g id="绩效结果（管理员）" transform="translate(-437.000000, -102.000000)">
            <g id="编组" transform="translate(441.000000, 106.000000) rotate(-270.000000) translate(-441.000000, -106.000000) translate(437.000000, 102.000000)">
                <rect id="矩形" x="0" y="0" width="8" height="8"></rect>
                <path d="M5.64,2.18666667 L8.04,5.38666667 C8.30509668,5.74012891 8.23346224,6.24156999 7.88,6.50666667 C7.74152306,6.61052437 7.57309617,6.66666667 7.4,6.66666667 L2.6,6.66666667 C2.1581722,6.66666667 1.8,6.30849447 1.8,5.86666667 C1.8,5.6935705 1.8561423,5.5251436 1.96,5.38666667 L4.36,2.18666667 C4.62509668,1.83320443 5.12653776,1.76156999 5.48,2.02666667 C5.54064453,2.07215007 5.5945166,2.12602213 5.64,2.18666667 Z" id="三角形" fill="#C9CDD4" transform="translate(5.000000, 4.000000) rotate(-270.000000) translate(-5.000000, -4.000000) "></path>
            </g>
        </g>
    </g>
</svg>