<svg width="18" height="18" viewBox="0 0 18 18" fill="none" xmlns="http://www.w3.org/2000/svg">
<g id="&#231;&#188;&#150;&#231;&#187;&#132;">
<path id="&#229;&#189;&#162;&#231;&#138;&#182;" fill-rule="evenodd" clip-rule="evenodd" d="M7.5 4.125C7.5 4.74632 6.99632 5.25 6.375 5.25C5.75368 5.25 5.25 4.74632 5.25 4.125C5.25 3.50368 5.75368 3 6.375 3C6.99632 3 7.5 3.50368 7.5 4.125ZM7.5 9C7.5 9.6213 6.99632 10.125 6.375 10.125C5.75368 10.125 5.25 9.6213 5.25 9C5.25 8.3787 5.75368 7.875 6.375 7.875C6.99632 7.875 7.5 8.3787 7.5 9ZM7.5 13.875C7.5 14.4963 6.99632 15 6.375 15C5.75368 15 5.25 14.4963 5.25 13.875C5.25 13.2537 5.75368 12.75 6.375 12.75C6.99632 12.75 7.5 13.2537 7.5 13.875ZM12.75 4.125C12.75 4.74632 12.2463 5.25 11.625 5.25C11.0037 5.25 10.5 4.74632 10.5 4.125C10.5 3.50368 11.0037 3 11.625 3C12.2463 3 12.75 3.50368 12.75 4.125ZM12.75 9C12.75 9.6213 12.2463 10.125 11.625 10.125C11.0037 10.125 10.5 9.6213 10.5 9C10.5 8.3787 11.0037 7.875 11.625 7.875C12.2463 7.875 12.75 8.3787 12.75 9ZM12.75 13.875C12.75 14.4963 12.2463 15 11.625 15C11.0037 15 10.5 14.4963 10.5 13.875C10.5 13.2537 11.0037 12.75 11.625 12.75C12.2463 12.75 12.75 13.2537 12.75 13.875Z" fill="currentColor"/>
</g>
</svg>
