
<?xml version="1.0" encoding="UTF-8"?>
<svg width="20px" height="20px" viewBox="0 0 20 20" version="1.1" xmlns="http://www.w3.org/2000/svg" xmlns:xlink="http://www.w3.org/1999/xlink">
    <title></title>
    <g id="页面-1" stroke="none" stroke-width="1" fill="none" fill-rule="evenodd">
        <g id="侧边收起" transform="translate(-138.000000, -84.000000)">
            <g id="编组-49" transform="translate(130.000000, 68.000000)">
                <g id="编组-2" transform="translate(18.000000, 26.000000) rotate(-90.000000) translate(-18.000000, -26.000000) translate(8.000000, 16.000000)">
                    <rect id="矩形" x="0" y="-1.00421038e-13" width="20" height="20"></rect>
                    <circle id="椭圆形" stroke="#4E5969" stroke-width="1.5" transform="translate(10.750000, 9.500000) rotate(-315.000000) translate(-10.750000, -9.500000) " cx="10.7500002" cy="9.49999976" r="5.5"></circle>
                    <path d="M5.45298044,12.6263396 C5.97074739,12.6263396 6.39048044,13.0460726 6.39048044,13.5638396 L6.39048044,16.6888396 C6.39048044,17.2066065 5.97074739,17.6263396 5.45298044,17.6263396 C4.93521349,17.6263396 4.51548044,17.2066065 4.51548044,16.6888396 L4.51548044,13.5638396 C4.51548044,13.0460726 4.93521349,12.6263396 5.45298044,12.6263396 Z" id="矩形" fill="#4E5969" transform="translate(5.452980, 15.126340) rotate(-315.000000) translate(-5.452980, -15.126340) "></path>
                </g>
            </g>
        </g>
    </g>
</svg>