<svg width="18" height="18" viewBox="0 0 18 18" fill="none" xmlns="http://www.w3.org/2000/svg">
<g id="&#231;&#188;&#150;&#231;&#187;&#132; 16">
<path id="&#229;&#189;&#162;&#231;&#138;&#182;" fill-rule="evenodd" clip-rule="evenodd" d="M14.5278 4.61067C14.5278 5.83151 13.5578 6.8212 12.3611 6.8212C11.1645 6.8212 10.1944 5.83151 10.1944 4.61067C10.1944 3.38984 11.1645 2.40015 12.3611 2.40015C13.5578 2.40015 14.5278 3.38984 14.5278 4.61067ZM11.6389 4.61062C11.6389 5.01756 11.9622 5.34746 12.3611 5.34746C12.76 5.34746 13.0833 5.01756 13.0833 4.61062C13.0833 4.20368 12.76 3.87378 12.3611 3.87378C11.9622 3.87378 11.6389 4.20368 11.6389 4.61062ZM5.13889 3.13675C3.5434 3.13675 2.25 4.45633 2.25 6.08412V7.5578H3.69444V6.08412C3.69444 5.27022 4.34114 4.61043 5.13889 4.61043H7.30556V3.13675H5.13889ZM15.25 13.4524C15.25 15.0802 13.9566 16.3998 12.3611 16.3998H10.1944V14.9261H12.3611C13.1589 14.9261 13.8056 14.2664 13.8056 13.4524V11.9788H15.25V13.4524ZM5.86111 10.5052C5.86111 10.0982 5.53776 9.76831 5.13889 9.76831C4.74002 9.76831 4.41667 10.0982 4.41667 10.5052C4.41667 10.9121 4.74002 11.242 5.13889 11.242C5.53776 11.242 5.86111 10.9121 5.86111 10.5052ZM5.13889 12.716C6.3355 12.716 7.30556 11.7263 7.30556 10.5054C7.30556 9.28457 6.3355 8.29492 5.13889 8.29492C3.94228 8.29492 2.97222 9.28457 2.97222 10.5054C2.97222 11.7263 3.94228 12.716 5.13889 12.716ZM12.3611 9.03155C11.5633 9.03155 10.9167 9.69131 10.9167 10.5052H9.47222C9.47222 8.87747 10.7656 7.55786 12.3611 7.55786C13.9566 7.55786 15.25 8.87747 15.25 10.5052H13.8056C13.8056 9.69131 13.1589 9.03155 12.3611 9.03155ZM5.13889 14.9265C4.34114 14.9265 3.69444 15.5862 3.69444 16.4001H2.25C2.25 14.7724 3.5434 13.4528 5.13889 13.4528C6.73438 13.4528 8.02778 14.7724 8.02778 16.4001H6.58333C6.58333 15.5862 5.93663 14.9265 5.13889 14.9265Z" fill="currentColor"/>
</g>
</svg>
