
<?xml version="1.0" encoding="UTF-8"?>
<svg width="20px" height="20px" viewBox="0 0 20 20" version="1.1" xmlns="http://www.w3.org/2000/svg" xmlns:xlink="http://www.w3.org/1999/xlink">
    <title></title>
    <g id="页面-1" stroke="none" stroke-width="1" fill="none" fill-rule="evenodd">
        <g id="侧边收起" transform="translate(-138.000000, -119.000000)">
            <g id="编组-49" transform="translate(130.000000, 68.000000)">
                <g id="编组-16" transform="translate(8.000000, 51.000000)">
                    <rect id="矩形" x="0" y="0" width="20" height="20"></rect>
                    <path d="M14.1666667,6 C13.7064167,6 13.3333333,5.6269 13.3333333,5.16666667 C13.3333333,4.70643333 13.7064167,4.33333333 14.1666667,4.33333333 C14.6269167,4.33333333 15,4.70643333 15,5.16666667 C15,5.6269 14.6269167,6 14.1666667,6 Z M14.1666667,7.66666667 C15.5474167,7.66666667 16.6666667,6.547375 16.6666667,5.16666667 C16.6666667,3.78595833 15.5474167,2.66666667 14.1666667,2.66666667 C12.7859167,2.66666667 11.6666667,3.78595833 11.6666667,5.16666667 C11.6666667,6.547375 12.7859167,7.66666667 14.1666667,7.66666667 Z M5.83333333,3.5 C3.99238333,3.5 2.5,4.99238333 2.5,6.83333333 L2.5,8.5 L4.16666667,8.5 L4.16666667,6.83333333 C4.16666667,5.91285833 4.91285833,5.16666667 5.83333333,5.16666667 L8.33333333,5.16666667 L8.33333333,3.5 L5.83333333,3.5 Z M14.1666667,18.5 C16.0075833,18.5 17.5,17.0075833 17.5,15.1666667 L17.5,13.5 L15.8333333,13.5 L15.8333333,15.1666667 C15.8333333,16.0871667 15.0871667,16.8333333 14.1666667,16.8333333 L11.6666667,16.8333333 L11.6666667,18.5 L14.1666667,18.5 Z M6.66666667,11.8333333 C6.66666667,11.3730833 6.29356667,11 5.83333333,11 C5.3731,11 5,11.3730833 5,11.8333333 C5,12.2935833 5.3731,12.6666667 5.83333333,12.6666667 C6.29356667,12.6666667 6.66666667,12.2935833 6.66666667,11.8333333 Z M8.33333333,11.8333333 C8.33333333,13.2140833 7.21404167,14.3333333 5.83333333,14.3333333 C4.452625,14.3333333 3.33333333,13.2140833 3.33333333,11.8333333 C3.33333333,10.4525833 4.452625,9.33333333 5.83333333,9.33333333 C7.21404167,9.33333333 8.33333333,10.4525833 8.33333333,11.8333333 Z M14.1666667,10.1666667 C13.2461667,10.1666667 12.5,10.9128333 12.5,11.8333333 L10.8333333,11.8333333 C10.8333333,9.99241667 12.32575,8.5 14.1666667,8.5 C16.0075833,8.5 17.5,9.99241667 17.5,11.8333333 L15.8333333,11.8333333 C15.8333333,10.9128333 15.0871667,10.1666667 14.1666667,10.1666667 Z M4.16666667,18.5 C4.16666667,17.5795 4.91285833,16.8333333 5.83333333,16.8333333 C6.75380833,16.8333333 7.5,17.5795 7.5,18.5 L9.16666667,18.5 C9.16666667,16.6590833 7.67428333,15.1666667 5.83333333,15.1666667 C3.99238333,15.1666667 2.5,16.6590833 2.5,18.5 L4.16666667,18.5 Z" id="形状" fill="#4E5969" fill-rule="nonzero"></path>
                </g>
            </g>
        </g>
    </g>
</svg>