<?xml version="1.0" encoding="UTF-8"?>
<svg width="8px" height="8px" viewBox="0 0 8 8" version="1.1" xmlns="http://www.w3.org/2000/svg" xmlns:xlink="http://www.w3.org/1999/xlink">
    <title>编组</title>
    <g id="页面-1" stroke="none" stroke-width="1" fill="none" fill-rule="evenodd">
        <g id="勤奋度&amp;遵章守纪-Hover" transform="translate(-255.000000, -1107.000000)">
            <g id="编组-23" transform="translate(130.000000, 890.000000)">
                <g id="月度统计/异常备份-4" transform="translate(50.000000, 160.000000)">
                    <g id="编组-2" transform="translate(20.000000, 41.000000)">
                        <g id="编组" transform="translate(59.000000, 20.000000) rotate(-360.000000) translate(-59.000000, -20.000000) translate(55.000000, 16.000000)">
                            <rect id="矩形" x="0" y="0" width="8" height="8"></rect>
                            <path d="M4.64,2.18666667 L7.04,5.38666667 C7.30509668,5.74012891 7.23346224,6.24156999 6.88,6.50666667 C6.74152306,6.61052437 6.57309617,6.66666667 6.4,6.66666667 L1.6,6.66666667 C1.1581722,6.66666667 0.8,6.30849447 0.8,5.86666667 C0.8,5.6935705 0.856142297,5.5251436 0.96,5.38666667 L3.36,2.18666667 C3.62509668,1.83320443 4.12653776,1.76156999 4.48,2.02666667 C4.54064453,2.07215007 4.5945166,2.12602213 4.64,2.18666667 Z" id="三角形" fill="currentColor" transform="translate(4.000000, 4.000000) rotate(-270.000000) translate(-4.000000, -4.000000) "></path>
                        </g>
                    </g>
                </g>
            </g>
        </g>
    </g>
</svg>