<?xml version="1.0" encoding="UTF-8"?>
<svg width="12px" height="12px" viewBox="0 0 12 12" version="1.1" xmlns="http://www.w3.org/2000/svg" xmlns:xlink="http://www.w3.org/1999/xlink">
    <title></title>
    <g id="页面-1" stroke="none" stroke-width="1" fill="none" fill-rule="evenodd">
        <g id="会议室预定_日_地点不可选择" transform="translate(-1164.000000, -555.000000)">
            <g id="会议室锁定" transform="translate(1059.000000, 248.000000)">
                <g id="编组-9" transform="translate(65.000000, 305.000000)">
                    <g id="编组" transform="translate(40.000000, 2.000000)">
                        <polygon id="路径" points="0 0 12 0 12 12 0 12"></polygon>
                        <path d="M9.08428571,4 L10.1128571,4 C10.3968893,4 10.6271429,4.23025356 10.6271429,4.51428571 L10.6271429,10.6857143 C10.6271429,10.9697464 10.3968893,11.2 10.1128571,11.2 L1.88428571,11.2 C1.60025356,11.2 1.37,10.9697464 1.37,10.6857143 L1.37,4.51428571 C1.37,4.23025356 1.60025356,4 1.88428571,4 L2.91285714,4 L2.91285714,3.48571429 C2.91285714,1.78152134 4.29437849,0.4 5.99857143,0.4 C7.70276437,0.4 9.08428571,1.78152134 9.08428571,3.48571429 L9.08428571,4 Z M5.48428571,7.97645714 L5.48428571,9.14285714 L6.51285714,9.14285714 L6.51285714,7.97645714 C6.91602424,7.74368851 7.11258505,7.26914875 6.99209514,6.81947428 C6.87160522,6.36979981 6.4641087,6.05711673 5.99857143,6.05711673 C5.53303416,6.05711673 5.12553763,6.36979981 5.00504772,6.81947428 C4.88455781,7.26914875 5.08111861,7.74368851 5.48428571,7.97645714 Z M8.05571429,4 L8.05571429,3.48571429 C8.05571429,2.34958566 7.13470006,1.42857143 5.99857143,1.42857143 C4.8624428,1.42857143 3.94142857,2.34958566 3.94142857,3.48571429 L3.94142857,4 L8.05571429,4 L8.05571429,4 Z" id="形状" fill="#8A8E9A" fill-rule="nonzero"></path>
                    </g>
                </g>
            </g>
        </g>
    </g>
</svg>