<?xml version="1.0" encoding="UTF-8"?>
<svg width="36px" height="36px" viewBox="0 0 36 36" version="1.1" xmlns="http://www.w3.org/2000/svg" xmlns:xlink="http://www.w3.org/1999/xlink">
    <title>编组 13</title>
    <defs>
        <linearGradient x1="13.0013021%" y1="0%" x2="90.9244792%" y2="100%" id="linearGradient-1">
            <stop stop-color="#FF8D7C" offset="0%"></stop>
            <stop stop-color="#FF4332" offset="100%"></stop>
        </linearGradient>
        <linearGradient x1="50%" y1="0%" x2="50%" y2="100%" id="linearGradient-2">
            <stop stop-color="#FFFFFF" offset="0%"></stop>
            <stop stop-color="#F5E1E3" offset="100%"></stop>
        </linearGradient>
    </defs>
    <g id="页面-1" stroke="none" stroke-width="1" fill="none" fill-rule="evenodd">
        <g id="我的信息-新（多数据情况）" transform="translate(-250.000000, -134.000000)">
            <g id="编组-5" transform="translate(230.000000, 119.000000)">
                <g id="编组-13" transform="translate(20.000000, 15.000000)">
                    <g id="编组-2" fill="url(#linearGradient-1)">
                        <rect id="矩形" x="0" y="0" width="36" height="36" rx="10"></rect>
                    </g>
                    <g id="ic_vpn_lock_px" transform="translate(8.000000, 8.000000)" fill="url(#linearGradient-2)" fill-rule="nonzero">
                        <path d="M19.0358922,2.73154439 L19.0358922,2.27864583 C19.0358922,1.02800101 18.0220443,0.0141530656 16.7713995,0.0141530656 C15.5207546,0.0141530656 14.5069067,1.02800101 14.5069067,2.27864583 L14.5069067,2.73154439 C14.0087183,2.73154439 13.6011096,3.13915309 13.6011096,3.63734148 L13.6011096,7.26052989 C13.6011096,7.7587183 14.0087183,8.166327 14.5069067,8.166327 L19.0358922,8.166327 C19.5340806,8.166327 19.9416893,7.7587183 19.9416893,7.26052989 L19.9416893,3.63734148 C19.9416893,3.13915307 19.5340806,2.73154437 19.0358922,2.73154439 Z M18.3112545,2.73154439 L15.2315444,2.73154439 L15.2315444,2.27864583 C15.2315444,1.42719654 15.9199502,0.738790761 16.7713995,0.738790761 C17.6228487,0.738790761 18.3112545,1.42719657 18.3112545,2.27864583 L18.3112545,2.73154439 L18.3112545,2.73154439 Z M16.2460371,9.9779212 C16.282269,10.2768342 16.3185009,10.5757473 16.3185009,10.8837183 C16.3185009,12.7677763 15.5938632,14.4797328 14.416327,15.7659647 C14.1808198,15.032269 13.5105299,14.5069067 12.6953125,14.5069067 L11.7895154,14.5069067 L11.7895154,11.7895154 C11.7895154,11.291327 11.3819067,10.8837183 10.8837183,10.8837183 L5.4489357,10.8837183 L5.4489357,9.07212409 L7.26052989,9.07212409 C7.7587183,9.07212409 8.166327,8.66451539 8.166327,8.166327 L8.166327,6.35473278 L9.9779212,6.35473278 C10.974298,6.35473278 11.7895154,5.53951539 11.7895154,4.54313859 L11.7895154,2.24241396 C10.9290082,1.97067483 10.023211,1.82574728 9.07212409,1.82574728 C4.07212409,1.82574728 0.0141530868,5.8837183 0.0141530868,10.8837183 C0.0141530868,15.8837183 4.07212411,19.9416893 9.07212409,19.9416893 C14.0721241,19.9416893 18.1300951,15.8837183 18.1300951,10.8837183 C18.1300951,10.5757473 18.1119792,10.2768342 18.0848053,9.9779212 L16.2460371,9.9779212 Z M8.166327,18.0666893 C4.58842846,17.6228487 1.82574728,14.5793705 1.82574728,10.8837183 C1.82574728,10.3221241 1.89821104,9.7877038 2.01596467,9.26234148 L6.35473278,13.6011096 L6.35473278,14.5069067 C6.35473278,15.5032835 7.16995017,16.3185009 8.166327,16.3185009 L8.166327,18.0666893 Z" id="形状"></path>
                    </g>
                </g>
            </g>
        </g>
    </g>
</svg>