<?xml version="1.0" encoding="UTF-8"?><svg version="1.1" width="17px" height="16px" viewBox="0 0 17.0 16.0" xmlns="http://www.w3.org/2000/svg" xmlns:xlink="http://www.w3.org/1999/xlink"><defs><clipPath id="i0"><path d="M1440,0 L1440,973 L0,973 L0,0 L1440,0 Z"></path></clipPath><clipPath id="i1"><path d="M8,0 C8.62843432,0 9.23994441,0.0724612101 9.82663097,0.20948432 L9.82663097,15.7905157 C9.23994441,15.9275388 8.62843432,16 8,16 C3.581722,16 0,12.418278 0,8 C0,3.581722 3.581722,0 8,0 Z"></path></clipPath><linearGradient id="i2" x1="9.82704639px" y1="8.8154935px" x2="0px" y2="8.8154935px" gradientUnits="userSpaceOnUse"><stop stop-color="#DFF4F4" offset="0%"></stop><stop stop-color="#13D3D3" offset="100%"></stop></linearGradient><linearGradient id="i3" x1="9.82704639px" y1="8px" x2="0.622552198px" y2="8px" gradientUnits="userSpaceOnUse"><stop stop-color="rgba(199, 199, 199, 0)" offset="0%"></stop><stop stop-color="#12BAB8" offset="100%"></stop></linearGradient><clipPath id="i4"><path d="M3.45851171,0 C5.36859498,0 6.91702342,1.54842844 6.91702342,3.45851171 C6.91702342,5.36859498 5.36859498,6.91702342 3.45851171,6.91702342 C1.54842844,6.91702342 0,5.36859498 0,3.45851171 C0,1.54842844 1.54842844,0 3.45851171,0 Z"></path></clipPath><clipPath id="i5"><path d="M0.059,0.001 L0,0 C4.40762113,0 7.98070404,3.57308291 7.98070404,7.98070404 C7.98070404,12.3682093 4.44016106,15.9287763 0.0602953454,15.9611851 L0.0599706822,14.7111415 L0.205794638,14.708933 C3.82818799,14.6001585 6.73131483,11.6294621 6.73131483,7.98070404 C6.73131483,4.28316954 3.75005141,1.28194643 0.0601421929,1.2496523 L0.059,0.001 Z"></path></clipPath><clipPath id="i6"><path d="M0.625937572,0 C0.971633347,0 1.25187514,0.280241796 1.25187514,0.625937572 C1.25187514,0.971633347 0.971633347,1.25187514 0.625937572,1.25187514 C0.280241796,1.25187514 0,0.971633347 0,0.625937572 C0,0.280241796 0.280241796,0 0.625937572,0 Z"></path></clipPath></defs><g transform="translate(-265.0 -442.0)"><g clip-path="url(#i0)"><g transform="translate(265.4465548161242 442.0)"><g clip-path="url(#i1)"><polygon points="0,0 9.82663097,0 9.82663097,16 0,16 0,0" stroke="none" fill="url(#i2)"></polygon></g><g clip-path="url(#i1)"><path d="M8,0 C8.62843432,0 9.23994441,0.0724612101 9.82663097,0.20948432 L9.82663097,15.7905157 C9.23994441,15.9275388 8.62843432,16 8,16 C3.581722,16 0,12.418278 0,8 C0,3.581722 3.581722,0 8,0 Z" stroke="url(#i3)" stroke-width="0.4" fill="none" stroke-miterlimit="5"></path></g><g transform="translate(4.22173625696629 4.475060953906432)"><g clip-path="url(#i4)"><path d="M3.45851171,6.91702342 C5.36859498,6.91702342 6.91702342,5.36859498 6.91702342,3.45851171 C6.91702342,1.54842844 5.36859498,0 3.45851171,0 C1.54842844,0 0,1.54842844 0,3.45851171 C0,5.36859498 1.54842844,6.91702342 3.45851171,6.91702342 Z" stroke="#213131" stroke-width="3" fill="none" stroke-miterlimit="5"></path></g></g><g transform="translate(8.174690711126054 7.114309141798003e-13)"><g clip-path="url(#i5)"><polygon points="0,0 7.98070404,0 7.98070404,15.9611851 0,15.9611851 0,0" stroke="none" fill="#213131"></polygon></g></g><g transform="translate(7.6352875277196155 14.70930992115584)"><g clip-path="url(#i6)"><polygon points="0,0 1.25187514,0 1.25187514,1.25187514 0,1.25187514 0,0" stroke="none" fill="#213131"></polygon></g></g><g transform="translate(7.6352875277196155 0.0)"><g clip-path="url(#i6)"><polygon points="0,0 1.25187514,0 1.25187514,1.25187514 0,1.25187514 0,0" stroke="none" fill="#213131"></polygon></g></g></g></g></g></svg>