<?xml version="1.0" encoding="UTF-8"?><svg version="1.1" width="15px" height="17px" viewBox="0 0 15.0 17.0" xmlns="http://www.w3.org/2000/svg" xmlns:xlink="http://www.w3.org/1999/xlink"><defs><clipPath id="i0"><path d="M1440,0 L1440,973 L0,973 L0,0 L1440,0 Z"></path></clipPath><clipPath id="i1"><path d="M4.34223769,0 C4.89452244,-3.23497668e-16 5.34223769,0.44771525 5.34223769,1 L5.34223769,2.4961861 C5.34223769,3.04847085 4.89452244,3.4961861 4.34223769,3.4961861 L1,3.4961861 C0.44771525,3.4961861 6.76353751e-17,3.04847085 0,2.4961861 L0,1 C-6.76353751e-17,0.44771525 0.44771525,-1.20591542e-16 1,0 L4.34223769,0 Z"></path></clipPath><linearGradient id="i2" x1="2.67111884px" y1="0px" x2="2.67111884px" y2="3.4961861px" gradientUnits="userSpaceOnUse"><stop stop-color="#00D1D2" offset="0%"></stop><stop stop-color="rgba(0, 166, 167, 0)" offset="100%"></stop></linearGradient><linearGradient id="i3" x1="2.67111884px" y1="0px" x2="2.67111884px" y2="2.55325014px" gradientUnits="userSpaceOnUse"><stop stop-color="#09B3B3" offset="0%"></stop><stop stop-color="rgba(19, 138, 77, 0)" offset="100%"></stop></linearGradient><clipPath id="i4"><path d=""></path></clipPath><linearGradient id="i5" x1="3.11278144px" y1="0px" x2="3.11278144px" y2="1.06844754px" gradientUnits="userSpaceOnUse"><stop stop-color="rgba(0, 166, 167, 0)" offset="0%"></stop><stop stop-color="#00D1D2" offset="100%"></stop></linearGradient><linearGradient id="i6" x1="-0.891588703px" y1="1.06844754px" x2="5.50462706px" y2="1.06844754px" gradientUnits="userSpaceOnUse"><stop stop-color="#0FD3D3" offset="0%"></stop><stop stop-color="#DFF4F4" offset="100%"></stop></linearGradient><linearGradient id="i7" x1="1.55639072px" y1="0px" x2="1.55639072px" y2="1.06844754px" gradientUnits="userSpaceOnUse"><stop stop-color="rgba(0, 166, 167, 0)" offset="0%"></stop><stop stop-color="#00D1D2" offset="100%"></stop></linearGradient><linearGradient id="i8" x1="-0.445794351px" y1="1.06844754px" x2="2.75231353px" y2="1.06844754px" gradientUnits="userSpaceOnUse"><stop stop-color="#0FD3D3" offset="0%"></stop><stop stop-color="#DFF4F4" offset="100%"></stop></linearGradient></defs><g transform="translate(-267.0 -109.0)"><g clip-path="url(#i0)"><g transform="translate(267.9999999999984 109.00000000000028)"><g transform="translate(0.0 1.7480930503115806)"><path d="M2.87555705,0 L0.4,0 C0.1790861,4.05812251e-17 -1.93587604e-16,0.1790861 0,0.4 L0,13.8519069 C1.93365258e-15,14.0728208 0.1790861,14.2519069 0.4,14.2519069 L12.1603041,14.2519069 C12.381218,14.2519069 12.5603041,14.0728208 12.5603041,13.8519069 L12.5603041,0.4 C12.5603041,0.1790861 12.381218,-5.40181586e-16 12.1603041,0 L9.88476404,0 L9.88476404,0" stroke="#213032" stroke-width="1.5" fill="none" stroke-miterlimit="10"></path></g><g transform="translate(3.609033228669432 0.0)"><g clip-path="url(#i1)"><polygon points="0,0 5.34223769,0 5.34223769,3.4961861 0,3.4961861 0,0" stroke="none" fill="url(#i2)"></polygon></g><g clip-path="url(#i1)"><path d="M1,0 L4.34223769,0 C4.89452244,-3.23497668e-16 5.34223769,0.44771525 5.34223769,1 L5.34223769,2.4961861 C5.34223769,3.04847085 4.89452244,3.4961861 4.34223769,3.4961861 L1,3.4961861 C0.44771525,3.4961861 6.76353751e-17,3.04847085 0,2.4961861 L0,1 C-6.76353751e-17,0.44771525 0.44771525,-1.20591542e-16 1,0 Z" stroke="url(#i3)" stroke-width="0.4" fill="none" stroke-miterlimit="5"></path></g></g><g transform="translate(3.1673706342662626 6.553282890279661)"><g clip-path="url(#i4)"><polygon points="0,0.534223769 6.22556288,0.534223769 6.22556288,0.534223769 0,0.534223769 0,0.534223769" stroke="none" fill="url(#i5)"></polygon></g><path d="M0,0.534223769 L6.22556288,0.534223769" stroke="url(#i6)" stroke-width="2" fill="none" stroke-linecap="round" stroke-linejoin="round"></path></g><g transform="translate(3.1673706342662635 10.12636262259366)"><g clip-path="url(#i4)"><polygon points="0,0.534223769 3.11278144,0.534223769 3.11278144,0.534223769 0,0.534223769 0,0.534223769" stroke="none" fill="url(#i7)"></polygon></g><path d="M0,0.534223769 L3.11278144,0.534223769" stroke="url(#i8)" stroke-width="2" fill="none" stroke-linecap="round" stroke-linejoin="round"></path></g></g></g></g></svg>