<?xml version="1.0" encoding="UTF-8"?><svg version="1.1" width="16px" height="17px" viewBox="0 0 16.0 17.0" xmlns="http://www.w3.org/2000/svg" xmlns:xlink="http://www.w3.org/1999/xlink"><defs><clipPath id="i0"><path d="M1440,0 L1440,973 L0,973 L0,0 L1440,0 Z"></path></clipPath><clipPath id="i1"><path d="M3.40048739,0 C5.27852472,0 6.80097478,1.52245006 6.80097478,3.40048739 C6.80097478,5.27852472 5.27852472,6.80097478 3.40048739,6.80097478 C1.52245006,6.80097478 0,5.27852472 0,3.40048739 C0,1.52245006 1.52245006,0 3.40048739,0 Z"></path></clipPath><linearGradient id="i2" x1="3.40048739px" y1="0px" x2="3.40048739px" y2="5.3285897px" gradientUnits="userSpaceOnUse"><stop stop-color="#0CD2D2" offset="0%"></stop><stop stop-color="#DFF4F4" offset="100%"></stop></linearGradient><linearGradient id="i3" x1="3.40048739px" y1="0px" x2="3.40048739px" y2="3.40048739px" gradientUnits="userSpaceOnUse"><stop stop-color="#07BBB8" offset="0%"></stop><stop stop-color="rgba(150, 150, 150, 0)" offset="100%"></stop></linearGradient><clipPath id="i4"><path d="M4.4935012,0 C6.97519338,0 8.98700239,2.01180901 8.98700239,4.4935012 C8.98700239,6.97519338 6.97519338,8.98700239 4.4935012,8.98700239 C2.01180901,8.98700239 0,6.97519338 0,4.4935012 C0,2.01180901 2.01180901,0 4.4935012,0 Z"></path></clipPath><linearGradient id="i5" x1="4.4935012px" y1="0px" x2="4.4935012px" y2="7.04135068px" gradientUnits="userSpaceOnUse"><stop stop-color="#0CD2D2" offset="0%"></stop><stop stop-color="#DFF4F4" offset="100%"></stop></linearGradient><linearGradient id="i6" x1="4.4935012px" y1="0px" x2="4.4935012px" y2="4.4935012px" gradientUnits="userSpaceOnUse"><stop stop-color="#07BBB8" offset="0%"></stop><stop stop-color="rgba(150, 150, 150, 0)" offset="100%"></stop></linearGradient></defs><g transform="translate(-267.0 -298.0)"><g clip-path="url(#i0)"><g transform="translate(267.9999999999994 298.0)"><g transform="translate(2.307473587026565 0.0)"><g transform="translate(1.0930138043810045 0.0)"><g clip-path="url(#i1)"><polygon points="0,0 6.80097478,0 6.80097478,6.80097478 0,6.80097478 0,0" stroke="none" fill="url(#i2)"></polygon></g><g clip-path="url(#i1)"><path d="M3.40048739,6.80097478 C5.27852472,6.80097478 6.80097478,5.27852472 6.80097478,3.40048739 C6.80097478,1.52245006 5.27852472,0 3.40048739,0 C1.52245006,0 0,1.52245006 0,3.40048739 C0,5.27852472 1.52245006,6.80097478 3.40048739,6.80097478 Z" stroke="url(#i3)" stroke-width="0.4" fill="none" stroke-miterlimit="5"></path></g></g><g transform="translate(0.0 6.800974782815139)"><g clip-path="url(#i4)"><polygon points="0,0 8.98700239,0 8.98700239,8.98700239 0,8.98700239 0,0" stroke="none" fill="url(#i5)"></polygon></g><g clip-path="url(#i4)"><path d="M4.4935012,8.98700239 C6.97519338,8.98700239 8.98700239,6.97519338 8.98700239,4.4935012 C8.98700239,2.01180901 6.97519338,0 4.4935012,0 C2.01180901,0 0,2.01180901 0,4.4935012 C0,6.97519338 2.01180901,8.98700239 4.4935012,8.98700239 Z" stroke="url(#i6)" stroke-width="0.4" fill="none" stroke-miterlimit="5"></path></g></g></g><g transform="translate(0.0 6.284321738835516)"><path d="M0,0.400000006 L0,8.71567826 C6.76353751e-17,9.26796301 0.44771525,9.71567826 1,9.71567826 L12.6019496,9.71567826 C13.1542343,9.71567826 13.6019496,9.26796301 13.6019496,8.71567826 L13.6019496,0.400000006 C13.6019496,0.179086103 13.4228635,-4.05812257e-17 13.2019496,0 L3.55889308,0 L3.55889308,0 L0.400000006,0 C0.179086103,4.05812257e-17 -2.70541504e-17,0.179086103 0,0.400000006 Z" stroke="#213032" stroke-width="1.5" fill="none" stroke-linejoin="round"></path></g></g></g></g></svg>