<?xml version="1.0" encoding="UTF-8"?><svg version="1.1" width="17px" height="18px" viewBox="0 0 17.0 18.0" xmlns="http://www.w3.org/2000/svg" xmlns:xlink="http://www.w3.org/1999/xlink"><defs><clipPath id="i0"><path d="M1440,0 L1440,973 L0,973 L0,0 L1440,0 Z"></path></clipPath><clipPath id="i1"><path d="M6.91891892,0 C10.7401323,0 13.8378378,3.09770551 13.8378378,6.91891892 C13.8378378,10.7401323 10.7401323,13.8378378 6.91891892,13.8378378 C3.09770551,13.8378378 0,10.7401323 0,6.91891892 C0,3.09770551 3.09770551,0 6.91891892,0 Z"></path></clipPath><linearGradient id="i2" x1="6.91891892px" y1="0px" x2="6.91891892px" y2="10.8419988px" gradientUnits="userSpaceOnUse"><stop stop-color="#0CD2D2" offset="0%"></stop><stop stop-color="#DFF4F4" offset="100%"></stop></linearGradient><linearGradient id="i3" x1="6.91891892px" y1="0px" x2="6.91891892px" y2="6.91891892px" gradientUnits="userSpaceOnUse"><stop stop-color="#07BBB8" offset="0%"></stop><stop stop-color="rgba(150, 150, 150, 0)" offset="100%"></stop></linearGradient></defs><g transform="translate(-265.0 -800.0)"><g clip-path="url(#i0)"><g transform="translate(265.9822330470342 801.5)"><g transform="translate(2.1621621621621623 2.1621621621621623)"><g clip-path="url(#i1)"><polygon points="0,0 13.8378378,0 13.8378378,13.8378378 0,13.8378378 0,0" stroke="none" fill="url(#i2)"></polygon></g><g clip-path="url(#i1)"><path d="M6.91891892,13.8378378 C10.7401323,13.8378378 13.8378378,10.7401323 13.8378378,6.91891892 C13.8378378,3.09770551 10.7401323,0 6.91891892,0 C3.09770551,0 0,3.09770551 0,6.91891892 C0,10.7401323 3.09770551,13.8378378 6.91891892,13.8378378 Z" stroke="url(#i3)" stroke-width="0.4" fill="none" stroke-miterlimit="5"></path></g></g><path d="M0,0.400000006 L0,11.1081081 C1.04869017e-15,11.6603929 0.44771525,12.1081081 1,12.1081081 L11.1081081,12.1081081 C11.6603929,12.1081081 12.1081081,11.6603929 12.1081081,11.1081081 L12.1081081,0.400000006 C12.1081081,0.179086103 11.929022,-4.05812257e-17 11.7081081,0 L3.16803572,0 L3.16803572,0 L0.400000006,0 C0.179086103,9.60923769e-17 2.84570008e-17,0.179086103 0,0.400000006 Z" stroke="#213032" stroke-width="1.5" fill="none" stroke-linejoin="round"></path></g></g></g></svg>