<?xml version="1.0" encoding="UTF-8"?><svg version="1.1" width="20px" height="20px" viewBox="0 0 20.0 20.0" xmlns="http://www.w3.org/2000/svg" xmlns:xlink="http://www.w3.org/1999/xlink"><defs><clipPath id="i0"><path d="M1440,0 L1440,973 L0,973 L0,0 L1440,0 Z"></path></clipPath><clipPath id="i1"><path d="M6.08433541,0 C9.44462107,0 12.1686708,2.72404975 12.1686708,6.08433541 C12.1686708,8.32452585 10.140559,11.4433081 6.08433541,15.4406823 C2.0281118,11.4433081 0,8.32452585 0,6.08433541 C0,2.72404975 2.72404975,0 6.08433541,0 Z"></path></clipPath><linearGradient id="i2" x1="6.08433541px" y1="0px" x2="6.08433541px" y2="12.0978335px" gradientUnits="userSpaceOnUse"><stop stop-color="#0CD2D2" offset="0%"></stop><stop stop-color="#DFF4F4" offset="100%"></stop></linearGradient><linearGradient id="i3" x1="6.08433541px" y1="0px" x2="6.08433541px" y2="7.72034114px" gradientUnits="userSpaceOnUse"><stop stop-color="#07BBB8" offset="0%"></stop><stop stop-color="rgba(150, 150, 150, 0)" offset="100%"></stop></linearGradient></defs><g transform="translate(-263.0 -655.0)"><g clip-path="url(#i0)"><g transform="translate(263.0109665309565 656.5)"><g transform="translate(0.0 2.5593177118137636)"><g clip-path="url(#i1)"><polygon points="0,0 12.1686708,0 12.1686708,15.4406823 0,15.4406823 0,0" stroke="none" fill="url(#i2)"></polygon></g><g clip-path="url(#i1)"><path d="M6.08433541,15.4406823 C10.140559,11.4433081 12.1686708,8.32452585 12.1686708,6.08433541 C12.1686708,2.72404975 9.44462107,0 6.08433541,0 C2.72404975,0 0,2.72404975 0,6.08433541 C0,8.32452585 2.0281118,11.4433081 6.08433541,15.4406823 Z" stroke="url(#i3)" stroke-width="0.4" fill="none" stroke-miterlimit="5"></path></g></g><g transform="translate(4.762908387967349 8.384404281969182e-13)"><g transform=""><path d="M0,6.04744695 L6.82407157,0 L14.2083581,6.04744695" stroke="#203031" stroke-width="1.52" fill="none" stroke-linecap="round" stroke-linejoin="round"></path></g><g transform="translate(1.32142702200583 7.842110641590049)"><path d="M0,0 L0,4.63624262 C6.76353751e-17,5.18852737 0.44771525,5.63624262 1,5.63624262 L10.1490922,5.63624262 C10.7013769,5.63624262 11.1490922,5.18852737 11.1490922,4.63624262 L11.1490922,0 L11.1490922,0" stroke="#203031" stroke-width="1.5" fill="none" stroke-linecap="round" stroke-linejoin="round"></path></g><g transform="translate(12.009584706201931 2.33586289730831)"><path d="M0.460934501,2.31446344 L0.460934501,0" stroke="#203031" stroke-width="1.5" fill="none" stroke-linecap="round" stroke-linejoin="round"></path></g></g></g></g></g></svg>