<?xml version="1.0" encoding="UTF-8"?><svg version="1.1" width="15px" height="17px" viewBox="0 0 15.0 17.0" xmlns="http://www.w3.org/2000/svg" xmlns:xlink="http://www.w3.org/1999/xlink"><defs><clipPath id="i0"><path d="M1440,0 L1440,973 L0,973 L0,0 L1440,0 Z"></path></clipPath><clipPath id="i1"><path d="M5.22556288,0 C5.77784763,-1.01453063e-16 6.22556288,0.44771525 6.22556288,1 L6.22556288,8.06414481 C6.22556288,8.39551567 5.95693372,8.66414483 5.62556285,8.66414483 C5.47107009,8.66414483 5.32253121,8.60455193 5.21087661,8.49777524 L3.11278144,6.49134039 L1.01468627,8.49777524 C0.775198794,8.72680012 0.395394483,8.71831852 0.166369595,8.47883105 C0.0595928975,8.36717645 -1.20232542e-15,8.21863757 0,8.06414481 L0,1 C-2.8967998e-16,0.44771525 0.44771525,1.01453063e-16 1,0 L5.22556288,0 Z"></path></clipPath><linearGradient id="i2" x1="3.11278144px" y1="0px" x2="3.11278144px" y2="9.4681325px" gradientUnits="userSpaceOnUse"><stop stop-color="#00D1D2" offset="0%"></stop><stop stop-color="rgba(0, 166, 167, 0)" offset="100%"></stop></linearGradient><linearGradient id="i3" x1="3.11278144px" y1="0px" x2="3.11278144px" y2="6.91453771px" gradientUnits="userSpaceOnUse"><stop stop-color="#09B3B3" offset="0%"></stop><stop stop-color="rgba(19, 138, 77, 0)" offset="100%"></stop></linearGradient></defs><g transform="translate(-369.0 -109.0)"><g clip-path="url(#i0)"><g transform="translate(370.0 109.0)"><g transform="translate(0.0 0.9820781297285066)"><path d="M3.64106728,0.766014921 L0.4,0.766014921 C0.1790861,0.766014921 -6.41914803e-15,0.945101021 0,1.16601492 L0,14.6179219 C-8.98489491e-16,14.8388358 0.1790861,15.0179219 0.4,15.0179219 L12.1603041,15.0179219 C12.381218,15.0179219 12.5603041,14.8388358 12.5603041,14.6179219 L12.5603041,0 L12.5603041,0" stroke="#213032" stroke-width="1.5" fill="none" stroke-miterlimit="10"></path></g><g transform="translate(4.591051164368764 0.0)"><g clip-path="url(#i1)"><polygon points="0,0 6.22556288,0 6.22556288,8.66414577 0,8.66414577 0,0" stroke="none" fill="url(#i2)"></polygon></g><g clip-path="url(#i1)"><path d="M1,0 L5.22556288,0 C5.77784763,-1.01453063e-16 6.22556288,0.44771525 6.22556288,1 L6.22556288,8.06414481 C6.22556288,8.39551567 5.95693372,8.66414483 5.62556285,8.66414483 C5.47107009,8.66414483 5.32253121,8.60455193 5.21087661,8.49777524 L3.11278144,6.49134039 L3.11278144,6.49134039 L1.01468627,8.49777524 C0.775198794,8.72680012 0.395394483,8.71831852 0.166369595,8.47883105 C0.0595928975,8.36717645 -1.20232542e-15,8.21863757 0,8.06414481 L0,1 C-2.8967998e-16,0.44771525 0.44771525,1.01453063e-16 1,0 Z" stroke="url(#i3)" stroke-width="0.4" fill="none" stroke-miterlimit="5"></path></g></g></g></g></g></svg>