<?xml version="1.0" encoding="UTF-8"?><svg version="1.1" width="27px" height="26px" viewBox="0 0 27.0 26.0" xmlns="http://www.w3.org/2000/svg" xmlns:xlink="http://www.w3.org/1999/xlink"><defs><clipPath id="i0"><path d="M1693,0 L1693,730 L0,730 L0,0 L1693,0 Z"></path></clipPath><clipPath id="i1"><path d="M22,0 C24.209139,-4.05812251e-16 26,1.790861 26,4 L26,22 C26,24.209139 24.209139,26 22,26 L4,26 C1.790861,26 2.705415e-16,24.209139 0,22 L0,4 C-2.705415e-16,1.790861 1.790861,4.05812251e-16 4,0 L22,0 Z"></path></clipPath><clipPath id="i2"><path d="M11.6579357,0.141604996 C11.9836149,0.380424092 12.0540289,0.838040331 11.8152098,1.16371947 L5.48543218,9.79567804 C5.21485666,10.1646636 4.67570154,10.1973274 4.36255979,9.86370525 L0.198074154,5.42685023 C-0.0783153321,5.13238408 -0.0636612958,4.66961415 0.23080486,4.39322466 C0.525271015,4.11683517 0.988040947,4.13148921 1.26443043,4.42595537 L4.82605182,8.22012322 L10.6358212,0.298879025 C10.8746403,-0.0268001181 11.3322566,-0.0972140992 11.6579357,0.141604996 Z"></path></clipPath></defs><g transform="translate(-1464.0 -125.0)"><g clip-path="url(#i0)"><g transform="translate(1464.5 125.0)"><g clip-path="url(#i1)"><polygon points="0,0 26,0 26,26 0,26 0,0" stroke="none" fill="#00BEBD"></polygon><path d="M4,0 L22,0 C24.209139,-4.05812251e-16 26,1.790861 26,4 L26,22 C26,24.209139 24.209139,26 22,26 L4,26 C1.790861,26 2.705415e-16,24.209139 0,22 L0,4 C-2.705415e-16,1.790861 1.790861,4.05812251e-16 4,0 Z" stroke="#00BEBD" stroke-width="2" fill="none" stroke-miterlimit="5"></path></g><g transform="translate(7.021592623951771 7.952739512549642)"><g clip-path="url(#i2)"><polygon points="0,5.55111512e-17 11.9568148,5.55111512e-17 11.9568148,10.094521 0,10.094521 0,5.55111512e-17" stroke="none" fill="#FFFFFF"></polygon></g></g></g></g></g></svg>