<?xml version="1.0" encoding="UTF-8"?><svg version="1.1" width="13px" height="13px" viewBox="0 0 13.0 13.0" xmlns="http://www.w3.org/2000/svg" xmlns:xlink="http://www.w3.org/1999/xlink"><defs><clipPath id="i0"><path d="M1440,0 L1440,900 L0,900 L0,0 L1440,0 Z"></path></clipPath><clipPath id="i1"><path d="M5.29804885,0 C8.22257181,0 10.5960977,2.37352588 10.5960977,5.29804885 C10.5978079,6.5001179 10.1888668,7.66671126 9.43700234,8.60462 L11.3040571,10.3994207 C11.533987,10.6204525 11.5412004,10.9860292 11.3201686,11.2159592 C11.3175366,11.2186971 11.3148777,11.221409 11.3121923,11.2240944 C11.0808738,11.4554129 10.7069704,11.4590524 10.4711929,11.2322806 L8.60462,9.43700234 C7.66671126,10.1888668 6.5001179,10.5978079 5.29804885,10.5960977 C2.37352588,10.5960977 0,8.22257181 0,5.29804885 C0,2.37352588 2.37352588,0 5.29804885,0 Z M5.29804885,1.17734419 C3.02106519,1.17734419 1.17734419,3.02106519 1.17734419,5.29804885 C1.17734419,7.57444384 3.02106519,9.41875861 5.29804885,9.41875861 C6.36968476,9.42044123 7.39954091,9.00321746 8.16782531,8.25612612 L8.25612612,8.16782531 C9.00321746,7.39954091 9.42044123,6.36968476 9.41875861,5.29804885 C9.41875861,3.02106519 7.57444384,1.17734419 5.29804885,1.17734419 Z"></path></clipPath><clipPath id="i2"><path d="M0.28637138,0 C1.96679864,0 3.3290673,1.36226866 3.3290673,3.04269592 C3.3290673,3.20085883 3.20085883,3.3290673 3.04269592,3.3290673 C2.884533,3.3290673 2.75632454,3.20085883 2.75632454,3.04269592 C2.75632454,1.67856585 1.65050145,0.572742761 0.28637138,0.572742761 C0.128208467,0.572742761 0,0.444534294 0,0.28637138 C0,0.128208467 0.128208467,0 0.28637138,0 Z"></path></clipPath></defs><g transform="translate(-545.0 -106.0)"><g clip-path="url(#i0)"><g transform="translate(535.7277274546809 96.50523019106004)"><g transform="translate(10.2573686582914 10.300000000001091)"><g clip-path="url(#i1)"><polygon points="0,0 11.4813366,0 11.4813366,11.4 0,11.4 0,0" stroke="none" fill="#FFFFFF"></polygon></g><path d="M9.43700234,8.60462 L11.3040571,10.3994207 C11.533987,10.6204525 11.5412004,10.9860292 11.3201686,11.2159592 C11.3175366,11.2186971 11.3148777,11.221409 11.3121923,11.2240944 C11.0808738,11.4554129 10.7069704,11.4590524 10.4711929,11.2322806 L8.60462,9.43700234 L8.60462,9.43700234 C7.66671126,10.1888668 6.5001179,10.5978079 5.29804885,10.5960977 C2.37352588,10.5960977 0,8.22257181 0,5.29804885 C0,2.37352588 2.37352588,0 5.29804885,0 C8.22257181,0 10.5960977,2.37352588 10.5960977,5.29804885 C10.5978079,6.5001179 10.1888668,7.66671126 9.43700234,8.60462 Z M8.25612612,8.16782531 C9.00321746,7.39954091 9.42044123,6.36968476 9.41875861,5.29804885 C9.41875861,3.02106519 7.57444384,1.17734419 5.29804885,1.17734419 C3.02106519,1.17734419 1.17734419,3.02106519 1.17734419,5.29804885 C1.17734419,7.57444384 3.02106519,9.41875861 5.29804885,9.41875861 C6.36968476,9.42044123 7.39954091,9.00321746 8.16782531,8.25612612 L8.25612612,8.16782531 L8.25612612,8.16782531 Z" stroke="#01B4B3" stroke-width="0.1" fill="none" stroke-miterlimit="10"></path><g transform="translate(4.795603921043039 2.370932703046492)"><g opacity="55.2544003%"><g clip-path="url(#i2)"><polygon points="0,0 3.3290673,0 3.3290673,3.3290673 0,3.3290673 0,0" stroke="none" fill="#FFFFFF"></polygon></g><path d="M3.3290673,3.04269592 C3.3290673,3.20085883 3.20085883,3.3290673 3.04269592,3.3290673 C2.884533,3.3290673 2.75632454,3.20085883 2.75632454,3.04269592 C2.75632454,1.67856585 1.65050145,0.572742761 0.28637138,0.572742761 C0.128208467,0.572742761 0,0.444534294 0,0.28637138 C0,0.128208467 0.128208467,0 0.28637138,0 C1.96679864,0 3.3290673,1.36226866 3.3290673,3.04269592 Z" stroke="#FFFFFF" stroke-width="0.5" fill="none" stroke-miterlimit="10"></path></g></g></g></g></g></g></svg>