<?xml version="1.0" encoding="UTF-8"?><svg version="1.1" width="12px" height="15px" viewBox="0 0 12.0 15.0" xmlns="http://www.w3.org/2000/svg" xmlns:xlink="http://www.w3.org/1999/xlink"><defs><clipPath id="i0"><path d="M1440,0 L1440,900 L0,900 L0,0 L1440,0 Z"></path></clipPath><clipPath id="i1"><path d="M5.45009602,0 C6.72482853,0 7.92581619,0.500411523 8.83358025,1.40817558 C9.74134431,2.31593964 10.2364883,3.5169273 10.2364883,4.79341564 L10.2364883,5.37108368 C10.6350617,5.64323731 10.9037037,6.10150892 10.9037037,6.61947874 L10.9037037,11.2899863 C10.9037037,12.1222497 10.2206859,12.8 9.3884225,12.8 L1.50474623,12.8 C0.672482853,12.8 0,12.1222497 0,11.2899863 L0,6.61947874 C0,6.10502058 0.254595336,5.6485048 0.649657064,5.37635117 L0.649657064,4.79341564 C0.649657064,3.5169273 1.15358025,2.31593964 2.06134431,1.40817558 C2.96910837,0.500411523 4.17536351,0 5.45009602,0 Z M9.39368999,6.37366255 L1.51001372,6.37366255 C1.37481481,6.37366255 1.26419753,6.48427984 1.26419753,6.61947874 L1.26419753,11.2899863 C1.26419753,11.4251852 1.37481481,11.5358025 1.51001372,11.5358025 L9.39368999,11.5358025 C9.52888889,11.5358025 9.63950617,11.4251852 9.63950617,11.2899863 L9.63950617,6.61947874 C9.63950617,6.48427984 9.52888889,6.37366255 9.39368999,6.37366255 Z M5.4430727,1.26419753 C3.49761317,1.26419753 1.9138546,2.8479561 1.9138546,4.79341564 L1.9138546,5.10946502 L8.97229081,5.10946502 L8.97229081,4.79341564 C8.97229081,2.8479561 7.38853224,1.26419753 5.4430727,1.26419753 Z"></path></clipPath><clipPath id="i2"><path d="M0.632098765,0 C0.981508916,0 1.26419753,0.282688615 1.26419753,0.632098765 L1.26419753,1.8436214 C1.26419753,2.19303155 0.981508916,2.47572016 0.632098765,2.47572016 C0.282688615,2.47572016 0,2.19303155 0,1.8436214 L0,0.632098765 C0,0.282688615 0.282688615,0 0.632098765,0 Z"></path></clipPath></defs><g transform="translate(-1127.0 -105.0)"><g clip-path="url(#i0)"><g transform="translate(1127.888888888888 106.1052301910618)"><g clip-path="url(#i1)"><polygon points="0,0 10.9037037,0 10.9037037,12.8 0,12.8 0,0" stroke="none" fill="currentColor"></polygon></g><path d="M10.2364883,5.37108368 L10.2364883,4.79341564 C10.2364883,3.5169273 9.74134431,2.31593964 8.83358025,1.40817558 C7.92581619,0.500411523 6.72482853,0 5.45009602,0 C4.17536351,0 2.96910837,0.500411523 2.06134431,1.40817558 C1.15358025,2.31593964 0.649657064,3.5169273 0.649657064,4.79341564 L0.649657064,5.37635117 C0.254595336,5.6485048 0,6.10502058 0,6.61947874 L0,11.2899863 C0,12.1222497 0.672482853,12.8 1.50474623,12.8 L9.3884225,12.8 C10.2206859,12.8 10.9037037,12.1222497 10.9037037,11.2899863 L10.9037037,6.61947874 C10.9037037,6.10150892 10.6350617,5.64323731 10.2364883,5.37108368 Z M5.4430727,1.26419753 C7.38853224,1.26419753 8.97229081,2.8479561 8.97229081,4.79341564 L8.97229081,5.10946502 L1.9138546,5.10946502 L1.9138546,4.79341564 C1.9138546,2.8479561 3.49761317,1.26419753 5.4430727,1.26419753 Z M9.63950617,11.2899863 C9.63950617,11.4251852 9.52888889,11.5358025 9.39368999,11.5358025 L1.51001372,11.5358025 C1.37481481,11.5358025 1.26419753,11.4251852 1.26419753,11.2899863 L1.26419753,6.61947874 C1.26419753,6.48427984 1.37481481,6.37366255 1.51001372,6.37366255 L9.39368999,6.37366255 C9.52888889,6.37366255 9.63950617,6.48427984 9.63950617,6.61947874 L9.63950617,11.2899863 Z" stroke="#FFFFFF" stroke-width="0.26" fill="none" stroke-miterlimit="10"></path><g transform="translate(4.828532235939443 7.479835390945663)"><g clip-path="url(#i2)"><polygon points="0,0 1.26419753,0 1.26419753,2.47572016 0,2.47572016 0,0" stroke="none" fill="currentColor"></polygon></g><path d="M0.632098765,2.47572016 C0.282688615,2.47572016 0,2.19303155 0,1.8436214 L0,0.632098765 C0,0.282688615 0.282688615,0 0.632098765,0 C0.981508916,0 1.26419753,0.282688615 1.26419753,0.632098765 L1.26419753,1.8436214 C1.26419753,2.19303155 0.981508916,2.47572016 0.632098765,2.47572016 Z" stroke="#FFFFFF" stroke-width="0.26" fill="none" stroke-miterlimit="10"></path></g></g></g></g></svg>