<?xml version="1.0" encoding="UTF-8"?>
<svg width="14px" height="14px" viewBox="0 0 14 14" version="1.1" xmlns="http://www.w3.org/2000/svg" xmlns:xlink="http://www.w3.org/1999/xlink">
    <title></title>
    <g id="页面-1" stroke="none" stroke-width="1" fill="none" fill-rule="evenodd">
        <g id="会议室预定_日_地点不可选择" transform="translate(-1286.000000, -77.000000)">
            <g id="编组-13" transform="translate(1278.000000, 70.000000)">
                <g id="编组" transform="translate(8.000000, 7.000000)">
                    <polygon id="路径" points="0 0 14 0 14 14 0 14"></polygon>
                    <path d="M7,11.5249545 L9.8875,8.63745454 C11.4820211,7.04277068 11.4819332,4.45742276 9.88730358,2.86284737 C8.29267396,1.26827198 5.70732604,1.26827198 4.11269642,2.86284737 C2.51806679,4.45742276 2.51797885,7.04277068 4.1125,8.63745454 L7,11.5249545 Z M7,13.1746212 L3.28766667,9.46228787 C1.23743261,7.4120287 1.23744618,4.08792425 3.28769698,2.03768182 C5.33794777,-0.0125606071 8.66205223,-0.0125606071 10.712303,2.03768182 C12.7625538,4.08792425 12.7625674,7.4120287 10.7123333,9.46228787 L7,13.1746212 L7,13.1746212 Z M7,6.9166212 C7.64433221,6.9166212 8.16666667,6.39428674 8.16666667,5.74995454 C8.16666667,5.10562233 7.64433221,4.58328787 7,4.58328787 C6.35566779,4.58328787 5.83333333,5.10562233 5.83333333,5.74995454 C5.83333333,6.39428674 6.35566779,6.9166212 7,6.9166212 Z M7,8.08328787 C5.71133558,8.08328787 4.66666667,7.03861895 4.66666667,5.74995454 C4.66666667,4.46129012 5.71133558,3.4166212 7,3.4166212 C8.28866442,3.4166212 9.33333333,4.46129012 9.33333333,5.74995454 C9.33333333,7.03861895 8.28866442,8.08328787 7,8.08328787 Z" id="形状" fill="currentColor" fill-rule="nonzero"></path>
                </g>
            </g>
        </g>
    </g>
</svg>