<?xml version="1.0" encoding="UTF-8"?>
<svg width="16px" height="32px" viewBox="0 0 16 32" version="1.1" xmlns="http://www.w3.org/2000/svg" xmlns:xlink="http://www.w3.org/1999/xlink">
    <title></title>
    <g id="页面-1" stroke="none" stroke-width="1" fill="none" fill-rule="evenodd">
        <g id="弹窗与标注" transform="translate(-276.000000, -98.000000)">
            <g id="编组备份-2" transform="translate(284.000000, 114.000000) rotate(-180.000000) translate(-284.000000, -114.000000) translate(276.000000, 98.000000)">
                <rect id="矩形" x="0" y="0" width="16" height="32" rx="2"></rect>
                <path d="M10.2435534,15.6819805 C10.4388155,15.8772427 10.4388155,16.1938252 10.2435534,16.3890873 L6.70801948,19.9246212 C6.51275734,20.1198833 6.19617485,20.1198833 6.0009127,19.9246212 L5.64735931,19.5710678 C5.45209717,19.3758057 5.45209717,19.0592232 5.64735931,18.863961 L8.4749127,16.035 L5.64735931,13.2071068 C5.45209717,13.0118446 5.45209717,12.6952621 5.64735931,12.5 L6.0009127,12.1464466 C6.19617485,11.9511845 6.51275734,11.9511845 6.70801948,12.1464466 L10.2435534,15.6819805 Z" id="形状结合" fill="currentColor"></path>
            </g>
        </g>
    </g>
</svg>