<?xml version="1.0" encoding="UTF-8"?><svg version="1.1" width="27px" height="26px" viewBox="0 0 27.0 26.0" xmlns="http://www.w3.org/2000/svg" xmlns:xlink="http://www.w3.org/1999/xlink"><defs><clipPath id="i0"><path d="M1693,0 L1693,730 L0,730 L0,0 L1693,0 Z"></path></clipPath><clipPath id="i1"><path d="M22,0 C24.209139,-4.05812251e-16 26,1.790861 26,4 L26,22 C26,24.209139 24.209139,26 22,26 L4,26 C1.790861,26 2.705415e-16,24.209139 0,22 L0,4 C-2.705415e-16,1.790861 1.790861,4.05812251e-16 4,0 L22,0 Z"></path></clipPath><clipPath id="i2"><path d="M1.31073793,0.224887075 L4.983875,3.898375 L8.65812556,0.224887075 C8.93490966,-0.0518970172 9.37043675,-0.0731881012 9.67164284,0.161013823 L9.74397642,0.224887075 C10.0438258,0.524736507 10.0438258,1.01088849 9.74397642,1.31073793 L6.0701875,4.983875 L9.74397642,8.65812556 C10.0438258,8.957975 10.0438258,9.44412698 9.74397642,9.74397642 C9.44412698,10.0438258 8.957975,10.0438258 8.65812556,9.74397642 L4.983875,6.0701875 L1.31073793,9.74397642 C1.03395383,10.0207605 0.598426738,10.0420516 0.297220646,9.80784967 L0.224887075,9.74397642 C-0.0749623582,9.44412698 -0.0749623582,8.957975 0.224887075,8.65812556 L3.898375,4.983875 L0.224887075,1.31073793 C-0.0749623582,1.01088849 -0.0749623582,0.524736507 0.224887075,0.224887075 C0.524736507,-0.0749623582 1.01088849,-0.0749623582 1.31073793,0.224887075 Z"></path></clipPath></defs><g transform="translate(-1496.0 -125.0)"><g clip-path="url(#i0)"><g transform="translate(1496.5 125.0)"><g clip-path="url(#i1)"><polygon points="0,0 26,0 26,26 0,26 0,0" stroke="none" fill="#00BEBD"></polygon><path d="M4,0 L22,0 C24.209139,-4.05812251e-16 26,1.790861 26,4 L26,22 C26,24.209139 24.209139,26 22,26 L4,26 C1.790861,26 2.705415e-16,24.209139 0,22 L0,4 C-2.705415e-16,1.790861 1.790861,4.05812251e-16 4,0 Z" stroke="#00BEBD" stroke-width="2" fill="none" stroke-miterlimit="5"></path></g><g transform="translate(8.015568254841114 8.015568254842982)"><g clip-path="url(#i2)"><polygon points="9.23705556e-14,-5.8009153e-15 9.96886349,-5.8009153e-15 9.96886349,9.96886349 9.23705556e-14,9.96886349 9.23705556e-14,-5.8009153e-15" stroke="none" fill="#FFFFFF"></polygon></g></g></g></g></g></svg>