<?xml version="1.0" encoding="UTF-8"?><svg version="1.1" width="14px" height="14px" viewBox="0 0 14.0 14.0" xmlns="http://www.w3.org/2000/svg" xmlns:xlink="http://www.w3.org/1999/xlink"><defs><clipPath id="i0"><path d="M591,0 L591,341 L0,341 L0,0 L591,0 Z"></path></clipPath><clipPath id="i1"><path d="M7,0 C10.8659932,0 14,3.13400675 14,7 C14,10.8659932 10.8659932,14 7,14 C3.13400675,14 0,10.8659932 0,7 C0,3.13400675 3.13400675,0 7,0 Z M7,1 C3.6862915,1 1,3.6862915 1,7 C1,10.3137085 3.6862915,13 7,13 C10.3137085,13 13,10.3137085 13,7 C13,3.6862915 10.3137085,1 7,1 Z M7,3.1124458 C7.30375661,3.1124458 7.55,3.35868919 7.55,3.6624458 L7.549,6.45 L10.3375542,6.45 C10.6413108,6.45 10.8875542,6.69624339 10.8875542,7 C10.8875542,7.30375661 10.6413108,7.55 10.3375542,7.55 L7.549,7.549 L7.55,10.3375542 C7.55,10.6413108 7.30375661,10.8875542 7,10.8875542 C6.69624339,10.8875542 6.45,10.6413108 6.45,10.3375542 L6.45,7.549 L3.6624458,7.55 C3.35868919,7.55 3.1124458,7.30375661 3.1124458,7 C3.1124458,6.69624339 3.35868919,6.45 3.6624458,6.45 L6.45,6.45 L6.45,3.6624458 C6.45,3.35868919 6.69624339,3.1124458 7,3.1124458 Z"></path></clipPath></defs><g transform="translate(-370.0 -89.0)"><g clip-path="url(#i0)"><g transform="translate(370.0 89.0)"><g clip-path="url(#i1)"><polygon points="0,0 14,0 14,14 0,14 0,0" stroke="none" fill="#00A6A7"></polygon></g></g></g></g></svg>