<?xml version="1.0" encoding="UTF-8"?><svg version="1.1" width="8px" height="8px" viewBox="0 0 10.0 10.0" xmlns="http://www.w3.org/2000/svg" xmlns:xlink="http://www.w3.org/1999/xlink"><defs><clipPath id="i0"><path d="M1693,0 L1693,730 L0,730 L0,0 L1693,0 Z"></path></clipPath><clipPath id="i1"><path d="M4.5,0 C4.77614237,-1.69088438e-17 5,0.223857625 5,0.5 L5,4 L8.5,4 C8.77614237,4 9,4.22385763 9,4.5 C9,4.77614237 8.77614237,5 8.5,5 L5,5 L5,8.5 C5,8.77614237 4.77614237,9 4.5,9 C4.22385763,9 4,8.77614237 4,8.5 L4,5 L0.5,5 C0.223857625,5 0,4.77614237 0,4.5 C0,4.22385763 0.223857625,4 0.5,4 L4,4 L4,0.5 C4,0.223857625 4.22385763,1.69088438e-17 4.5,0 Z"></path></clipPath></defs><g transform="translate(-835.0 -453.0)"><g clip-path="url(#i0)"><g transform="translate(608.2279735682823 388.5)"><g transform="translate(218.0220264317172 56.5)"><g transform="translate(9.187426070673155 8.5)"><g clip-path="url(#i1)"><polygon points="0,0 9,0 9,9 0,9 0,0" stroke="none" fill="currentColor"></polygon></g></g></g></g></g></g></svg>