<?xml version="1.0" encoding="UTF-8"?><svg version="1.1" width="10px" height="10px" viewBox="0 0 10.0 10.0" xmlns="http://www.w3.org/2000/svg" xmlns:xlink="http://www.w3.org/1999/xlink"><defs><clipPath id="i0"><path d="M591,0 L591,341 L0,341 L0,0 L591,0 Z"></path></clipPath><clipPath id="i1"><path d="M8.70753811,0.205025253 C8.98090512,0.478392257 8.98090512,0.921607743 8.70753811,1.19497475 L5.445,4.456 L8.70753811,7.71758862 C8.98090512,7.99095562 8.98090512,8.43417111 8.70753811,8.70753811 C8.43417111,8.98090512 7.99095562,8.98090512 7.71758862,8.70753811 L4.456,5.445 L1.19497475,8.70753811 C0.921607743,8.98090512 0.478392257,8.98090512 0.205025253,8.70753811 C-0.0683417511,8.43417111 -0.0683417511,7.99095562 0.205025253,7.71758862 L3.466,4.456 L0.205025253,1.19497475 C-0.0683417511,0.921607743 -0.0683417511,0.478392257 0.205025253,0.205025253 C0.478392257,-0.0683417511 0.921607743,-0.0683417511 1.19497475,0.205025253 L4.456,3.466 L7.71758862,0.205025253 C7.99095562,-0.0683417511 8.43417111,-0.0683417511 8.70753811,0.205025253 Z"></path></clipPath></defs><g transform="translate(-488.0 -6.0)"><g clip-path="url(#i0)"><g transform="translate(488.3624999999975 6.307173852305823)"><g clip-path="url(#i1)"><polygon points="7.10542736e-15,0 8.91256337,0 8.91256337,8.91256337 7.10542736e-15,8.91256337 7.10542736e-15,0" stroke="none" fill="#515C6B"></polygon></g></g></g></g></svg>