<?xml version="1.0" encoding="UTF-8"?><svg version="1.1" width="14px" height="14px" viewBox="0 0 13.0 12.0" xmlns="http://www.w3.org/2000/svg" xmlns:xlink="http://www.w3.org/1999/xlink"><defs><clipPath id="i0"><path d="M591,0 L591,341 L0,341 L0,0 L591,0 Z"></path></clipPath><clipPath id="i1"><path d="M6.67038382,0 C7.00175467,0 7.27038382,0.26862915 7.27038382,0.6 C7.27038382,0.93137085 7.00175467,1.2 6.67038382,1.2 L1.6,1.2 C1.3790861,1.2 1.2,1.3790861 1.2,1.6 L1.2,8.2 C1.2,8.97319865 1.82680135,9.6 2.6,9.6 L8.6588847,9.6 C9.43208335,9.6 10.0588847,8.97319865 10.0588847,8.2 L10.0588847,6.75408348 C10.0588847,6.42271263 10.3275139,6.15408348 10.6588847,6.15408348 C10.9902556,6.15408348 11.2588847,6.42271263 11.2588847,6.75408348 L11.2588847,8.2 C11.2588847,9.63594035 10.0948251,10.8 8.6588847,10.8 L2.6,10.8 C1.16405965,10.8 0,9.63594035 0,8.2 L0,1.6 C0,0.7163444 0.7163444,0 1.6,0 L6.67038382,0 Z M11.6801616,0.983940465 C11.9134241,1.21930245 11.9117221,1.59919762 11.6763601,1.83246009 L6.6507933,6.8131969 C6.41543131,7.04645937 6.03553614,7.04475737 5.80227367,6.80939538 C5.56901121,6.5740334 5.57071321,6.19413823 5.80607519,5.96087576 L10.831642,0.980138946 C11.067004,0.746876483 11.4468992,0.748578481 11.6801616,0.983940465 Z"></path></clipPath></defs><g transform="translate(-434.0 -5.0)"><g clip-path="url(#i0)"><g transform="translate(434.89324943162137 5.863455535170033)"><g clip-path="url(#i1)"><polygon points="0,0 11.8540011,0 11.8540011,10.8 0,10.8 0,0" stroke="none" fill="#515C6B"></polygon></g></g></g></g></svg>