<?xml version="1.0" encoding="UTF-8"?><svg version="1.1" width="14px" height="14px" viewBox="0 0 13.0 12.0" xmlns="http://www.w3.org/2000/svg" xmlns:xlink="http://www.w3.org/1999/xlink"><defs><clipPath id="i0"><path d="M591,0 L591,341 L0,341 L0,0 L591,0 Z"></path></clipPath><clipPath id="i1"><path d="M11.8572307,2.82888746 C12.1886015,2.82888746 12.4572307,3.09751661 12.4572307,3.42888746 C12.4572307,3.76025831 12.1886015,4.02888746 11.8572307,4.02888746 L11.182,4.028 L11.1829437,8.62793407 C11.1829437,10.0638744 10.0188841,11.2279341 8.58294374,11.2279341 L3.67422209,11.2279341 C2.23828174,11.2279341 1.07422209,10.0638744 1.07422209,8.62793407 L1.074,4.028 L0.6,4.02888746 C0.26862915,4.02888746 0,3.76025831 0,3.42888746 C0,3.09751661 0.26862915,2.82888746 0.6,2.82888746 L11.8572307,2.82888746 Z M9.982,4.028 L2.274,4.028 L2.27422209,8.62793407 C2.27422209,9.40113272 2.90102344,10.0279341 3.67422209,10.0279341 L8.58294374,10.0279341 C9.35614239,10.0279341 9.98294374,9.40113272 9.98294374,8.62793407 L9.982,4.028 Z M7.47130066,6.42841077 C7.80267151,6.42841077 8.07130066,6.69703992 8.07130066,7.02841077 C8.07130066,7.35978162 7.80267151,7.62841077 7.47130066,7.62841077 L5.04423658,7.62841077 C4.71286573,7.62841077 4.44423658,7.35978162 4.44423658,7.02841077 C4.44423658,6.69703992 4.71286573,6.42841077 5.04423658,6.42841077 L7.47130066,6.42841077 Z M8.26629156,0 C8.59766241,0 8.86629156,0.26862915 8.86629156,0.6 C8.86629156,0.93137085 8.59766241,1.2 8.26629156,1.2 L4.15725467,1.2 C3.82588382,1.2 3.55725467,0.93137085 3.55725467,0.6 C3.55725467,0.26862915 3.82588382,0 4.15725467,0 L8.26629156,0 Z"></path></clipPath></defs><g transform="translate(-461.0 -5.0)"><g clip-path="url(#i0)"><g transform="translate(461.3762599086076 5.435521463165061)"><g clip-path="url(#i1)"><polygon points="0,0 12.4572307,0 12.4572307,11.2279341 0,11.2279341 0,0" stroke="none" fill="#515C6B"></polygon></g></g></g></g></svg>