<?xml version="1.0" standalone="no"?><!DOCTYPE svg PUBLIC "-//W3C//DTD SVG 1.1//EN" "http://www.w3.org/Graphics/SVG/1.1/DTD/svg11.dtd"><svg t="1638410431087" class="icon" viewBox="0 0 1024 1024" version="1.1" xmlns="http://www.w3.org/2000/svg" p-id="883" xmlns:xlink="http://www.w3.org/1999/xlink" width="200" height="200"><defs><style type="text/css"></style></defs><path d="M840.12499981 725.0416663c-14.06250027 0-28.12499973-4.68750009-37.49999991-14.06249945L544.81249981 406.29166667c-9.37500018-4.68750009-14.06250027-9.37500018-28.12499972-9.37500018-4.68750009 0-18.75000037 4.68750009-23.43750045 9.37500018l-271.87499954 300.00000009c-18.75000037 18.75000037-46.87500009 18.75000037-65.62500047 4.6875001-18.75000037-18.75000037-18.75000037-46.87500009-4.68749926-65.62500046l271.87499954-300.0000001c23.43749963-28.12499973 60.93750037-42.1875 98.43750027-42.1875s70.31249973 18.75000037 98.43749945 46.8750001l257.8125001 300.00000009c18.75000037 18.75000037 14.06250027 46.87500009-4.6875001 65.62500045-9.37500018 4.68750009-23.43749963 9.37500018-32.81249982 9.37499936z" fill="#00BEBD" p-id="884"></path></svg>