<?xml version="1.0" encoding="UTF-8"?>
<svg width="180px" height="180px" viewBox="0 0 180 180" version="1.1" xmlns="http://www.w3.org/2000/svg" xmlns:xlink="http://www.w3.org/1999/xlink">
    <title>编组 4</title>
    <g id="页面-1" stroke="none" stroke-width="1" fill="none" fill-rule="evenodd">
        <g id="未开始状态页" transform="translate(-634.000000, -341.000000)">
            <g id="编组-4" transform="translate(634.000000, 341.000000)">
                <rect id="矩形" x="0" y="0" width="180" height="180"></rect>
                <g id="编组-43" transform="translate(13.000000, 44.000000)">
                    <rect id="矩形备份-7" fill="#F0F2F4" x="14" y="0" width="130" height="98"></rect>
                    <path d="M66.7978773,103.412205 C53.9352346,83.2016285 37.9474724,71.2243833 18.8345906,67.4804694 C-9.83473194,61.8645985 14.294264,108.543003 44.548989,49.412205" id="路径-9" stroke="#333333" stroke-width="1.2" transform="translate(36.398939, 76.412205) rotate(14.000000) translate(-36.398939, -76.412205) "></path>
                    <rect id="矩形备份-40" fill="#FFFFFF" x="22.0244718" y="8" width="12" height="4"></rect>
                    <g id="编组-34备份-2" transform="translate(60.000000, 43.000000)" fill="#FFAB40">
                        <circle id="椭圆形" transform="translate(3.500000, 7.500000) scale(1, -1) translate(-3.500000, -7.500000) " cx="3.5" cy="7.5" r="3.5"></circle>
                        <circle id="椭圆形备份-10" transform="translate(32.000000, 6.000000) scale(1, -1) translate(-32.000000, -6.000000) " cx="32" cy="6" r="6"></circle>
                        <circle id="椭圆形备份-11" transform="translate(16.500000, 7.500000) scale(1, -1) translate(-16.500000, -7.500000) " cx="16.5" cy="7.5" r="3.5"></circle>
                    </g>
                    <g id="编组-3" transform="translate(116.524472, 79.000000)">
                        <circle id="椭圆形" fill="#00BEBD" cx="16" cy="16" r="16"></circle>
                        <circle id="椭圆形备份-15" fill="#FFFFFF" cx="6.66666667" cy="12.5" r="2.5"></circle>
                        <circle id="椭圆形备份-16" fill="#FFFFFF" cx="16.6666667" cy="12.5" r="2.5"></circle>
                    </g>
                </g>
            </g>
        </g>
    </g>
</svg>