<?xml version="1.0" encoding="UTF-8"?><svg version="1.1" width="16px" height="17px" viewBox="0 0 16.0 17.0" xmlns="http://www.w3.org/2000/svg" xmlns:xlink="http://www.w3.org/1999/xlink"><defs><clipPath id="i0"><path d="M1440,0 L1440,900 L0,900 L0,0 L1440,0 Z"></path></clipPath><clipPath id="i1"><path d="M11.9871795,0 C12.8542334,0 13.685775,0.344435827 14.2988747,0.957535529 C14.9119744,1.57063523 15.2564102,2.40217687 15.2564102,3.26923079 L15.2564102,13.7307692 C15.2564102,14.5978231 14.9119744,15.4293648 14.2988747,16.0424645 C13.685775,16.6555642 12.8542334,17 11.9871795,17 L3.26923076,17 C2.40217685,17 1.57063521,16.6555642 0.957535512,16.0424645 C0.344435814,15.4293648 0,14.5978231 0,13.7307692 L0,3.26923079 C0,2.40217687 0.344435814,1.57063523 0.957535512,0.957535529 C1.57063521,0.344435827 2.40217685,0 3.26923076,0 L11.9871795,0 Z M11.9871795,1.30769231 L3.26923076,1.30769231 C2.74899841,1.30769231 2.25007343,1.51435381 1.88221361,1.88221363 C1.51435379,2.25007345 1.30769231,2.74899844 1.30769231,3.26923079 L1.30769231,13.7307692 C1.30769231,14.2510016 1.51435379,14.7499265 1.88221361,15.1177864 C2.25007343,15.4856462 2.74899841,15.6923077 3.26923076,15.6923077 L11.9871795,15.6923077 C12.5074118,15.6923077 13.0063368,15.4856462 13.3741966,15.1177864 C13.7420564,14.7499265 13.9487179,14.2510016 13.9487179,13.7307692 L13.9487179,3.26923079 C13.9487179,2.74899844 13.7420564,2.25007345 13.3741966,1.88221363 C13.0063368,1.51435381 12.5074118,1.30769231 11.9871795,1.30769231 Z"></path></clipPath><clipPath id="i2"><path d="M7.62820512,5.23076924 C7.98931438,5.23076924 8.28205127,5.52350613 8.28205127,5.88461539 C8.28205127,6.24572465 7.98931438,6.53846155 7.62820512,6.53846155 L0.653846167,6.53846155 C0.48043538,6.53846155 0.314127045,6.46957439 0.191507101,6.34695445 C0.0688871579,6.2243345 2.66453526e-15,6.05802617 2.66453526e-15,5.88461538 C2.66453526e-15,5.7112046 0.068887167,5.54489627 0.19150711,5.42227633 C0.314127053,5.29965639 0.480435384,5.23076924 0.653846167,5.23076924 L7.62820512,5.23076924 Z M5.88461538,2.61538462 C6.24572464,2.61538462 6.53846154,2.90812151 6.53846154,3.26923077 C6.53846154,3.63034003 6.24572464,3.92307693 5.88461538,3.92307693 L0.653846167,3.92307693 C0.48043538,3.92307693 0.314127045,3.85418977 0.191507101,3.73156983 C0.0688871579,3.60894988 0,3.44264155 0,3.26923076 C0,3.09581998 0.068887167,2.92951165 0.19150711,2.80689171 C0.314127053,2.68427177 0.480435384,2.61538462 0.653846167,2.61538462 L5.88461538,2.61538462 Z M4.14102564,0 C4.5021349,0 4.7948718,0.292736895 4.7948718,0.653846155 C4.7948718,1.01495541 4.5021349,1.30769231 4.14102564,1.30769231 L0.653846167,1.30769231 C0.480435384,1.30769231 0.314127053,1.23880515 0.19150711,1.11618522 C0.068887167,0.993565278 2.66453526e-15,0.82725695 2.66453526e-15,0.653846167 C2.66453526e-15,0.48043538 0.0688871579,0.314127045 0.191507101,0.191507101 C0.314127045,0.0688871579 0.48043538,0 0.653846167,0 L4.14102564,0 Z"></path></clipPath></defs><g transform="translate(-434.0 -93.0)"><g clip-path="url(#i0)"><g transform="translate(434.0 89.0)"><g transform="translate(0.0 4.0)"><g clip-path="url(#i1)"><polygon points="0,0 15.2564102,0 15.2564102,17 0,17 0,0" stroke="none" fill="currentColor"></polygon></g><g transform="translate(3.4871794761775154 4.358974357141051)"><g clip-path="url(#i2)"><polygon points="0,0 8.28205127,0 8.28205127,6.53846155 0,6.53846155 0,0" stroke="none" fill="currentColor"></polygon></g></g></g></g></g></g></svg>