<?xml version="1.0" encoding="UTF-8"?><svg version="1.1" width="20px" height="21px" viewBox="0 0 20.0 21.0" xmlns="http://www.w3.org/2000/svg" xmlns:xlink="http://www.w3.org/1999/xlink"><defs><clipPath id="i0"><path d="M1440,0 L1440,900 L0,900 L0,0 L1440,0 Z"></path></clipPath><clipPath id="i1"><path d="M1.5,0 C1.77614237,-5.07265313e-17 2,0.223857625 2,0.5 L2,13.5 C2,13.7761424 1.77614237,14 1.5,14 L0.5,14 C0.223857625,14 3.38176876e-17,13.7761424 0,13.5 L0,0.5 C-3.38176876e-17,0.223857625 0.223857625,5.07265313e-17 0.5,0 L1.5,0 Z"></path></clipPath></defs><g transform="translate(-710.0 -395.0)"><g clip-path="url(#i0)"><g transform="translate(456.0 273.5)"><g transform="translate(24.0 74.0)"><g transform="translate(230.0 48.0)"><g transform="translate(3.0 3.0)"><g transform="translate(6.0 0.0)"><g clip-path="url(#i1)"><polygon points="0,0 2,0 2,14 0,14 0,0" stroke="none" fill="#4E5869"></polygon></g></g><g transform="translate(0.0 8.0) rotate(-90.0)"><g clip-path="url(#i1)"><polygon points="0,0 2,0 2,14 0,14 0,0" stroke="none" fill="#4E5869"></polygon></g></g></g></g></g></g></g></g></svg>