<?xml version="1.0" encoding="UTF-8"?>
<svg width="24px" height="24px" viewBox="0 0 24 24" version="1.1" xmlns="http://www.w3.org/2000/svg" xmlns:xlink="http://www.w3.org/1999/xlink">
    <title>编组</title>
    <g id="页面-1" stroke="none" stroke-width="1" fill="none" fill-rule="evenodd">
        <g id="状态_不合适操作Hover" transform="translate(-1179.000000, -188.000000)">
            <g id="编组-10" transform="translate(1080.000000, 102.000000)">
                <g id="编组" transform="translate(99.000000, 86.000000)">
                    <polygon id="路径" points="0 0 24 0 24 24 0 24"></polygon>
                    <path d="M17.9998333,15.5 L17.999,18 L17.999,18 L20.5,18 C20.7761424,18 21,18.2238576 21,18.5 L21,19.5 C21,19.7761424 20.7761424,20 20.5,20 L17.999,20 L17.999,20 L17.9998333,22.5 C18.000092,22.7761423 17.776309,23.0000746 17.5001667,23.0001666 C17.5001111,23.0001666 17.5000556,23.0001666 17.5,23 L16.5,23 C16.2239227,22.9998333 16.0000921,22.7760772 15.9998333,22.5 L15.999,20 L15.999,20 L13.5,20 C13.2238576,20 13,19.7761424 13,19.5 L13,18.5 C13,18.2238576 13.2238576,18 13.5,18 L15.999,18 L15.999,18 L15.9998333,15.5 C16.0000921,15.2239228 16.2239227,15.0001667 16.5,15 L17.5,15 C17.7761424,14.9998334 18,15.223691 18,15.4998334 C18,15.4998889 18,15.4999445 17.9998333,15.5 Z M11,18.5 L11,19.5 C11,19.7761424 10.7761424,20 10.5,20 L3.5,20 C3.22385763,20 3,19.7761424 3,19.5 L3,18.5 C3,18.2238576 3.22385763,18 3.5,18 L10.5,18 C10.7761424,18 11,18.2238576 11,18.5 Z M21,11.5 L21,12.5 C21,12.7761424 20.7761424,13 20.5,13 L3.5,13 C3.22385763,13 3,12.7761424 3,12.5 L3,11.5 C3,11.2238576 3.22385763,11 3.5,11 L20.5,11 C20.7761424,11 21,11.2238576 21,11.5 Z M21,4.5 L21,5.5 C21,5.77614237 20.7761424,6 20.5,6 L3.5,6 C3.22385763,6 3,5.77614237 3,5.5 L3,4.5 C3,4.22385763 3.22385763,4 3.5,4 L20.5,4 C20.7761424,4 21,4.22385763 21,4.5 Z" id="形状" fill="currentColor" fill-rule="nonzero"></path>
                </g>
            </g>
        </g>
    </g>
</svg>