<?xml version="1.0" encoding="UTF-8"?>
<svg width="16px" height="5px" viewBox="0 0 16 5" version="1.1" xmlns="http://www.w3.org/2000/svg" xmlns:xlink="http://www.w3.org/1999/xlink">
    <title></title>
    <g id="页面-1" stroke="none" stroke-width="1" fill="none" fill-rule="evenodd">
        <g id="招聘总揽备份-2" transform="translate(-523.000000, -649.000000)" fill="#C9CDD4">
            <g id="编组-16" transform="translate(202.000000, 605.000000)">
                <path d="M327.593025,44.0010911 C327.71241,44.0010911 327.829081,44.0367062 327.928113,44.1033805 L330.748538,46.0022573 C331.023416,46.1873214 331.096225,46.5601782 330.911161,46.8350562 C330.867946,46.8992427 330.812725,46.9544644 330.748538,46.9976786 L327.928113,48.8965554 C327.653235,49.0816196 327.280379,49.008811 327.095314,48.733933 C327.02864,48.634901 326.993025,48.5182299 326.993025,48.3988448 L326.993025,44.6010911 C326.993025,44.2697202 327.261654,44.0010911 327.593025,44.0010911 Z M333.58605,44.0010911 C333.705435,44.0010911 333.822106,44.0367062 333.921138,44.1033805 L336.741563,46.0022573 C337.016441,46.1873214 337.08925,46.5601782 336.904186,46.8350562 C336.860971,46.8992427 336.80575,46.9544644 336.741563,46.9976786 L333.921138,48.8965554 C333.64626,49.0816196 333.273404,49.008811 333.088339,48.733933 C333.021665,48.634901 332.98605,48.5182299 332.98605,48.3988448 L332.98605,44.6010911 C332.98605,44.2697202 333.254679,44.0010911 333.58605,44.0010911 Z M321.6,44.0010911 C321.719385,44.0010911 321.836056,44.0367062 321.935088,44.1033805 L324.755513,46.0022573 C325.030391,46.1873214 325.1032,46.5601782 324.918136,46.8350562 C324.874921,46.8992427 324.8197,46.9544644 324.755513,46.9976786 L321.935088,48.8965554 C321.66021,49.0816196 321.287353,49.008811 321.102289,48.733933 C321.035615,48.634901 321,48.5182299 321,48.3988448 L321,44.6010911 C321,44.2697202 321.268629,44.0010911 321.6,44.0010911 Z" id="形状结合"></path>
            </g>
        </g>
    </g>
</svg>