<?xml version="1.0" encoding="UTF-8"?>
<svg width="14px" height="14px" viewBox="0 0 14 14" version="1.1" xmlns="http://www.w3.org/2000/svg" xmlns:xlink="http://www.w3.org/1999/xlink">
    <title></title>
    <g id="ICON/14px/沟通" stroke="none" stroke-width="1" fill="none" fill-rule="evenodd">
        <g id="编组">
            <polygon id="路径" points="0 0 14 0 14 14 0 14"></polygon>
            <path d="M3.76541667,10.8333333 L1.16666667,12.875 L1.16666667,2.08333333 C1.16666667,1.76116723 1.4278339,1.5 1.75,1.5 L12.25,1.5 C12.5721661,1.5 12.8333333,1.76116723 12.8333333,2.08333333 L12.8333333,10.25 C12.8333333,10.5721661 12.5721661,10.8333333 12.25,10.8333333 L3.76541667,10.8333333 Z M3.36175,9.66666667 L11.6666667,9.66666667 L11.6666667,2.66666667 L2.33333333,2.66666667 L2.33333333,10.4745833 L3.36175,9.66666667 Z M6.41666667,5.58333333 L7.58333333,5.58333333 L7.58333333,6.75 L6.41666667,6.75 L6.41666667,5.58333333 Z M4.08333333,5.58333333 L5.25,5.58333333 L5.25,6.75 L4.08333333,6.75 L4.08333333,5.58333333 Z M8.75,5.58333333 L9.91666667,5.58333333 L9.91666667,6.75 L8.75,6.75 L8.75,5.58333333 Z" id="形状" fill="#00CFC5" fill-rule="nonzero"></path>
        </g>
    </g>
</svg>