<?xml version="1.0" encoding="UTF-8"?>
<svg width="16px" height="16px" viewBox="0 0 16 16" version="1.1" xmlns="http://www.w3.org/2000/svg" xmlns:xlink="http://www.w3.org/1999/xlink">
    <title></title>
    <g id="ICON/16px/删除_Normal" stroke="none" stroke-width="1" fill="none" fill-rule="evenodd">
        <g id="编组">
            <polygon id="路径" points="0 0 16 0 16 16 0 16"></polygon>
            <path d="M14.6666667,3.33333333 L14.6666667,4.66666667 L13.3333333,4.66666667 L13.3333333,13.3333333 C13.3333333,14.069713 12.7363797,14.6666667 12,14.6666667 L4,14.6666667 C3.26362033,14.6666667 2.66666667,14.069713 2.66666667,13.3333333 L2.66666667,4.66666667 L1.33333333,4.66666667 L1.33333333,3.33333333 L14.6666667,3.33333333 Z M12,4.66666667 L4,4.66666667 L4,13.3333333 L12,13.3333333 L12,4.66666667 Z M7.33333333,6 L7.33333333,11.3333333 L6,11.3333333 L6,6 L7.33333333,6 Z M10,6 L10,11.3333333 L8.66666667,11.3333333 L8.66666667,6 L10,6 Z M11.3333333,1.33333333 L11.3333333,2.66666667 L4.66666667,2.66666667 L4.66666667,1.33333333 L11.3333333,1.33333333 Z" id="形状结合" fill="currentColor" fill-rule="nonzero"></path>
        </g>
    </g>
</svg>