<?xml version="1.0" encoding="UTF-8"?>
<svg width="24px" height="24px" viewBox="0 0 24 24" version="1.1" xmlns="http://www.w3.org/2000/svg" xmlns:xlink="http://www.w3.org/1999/xlink">
    <title></title>
    <g id="" stroke="none" stroke-width="1" fill="none" fill-rule="evenodd">
        <g id="状态_不合适操作Hover" transform="translate(-1287.000000, -188.000000)">
            <g id="编组-10" transform="translate(1080.000000, 102.000000)">
                <g id="编组-4" transform="translate(207.000000, 86.000000)">
                    <polygon id="路径" transform="translate(12.000000, 12.000000) rotate(-360.000000) translate(-12.000000, -12.000000) " points="0 0 24 0 24 24 0 24"></polygon>
                    <path d="M10.5857864,12 L8.18162338,9.59583694 C7.94730881,9.36152237 7.94730881,8.98162338 8.18162338,8.74730881 L8.74730881,8.18162338 C8.98162338,7.94730881 9.36152237,7.94730881 9.59583694,8.18162338 L12,10.5857864 L12,10.5857864 L14.4041631,8.18162338 C14.6384776,7.94730881 15.0183766,7.94730881 15.2526912,8.18162338 L15.8183766,8.74730881 C16.0526912,8.98162338 16.0526912,9.36152237 15.8183766,9.59583694 L13.4142136,12 L13.4142136,12 L15.8183766,14.4041631 C16.0526912,14.6384776 16.0526912,15.0183766 15.8183766,15.2526912 L15.2526912,15.8183766 C15.0183766,16.0526912 14.6384776,16.0526912 14.4041631,15.8183766 L12,13.4142136 L12,13.4142136 L9.59583694,15.8183766 C9.36152237,16.0526912 8.98162338,16.0526912 8.74730881,15.8183766 L8.18162338,15.2526912 C7.94730881,15.0183766 7.94730881,14.6384776 8.18162338,14.4041631 L10.5857864,12 L10.5857864,12 Z M19.0710678,19.0710678 C15.1657171,22.9764186 8.83428294,22.9764186 4.92893219,19.0710678 C1.02358144,15.1657171 1.02358144,8.83428294 4.92893219,4.92893219 C8.83428294,1.02358144 15.1657171,1.02358144 19.0710678,4.92893219 C22.9764186,8.83428294 22.9764186,15.1657171 19.0710678,19.0710678 Z M17.6568542,17.6568542 C20.7810486,14.5326599 20.7810486,9.46734008 17.6568542,6.34314575 C14.5326599,3.21895142 9.46734008,3.21895142 6.34314575,6.34314575 C3.21895142,9.46734008 3.21895142,14.5326599 6.34314575,17.6568542 C9.46734008,20.7810486 14.5326599,20.7810486 17.6568542,17.6568542 Z" id="形状" fill="currentColor" fill-rule="nonzero"></path>
                </g>
            </g>
        </g>
    </g>
</svg>