<?xml version="1.0" encoding="UTF-8"?>
<svg width="14px" height="14px" viewBox="0 0 14 14" version="1.1" xmlns="http://www.w3.org/2000/svg" xmlns:xlink="http://www.w3.org/1999/xlink">
    <title></title>
    <g id="ICON/14px/评价" stroke="none" stroke-width="1" fill="none" fill-rule="evenodd">
        <g id="编组">
            <polygon id="路径" points="0 0 14 0 14 14 0 14"></polygon>
            <path d="M9.77491667,1.625 L8.60825,2.79166667 L2.91666667,2.79166667 L2.91666667,10.9583333 L11.0833333,10.9583333 L11.0833333,5.26675 L12.25,4.10008333 L12.25,11.5416667 C12.25,11.8638328 11.9888328,12.125 11.6666667,12.125 L2.33333333,12.125 C2.01116723,12.125 1.75,11.8638328 1.75,11.5416667 L1.75,2.20833333 C1.75,1.88616723 2.01116723,1.625 2.33333333,1.625 L9.77491667,1.625 L9.77491667,1.625 Z M11.9495833,1.1 L12.775,1.926 L7.413,7.288 L6.58933333,7.28975 L6.58816667,6.46316667 L11.9495833,1.1 L11.9495833,1.1 Z" id="形状" fill="currentColor" fill-rule="nonzero"></path>
        </g>
    </g>
</svg>