<svg width="16" height="17" viewBox="0 0 16 17" fill="none" xmlns="http://www.w3.org/2000/svg">
<path d="M8 2.172C8.78793 2.172 9.56815 2.32719 10.2961 2.62872C11.0241 2.93025 11.6855 3.37221 12.2426 3.92936C12.7998 4.48651 13.2417 5.14794 13.5433 5.8759C13.8448 6.60385 14 7.38407 14 8.172C14 8.95993 13.8448 9.74015 13.5433 10.4681C13.2417 11.1961 12.7998 11.8575 12.2426 12.4146C11.6855 12.9718 11.0241 13.4137 10.2961 13.7153C9.56815 14.0168 8.78793 14.172 8 14.172C7.21207 14.172 6.43185 14.0168 5.7039 13.7153C4.97594 13.4137 4.31451 12.9718 3.75736 12.4146C3.20021 11.8575 2.75825 11.196 2.45672 10.4681C2.15519 9.74014 2 8.95993 2 8.17199C2 7.38406 2.1552 6.60385 2.45672 5.87589C2.75825 5.14794 3.20021 4.48651 3.75736 3.92935C4.31451 3.3722 4.97595 2.93025 5.7039 2.62872C6.43186 2.32719 7.21207 2.172 8 2.172L8 2.172Z" stroke="url(#paint0_angular_74_17523)" stroke-width="4"/>
<defs>
<radialGradient id="paint0_angular_74_17523" cx="0" cy="0" r="1" gradientUnits="userSpaceOnUse" gradientTransform="translate(8 8.172) rotate(90) scale(8)">
<stop offset="0.00194762" stop-color="#00BEBD"/>
<stop offset="1" stop-color="#00BEBD" stop-opacity="0"/>
</radialGradient>
</defs>
</svg>
