<?xml version="1.0" encoding="UTF-8"?>
<svg width="14px" height="14px" viewBox="0 0 14 14" version="1.1" xmlns="http://www.w3.org/2000/svg" xmlns:xlink="http://www.w3.org/1999/xlink">
    <!-- Generator: Sketch 59.1 (86144) - https://sketch.com -->
    <title></title>
    <desc>Created with Sketch.</desc>
    <g id="页面-1" stroke="none" stroke-width="1" fill="none" fill-rule="evenodd">
        <g id="管理范围设置备份-12" transform="translate(-217.000000, -132.000000)" fill="#D1D4DB">
            <g id="编组-11" transform="translate(217.000000, 95.000000)">
                <path d="M7,37 C10.8659932,37 14,40.1340068 14,44 C14,47.8659932 10.8659932,51 7,51 C3.13400675,51 4.73447626e-16,47.8659932 0,44 C-4.73447626e-16,40.1340068 3.13400675,37 7,37 Z M10.5,43.3 L3.5,43.3 C3.22385763,43.3 3,43.5238576 3,43.8 L3,43.8 L3,44.2 C3,44.4761424 3.22385763,44.7 3.5,44.7 L3.5,44.7 L10.5,44.7 C10.7761424,44.7 11,44.4761424 11,44.2 L11,44.2 L11,43.8 C11,43.5238576 10.7761424,43.3 10.5,43.3 L10.5,43.3 Z" id="合并形状备份-8"></path>
            </g>
        </g>
    </g>
</svg>