<?xml version="1.0" encoding="UTF-8"?>
<svg width="18px" height="18px" viewBox="0 0 18 18" version="1.1" xmlns="http://www.w3.org/2000/svg" xmlns:xlink="http://www.w3.org/1999/xlink">
    <title></title>
    <g id="设计稿" stroke="none" stroke-width="1" fill="none" fill-rule="evenodd">
        <g id="我的考勤" transform="translate(-874.000000, -356.000000)">
            <g id="编组-9" transform="translate(232.000000, 120.000000)">
                <g id="编组-5" transform="translate(642.000000, 236.000000)">
                    <circle id="椭圆形" fill="#FFA526" cx="9" cy="9" r="9"></circle>
                    <path d="M7.43,13.46 L7.43,9.46 C7.87,9.86 8.31,10.33 8.75,10.88 L9.27,10.06 C9.02,9.81 8.76,9.57 8.48,9.35 C8.77,9.14 9.04,8.87 9.3,8.53 L8.75,7.99 C8.47,8.38 8.18,8.68 7.88,8.89 C7.73,8.78 7.58,8.68 7.43,8.58 L7.43,8.5 C7.96,7.83 8.35,7.15 8.6,6.47 L8.6,5.7 L7.57,5.7 C7.43,5.25 7.24,4.75 6.99,4.2 L6.07,4.44 C6.27,4.85 6.46,5.27 6.62,5.7 L5.13,5.7 L5.13,6.56 L7.66,6.56 C7.18,7.59 6.24,8.65 4.86,9.75 L5.15,10.71 C5.64,10.32 6.09,9.93 6.5,9.53 L6.5,13.46 L7.43,13.46 Z M11.39,13.44 L11.39,8.49 C11.98,8.93 12.71,9.53 13.58,10.3 L14.14,9.47 C13.22,8.74 12.3,8.09 11.39,7.51 L11.39,4.24 L10.46,4.24 L10.46,13.44 L11.39,13.44 Z" id="补" stroke="#FFFFFF" stroke-width="0.3" fill="#FFFFFF" fill-rule="nonzero"></path>
                </g>
            </g>
        </g>
    </g>
</svg>