<?xml version="1.0" encoding="UTF-8"?><svg version="1.1" width="13px" height="12px" viewBox="0 0 13.0 12.0" xmlns="http://www.w3.org/2000/svg" xmlns:xlink="http://www.w3.org/1999/xlink"><defs><clipPath id="i0"><path d="M10.5044776,0 C11.2776763,0 11.9044776,0.62680135 11.9044776,1.4 L11.9044776,8.18250964 C11.9044776,8.95570829 11.2776763,9.58250964 10.5044776,9.58250964 L8.04942873,9.58280597 L7.05677227,10.790967 C6.59639418,11.3508723 5.79221138,11.4615065 5.20138262,11.0685194 L5.08622667,10.983191 C5.00562748,10.9169189 4.93269007,10.8418436 4.86877345,10.759364 L3.95642873,9.58280597 L1.4,9.58250964 C0.672283624,9.58250964 0.0742479004,9.02728077 0.00640880619,8.31733899 L0,8.18250964 L0,1.4 C0,0.62680135 0.62680135,0 1.4,0 L10.5044776,0 Z M10.5044776,0.8 L1.4,0.8 C1.06862915,0.8 0.8,1.06862915 0.8,1.4 L0.8,8.18250964 C0.8,8.51388049 1.06862915,8.78250964 1.4,8.78250964 L4.34892935,8.78250964 L5.50112434,10.269331 C5.52851718,10.3046794 5.55977607,10.3368545 5.59431858,10.3652568 C5.85027528,10.5757154 6.22837956,10.5388318 6.43883812,10.2828751 L7.67250282,8.78250964 L10.5044776,8.78250964 C10.8358485,8.78250964 11.1044776,8.51388049 11.1044776,8.18250964 L11.1044776,1.4 C11.1044776,1.06862915 10.8358485,0.8 10.5044776,0.8 Z M3.24847792,4.22343693 C3.6217894,4.22343693 3.92441815,4.50675425 3.92441815,4.85624389 C3.92441815,5.20573352 3.6217894,5.48905084 3.24847792,5.48905084 C2.87516644,5.48905084 2.57253769,5.20573352 2.57253769,4.85624389 C2.57253769,4.50675425 2.87516644,4.22343693 3.24847792,4.22343693 Z M5.95223881,4.22343693 C6.32555028,4.22343693 6.62817903,4.50675425 6.62817903,4.85624389 C6.62817903,5.20573352 6.32555028,5.48905084 5.95223881,5.48905084 C5.57892733,5.48905084 5.27629858,5.20573352 5.27629858,4.85624389 C5.27629858,4.50675425 5.57892733,4.22343693 5.95223881,4.22343693 Z M8.65599969,4.22343693 C9.02931117,4.22343693 9.33193992,4.50675425 9.33193992,4.85624389 C9.33193992,5.20573352 9.02931117,5.48905084 8.65599969,5.48905084 C8.28268821,5.48905084 7.98005947,5.20573352 7.98005947,4.85624389 C7.98005947,4.50675425 8.28268821,4.22343693 8.65599969,4.22343693 Z"></path></clipPath></defs><g transform="translate(0.9665712699297728 0.011194029850685183)"><g clip-path="url(#i0)"><polygon points="0,0 11.9044776,0 11.9044776,11.3018464 0,11.3018464 0,0" stroke="none" fill="currentColor"></polygon></g></g></svg>