<?xml version="1.0" encoding="UTF-8"?><svg version="1.1" width="12px" height="12px" viewBox="0 0 12.0 12.0" xmlns="http://www.w3.org/2000/svg" xmlns:xlink="http://www.w3.org/1999/xlink"><defs><clipPath id="i0"><path d="M1440,0 L1440,900 L0,900 L0,0 L1440,0 Z"></path></clipPath><clipPath id="i1"><path d="M6.98860641,0 C7.26474878,0 7.48860641,0.223857625 7.48860641,0.5 L7.48860641,10.2275998 C7.48860641,10.5037422 7.26474878,10.7275998 6.98860641,10.7275998 C6.71246403,10.7275998 6.48860641,10.5037422 6.48860641,10.2275998 L6.488,5.525 L1,5.525 L1,10.2275998 C1,10.5037422 0.776142375,10.7275998 0.5,10.7275998 C0.223857625,10.7275998 0,10.5037422 0,10.2275998 L0,0.5 C0,0.223857625 0.223857625,0 0.5,0 C0.776142375,0 1,0.223857625 1,0.5 L1,4.525 L6.488,4.525 L6.48860641,0.5 C6.48860641,0.223857625 6.71246403,0 6.98860641,0 Z M10.1635563,2.75995005 C10.4396987,2.75995005 10.6635563,2.98380768 10.6635563,3.25995005 L10.6635563,10.2275998 C10.6635563,10.5037422 10.4396987,10.7275998 10.1635563,10.7275998 C9.88741391,10.7275998 9.66355629,10.5037422 9.66355629,10.2275998 L9.66355629,3.25995005 C9.66355629,2.98380768 9.88741391,2.75995005 10.1635563,2.75995005 Z M10.1635563,0.5 C10.5368678,0.5 10.8394965,0.779349613 10.8394965,1.12394482 C10.8394965,1.46854003 10.5368678,1.74788965 10.1635563,1.74788965 C9.79024481,1.74788965 9.48761606,1.46854003 9.48761606,1.12394482 C9.48761606,0.779349613 9.79024481,0.5 10.1635563,0.5 Z"></path></clipPath></defs><g transform="translate(-908.0 -399.0)"><g clip-path="url(#i0)"><g transform="translate(908.7173560708143 399.7668204695936)"><g clip-path="url(#i1)"><polygon points="0,0 10.8394965,0 10.8394965,10.7275998 0,10.7275998 0,0" stroke="none" fill="currentColor"></polygon></g></g></g></g></svg>