<?xml version="1.0" encoding="UTF-8"?><svg version="1.1" width="13px" height="12px" viewBox="0 0 13.0 12.0" xmlns="http://www.w3.org/2000/svg" xmlns:xlink="http://www.w3.org/1999/xlink"><defs><clipPath id="i0"><path d="M1440,0 L1440,900 L0,900 L0,0 L1440,0 Z"></path></clipPath><clipPath id="i1"><path d="M11.3901196,2.44423307 C11.6081294,2.44423307 11.7848221,2.62092579 11.7848221,2.83893555 C11.7848221,3.05694532 11.6081294,3.23363803 11.3901196,3.23363803 L10.5706811,3.23363803 L10.5206811,10.3916143 C10.5206811,11.2233135 9.8439946,11.9 9.01229541,11.9 L2.77252665,11.9 C1.94082746,11.9 1.26414092,11.2233135 1.26414092,10.3916143 L1.26414092,3.28363803 L0.394702479,3.23363803 C0.176692717,3.23363803 0,3.05694532 0,2.83893555 C0,2.62092579 0.176692717,2.44423307 0.394702479,2.44423307 L11.3901196,2.44423307 Z M2.15354589,3.28363803 L2.15354589,10.3916143 C2.15354589,10.7328066 2.4313343,11.010595 2.77252665,11.010595 L9.01214718,11.010595 C9.35333953,11.010595 9.63112794,10.7328066 9.63112794,10.3916143 L9.631,3.333 L2.15354589,3.28363803 Z M4.19364755,4.48986449 C4.41165731,4.48986449 4.58835004,4.66655721 4.58835004,4.88456696 L4.58835004,8.17506886 C4.58835004,8.39307863 4.41165731,8.56977136 4.19364755,8.56977136 C3.97563777,8.56977136 3.79894506,8.39307864 3.79894506,8.17506886 L3.79894506,4.88456696 C3.79894506,4.6665572 3.97563778,4.48986449 4.19364755,4.48986449 Z M7.59087804,4.48986449 C7.80888782,4.48986449 7.98558053,4.6665572 7.98558053,4.88456696 L7.98558053,8.17506886 C7.98558053,8.39307863 7.80888781,8.56977136 7.59087804,8.56977136 C7.37286828,8.56977136 7.19617556,8.39307863 7.19617556,8.17506886 L7.19617556,4.88456696 C7.19617556,4.6665572 7.37286828,4.48986449 7.59087804,4.48986449 Z M8.79587354,0 C9.0138833,0 9.19057602,0.176692717 9.19057602,0.394702479 C9.19057602,0.612712241 9.0138833,0.789404958 8.79587354,0.789404958 L2.98880029,0.789404958 C2.77079053,0.789404958 2.59409781,0.612712241 2.59409781,0.394702479 C2.59409781,0.176692717 2.77079053,0 2.98880029,0 L8.79587354,0 Z"></path></clipPath></defs><g transform="translate(-851.0 -399.0)"><g clip-path="url(#i0)"><g transform="translate(851.75 399.0500000000002)"><g clip-path="url(#i1)"><polygon points="0,0 11.7848221,0 11.7848221,11.9 0,11.9 0,0" stroke="none" fill="currentColor"></polygon></g></g></g></g></svg>