<?xml version="1.0" encoding="UTF-8"?><svg version="1.1" width="12px" height="12px" viewBox="0 0 12.0 12.0" xmlns="http://www.w3.org/2000/svg" xmlns:xlink="http://www.w3.org/1999/xlink"><defs><clipPath id="i0"><path d="M1440,0 L1440,900 L0,900 L0,0 L1440,0 Z"></path></clipPath><clipPath id="i1"><path d="M5.5,0 C5.77614237,-5.07265313e-17 6,0.223857625 6,0.5 L6,1 C6,1.27614237 5.77614237,1.5 5.5,1.5 L0.5,1.5 C0.223857625,1.5 3.38176876e-17,1.27614237 0,1 L0,0.5 C-3.38176876e-17,0.223857625 0.223857625,5.07265313e-17 0.5,0 L5.5,0 Z"></path></clipPath></defs><g transform="translate(-515.0 -131.0)"><g clip-path="url(#i0)"><g transform="translate(511.0 127.0)"><g transform="translate(4.0 4.0)"><g transform="translate(4.463553390593273 4.903805922287113) rotate(44.99999999999997)"><g clip-path="url(#i1)"><polygon points="0,4.54747351e-13 6,4.54747351e-13 6,1.5 0,1.5 0,4.54747351e-13" stroke="none" fill="#4E5869"></polygon></g></g><g transform="translate(3.4028932188139076 5.9644660940677605) rotate(-44.999999999999986)"><g clip-path="url(#i1)"><polygon points="0,9.09494702e-13 6,9.09494702e-13 6,1.5 0,1.5 0,9.09494702e-13" stroke="none" fill="#4E5869"></polygon></g></g></g></g></g></g></svg>