<?xml version="1.0" encoding="UTF-8"?><svg version="1.1" width="14px" height="14px" viewBox="0 0 14.0 14.0" xmlns="http://www.w3.org/2000/svg" xmlns:xlink="http://www.w3.org/1999/xlink"><defs><clipPath id="i0"><path d="M1440,0 L1440,900 L0,900 L0,0 L1440,0 Z"></path></clipPath><clipPath id="i1"><path d="M6.125,0 C9.50774409,0 12.25,2.74225591 12.25,6.125 C12.25,9.50774409 9.50774409,12.25 6.125,12.25 C2.74225591,12.25 0,9.50774409 0,6.125 C0,2.74225591 2.74225591,0 6.125,0 Z"></path></clipPath><clipPath id="i2"><path d="M0.5,0 C0.764276882,-4.85468757e-17 0.978515625,0.214238743 0.978515625,0.478515625 L0.978515625,4.06438998 C0.978515625,4.32866686 0.764276882,4.5429056 0.5,4.5429056 C0.235723118,4.5429056 0.021484375,4.32866686 0.021484375,4.06438998 L0.021484375,0.478515625 C0.021484375,0.214238743 0.235723118,4.85468757e-17 0.5,0 Z"></path></clipPath><clipPath id="i3"><path d="M0.638020833,0 C0.99039001,0 1.27604167,0.285651657 1.27604167,0.638020833 C1.27604167,0.99039001 0.99039001,1.27604167 0.638020833,1.27604167 C0.285651657,1.27604167 0,0.99039001 0,0.638020833 C0,0.285651657 0.285651657,0 0.638020833,0 Z"></path></clipPath></defs><g transform="translate(-575.0 -131.0)"><g clip-path="url(#i0)"><g transform="translate(575.0 131.0)"><g transform="translate(0.875 0.875)"><g clip-path="url(#i1)"><path d="M6.125,12.25 C9.50774409,12.25 12.25,9.50774409 12.25,6.125 C12.25,2.74225591 9.50774409,0 6.125,0 C2.74225591,0 0,2.74225591 0,6.125 C0,9.50774409 2.74225591,12.25 6.125,12.25 Z" stroke="currentColor" stroke-width="2" fill="none" stroke-miterlimit="5"></path></g></g><g transform="translate(6.502126736110881 3.495919846722975)"><g clip-path="url(#i2)"><polygon points="0.021484375,0 0.978515625,0 0.978515625,4.5429056 0.021484375,4.5429056 0.021484375,0" stroke="none" fill="currentColor"></polygon></g></g><g transform="translate(6.361979166666389 9.223276861260361)"><g clip-path="url(#i3)"><polygon points="0,0 1.27604167,0 1.27604167,1.27604167 0,1.27604167 0,0" stroke="none" fill="currentColor"></polygon></g></g></g></g></g></svg>