<?xml version="1.0" encoding="UTF-8"?>
<svg width="14px" height="14px" viewBox="0 0 14 14" version="1.1" xmlns="http://www.w3.org/2000/svg" xmlns:xlink="http://www.w3.org/1999/xlink">
    <title></title>
    <g id="ICON/14px/编辑_导入简历" stroke="none" stroke-width="1" fill="none" fill-rule="evenodd">
        <polygon id="路径" points="0 0 14 0 14 14 0 14"></polygon>
        <g id="编组">
            <polygon id="路径" points="0 0 14 0 14 14 0 14"></polygon>
        </g>
        <g id="编组">
            <polygon id="路径" points="0 0 14 0 14 14 0 14"></polygon>
            <path d="M12.8809524,7.39047619 L11.6428571,7.39047619 L11.6428571,3.67619048 L6.43419048,3.67619048 L5.19609524,2.43809524 L1.73809524,2.43809524 L1.73809524,11.1047619 L7.30952381,11.1047619 L7.30952381,12.3428571 L1.11904762,12.3428571 C0.77715706,12.3428571 0.5,12.0657001 0.5,11.7238095 L0.5,1.81904762 C0.5,1.47715706 0.77715706,1.2 1.11904762,1.2 L5.70866667,1.2 L6.9467619,2.43809524 L12.2619048,2.43809524 C12.6037953,2.43809524 12.8809524,2.7152523 12.8809524,3.05714286 L12.8809524,7.39047619 Z M11.6428571,9.86666667 L13.5,9.86666667 L13.5,11.1047619 L11.6428571,11.1047619 L11.6428571,13.2714286 L8.54761905,10.4857143 L11.6428571,7.7 L11.6428571,9.86666667 Z" id="形状" fill="currentColor" fill-rule="nonzero"></path>
        </g>
    </g>
</svg>