
<?xml version="1.0" encoding="UTF-8"?>
<svg width="14px" height="14px" viewBox="0 0 14 14" version="1.1" xmlns="http://www.w3.org/2000/svg" xmlns:xlink="http://www.w3.org/1999/xlink">
    <title></title>
    <g id="ICON/14px/编辑_hover" stroke="none" stroke-width="1" fill="none" fill-rule="evenodd">
        <g id="编组">
            <polygon id="路径" points="0 0 14 0 14 14 0 14"></polygon>
        </g>
        <path d="M13.1,3.99878257 L13.1,11.1714676 C13.1,12.2760371 12.2045695,13.1714676 11.1,13.1714676 L3.1,13.1714676 C1.9954305,13.1714676 1.1,12.2760371 1.1,11.1714676 L1.1,3.17146763 C1.1,2.06689814 1.9954305,1.17146763 3.1,1.17146763 L10.2707699,1.17106255 L8.87140555,2.57042687 L3.1,2.57146763 C2.80176624,2.57146763 2.55435325,2.78905725 2.50785299,3.07414452 L2.5,3.17146763 L2.5,11.1714676 C2.5,11.4697014 2.71758961,11.7171144 3.00267688,11.7636146 L3.1,11.7714676 L11.1,11.7714676 C11.3982338,11.7714676 11.6456468,11.553878 11.692147,11.2687908 L11.7,11.1714676 L11.7005398,5.39814689 L13.1,3.99878257 Z" id="路径" fill="currentColor" fill-rule="nonzero"></path>
        <polygon id="路径" fill="currentColor" fill-rule="nonzero" transform="translate(10.072976, 4.217830) rotate(-315.000000) translate(-10.072976, -4.217830) " points="10.8229765 0.134700903 10.8229765 7.71771402 10.0729765 8.30137175 9.32415033 7.71771402 9.32297649 0.134288425"></polygon>
    </g>
</svg>