<?xml version="1.0" encoding="UTF-8"?>
<svg width="14px" height="14px" viewBox="0 0 14 14" version="1.1" xmlns="http://www.w3.org/2000/svg" xmlns:xlink="http://www.w3.org/1999/xlink">
    <title></title>
    <g id="V4.1.2迭代" stroke="none" stroke-width="1" fill="none" fill-rule="evenodd">
        <g id="待筛选-简历信息" transform="translate(-904.000000, -382.000000)">
            <g id="ER00119528" transform="translate(260.000000, 359.000000)">
                <g id="编组-8备份" transform="translate(636.000000, 16.000000)">
                    <g id="ICON/14px/全屏" transform="translate(8.000000, 7.000000)">
                        <rect id="矩形" x="0" y="0" width="14" height="14"></rect>
                        <path d="M1.59090909,6 L1.59090909,12.4 L12.4090909,12.4 L12.4090909,6 L13.5,6 L13.5,12.5 C13.5,13.0670123 13.1099903,13.5338239 12.608961,13.5935453 L12.5,13.6 L1.5,13.6 C0.984534233,13.6 0.56016012,13.1709893 0.505867864,12.6198571 L0.5,12.5 L0.5,6 L1.59090909,6 Z" id="路径" fill="#FFFFFF" fill-rule="nonzero"></path>
                        <polygon id="矩形" fill="#FFFFFF" fill-rule="nonzero" points="6.39526123 0.8 7.59526123 0.8 7.59526123 7.8 6.39526123 7.8"></polygon>
                        <path d="M9.40416306,4.57573593 L10.2526912,5.42426407 L7.42426407,8.25269119 C7.21598445,8.46097082 6.89267517,8.484113 6.6588334,8.32211773 L6.57573593,8.25269119 L3.74730881,5.42426407 L4.59583694,4.57573593 L7,6.98 L9.40416306,4.57573593 Z" id="路径" fill="#FFFFFF" fill-rule="nonzero"></path>
                    </g>
                </g>
            </g>
        </g>
    </g>
</svg>