<?xml version="1.0" encoding="UTF-8"?>
<svg width="8px" height="15px" viewBox="0 0 8 15" version="1.1" xmlns="http://www.w3.org/2000/svg" xmlns:xlink="http://www.w3.org/1999/xlink">
    <title></title>
    <g id="页面-1" stroke="none" stroke-width="1" fill="none" fill-rule="evenodd">
        <g id="状态：待推进" transform="translate(-261.000000, -461.000000)">
            <g id="编组-17" transform="translate(260.000000, 404.000000)">
                <g id="编组-8" transform="translate(1.000000, 57.000000)">
                    <rect id="矩形" x="0" y="0" width="8" height="15"></rect>
                    <path d="M4.04239949,12 C4.57829784,12 5.07348839,12.2858984 5.34143759,12.75 C5.60938679,13.2141016 5.60938679,13.7858984 5.34143759,14.25 C5.07348839,14.7141016 4.57829784,15 4.04239949,15 C3.21397235,15 2.54239949,14.3284271 2.54239949,13.5 C2.54239949,12.6715729 3.21397235,12 4.04239949,12 Z M4,7 C4.53588636,6.99996393 5.03108121,7.28585443 5.29903481,7.74997086 C5.5669884,8.21408729 5.5669884,8.78591271 5.29903481,9.25002914 C5.03108121,9.71414557 4.53588636,10.0000361 4,10 C3.46411364,10.0000361 2.96891879,9.71414557 2.70096519,9.25002914 C2.4330116,8.78591271 2.4330116,8.21408729 2.70096519,7.74997086 C2.96891879,7.28585443 3.46411364,6.99996393 4,7 Z M3.64980622,0.114883643 C3.90693422,-0.0752526744 4.27097747,-0.0241145249 4.4644764,0.229322585 L4.4644764,0.229322585 L7.35041194,4.03952632 C7.50443558,4.20857469 7.54325081,4.45159579 7.44941962,4.65941075 C7.35558842,4.8672257 7.14675815,5.00074964 6.91674721,5 L6.91674721,5 L1.08085895,5 C0.955020822,5.00046511 0.832602252,4.95948499 0.732894632,4.88351352 C0.476365502,4.69340509 0.423712579,4.33370268 0.615185631,4.07937559 L0.615185631,4.07937559 L3.5341623,0.22830081 C3.56632489,0.184611471 3.60537018,0.14631801 3.64980622,0.114883643 Z" id="形状结合" fill="#E5E6EB" fill-rule="nonzero"></path>
                </g>
            </g>
        </g>
    </g>
</svg>