<?xml version="1.0" encoding="UTF-8"?>
<svg width="10px" height="10px" viewBox="0 0 10 10" version="1.1" xmlns="http://www.w3.org/2000/svg" xmlns:xlink="http://www.w3.org/1999/xlink">
    <title>编组 3</title>
    <g id="H5定稿" stroke="none" stroke-width="1" fill="none" fill-rule="evenodd">
        <g id="工资条" transform="translate(-335.000000, -439.000000)">
            <g id="筛选项" transform="translate(15.000000, 420.000000)">
                <g id="编组-3" transform="translate(320.000000, 19.000000)">
                    <rect id="矩形" x="0" y="0" width="10" height="10"></rect>
                    <path d="M5.78086881,3.47608601 L8.50024396,6.87530495 C8.84525351,7.30656689 8.77533214,7.93585926 8.3440702,8.28086881 C8.16675715,8.42271925 7.94644665,8.5 7.71937515,8.5 L2.28062485,8.5 C1.7283401,8.5 1.28062485,8.05228475 1.28062485,7.5 C1.28062485,7.2729285 1.3579056,7.052618 1.49975604,6.87530495 L4.21913119,3.47608601 C4.56414074,3.04482408 5.19343311,2.9749027 5.62469505,3.31991225 C5.68235975,3.36604401 5.73473705,3.41842131 5.78086881,3.47608601 Z" id="三角形" fill="#666666" transform="translate(5.000000, 5.500000) rotate(-180.000000) translate(-5.000000, -5.500000) "></path>
                </g>
            </g>
        </g>
    </g>
</svg>