<?xml version="1.0" encoding="UTF-8"?>
<svg width="24px" height="25px" viewBox="0 0 24 25" version="1.1" xmlns="http://www.w3.org/2000/svg" xmlns:xlink="http://www.w3.org/1999/xlink">
    <defs>
        <linearGradient x1="50%" y1="0%" x2="50%" y2="100%" id="linearGradient-1">
            <stop stop-color="#FDCF41" offset="0%"></stop>
            <stop stop-color="#FAA11F" offset="100%"></stop>
        </linearGradient>
        <linearGradient x1="50%" y1="0%" x2="50%" y2="100%" id="linearGradient-2">
            <stop stop-color="#FFFFFF" offset="0%"></stop>
            <stop stop-color="#FFFFFF" stop-opacity="0.6" offset="100%"></stop>
        </linearGradient>
        <path d="M15.5,5 C17.1568542,5 18.5,6.34314575 18.5,8 L18.5,16 C18.5,17.6568542 17.1568542,19 15.5,19 L8.5,19 C6.84314575,19 5.5,17.6568542 5.5,16 L5.5,8 C5.5,6.34314575 6.84314575,5 8.5,5 L15.5,5 Z M14.75,14 L9.25,14 C8.83578644,14 8.5,14.3357864 8.5,14.75 C8.5,15.1642136 8.83578644,15.5 9.25,15.5 L9.25,15.5 L14.75,15.5 C15.1642136,15.5 15.5,15.1642136 15.5,14.75 C15.5,14.3357864 15.1642136,14 14.75,14 L14.75,14 Z M14.75,11 L9.25,11 C8.83578644,11 8.5,11.3357864 8.5,11.75 C8.5,12.1642136 8.83578644,12.5 9.25,12.5 L9.25,12.5 L14.75,12.5 C15.1642136,12.5 15.5,12.1642136 15.5,11.75 C15.5,11.3357864 15.1642136,11 14.75,11 L14.75,11 Z M14.75,8 L9.25,8 C8.83578644,8 8.5,8.33578644 8.5,8.75 C8.5,9.16421356 8.83578644,9.5 9.25,9.5 L9.25,9.5 L14.75,9.5 C15.1642136,9.5 15.5,9.16421356 15.5,8.75 C15.5,8.33578644 15.1642136,8 14.75,8 L14.75,8 Z" id="path-3"></path>
        <filter x="-53.8%" y="-35.7%" width="207.7%" height="200.0%" filterUnits="objectBoundingBox" id="filter-4">
            <feOffset dx="0" dy="2" in="SourceAlpha" result="shadowOffsetOuter1"></feOffset>
            <feGaussianBlur stdDeviation="2" in="shadowOffsetOuter1" result="shadowBlurOuter1"></feGaussianBlur>
            <feColorMatrix values="0 0 0 0 0.984313725   0 0 0 0 0.698039216   0 0 0 0 0.17254902  0 0 0 1 0" type="matrix" in="shadowBlurOuter1"></feColorMatrix>
        </filter>
    </defs>
    <g id="Web" stroke="none" stroke-width="1" fill="none" fill-rule="evenodd">
        <g id="工资表" transform="translate(-250.000000, -169.000000)">
            <g id="编组-8" transform="translate(230.000000, 156.000000)">
                <g id="编组-15" transform="translate(20.000000, 13.000000)">
                    <rect id="矩形" fill="url(#linearGradient-1)" x="0" y="0" width="24" height="24" rx="6"></rect>
                    <g id="形状结合">
                        <use fill="black" fill-opacity="1" filter="url(#filter-4)" xlink:href="#path-3"></use>
                        <use fill="url(#linearGradient-2)" fill-rule="evenodd" xlink:href="#path-3"></use>
                    </g>
                </g>
            </g>
        </g>
    </g>
</svg>