<?xml version="1.0" encoding="UTF-8"?>
<svg width="16px" height="16px" viewBox="0 0 16 16" version="1.1" xmlns="http://www.w3.org/2000/svg" xmlns:xlink="http://www.w3.org/1999/xlink">
    <g id="Web" stroke="none" stroke-width="1" fill="none" fill-rule="evenodd">
        <g id="工资表" transform="translate(-1342.000000, -344.000000)">
            <g id="编组-17" transform="translate(230.000000, 328.000000)">
                <g id="编组-9" transform="translate(1080.000000, 14.000000)">
                    <g id="编组-5" transform="translate(32.000000, 2.000000)">
                        <rect id="矩形" x="0" y="0" width="16" height="16"></rect>
                        <g id="编组" transform="translate(2.000000, 1.000000)" fill="#86909C" fill-rule="nonzero">
                            <path d="M6.48721128,0.194344429 L9.64724864,3.35438179 C9.76891984,3.47605299 9.82972147,3.62578125 9.82972147,3.80363451 C9.82972147,3.98481658 9.76965014,4.13536005 9.64969429,4.25540082 C9.5295856,4.37557745 9.37900815,4.43556386 9.19796196,4.43556386 C9.02005774,4.43556386 8.87019361,4.37469429 8.74859035,4.2530231 L6.6701087,2.16946332 L6.6701087,8.49157609 C6.6701087,8.66593071 6.60837296,8.81496264 6.48495245,8.93851902 C6.36136209,9.06200747 6.21238111,9.12377717 6.03800951,9.12377717 C5.86340014,9.12377717 5.71448709,9.06200747 5.59099864,8.93851902 C5.46742527,8.81496264 5.40553668,8.66591372 5.40553668,8.49157609 L5.40553668,2.16946332 L3.32734375,4.2530231 C3.19894701,4.37476223 3.04921875,4.43556386 2.87788723,4.43556386 C2.70329484,4.43556386 2.55451766,4.37374321 2.43094429,4.25030571 C2.30737092,4.12680027 2.24555027,3.97768342 2.24555027,3.80329484 C2.24555027,3.63203125 2.30628397,3.48216712 2.4280231,3.35397418 L5.58802649,0.193936821 C5.70962976,0.0721976902 5.85962976,0.0114639946 6.03736413,0.0114639946 C6.21574389,0.0118716033 6.36554008,0.072877038 6.48721128,0.194344429 Z M11.7298404,8.04459918 C11.8532779,8.16815557 11.9151664,8.31720448 11.9151664,8.49174592 L11.9151664,11.0192255 C11.9151664,11.5460258 11.7326257,11.9920007 11.3672045,12.3574219 C10.9953295,12.729178 10.5509001,12.9151664 10.0341202,12.9151664 L1.90731997,12.9151664 C1.3907269,12.9151664 0.943121603,12.7308084 0.564588995,12.3620414 C0.19577106,11.9835258 0.0114639946,11.5359035 0.0114639946,11.0192425 L0.0114639946,8.49174592 C0.0114639946,8.31706861 0.0731827446,8.16815557 0.196722147,8.04459918 C0.320295516,7.92107677 0.469293478,7.8592731 0.64375,7.8592731 C0.81810462,7.8592731 0.967119565,7.92107677 1.09069293,8.04459918 C1.21421535,8.16815557 1.27595109,8.31720448 1.27595109,8.49174592 L1.27595109,11.0192255 C1.27595109,11.1936481 1.33766984,11.342748 1.46131114,11.4663043 C1.58485054,11.5898268 1.73376359,11.6513587 1.90828804,11.6513587 L10.0349185,11.6513587 C10.2060462,11.6513587 10.3517663,11.5898268 10.471892,11.4663043 C10.5920007,11.342748 10.652106,11.1936311 10.652106,11.0192255 L10.652106,8.49174592 C10.652106,8.31706861 10.7138757,8.16815557 10.8373641,8.04459918 C10.9609545,7.92107677 11.1098675,7.8592731 11.2842561,7.8592731 C11.457337,7.8592731 11.6064708,7.92107677 11.7298404,8.04459918 Z" id="形状"></path>
                        </g>
                    </g>
                </g>
            </g>
        </g>
    </g>
</svg>