<?xml version="1.0" encoding="UTF-8"?>
<svg width="24px" height="24px" viewBox="0 0 24 24" version="1.1" xmlns="http://www.w3.org/2000/svg" xmlns:xlink="http://www.w3.org/1999/xlink">
    <title>编组</title>
    <g id="Web" stroke="none" stroke-width="1" fill="none" fill-rule="evenodd">
        <g id="工资条设置" transform="translate(-1050.000000, -188.000000)">
            <g id="编组-12" transform="translate(1035.000000, 134.000000)">
                <g id="编组-4" transform="translate(0.000000, 44.000000)">
                    <g id="编组" transform="translate(15.000000, 10.000000)">
                        <polygon id="路径" points="0 0 24 0 24 24 0 24"></polygon>
                        <path d="M8.39350304,12.364 L13.5291317,17.0715251 C13.936256,17.4447117 13.9637679,18.0772787 13.5905813,18.484403 C13.5709982,18.505767 13.5504957,18.5262695 13.5291317,18.5458526 L13.3122959,18.7446131 C12.9299778,19.0950614 12.3431859,19.0950614 11.9608677,18.7446131 L5.80420162,13.1011638 C5.39707732,12.7279771 5.36956539,12.0954102 5.742752,11.6882859 C5.76233508,11.6669219 5.78283765,11.6464193 5.80420162,11.6268362 L11.9608677,5.98338693 C12.3431859,5.63293861 12.9299778,5.63293861 13.3122959,5.98338693 L13.5291317,6.18214737 C13.936256,6.55533398 13.9637679,7.18790096 13.5905813,7.59502526 C13.5709982,7.61638924 13.5504957,7.6368918 13.5291317,7.65647488 L8.39350304,12.364 L8.39350304,12.364 Z" id="路径" fill="#636462" fill-rule="nonzero"></path>
                    </g>
                </g>
            </g>
        </g>
    </g>
</svg>