<?xml version="1.0" encoding="UTF-8"?>
<svg width="14" height="14" viewBox="0 0 14 14" version="1.1" xmlns="http://www.w3.org/2000/svg" xmlns:xlink="http://www.w3.org/1999/xlink">
    <title>编组</title>
    <g id="H5定稿" stroke="none" stroke-width="1" fill="none" fill-rule="evenodd">
        <g id="工资条" transform="translate(-300.000000, -59.000000)">
            <g id="编组-4" transform="translate(0.000000, 44.000000)">
                <g id="编组" transform="translate(300.000000, 15.000000)">
                    <rect id="矩形" x="0" y="0" width="14" height="14"></rect>
                    <circle id="椭圆形" stroke="#666666" cx="7" cy="7" r="6"></circle>
                    <path d="M7,9.70264655 C7.164,9.70264655 7.3056,9.76578115 7.4232,9.89161793 C7.5412,10.0174547 7.6,10.1709669 7.6,10.3512898 C7.6,10.535072 7.5412,10.6890167 7.4232,10.8135562 C7.31135336,10.9351603 7.15861011,11.0024283 7,10.999933 C6.836,10.999933 6.6944,10.9376632 6.5768,10.8135562 C6.46039981,10.6931704 6.3962301,10.5253905 6.4,10.3512898 C6.4,10.1709669 6.4588,10.0174547 6.5768,9.89161793 C6.68797831,9.76863517 6.84094856,9.70032941 7,9.70264655 Z M7,3 C8.1045695,3 9,3.96802486 9,5.16214405 C9,5.72516636 8.804,6.17835175 8.4168,6.67650974 C8.3516,6.76040093 8.2808,6.84645426 8.1936,6.94807503 C8.16,6.98699362 8.1256,7.02764193 8.0792,7.08039825 L7.9648,7.21228903 C7.6904,7.52796206 7.5,7.94093158 7.5,8.32017164 L7.5,8.62330424 L6.5,8.62330424 L6.5,8.32017164 C6.5,7.62698826 6.8024,6.97142619 7.2352,6.47283577 C7.566,6.09143356 7.5568,6.10224428 7.6512,5.98116421 C7.9008,5.65986961 8,5.43024991 8,5.16214405 C8,4.56508445 7.55228475,4.08107202 7,4.08107202 C6.44771525,4.08107202 6,4.56508445 6,5.16214405 L5,5.16214405 C5,3.96802486 5.8954305,3 7,3 Z" id="形状结合" fill="#666666" fill-rule="nonzero"></path>
                </g>
            </g>
        </g>
    </g>
</svg>