<?xml version="1.0" encoding="UTF-8"?>
<svg width="24px" height="24px" viewBox="0 0 24 24" version="1.1" xmlns="http://www.w3.org/2000/svg" xmlns:xlink="http://www.w3.org/1999/xlink">
    <title>编组</title>
    <g id="Web" stroke="none" stroke-width="1" fill="none" fill-rule="evenodd">
        <g id="工资条设置" transform="translate(-1084.000000, -188.000000)">
            <g id="编组-12" transform="translate(1035.000000, 134.000000)">
                <g id="编组-4" transform="translate(0.000000, 44.000000)">
                    <g id="编组" transform="translate(49.000000, 10.000000)">
                        <polygon id="路径" points="0 0 24 0 24 24 0 24"></polygon>
                        <path d="M12,10.4446889 L16.6670333,5.77765556 C17.0965206,5.34816825 17.7928571,5.34816825 18.2223444,5.77765556 C18.6518317,6.20714287 18.6518317,6.90347938 18.2223444,7.33296669 L13.5553111,12 L13.5553111,12 L18.2223444,16.6670333 C18.6518317,17.0965206 18.6518317,17.7928571 18.2223444,18.2223444 C17.7928571,18.6518317 17.0965206,18.6518317 16.6670333,18.2223444 L12,13.5553111 L12,13.5553111 L7.33296669,18.2223444 C6.90347938,18.6518317 6.20714287,18.6518317 5.77765556,18.2223444 C5.34816825,17.7928571 5.34816825,17.0965206 5.77765556,16.6670333 L10.4446889,12 L10.4446889,12 L5.77765556,7.33296669 C5.34816825,6.90347938 5.34816825,6.20714287 5.77765556,5.77765556 C6.20714287,5.34816825 6.90347938,5.34816825 7.33296669,5.77765556 L12,10.4446889 L12,10.4446889 Z" id="路径" fill="#636462" fill-rule="nonzero" transform="translate(12.000000, 12.000000) rotate(-360.000000) translate(-12.000000, -12.000000) "></path>
                    </g>
                </g>
            </g>
        </g>
    </g>
</svg>