<?xml version="1.0" encoding="UTF-8"?>
<svg width="16px" height="16px" viewBox="0 0 16 16" version="1.1" xmlns="http://www.w3.org/2000/svg" xmlns:xlink="http://www.w3.org/1999/xlink">
    <title>16px/添加说明</title>
    <g id="16px/添加说明" stroke="none" stroke-width="1" fill="none" fill-rule="evenodd">
        <rect id="矩形" stroke="#86909C" stroke-width="1.2" x="2.35" y="2.1" width="11.3" height="11.8" rx="2"></rect>
        <path d="M10.9,10.5 C11.2313708,10.5 11.5,10.7686292 11.5,11.1 C11.5,11.4313708 11.2313708,11.7 10.9,11.7 L5.1,11.7 C4.76862915,11.7 4.5,11.4313708 4.5,11.1 C4.5,10.7686292 4.76862915,10.5 5.1,10.5 L10.9,10.5 Z M8.4,7.5 C8.73137085,7.5 9,7.76862915 9,8.1 C9,8.43137085 8.73137085,8.7 8.4,8.7 L5.1,8.7 C4.76862915,8.7 4.5,8.43137085 4.5,8.1 C4.5,7.76862915 4.76862915,7.5 5.1,7.5 L8.4,7.5 Z M10.9,4.5 C11.2313708,4.5 11.5,4.76862915 11.5,5.1 C11.5,5.43137085 11.2313708,5.7 10.9,5.7 L5.1,5.7 C4.76862915,5.7 4.5,5.43137085 4.5,5.1 C4.5,4.76862915 4.76862915,4.5 5.1,4.5 L10.9,4.5 Z" id="形状结合" fill="#86909C"></path>
    </g>
</svg>