<?xml version="1.0" encoding="UTF-8"?>
<svg width="320px" height="320px" viewBox="0 0 320 320" version="1.1" xmlns="http://www.w3.org/2000/svg" xmlns:xlink="http://www.w3.org/1999/xlink">
    <title>编组 7</title>
    <defs>
        <rect id="path-1" x="0" y="0" width="320" height="320"></rect>
    </defs>
    <g id="Web" stroke="none" stroke-width="1" fill="none" fill-rule="evenodd">
        <g id="发放落地页" transform="translate(-660.000000, -244.000000)">
            <g id="编组-7" transform="translate(660.000000, 244.000000)">
                <mask id="mask-2" fill="white">
                    <use xlink:href="#path-1"></use>
                </mask>
                <g id="矩形"></g>
                <g id="编组-5" mask="url(#mask-2)">
                    <g transform="translate(44.408639, 91.281959)">
                        <g id="编组" stroke-width="1" fill="none" transform="translate(92.848321, 0.000000)">
                            <polygon id="Fill-1" fill="#40507F" points="86.5670355 184.00243 95.7984982 184.00243 95.7984982 122.267023 86.5670355 122.267023"></polygon>
                            <path d="M110.075867,187.669949 L72.0521684,187.669949 C70.4788939,187.669949 69.204049,186.395651 69.204049,184.824835 C69.204049,183.25402 70.4788939,181.981168 72.0521684,181.981168 L110.075867,181.981168 C111.649142,181.981168 112.925435,183.25402 112.925435,184.824835 C112.925435,186.395651 111.649142,187.669949 110.075867,187.669949" id="Fill-2" fill="#40507F"></path>
                            <path d="M77.1422765,192.027587 C77.1422765,195.404984 74.3999113,198.144509 71.0157774,198.144509 C67.634541,198.144509 64.8921757,195.404984 64.8921757,192.027587 C64.8921757,188.65019 67.634541,185.910665 71.0157774,185.910665 C74.3999113,185.910665 77.1422765,188.65019 77.1422765,192.027587" id="Fill-4" fill="#92B4EA"></path>
                            <path d="M97.1083763,192.027587 C97.1083763,195.404984 94.3645623,198.144509 90.9818772,198.144509 C87.6006408,198.144509 84.8568268,195.404984 84.8568268,192.027587 C84.8568268,188.65019 87.6006408,185.910665 90.9818772,185.910665 C94.3645623,185.910665 97.1083763,188.65019 97.1083763,192.027587" id="Fill-6" fill="#40507F"></path>
                            <path d="M116.991032,192.027587 C116.991032,195.404984 114.247218,198.144509 110.864533,198.144509 C107.483296,198.144509 104.739482,195.404984 104.739482,192.027587 C104.739482,188.65019 107.483296,185.910665 110.864533,185.910665 C114.247218,185.910665 116.991032,188.65019 116.991032,192.027587" id="Fill-8" fill="#40507F"></path>
                            <path d="M117.571086,64.7225681 C117.571086,64.7225681 136.764746,76.1840221 132.495464,101.327189 C127.584414,130.252751 98.7004838,139.631356 73.6454349,132.797009 C48.5889372,125.964108 52.7655031,106.253705 52.7655031,106.253705 L117.571086,64.7225681 Z" id="Fill-16" fill="#5C69A5"></path>
                            <path d="M121.379541,117.261271 C121.294068,117.261271 121.211493,117.228004 121.149199,117.160022 C121.031856,117.034183 121.040548,116.834577 121.168032,116.717416 C127.377106,110.985243 128.578068,99.7205025 128.589658,99.6076815 C128.605593,99.4370036 128.754808,99.2995934 128.931548,99.3285219 C129.103942,99.3444325 129.229978,99.4977534 129.211145,99.6698777 C129.199555,99.7855915 127.978312,111.28176 121.591049,117.177379 C121.531653,117.232343 121.456321,117.261271 121.379541,117.261271" id="Fill-17" fill="#68B6D8"></path>
                            <path d="M82.9625231,30.415156 C82.9625231,30.415156 69.8910165,31.5708478 64.9828635,37.8714653 C60.0732619,44.1735293 66.5604842,83.6796741 66.9110665,84.2307612 C67.2616489,84.7818482 76.3652006,88.8072428 92.2355713,88.4572084 C108.107391,88.1071741 111.965245,85.0798113 112.491119,84.2307612 C113.016992,83.3802646 116.347525,38.7798188 112.491119,35.0003162 C108.634713,31.2208135 92.5282062,29.2594642 82.9625231,30.415156" id="Fill-18" fill="#A37B90"></path>
                            <polygon id="Fill-19" fill="#FDCAB9" points="65.4041419 162.555277 65.4041419 179.365602 78.2279229 184.209672 86.3072526 175.163744 87.635699 159.613253"></polygon>
                            <polygon id="Fill-20" fill="#FDCAB9" points="41.4060552 159.069109 41.4060552 175.88088 55.0686263 180.72495 63.676727 171.679022 65.0935433 156.127085"></polygon>
                            <path d="M69.3654327,81.169986 C69.3654327,81.169986 36.7047748,97.5753129 32.694808,104.240429 C28.6848413,110.905545 33.1018892,165.215827 33.1018892,165.215827 L62.0611508,165.602022 L66.0725662,135.251733 L88.0839229,84.1250276 L69.3654327,81.169986 Z" id="Fill-21" fill="#67B6D8"></path>
                            <path d="M109.052949,84.625056 C109.052949,84.625056 110.371255,99.1992117 109.900431,103.981085 C109.429608,108.762959 94.3169005,120.032039 94.3169005,120.032039 L93.5693778,166.683512 L60.0844168,168.179113 C60.0844168,168.179113 59.355727,114.865417 59.9149203,109.84633 C60.4741137,104.82435 82.7520288,86.5647089 82.7520288,86.5647089 L109.052949,84.625056 Z" id="Fill-22" fill="#67B6D8"></path>
                            <path d="M90.749218,23.5997566 L90.5608887,32.0888118 C90.5608887,32.0888118 88.9716786,34.4956593 83.9896425,34.7892831 C80.2766567,35.0091393 78.9945683,34.1427321 78.9945683,34.1427321 L79.6059144,29.8540886 L80.2085683,25.6724804 L89.2353397,23.8991661 L90.749218,23.5997566 Z" id="Fill-23" fill="#FDCAB9"></path>
                            <path d="M89.2353397,23.8993108 C89.2078146,24.1307384 89.1136499,24.4026659 88.9687812,24.7122004 C86.9724899,28.9111656 81.7499718,29.7110374 79.6059144,29.8542333 L80.2085683,25.6726251 L89.2353397,23.8993108 Z" id="Fill-24" fill="#F3917C"></path>
                            <path d="M78.7423518,6.27942266 C78.7423518,6.27942266 74.0442585,16.8238446 75.6711345,22.7773206 C77.2994591,28.7293503 82.7276909,27.8311218 85.9785455,26.7043584 C89.2308487,25.5775951 90.7505218,23.6017816 90.7505218,23.6017816 C90.7505218,23.6017816 93.7739325,24.6475453 95.8194791,21.8487172 C97.8650258,19.0469963 96.6394362,15.8084558 94.9140495,15.056316 C93.1886628,14.3041761 91.1228345,15.5379747 91.1228345,15.5379747 L92.7555052,12.4744513 C92.7555052,12.4744513 86.0756075,-3.19175356 78.7423518,6.27942266" id="Fill-25" fill="#FDCAB9"></path>
                            <path d="M79.1413203,19.6970187 C79.0065924,19.6970187 78.883454,19.6102334 78.841442,19.475716 C78.1460721,17.2265287 79.7352822,14.935395 79.8033705,14.8384847 C79.9018812,14.6981817 80.1003514,14.664914 80.2394254,14.7632707 C80.3799481,14.8616275 80.4147166,15.0568945 80.3162058,15.198644 C80.3017189,15.2188939 78.8356473,17.3379032 79.4411986,19.2920204 C79.4919027,19.4554661 79.3991867,19.6319297 79.2325876,19.6825545 C79.2036139,19.691233 79.1717428,19.6970187 79.1413203,19.6970187" id="Fill-26" fill="#000000"></path>
                            <path d="M91.5725071,20.4753388 C91.494278,20.4753388 91.4189462,20.4464104 91.3581013,20.3885535 C91.2320655,20.2699468 91.2262708,20.0732333 91.3450632,19.9473945 L94.2221564,16.9012282 C94.3395001,16.7753894 94.5394189,16.7681573 94.6654547,16.8896568 C94.7914905,17.0082635 94.7972853,17.204977 94.6784929,17.3308157 L91.799951,20.3769821 C91.7391061,20.4420711 91.656531,20.4753388 91.5725071,20.4753388" id="Fill-27" fill="#000000"></path>
                            <path d="M94.6185173,19.6588332 C94.5721593,19.6544939 92.5816627,19.353638 92.5816627,19.353638 C92.4107176,19.3276024 92.2933739,19.1684959 92.3180016,18.997818 C92.3455267,18.8256937 92.5019849,18.7027477 92.6743787,18.734569 L94.6648752,19.035425 C94.8358204,19.0614606 94.953164,19.2205671 94.9285364,19.391245 C94.9039087,19.5474586 94.7706294,19.6588332 94.6185173,19.6588332" id="Fill-28" fill="#000000"></path>
                            <path d="M83.9414012,15.7519007 C83.7298929,15.725865 83.6096518,15.5696514 83.6299334,15.3989735 L83.882005,13.4289457 C83.905184,13.255375 84.0616423,13.132429 84.2325874,13.1570182 C84.4035325,13.180161 84.5252223,13.3363747 84.5049406,13.5070525 L84.252869,15.4785268 C84.2311387,15.6361868 84.0964108,15.7519007 83.9414012,15.7519007" id="Fill-29" fill="#000000"></path>
                            <path d="M78.0816055,15.2828258 C77.865751,15.2524509 77.7469587,15.0947908 77.7715864,14.9241129 L78.0613238,12.9584244 C78.0859515,12.7877465 78.2279229,12.6590149 78.4162523,12.693729 C78.5886461,12.7197646 78.7074384,12.8774247 78.6813621,13.0481026 L78.3916246,15.0137911 C78.3684456,15.1700048 78.2337177,15.2828258 78.0816055,15.2828258" id="Fill-30" fill="#000000"></path>
                            <path d="M85.292592,12.1456794 C85.1824917,12.1456794 85.0752889,12.0863761 85.0187901,11.9836801 C84.4987113,11.0406125 83.1673675,11.3530398 83.1543293,11.3588255 C82.9775895,11.4080038 82.8167852,11.2966293 82.7762219,11.1302907 C82.73421,10.9625056 82.8370668,10.7918277 83.0051145,10.7513279 C83.0789976,10.7339708 84.8174225,10.3231868 85.5663939,11.6813777 C85.6504178,11.8318057 85.5953676,12.0227335 85.4432555,12.106626 C85.3954488,12.1326616 85.343296,12.1456794 85.292592,12.1456794" id="Fill-31" fill="#000000"></path>
                            <path d="M77.6558362,11.3447952 C77.5891966,11.3447952 77.5211083,11.3230988 77.4646095,11.2797061 C77.3269842,11.1755637 77.3023565,10.9802966 77.406662,10.8428865 C77.429841,10.813958 77.9658553,10.1211215 78.7307623,10.0459075 C79.1465356,9.99672915 79.5289891,10.139925 79.8839175,10.448013 C80.0142994,10.560834 80.0273375,10.7589939 79.9143399,10.8906184 C79.7984449,11.0179036 79.5999748,11.0338143 79.4710416,10.9195469 C79.2508411,10.7257262 79.0161537,10.6562979 78.7974019,10.6664229 C78.3033995,10.7141548 77.9079078,11.21751 77.9050105,11.2232956 C77.8427169,11.3028489 77.7485522,11.3447952 77.6558362,11.3447952" id="Fill-32" fill="#000000"></path>
                            <path d="M90.1041175,16.2504826 C90.1041175,16.2504826 87.232819,14.3108297 87.4052128,11.3688058 C87.5776066,8.42678189 88.2251699,7.67608847 88.2251699,7.67608847 C88.2251699,7.67608847 84.8714585,7.50251774 82.1015682,6.60139636 C80.295055,6.01414872 79.5185585,5.36759775 79.5185585,5.36759775 L78.7420621,6.27884409 C77.8960286,6.23979067 75.9620309,1.11800769 77.2368758,0.208207773 C78.5102721,-0.703038564 85.3321411,1.6719876 85.3321411,1.6719876 C85.3321411,1.6719876 92.5176308,-0.0159877541 96.7130295,5.08409889 C100.909877,10.1870784 96.2074376,16.1940721 96.2074376,16.1940721 C96.2074376,16.1940721 94.9644638,13.5644755 90.1041175,16.2504826" id="Fill-33" fill="#000000"></path>
                            <path d="M81.0341753,22.3963329 C81.3499892,22.5467608 81.7932875,22.6725996 82.2843925,22.5279574 C82.5176312,22.4599755 82.6740895,22.3457081 82.7624594,22.177923 C82.8406885,22.0303879 82.8566241,21.8611565 82.8508293,21.7165142 L81.0341753,22.3963329 Z" id="路径" fill="#000000"></path>
                            <path d="M81.8367481,23.2193474 C80.8661276,23.2193474 80.1664115,22.5800286 80.1330917,22.5467608 C80.0534139,22.4729933 80.0186454,22.3645116 80.038927,22.2574763 C80.0606574,22.150441 80.1359891,22.0636556 80.2359485,22.0260487 L82.9841086,20.9990885 C83.0623377,20.9672672 83.1507076,20.9730529 83.2289367,21.0092135 C83.3057172,21.045374 83.3636647,21.1119095 83.3911897,21.1929091 C83.4013306,21.2218376 83.6200824,21.8900849 83.3202041,22.4643148 C83.1507076,22.7883135 82.8624188,23.0110626 82.4596837,23.1296692 C82.2438293,23.1933118 82.0337696,23.2193474 81.8367481,23.2193474 L81.8367481,23.2193474 Z" id="路径" fill="#000000"></path>
                            <path d="M27.2870028,52.9251102 L26.9856758,51.0288499 C26.9856758,51.0288499 19.7060215,45.4948365 15.2252313,43.6708974 C13.340489,42.9014005 10.6980831,43.5421658 12.9261644,46.0329057 C14.1285749,47.3780789 14.7283315,48.9778225 14.7283315,48.9778225 C14.7283315,48.9778225 11.1312407,47.8409342 8.66267729,46.2079229 C7.08215931,45.1621592 4.77005419,40.9574083 3.41408276,41.8686546 C1.25843588,43.3179702 3.73714006,47.422918 3.73714006,47.422918 C3.73714006,47.422918 2.61730468,42.2244746 0.48918286,44.2523593 C-1.63024684,46.2744583 4.16015678,56.486203 6.91700895,58.9234254 C9.6753098,61.3620941 24.2230289,64.201422 24.2230289,64.201422 L27.2870028,52.9251102 Z" id="Fill-35" fill="#FDCAB9"></path>
                            <path d="M11.9569925,51.1962011 C8.54243623,50.8635238 5.46542415,47.9981603 5.33649097,47.8766608 C5.21045516,47.7580542 5.20466041,47.5598942 5.32345278,47.4340555 C5.44079646,47.3082167 5.64071533,47.302431 5.76675113,47.4224841 C5.79572488,47.4499661 8.81768684,50.261812 11.9874149,50.5713464 C12.1598087,50.5872571 12.2858445,50.7420243 12.2684603,50.9141486 C12.2525247,51.0747016 12.1163481,51.1962011 11.9569925,51.1962011" id="Fill-36" fill="#000000"></path>
                            <path d="M8.18533478,53.5566184 C8.11869516,53.5566184 8.05205554,53.534922 7.99700542,53.4929758 L4.95621052,51.2163063 C4.81713653,51.1136103 4.78816278,50.9168968 4.89391696,50.7780402 C4.99677377,50.6391837 5.19379526,50.6117016 5.33142056,50.7158441 L8.20416772,52.8652283 L14.4016525,49.1103148 C14.5508673,49.0191902 14.7435427,49.0669221 14.8319127,49.2144572 C14.9217313,49.3634388 14.8753733,49.5543666 14.7276072,49.6440448 L8.34758777,53.5103328 C8.2983324,53.5407077 8.24183359,53.5566184 8.18533478,53.5566184" id="Fill-37" fill="#000000"></path>
                            <path d="M20.4538339,53.4365653 C20.4234115,53.4365653 20.3915404,53.4307796 20.3596693,53.4206546 C16.7205665,52.2750878 14.4243969,49.6917768 14.3273348,49.583295 C14.2143372,49.453117 14.2273754,49.2549571 14.3577573,49.1406897 C14.4881391,49.0293151 14.6851606,49.0423329 14.8010556,49.1710646 C14.8213373,49.1956537 17.0812896,51.7326793 20.5479986,52.8247284 C20.713149,52.8767997 20.8044163,53.0518168 20.7522636,53.2181554 C20.7102516,53.3497799 20.5871132,53.4365653 20.4538339,53.4365653" id="Fill-38" fill="#000000"></path>
                            <path d="M66.6123472,36.1895649 C66.6123472,36.1895649 51.7937235,49.2666731 39.8304628,50.0289379 C34.0617895,50.3977757 26.3229013,47.6495725 26.3229013,47.6495725 L19.4488795,65.6098038 C19.4488795,65.6098038 43.6202291,88.4777477 68.2464666,70.4567665 C75.3218559,65.278573 66.6123472,36.1895649 66.6123472,36.1895649" id="Fill-39" fill="#A37B90"></path>
                            <path d="M64.8637814,58.7335101 C64.6913876,58.7335101 64.5494163,58.5917606 64.5494163,58.4196363 C64.5494163,56.1690025 68.3638103,44.6164239 68.5260632,44.1260866 C68.578216,43.959748 68.7578532,43.8686234 68.9215549,43.9279267 C69.0867053,43.9814443 69.1765239,44.1579079 69.1200251,44.3213537 C69.0809105,44.4414068 65.1781466,56.2673593 65.1781466,58.4196363 C65.1781466,58.5917606 65.0361752,58.7335101 64.8637814,58.7335101" id="Fill-40" fill="#FFFFFF"></path>
                            <path d="M67.3847873,194.89917 C67.3847873,194.89917 66.783582,167.871314 62.5780424,168.433973 C58.3710542,168.998078 54.1640659,172.938133 54.1640659,172.938133 C54.1640659,172.938133 44.5491275,167.871314 40.3435879,170.687499 C36.1365996,173.502238 33.720189,179.69582 33.720189,179.69582 L10.2978108,194.89917 C10.2978108,194.89917 7.46562687,199.40333 8.2797892,201.656857 C8.91576298,203.414261 44.5389867,202.429247 60.1688752,201.911427 C64.197675,201.778357 67.3847873,198.677226 67.3847873,194.89917" id="Fill-41" fill="#EFA459"></path>
                            <path d="M55.3015753,188.323877 C55.3015753,188.323877 61.1745541,173.973917 64.9672177,171.496194 C68.7598814,169.017026 78.2458866,176.882673 78.2458866,176.882673 C78.2458866,176.882673 86.1904884,168.531028 88.1447678,172.912242 C90.0990471,177.293457 91.0464887,192.982804 89.5644814,196.444094 C88.0853716,199.908277 77.1868961,205.673718 62.870967,205.634862 C56.122981,205.615861 46.395045,203.535905 46.3892386,201.221628 C46.3791094,197.582429 53.0010596,190.720599 55.3015753,188.323877" id="Fill-42" fill="#F7B369"></path>
                            <path d="M72.1822606,183.67247 L61.1954152,183.67247 C61.0230214,183.67247 60.88105,183.530721 60.88105,183.358597 C60.88105,183.186472 61.0230214,183.044723 61.1954152,183.044723 L72.1822606,183.044723 C72.3546544,183.044723 72.4966257,183.186472 72.4966257,183.358597 C72.4966257,183.530721 72.3546544,183.67247 72.1822606,183.67247" id="Fill-43" fill="#FFFFFF"></path>
                            <polygon id="Fill-44" fill="#916B81" points="82.5805043 35.4099431 77.7737594 67.2269045 81.7562011 67.2269045 85.2924471 34.7547136"></polygon>
                            <path d="M23.2550159,68.7666215 L19.7578845,67.6008048 C19.301548,67.4503768 19.0567198,66.9585931 19.208832,66.5058627 L25.5729158,47.4651536 C25.7235793,47.0124232 26.216133,46.7665314 26.6695722,46.9184058 L30.1667036,48.0827761 C30.6215915,48.2360969 30.8678683,48.7264342 30.7157562,49.1806109 L24.353121,68.2184273 C24.2010088,68.672604 23.7084551,68.9170495 23.2550159,68.7666215" id="Fill-45" fill="#FFFFFF"></path>
                            <path d="M71.0178056,188.637461 L59.3790509,188.637461 C59.2066571,188.637461 59.0646857,188.495712 59.0646857,188.323587 C59.0646857,188.151463 59.2066571,188.009714 59.3790509,188.009714 L71.0178056,188.009714 C71.1901994,188.009714 71.3321708,188.151463 71.3321708,188.323587 C71.3321708,188.495712 71.1901994,188.637461 71.0178056,188.637461" id="Fill-46" fill="#FFFFFF"></path>
                            <path d="M39.5159528,181.991583 C39.4739408,181.98869 32.4724345,181.035497 32.4724345,181.035497 C32.3014894,181.010908 32.1812484,180.853248 32.2029787,180.68257 C32.229055,180.511892 32.3884107,180.397625 32.5564584,180.413535 L39.5579647,181.366728 C39.7289098,181.391317 39.8491509,181.548977 39.8274206,181.721101 C39.8042416,181.877315 39.6695136,181.991583 39.5159528,181.991583" id="Fill-47" fill="#FFFFFF"></path>
                            <path d="M37.7588398,186.825238 C37.7124818,186.820899 25.9288583,185.031674 25.9288583,185.031674 C25.7579132,185.005638 25.6405695,184.846532 25.6651972,184.675854 C25.6927223,184.505176 25.8491805,184.379337 26.0215743,184.412605 L37.8051978,186.20183 C37.9761429,186.227866 38.0934866,186.386972 38.0688589,186.55765 C38.0442312,186.713864 37.910952,186.825238 37.7588398,186.825238" id="Fill-48" fill="#FFFFFF"></path>
                            <path d="M58.6092184,164.237611 C58.4397219,164.237611 58.300648,164.101647 58.2963019,163.932416 C58.2455978,161.898745 57.0649176,114.081455 58.3020966,108.227783 C59.1046695,104.442494 69.5047965,93.9949826 71.611188,91.9121338 L63.0465479,88.77195 C62.8828463,88.7126467 62.8002711,88.5332903 62.8596673,88.3712909 C62.9190634,88.2092916 63.097252,88.1268455 63.2609537,88.1847024 L72.2891737,91.4941177 C72.3920305,91.5302782 72.4659136,91.6170636 72.4890926,91.721206 C72.5122716,91.8267949 72.4775031,91.936723 72.4021713,92.0104906 C72.2761355,92.134883 59.7507841,104.417905 58.9163401,108.357961 C57.6921992,114.139312 58.9105454,163.420382 58.9221349,163.915059 C58.9279296,164.088629 58.7903043,164.231825 58.6179105,164.236165 C58.6150131,164.237611 58.6121157,164.237611 58.6092184,164.237611" id="Fill-49" fill="#5C69A5"></path>
                            <path d="M88.2719625,78.4959842 C88.2719625,78.4959842 80.4113846,81.6650965 78.861289,81.4539187 C77.3097448,81.2412946 71.7120166,80.6178864 71.4845727,79.4390518 L73.5895155,75.8389056 C73.5895155,75.8389056 70.458902,77.1479182 68.3380236,76.0515297 C66.2171452,74.9536949 63.6732501,72.7479002 63.1560687,71.0599248 C62.6388873,69.3733959 65.0813743,69.7147516 65.0813743,69.7147516 C65.0813743,69.7147516 62.3172787,67.9964014 65.828897,66.5268359 C69.3405153,65.0558239 84.5126187,62.873172 90.8317932,66.8320311 C97.1480704,70.7879973 88.2719625,78.4959842 88.2719625,78.4959842" id="Fill-50" fill="#FDCAB9"></path>
                            <path d="M65.081664,70.0280468 C64.9512822,70.0280468 64.8295924,69.9456007 64.7846831,69.8154227 C64.729633,69.6505305 64.8165542,69.4740669 64.9817046,69.4176564 C68.775817,68.1303401 72.6887217,68.666963 72.8509747,68.6901058 C73.0219198,68.7146949 73.1421608,68.872355 73.1175332,69.0430329 C73.0929055,69.2151572 72.9364472,69.340996 72.7640534,69.3091747 C72.7234902,69.3062818 68.8279697,68.7711054 65.1816235,70.0106897 C65.1497523,70.0222611 65.1149838,70.0280468 65.081664,70.0280468" id="Fill-51" fill="#000000"></path>
                            <path d="M90.0560211,116.334693 C89.7981547,116.334693 89.5301476,116.378086 89.2462048,116.463424 C88.7000497,116.628317 88.4074148,116.859744 88.3755437,117.150475 C88.2480592,118.304721 91.3583911,120.566926 93.6733936,121.938135 C93.46768,120.65805 92.841847,117.759419 91.2787133,116.713656 C90.9006059,116.460532 90.4964221,116.334693 90.0560211,116.334693" id="路径" fill="#5C69A5"></path>
                            <path d="M94.0703339,122.842149 C94.0181812,122.842149 93.9645797,122.827685 93.9167731,122.801649 C93.2619664,122.434258 87.5251642,119.149432 87.7526081,117.08394 C87.813453,116.518389 88.2567513,116.109051 89.0651189,115.864605 C90.0096631,115.57966 90.8745295,115.689588 91.6278469,116.19439 C93.8950428,117.710241 94.3644175,122.30408 94.3832504,122.499347 C94.3933912,122.61506 94.3397898,122.727881 94.2427277,122.791524 C94.190575,122.824792 94.1311788,122.842149 94.0703339,122.842149" id="路径" fill="#5C69A5"></path>
                            <path d="M72.8825561,80.2814485 L32.4033321,80.2814485 L20.8413578,54.1706248 L59.7255769,54.1706248 C60.6961975,54.1706248 61.574102,54.7434082 61.9666963,55.628619 L72.8825561,80.2814485 Z" id="Fill-53" fill="#FFFFFF"></path>
                            <path d="M69.3668814,80.2814485 L28.8876575,80.2814485 L18.568657,56.9795778 C17.9833873,55.6575474 18.9525592,54.1706248 20.3997979,54.1706248 L57.8049071,54.1706248 L69.3668814,80.2814485 Z" id="Fill-54" fill="#7C576C"></path>
                            <path d="M86.452556,83.5797263 L29.2989399,83.5797263 C28.3877155,83.5797263 27.6474362,82.8406042 27.6474362,81.9293579 C27.6474362,81.019558 28.3877155,80.2818824 29.2989399,80.2818824 L86.452556,80.2818824 C87.3637804,80.2818824 88.1040597,81.019558 88.1040597,81.9293579 C88.1040597,82.8406042 87.3637804,83.5797263 86.452556,83.5797263" id="Fill-55" fill="#000000"></path>
                            <path d="M112.490829,35.0003162 C112.490829,35.0003162 135.128019,59.6054137 131.445455,75.6202065 C127.764341,91.6349992 83.0795771,81.1701306 83.0795771,81.1701306 L83.5648874,62.4519737 L106.793141,58.8200061 L112.490829,35.0003162 Z" id="Fill-56" fill="#A37B90"></path>
                            <path d="M108.556484,58.7136941 C112.469389,59.3255309 116.547444,59.5569585 116.916859,58.8785863 C116.966114,58.7874616 116.857463,58.5791767 116.632916,58.3390706 C114.736584,56.3111859 110.425291,57.8877867 108.556484,58.7136941" id="路径" fill="#FFFFFF"></path>
                            <path d="M114.501897,59.9185642 C112.053615,59.9185642 108.802761,59.4007449 107.465622,59.1664244 C107.333792,59.144728 107.230935,59.0405856 107.209204,58.9089611 C107.188923,58.7758902 107.255562,58.6457122 107.372906,58.5820696 C107.6554,58.4345345 114.320811,54.9472092 117.09215,57.9123759 C117.536897,58.3882489 117.662933,58.8149437 117.465911,59.1765493 C117.166033,59.7305293 115.979558,59.9185642 114.501897,59.9185642" id="路径" fill="#FFFFFF"></path>
                            <path d="M109.228385,86.1208018 C98.1879382,86.1208018 89.1553721,83.8557037 89.0641048,83.8311145 C88.8627373,83.7804897 88.7424962,83.5765441 88.794649,83.3783842 C88.8439043,83.1787779 89.0409258,83.0500463 89.2480881,83.1079032 C89.3393554,83.1310459 98.2864489,85.3730012 109.228385,85.3730012 C109.439893,85.3730012 109.65285,85.3730012 109.865807,85.3701084 C110.096149,85.4091618 110.239569,85.5335541 110.243924,85.741839 C110.245364,85.9486775 110.078765,86.1164625 109.871602,86.1193553 C109.657196,86.1208018 109.441342,86.1208018 109.228385,86.1208018" id="Fill-58" fill="#FFBA57"></path>
                            <path d="M107.519368,59.1727886 C107.457075,59.1727886 107.394781,59.1539852 107.34118,59.1163782 C104.882757,57.4182778 106.779089,52.3543518 106.861664,52.1402812 C106.923958,51.9782818 107.106493,51.8972822 107.265848,51.9594784 C107.428101,52.0216745 107.509228,52.201031 107.446934,52.3630303 C107.42955,52.4107623 105.64187,57.1825109 107.697557,58.6014517 C107.840977,58.6998084 107.875746,58.8950755 107.777235,59.0368249 C107.71639,59.1250567 107.617879,59.1727886 107.519368,59.1727886" id="Fill-59" fill="#FFFFFF"></path>
                            <path d="M66.6888379,159.926548 C66.5236875,159.926548 66.3846135,159.79637 66.3759214,159.630031 C66.3657806,159.456461 66.4990598,159.308925 66.6714536,159.300247 L92.994104,157.923252 C93.1766387,157.94061 93.3157127,158.046198 93.3244048,158.218323 C93.3345456,158.391893 93.2012663,158.539429 93.0288725,158.548107 L66.7062221,159.925102 C66.7004274,159.925102 66.6946326,159.926548 66.6888379,159.926548" id="Fill-100" fill="#5C69A5"></path>
                            <path d="M58.4805749,158.549409 L34.9886597,158.549409 C34.8162659,158.549409 34.6742945,158.407659 34.6742945,158.235535 C34.6742945,158.063411 34.8162659,157.921661 34.9886597,157.921661 L58.4805749,157.921661 C58.6529687,157.921661 58.7949401,158.063411 58.7949401,158.235535 C58.7949401,158.407659 58.6529687,158.549409 58.4805749,158.549409" id="Fill-101" fill="#5C69A5"></path>
                            <path d="M87.1359019,82.4016149 L83.4489924,82.4016149 C82.9694768,82.4016149 82.5797799,82.0125272 82.5797799,81.5337613 L82.5797799,61.4631991 C82.5797799,60.9844332 82.9694768,60.5967919 83.4489924,60.5967919 L87.1359019,60.5967919 C87.6154174,60.5967919 88.0051143,60.9844332 88.0051143,61.4631991 L88.0051143,81.5337613 C88.0051143,82.0125272 87.6154174,82.4016149 87.1359019,82.4016149" id="Fill-102" fill="#FFFFFF"></path>
                            <path d="M47.3182935,67.2269045 C47.3182935,69.1231647 45.7797874,70.6592657 43.8805582,70.6592657 C41.981329,70.6592657 40.442823,69.1231647 40.442823,67.2269045 C40.442823,65.3291978 41.981329,63.7930969 43.8805582,63.7930969 C45.7797874,63.7930969 47.3182935,65.3291978 47.3182935,67.2269045" id="Fill-103" fill="#FFFFFF"></path>
                            <path d="M79.4510497,30.9378932 C79.4510497,30.9378932 76.7463503,40.0055175 77.656126,39.8276075 C78.5673504,39.6496975 83.9897874,34.789717 83.9897874,34.789717 C83.9897874,34.789717 87.940358,39.7972326 89.2354845,39.8290539 C90.5277137,39.863768 90.9826016,30.1119858 90.9826016,30.1119858 C90.9826016,30.1119858 89.6440144,33.1624914 84.8532051,33.8466494 C80.0623958,34.5308073 79.4510497,30.9378932 79.4510497,30.9378932" id="Fill-105" fill="#FFFFFF"></path>
                        </g>
                        <path d="M234.62898,201.12414 C234.166849,201.12414 233.711961,200.899944 233.441056,200.484821 L159.749225,88.4087533 C159.318965,87.7535238 159.501499,86.8755452 160.157755,86.4459576 C160.81401,86.0134772 161.696261,86.1971729 162.123623,86.8524024 L235.814006,198.927023 C236.245715,199.583699 236.063181,200.461678 235.406925,200.891265 C235.166443,201.048926 234.896987,201.12414 234.62898,201.12414" id="Fill-75" fill="#5C69A5"></path>
                        <path d="M13.5385634,201.12414 C13.2705563,201.12414 13.0011004,201.048926 12.7606183,200.891265 C12.1043629,200.461678 11.9218283,199.583699 12.3535371,198.927023 L86.0439202,86.8524024 C86.4727316,86.1971729 87.3535336,86.0134772 88.009789,86.4459576 C88.6660444,86.8755452 88.848579,87.7535238 88.4183188,88.4087533 L14.7264871,200.484821 C14.4555826,200.899944 14.0006947,201.12414 13.5385634,201.12414" id="Fill-76" fill="#5C69A5"></path>
                        <path d="M247.712511,88.9910831 L2.5569333,88.9910831 C1.14446306,88.9910831 6.55934876e-14,87.8484091 6.55934876e-14,86.4367005 L6.55934876e-14,85.6079003 C6.55934876e-14,84.1990845 1.14446306,83.0549641 2.5569333,83.0549641 L247.712511,83.0549641 C249.12643,83.0549641 250.270893,84.1990845 250.270893,85.6079003 L250.270893,86.4367005 C250.270893,87.8484091 249.12643,88.9910831 247.712511,88.9910831" id="Fill-77" fill="#40507F"></path>
                    </g>
                </g>
                <g id="编组-6" mask="url(#mask-2)">
                    <g transform="translate(23.540230, 17.655172)">
                        <rect id="矩形" stroke="#00BEBD" stroke-width="1" fill="#FFFFFF" fill-rule="evenodd" x="0.5" y="0.5" width="143.91954" height="106.402299" rx="6"></rect>
                        <rect id="矩形备份-6" stroke="none" fill="#00BEBD" fill-rule="evenodd" opacity="0.200000003" x="15.4482759" y="27.2183908" width="82.3908046" height="14.7126437" rx="3"></rect>
                        <rect id="矩形备份-7" stroke="none" fill="#00BEBD" fill-rule="evenodd" opacity="0.200000003" x="15.4482759" y="50.7586207" width="82.3908046" height="14.7126437" rx="3"></rect>
                        <rect id="矩形备份-8" stroke="none" fill="#00BEBD" fill-rule="evenodd" opacity="0.200000003" x="15.4482759" y="74.2988506" width="82.3908046" height="14.7126437" rx="3"></rect>
                        <path d="M5.73563218,0.735632184 L139.183908,0.735632184 C141.945332,0.735632184 144.183908,2.97420843 144.183908,5.73563218 L144.183908,14.7356322 L144.183908,14.7356322 L0.735632184,14.7356322 L0.735632184,5.73563218 C0.735632184,2.97420843 2.97420843,0.735632184 5.73563218,0.735632184 Z" id="矩形" stroke="none" fill="#00BEBD" fill-rule="evenodd" opacity="0.5"></path>
                        <path d="M126.528736,29.575041 L117.301162,41.2485073 C116.979575,41.655385 116.506722,41.902479 115.99948,41.9287131 C115.492239,41.9549471 114.997944,41.757873 114.638774,41.3862033 L108.873563,35.418752 L111.415505,32.78764 L115.776716,37.3009089 L123.746801,27.2183908 L126.528736,29.575041 Z" id="路径" stroke="none" fill="#00BEBD" fill-rule="nonzero"></path>
                        <path d="M126.528736,53.1152709 L117.301162,64.7887371 C116.979575,65.1956149 116.506722,65.4427089 115.99948,65.4689429 C115.492239,65.495177 114.997944,65.2981029 114.638774,64.9264332 L108.873563,58.9589819 L111.415505,56.3278699 L115.776716,60.8411387 L123.746801,50.7586207 L126.528736,53.1152709 Z" id="路径备份" stroke="none" fill="#00BEBD" fill-rule="nonzero"></path>
                        <path d="M126.528736,76.6555008 L117.301162,88.328967 C116.979575,88.7358447 116.506722,88.9829388 115.99948,89.0091728 C115.492239,89.0354069 114.997944,88.8383328 114.638774,88.4666631 L108.873563,82.4992117 L111.415505,79.8680997 L115.776716,84.3813686 L123.746801,74.2988506 L126.528736,76.6555008 Z" id="路径备份-2" stroke="none" fill="#00BEBD" fill-rule="nonzero"></path>
                    </g>
                </g>
            </g>
        </g>
    </g>
</svg>