<?xml version="1.0" encoding="UTF-8"?>
<svg width="56px" height="56px" viewBox="0 0 56 56" version="1.1" xmlns="http://www.w3.org/2000/svg" xmlns:xlink="http://www.w3.org/1999/xlink">
    <title></title>
    <defs>
        <linearGradient x1="59.4943025%" y1="79.3003286%" x2="43.3420123%" y2="33.399836%" id="linearGradient-1">
            <stop stop-color="#FEF5F5" offset="0%"></stop>
            <stop stop-color="#FEE2E2" offset="100%"></stop>
        </linearGradient>
        <ellipse id="path-2" cx="9.840443" cy="18.5606793" rx="7.73487487" ry="17.7503436"></ellipse>
    </defs>
    <g id="页面-1" stroke="none" stroke-width="1" fill="none" fill-rule="evenodd">
        <g id="出勤参考值" transform="translate(-880.000000, -416.000000)">
            <g id="编组-14" transform="translate(772.000000, 408.000000)">
                <g id="编组-10" transform="translate(108.000000, 8.000000)">
                    <rect id="矩形" x="0" y="0" width="56" height="56"></rect>
                    <g id="编组-48" transform="translate(8.000000, 6.000000)">
                        <path d="M28.3585836,27.9645593 C30.117696,27.9645593 31.5437024,29.3907093 31.5438459,31.1498216 L31.544588,40.2541987 C31.5447314,42.0129403 30.1191058,43.4389417 28.3603642,43.4389417 C28.3601911,43.4389417 28.360018,43.4389417 28.359845,43.4389417 C26.6007326,43.4389417 25.1747261,42.0127917 25.1745827,40.2536793 L25.1738405,31.1493022 C25.1736972,29.3905606 26.5993227,27.9645593 28.3580643,27.9645593 C28.3582374,27.9645593 28.3584105,27.9645593 28.3585836,27.9645593 Z" id="矩形备份-25" fill="#FEEBEB" fill-rule="nonzero" transform="translate(28.359214, 35.701750) rotate(15.000000) translate(-28.359214, -35.701750) "></path>
                        <path d="M28.1883934,21.8961776 L43.6629301,21.8952326 C43.6629301,24.3857928 41.7790482,26.4727611 39.3015179,26.7271901 C38.1761271,26.8427676 37.0507398,26.9005907 35.925356,26.9006595 C34.8000034,26.9007281 33.6746543,26.8430456 32.5493088,26.7276121 C30.0719145,26.4734777 28.1883934,24.3865724 28.1883934,21.8961776 L28.1883934,21.8961776 L28.1883934,21.8961776 Z" id="矩形备份-26" fill="#FEE2E2" fill-rule="nonzero" transform="translate(35.925662, 24.397946) rotate(-80.000000) translate(-35.925662, -24.397946) "></path>
                        <path d="M24.6317689,21.1669285 L42.3819728,21.1658444 C42.3817922,24.1218816 40.1433256,26.597618 37.2022469,26.894623 C35.9703307,27.0190207 34.7384181,27.0812572 33.5065095,27.0813325 C32.2746577,27.0814077 31.0428097,27.0193274 29.8109656,26.8950916 C26.8700137,26.598485 24.6315883,24.1227995 24.6317689,21.1669285 L24.6317689,21.1669285 L24.6317689,21.1669285 Z" id="矩形备份-27" fill="#FEF5F5" fill-rule="nonzero" transform="translate(33.506871, 24.123588) rotate(-79.000000) translate(-33.506871, -24.123588) "></path>
                        <path d="M6.77932669,12.0146868 L38.4529774,10.1408401 C34.0179091,16.4585483 31.6234348,20.1481228 31.2695544,21.2095637 C30.1704393,24.5062869 29.9100355,27.2086735 30.488343,29.3167239 C27.3841306,30.9914564 24.3745459,31.8290898 21.4595887,31.8290898 C18.5446314,31.8290898 15.6374816,30.9921738 12.7381391,29.3178079 C13.1347979,26.9070069 12.9487017,24.3947068 12.1798507,21.7809079 C11.4109997,19.1671088 9.61082504,15.9117018 6.77932669,12.0146868 Z" id="矩形备份-28" fill="#FEEBEB" fill-rule="nonzero" transform="translate(22.616152, 20.984965) rotate(-79.000000) translate(-22.616152, -20.984965) "></path>
                        <g id="编组-47备份">
                            <ellipse id="path-3" stroke="#FFFFFF" fill="url(#linearGradient-1)" fill-rule="nonzero" transform="translate(10.358090, 19.078326) rotate(7.000000) translate(-10.358090, -19.078326) " cx="10.3580901" cy="19.0783264" rx="7.73487487" ry="17.7503436"></ellipse>
                            <g id="椭圆形-Clipped" transform="translate(0.000000, 0.517647)">
                                <mask id="mask-3" fill="white">
                                    <use xlink:href="#path-2"></use>
                                </mask>
                                <g id="path-3" transform="translate(9.840443, 18.560679) rotate(7.000000) translate(-9.840443, -18.560679) "></g>
                                <ellipse id="椭圆形" fill="#FFDBDB" fill-rule="nonzero" mask="url(#mask-3)" transform="translate(18.302818, 21.364403) rotate(9.000000) translate(-18.302818, -21.364403) " cx="18.3028183" cy="21.3644029" rx="5.45992884" ry="7.50973085"></ellipse>
                            </g>
                        </g>
                    </g>
                </g>
            </g>
        </g>
    </g>
</svg>