<?xml version="1.0" encoding="UTF-8"?>
<svg width="57px" height="56px" viewBox="0 0 57 56" version="1.1" xmlns="http://www.w3.org/2000/svg" xmlns:xlink="http://www.w3.org/1999/xlink">
    <title></title>
    <g id="页面-1" stroke="none" stroke-width="1" fill="none" fill-rule="evenodd">
        <g id="出勤参考值" transform="translate(-571.000000, -416.000000)">
            <g id="编组-13" transform="translate(408.000000, 408.000000)">
                <g id="编组-6" transform="translate(163.929218, 8.000000)">
                    <rect id="矩形" x="0" y="0" width="56" height="56"></rect>
                    <g id="编组-2" transform="translate(3.000000, 11.000000)">
                        <ellipse id="椭圆形" fill="#32C886" opacity="0.100000001" cx="23.5434495" cy="29.2655546" rx="23.5434495" ry="7.21796189"></ellipse>
                        <ellipse id="椭圆形备份-2" fill="#32C886" opacity="0.200000003" cx="23.5434495" cy="29.2655546" rx="14.9821951" ry="4.59324848"></ellipse>
                        <g id="编组-3" transform="translate(6.084262, 0.000000)">
                            <path d="M34.3274075,6.03684086 C34.6750284,6.03684086 35.0205569,6.05590721 35.3628666,6.09376417 C40.0256514,6.60943406 43.5860674,10.5325613 43.5860674,15.2233378 C43.5860674,20.2969 39.4408242,24.4098348 34.3274075,24.4098348 C33.0533681,24.4098348 31.8134392,24.1536058 30.6673856,23.6637754 L30.5184376,23.5985615 L31.6077009,21.20669 C32.4543078,21.58625 33.3754729,21.7851214 34.3274075,21.7851214 C37.979848,21.7851214 40.940736,18.8473108 40.940736,15.2233378 C40.940736,11.8732423 38.3969162,9.07027521 35.0698289,8.70232369 C34.8860375,8.68199771 34.700759,8.6692279 34.5142783,8.66411337 L34.3274075,8.66155427 L34.3274075,6.03684086 Z" id="路径" fill="#E0F7ED" fill-rule="nonzero"></path>
                            <path d="M0.0944122214,4.30548437 C0.0319936644,5.17646195 0,6.06055597 0,6.95549055 C0,20.9440263 5.00517528,32.283975 17.4591873,32.283975 C29.9131992,32.283975 34.9183745,20.9440263 34.9183745,6.95549055 C34.9183745,5.9041732 34.8742226,4.86781605 34.7884622,3.85010865" id="路径" fill="#E0F7ED"></path>
                            <ellipse id="椭圆形" stroke="#979797" stroke-width="0.6" cx="17.4591873" cy="4.72448415" rx="17.1591873" ry="4.42448415"></ellipse>
                            <ellipse id="椭圆形备份" stroke="#FFFFFF" fill="#E0F7ED" cx="17.4591873" cy="4.72448415" rx="17.9591873" ry="5.22448415"></ellipse>
                        </g>
                    </g>
                </g>
            </g>
        </g>
    </g>
</svg>