<?xml version="1.0" encoding="UTF-8"?>
<svg width="56px" height="56px" viewBox="0 0 56 56" version="1.1" xmlns="http://www.w3.org/2000/svg" xmlns:xlink="http://www.w3.org/1999/xlink">
    <title></title>
    <defs>
        <rect id="path-1" x="0" y="0" width="56" height="56"></rect>
        <ellipse id="path-3" cx="24" cy="6.97143678" rx="24" ry="6.5"></ellipse>
    </defs>
    <g id="页面-1" stroke="none" stroke-width="1" fill="none" fill-rule="evenodd">
        <g id="出勤参考值" transform="translate(-1124.000000, -416.000000)">
            <g id="编组-15" transform="translate(988.000000, 408.000000)">
                <g id="编组-16" transform="translate(136.000000, 8.000000)">
                    <mask id="mask-2" fill="white">
                        <use xlink:href="#path-1"></use>
                    </mask>
                    <g id="矩形"></g>
                    <g id="编组-19" mask="url(#mask-2)">
                        <g transform="translate(5.000000, 35.205427)">
                            <mask id="mask-4" fill="white">
                                <use xlink:href="#path-3"></use>
                            </mask>
                            <use id="蒙版" stroke="none" fill="#E7F3FF" fill-rule="evenodd" xlink:href="#path-3"></use>
                            <g id="编组-11" stroke="none" stroke-width="1" fill="none" fill-rule="evenodd" mask="url(#mask-4)">
                                <g transform="translate(3.080939, -29.814116)" fill-rule="nonzero" id="路径">
                                    <path d="M15.8697527,15.6693825 L15.0368617,15.6693825 L15.911476,16.8597835 C15.8256677,16.4600926 15.8170082,16.0604016 15.8697527,15.6693825 Z" stroke="none" fill="#168CFF" opacity="0.300000012" transform="translate(15.474169, 16.264583) rotate(22.000000) translate(-15.474169, -16.264583) "></path>
                                    <path d="M17.3220201,15.2402528 C17.3023393,15.1897988 17.2960415,15.1385563 17.2787224,15.0881022 C17.2661267,15.0825838 17.2511693,15.0817955 17.243297,15.0699703 L16.0593007,13.4578046 L9.49772564,4.52822004 C8.93721676,3.76510201 8.10983639,3.26529124 7.16830744,3.12181244 C6.22835296,2.98069867 5.2891857,3.20853039 4.52635832,3.76983208 C3.7651054,4.33192212 3.26600059,5.15968444 3.12272444,6.10333349 C2.9794483,7.04619419 3.20853268,7.98511317 3.76904156,8.7482312 L12.650588,20.8359261 C13.4874152,20.1335107 15.9333437,18.2470009 17.9148055,16.7286483 L17.3220201,15.2402528 Z" stroke="#FFFFFF" stroke-width="0.3" fill="#DBEDFF" transform="translate(10.497943, 11.958504) rotate(22.000000) translate(-10.497943, -11.958504) "></path>
                                    <path d="M29.543122,43.3888505 L29.5620728,37.4498587 C29.5626416,37.4169285 29.5811796,37.3878572 29.6109112,37.3752121 C33.0099151,35.8720775 34.1757483,32.1207257 34.4212509,27.6064178 C34.4014544,27.5839651 34.3900159,27.5555364 34.4021239,27.5255678 C34.4065537,27.5146037 34.4171013,27.5095124 34.4253199,27.5017796 C34.5265289,25.5343623 34.458389,23.4271021 34.3226462,21.2959295 C34.3222284,21.2906591 34.3269199,21.2874531 34.327232,21.2824776 C34.3275441,21.2775022 34.3243459,21.272809 34.3256833,21.2673975 L37.7214202,9.53179397 C38.1513111,8.04747894 37.3008302,6.48119201 35.8103656,6.06181062 C35.0951712,5.85447803 34.3396321,5.9403389 33.6827162,6.30326798 C33.0250704,6.66590216 32.5497155,7.26033453 32.3426212,7.97675535 L29.9477917,16.2557323 C30.1233489,16.6744173 30.2194955,17.1341405 30.2167135,17.6159628 L30.1797734,24.9260068 C30.1701218,26.8496412 28.599025,28.4076911 26.6773541,28.3999184 L26.2543612,28.3982195 C25.8076825,28.3963036 25.3744944,28.3105613 24.971585,28.1477754 C24.5372895,27.9723086 24.1390229,27.7076671 23.7983873,27.3634287 C23.3191093,26.8789998 23.0031663,26.2803079 22.8666768,25.632533 C22.5184736,27.2025679 21.1170344,28.3785275 19.448749,28.3719486 L19.0260515,28.3695187 C18.9345227,28.3690997 18.841133,28.3585761 18.7475873,28.3505402 C19.8043688,30.4737714 19.4126093,32.8535091 19.132947,33.951285 C19.1219531,33.9953078 19.0763749,34.0219567 19.0324076,34.0109948 C19.0284627,34.0102512 19.0255431,34.0090716 19.0218936,34.0075971 C18.9839383,33.9922622 18.9623146,33.9512158 18.9725618,33.9111426 C20.0370938,29.7464497 18.1703338,27.4991774 17.318175,26.7272033 C16.3287833,25.828362 15.1197194,25.4248942 14.3076619,25.7157892 L14.2962451,25.7188288 C14.2868788,25.7209964 14.2787106,25.7159957 14.2695003,25.7156755 C14.2581003,25.7144707 14.2469788,25.7167794 14.2370555,25.7119198 C14.2264021,25.7067653 14.2220563,25.6965069 14.2146347,25.6875566 C14.2088122,25.6809529 14.2000533,25.677414 14.1968719,25.6684763 C14.1913783,25.6526527 14.1969726,25.6430093 14.198622,25.6326224 C14.1999761,25.6229664 14.1973854,25.6125668 14.202389,25.6043853 C14.2069581,25.595178 14.2161851,25.5912536 14.2241084,25.5842518 C14.2320317,25.5772499 14.2358708,25.5677476 14.2458278,25.5641182 L17.6120999,24.6106296 C19.8935552,23.9653728 21.2278328,21.5812705 20.5854715,19.2981267 C20.3914031,18.605832 19.6711413,18.2008928 18.9799331,18.3986211 C18.8862531,18.4245412 9.72333551,20.9208597 8.90391685,21.2614966 C8.16109495,21.5701614 7.49119844,22.9234976 7.15541037,24.7927377 C6.7915267,26.8155764 6.86202074,29.1040424 7.35005763,31.0714583 C7.99941769,33.6924312 9.96870214,38.0038888 15.8560594,37.4448957 C15.9012583,37.4402003 15.9413362,37.4733979 15.9456871,37.5193692 C15.9503333,37.5646095 15.9168347,37.6054917 15.8712012,37.6091613 C15.0437519,37.6880752 14.0130927,37.6857373 12.9437517,37.4450034 L12.9247573,43.3210585 L29.543122,43.3888505 Z" stroke="#FFFFFF" stroke-width="0.3" fill="#C7E3FF"></path>
                                    <path d="M18.9465196,18.2921811 C19.3346247,18.3418468 19.6810066,18.5405098 19.920325,18.8503294 C21.4270862,20.7991184 21.0704703,23.612722 19.1236467,25.1216144 L17.0587383,26.7227433 C17.7688211,26.5209269 18.6890948,26.573746 19.5999218,26.9087927 C20.2777281,27.1586981 20.8468966,27.5055699 21.3318312,27.9084142 C21.4499159,27.8753037 21.5680007,27.8390399 21.6805748,27.7941042 L22.0734033,27.6380119 C23.7738235,26.9592468 24.60514,25.0214946 23.9273337,23.3186692 L21.2231932,16.5270765 C20.5453869,14.8250395 18.6111589,13.9941238 16.9099515,14.6705238 L16.517123,14.8266162 C14.8167028,15.5053813 13.9853863,17.4431334 14.6631926,19.1459588 L15.2386589,20.5909953 C16.6233992,19.5306712 17.7459914,18.6768935 17.8640762,18.5878105 C18.1742454,18.3481536 18.5592016,18.2433037 18.9465196,18.2921811 Z" stroke="#FFFFFF" stroke-width="0.3" fill="#B1D8FF" transform="translate(19.295263, 21.171769) rotate(22.000000) translate(-19.295263, -21.171769) "></path>
                                    <path d="M26.3471711,27.7813999 C27.162743,28.1337901 28.0649104,28.1456153 28.8859929,27.8192404 L29.2788215,27.6623598 C30.9792416,26.9835947 31.8105582,25.0458425 31.1327518,23.3438055 L28.4286114,16.5522127 C27.910613,15.2522317 26.6597021,14.4591565 25.3410892,14.4591565 C24.932516,14.4591565 24.517645,14.5348377 24.1161569,14.6956601 L23.7233283,14.8525407 C22.903033,15.1797039 22.2582904,15.8111683 21.9063979,16.6286822 C21.5552926,17.4469844 21.5419097,18.3496395 21.8686108,19.171095 L24.5727512,25.9618995 C24.9002395,26.783355 25.5300248,27.429798 26.3471711,27.7813999 Z" stroke="#FFFFFF" stroke-width="0.3" fill="#B1D8FF" transform="translate(26.500930, 21.257177) rotate(22.000000) translate(-26.500930, -21.257177) "></path>
                                </g>
                            </g>
                        </g>
                    </g>
                    <g id="编组-11" mask="url(#mask-2)" fill-rule="nonzero">
                        <g transform="translate(8.080939, 5.391311)" id="路径">
                            <path d="M15.8697527,15.6693825 L15.0368617,15.6693825 L15.911476,16.8597835 C15.8256677,16.4600926 15.8170082,16.0604016 15.8697527,15.6693825 Z" stroke="none" fill="#168CFF" opacity="0.300000012" transform="translate(15.474169, 16.264583) rotate(22.000000) translate(-15.474169, -16.264583) "></path>
                            <path d="M17.3220201,15.2402528 C17.3023393,15.1897988 17.2960415,15.1385563 17.2787224,15.0881022 C17.2661267,15.0825838 17.2511693,15.0817955 17.243297,15.0699703 L16.0593007,13.4578046 L9.49772564,4.52822004 C8.93721676,3.76510201 8.10983639,3.26529124 7.16830744,3.12181244 C6.22835296,2.98069867 5.2891857,3.20853039 4.52635832,3.76983208 C3.7651054,4.33192212 3.26600059,5.15968444 3.12272444,6.10333349 C2.9794483,7.04619419 3.20853268,7.98511317 3.76904156,8.7482312 L12.650588,20.8359261 C13.4874152,20.1335107 15.9333437,18.2470009 17.9148055,16.7286483 L17.3220201,15.2402528 Z" stroke="#FFFFFF" stroke-width="0.3" fill="#DBEDFF" transform="translate(10.497943, 11.958504) rotate(22.000000) translate(-10.497943, -11.958504) "></path>
                            <path d="M29.543122,40.3888505 L29.5620728,37.4498587 C29.5626416,37.4169285 29.5811796,37.3878572 29.6109112,37.3752121 C33.0099151,35.8720775 34.1757483,32.1207257 34.4212509,27.6064178 C34.4014544,27.5839651 34.3900159,27.5555364 34.4021239,27.5255678 C34.4065537,27.5146037 34.4171013,27.5095124 34.4253199,27.5017796 C34.5265289,25.5343623 34.458389,23.4271021 34.3226462,21.2959295 C34.3222284,21.2906591 34.3269199,21.2874531 34.327232,21.2824776 C34.3275441,21.2775022 34.3243459,21.272809 34.3256833,21.2673975 L37.7214202,9.53179397 C38.1513111,8.04747894 37.3008302,6.48119201 35.8103656,6.06181062 C35.0951712,5.85447803 34.3396321,5.9403389 33.6827162,6.30326798 C33.0250704,6.66590216 32.5497155,7.26033453 32.3426212,7.97675535 L29.9477917,16.2557323 C30.1233489,16.6744173 30.2194955,17.1341405 30.2167135,17.6159628 L30.1797734,24.9260068 C30.1701218,26.8496412 28.599025,28.4076911 26.6773541,28.3999184 L26.2543612,28.3982195 C25.8076825,28.3963036 25.3744944,28.3105613 24.971585,28.1477754 C24.5372895,27.9723086 24.1390229,27.7076671 23.7983873,27.3634287 C23.3191093,26.8789998 23.0031663,26.2803079 22.8666768,25.632533 C22.5184736,27.2025679 21.1170344,28.3785275 19.448749,28.3719486 L19.0260515,28.3695187 C18.9345227,28.3690997 18.841133,28.3585761 18.7475873,28.3505402 C19.8043688,30.4737714 19.4126093,32.8535091 19.132947,33.951285 C19.1219531,33.9953078 19.0763749,34.0219567 19.0324076,34.0109948 C19.0284627,34.0102512 19.0255431,34.0090716 19.0218936,34.0075971 C18.9839383,33.9922622 18.9623146,33.9512158 18.9725618,33.9111426 C20.0370938,29.7464497 18.1703338,27.4991774 17.318175,26.7272033 C16.3287833,25.828362 15.1197194,25.4248942 14.3076619,25.7157892 L14.2962451,25.7188288 C14.2868788,25.7209964 14.2787106,25.7159957 14.2695003,25.7156755 C14.2581003,25.7144707 14.2469788,25.7167794 14.2370555,25.7119198 C14.2264021,25.7067653 14.2220563,25.6965069 14.2146347,25.6875566 C14.2088122,25.6809529 14.2000533,25.677414 14.1968719,25.6684763 C14.1913783,25.6526527 14.1969726,25.6430093 14.198622,25.6326224 C14.1999761,25.6229664 14.1973854,25.6125668 14.202389,25.6043853 C14.2069581,25.595178 14.2161851,25.5912536 14.2241084,25.5842518 C14.2320317,25.5772499 14.2358708,25.5677476 14.2458278,25.5641182 L17.6120999,24.6106296 C19.8935552,23.9653728 21.2278328,21.5812705 20.5854715,19.2981267 C20.3914031,18.605832 19.6711413,18.2008928 18.9799331,18.3986211 C18.8862531,18.4245412 9.72333551,20.9208597 8.90391685,21.2614966 C8.16109495,21.5701614 7.49119844,22.9234976 7.15541037,24.7927377 C6.7915267,26.8155764 6.86202074,29.1040424 7.35005763,31.0714583 C7.99941769,33.6924312 9.96870214,38.0038888 15.8560594,37.4448957 C15.9012583,37.4402003 15.9413362,37.4733979 15.9456871,37.5193692 C15.9503333,37.5646095 15.9168347,37.6054917 15.8712012,37.6091613 C15.0437519,37.6880752 14.0130927,37.6857373 12.9437517,37.4450034 L12.9247573,40.3210585" stroke="#FFFFFF" stroke-width="0.3" fill="#C7E3FF"></path>
                            <path d="M18.9465196,18.2921811 C19.3346247,18.3418468 19.6810066,18.5405098 19.920325,18.8503294 C21.4270862,20.7991184 21.0704703,23.612722 19.1236467,25.1216144 L17.0587383,26.7227433 C17.7688211,26.5209269 18.6890948,26.573746 19.5999218,26.9087927 C20.2777281,27.1586981 20.8468966,27.5055699 21.3318312,27.9084142 C21.4499159,27.8753037 21.5680007,27.8390399 21.6805748,27.7941042 L22.0734033,27.6380119 C23.7738235,26.9592468 24.60514,25.0214946 23.9273337,23.3186692 L21.2231932,16.5270765 C20.5453869,14.8250395 18.6111589,13.9941238 16.9099515,14.6705238 L16.517123,14.8266162 C14.8167028,15.5053813 13.9853863,17.4431334 14.6631926,19.1459588 L15.2386589,20.5909953 C16.6233992,19.5306712 17.7459914,18.6768935 17.8640762,18.5878105 C18.1742454,18.3481536 18.5592016,18.2433037 18.9465196,18.2921811 Z" stroke="#FFFFFF" stroke-width="0.3" fill="#B1D8FF" transform="translate(19.295263, 21.171769) rotate(22.000000) translate(-19.295263, -21.171769) "></path>
                            <path d="M26.3471711,27.7813999 C27.162743,28.1337901 28.0649104,28.1456153 28.8859929,27.8192404 L29.2788215,27.6623598 C30.9792416,26.9835947 31.8105582,25.0458425 31.1327518,23.3438055 L28.4286114,16.5522127 C27.910613,15.2522317 26.6597021,14.4591565 25.3410892,14.4591565 C24.932516,14.4591565 24.517645,14.5348377 24.1161569,14.6956601 L23.7233283,14.8525407 C22.903033,15.1797039 22.2582904,15.8111683 21.9063979,16.6286822 C21.5552926,17.4469844 21.5419097,18.3496395 21.8686108,19.171095 L24.5727512,25.9618995 C24.9002395,26.783355 25.5300248,27.429798 26.3471711,27.7813999 Z" stroke="#FFFFFF" stroke-width="0.3" fill="#B1D8FF" transform="translate(26.500930, 21.257177) rotate(22.000000) translate(-26.500930, -21.257177) "></path>
                        </g>
                    </g>
                </g>
            </g>
        </g>
    </g>
</svg>