<?xml version="1.0" encoding="UTF-8"?>
<svg width="14px" height="14px" viewBox="0 0 14 14" version="1.1" xmlns="http://www.w3.org/2000/svg" xmlns:xlink="http://www.w3.org/1999/xlink">
    <title></title>
    <g id="页面-1" stroke="none" stroke-width="1" fill="none" fill-rule="evenodd">
        <g id="会议室预定_日_地点不可选择" transform="translate(-1186.000000, -77.000000)">
            <g id="编组-10" transform="translate(1178.000000, 70.000000)">
                <g id="编组" transform="translate(8.000000, 7.000000)">
                    <polygon id="路径" points="0 0 14 0 14 14 0 14"></polygon>
                    <path d="M10.5180833,9.10991667 L13.0165,11.60775 L12.1910833,12.4331667 L9.69325,9.93475 C8.7638473,10.6797956 7.60783396,11.085028 6.41666667,11.0833333 C3.51866667,11.0833333 1.16666667,8.73133333 1.16666667,5.83333333 C1.16666667,2.93533333 3.51866667,0.583333333 6.41666667,0.583333333 C9.31466667,0.583333333 11.6666667,2.93533333 11.6666667,5.83333333 C11.6683614,7.02450063 11.263129,8.18051397 10.5180833,9.10991667 Z M9.34791667,8.67708333 C10.0882325,7.91576663 10.5016724,6.89525041 10.5000051,5.83333333 C10.5000051,3.577 8.67241667,1.75 6.41666667,1.75 C4.16033333,1.75 2.33333333,3.577 2.33333333,5.83333333 C2.33333333,8.08908333 4.16033333,9.91667172 6.41666667,9.91667172 C7.47858375,9.91833909 8.49909996,9.50489918 9.26041667,8.76458333 L9.34791667,8.67708333 L9.34791667,8.67708333 Z" id="形状" fill="currentColor" fill-rule="nonzero"></path>
                </g>
            </g>
        </g>
    </g>
</svg>