<?xml version="1.0" encoding="UTF-8"?><svg version="1.1" width="15px" height="15px" viewBox="0 0 15.0 15.0" xmlns="http://www.w3.org/2000/svg" xmlns:xlink="http://www.w3.org/1999/xlink"><defs><clipPath id="i0"><path d="M1440,0 L1440,900 L0,900 L0,0 L1440,0 Z"></path></clipPath><clipPath id="i1"><path d="M1374,110 C1377.31371,110 1380,112.686292 1380,116 L1380,846 C1380,849.313708 1377.31371,852 1374,852 L67,852 C63.6862915,852 61,849.313708 61,846 L61,116 C61,112.686292 63.6862915,110 67,110 L1374,110 Z"></path></clipPath><clipPath id="i2"><path d="M7.07777778,0 C7.3888889,0 7.7,0.233333333 7.7,0.622222216 C7.7,1.0111111 7.46666667,1.24444443 7.07777778,1.24444445 L2.95555555,1.24444445 C1.94444443,1.24444445 1.16666667,2.02222223 1.16666667,3.03333333 L1.16666667,11.1222222 C1.16666667,12.1333333 1.94444445,12.9111111 2.95555555,12.9111111 L11.0444445,12.9111111 C12.0555556,12.9111111 12.8333333,12.1333333 12.8333333,11.1222222 L12.8333333,7.31111112 C12.8333333,7 13.0666667,6.6888889 13.4555555,6.68888888 C13.7666667,6.68888888 14.0777778,6.92222222 14.0777778,7.31111112 L14.0777778,11.1222222 C14,12.6777778 12.6777778,14 11.0444445,14 L2.95555555,14 C1.32222222,14 0,12.6777778 0,11.0444445 L0,2.95555555 C0,1.32222222 1.32222222,0 2.95555555,0 L7.07777778,0 Z M13.8444445,0.622222216 C14.0777778,0.855555549 14.0777778,1.24444443 13.8444445,1.47777778 L7,8.24444445 C6.92222222,8.32222223 6.76666667,8.4 6.61111112,8.4 C6.45555557,8.4 6.3,8.32222222 6.22222222,8.24444445 C5.98888888,8.01111112 5.98888888,7.62222223 6.22222222,7.38888888 L12.9888889,0.622222216 C13.2222222,0.388888883 13.6111111,0.388888883 13.8444445,0.622222216 Z"></path></clipPath></defs><g transform="translate(-1340.0 -481.0)"><g clip-path="url(#i0)"><g clip-path="url(#i1)"><g transform="translate(1340.000000398154 481.3529603813622)"><g clip-path="url(#i2)"><polygon points="0,0 14.0777778,0 14.0777778,14 0,14 0,0" stroke="none" fill="#2B2C3F"></polygon></g></g></g></g></g></svg>