<?xml version="1.0" encoding="UTF-8"?><svg version="1.1" width="15px" height="15px" viewBox="0 0 15.0 15.0" xmlns="http://www.w3.org/2000/svg" xmlns:xlink="http://www.w3.org/1999/xlink"><defs><clipPath id="i0"><path d="M1440,0 L1440,900 L0,900 L0,0 L1440,0 Z"></path></clipPath><clipPath id="i1"><path d="M7,0 C10.8659932,0 14,3.13400675 14,7 C14,10.8659932 10.8659932,14 7,14 C3.13400675,14 0,10.8659932 0,7 C0,3.13400675 3.13400675,0 7,0 Z M7,1.11132097 C3.78465536,1.16357557 1.20547886,3.78500847 1.20547886,7.0007777 C1.20547886,10.2165469 3.78465536,12.8379798 7,12.8902344 C10.2153446,12.8379798 12.7945211,10.2165469 12.7945211,7.0007777 C12.7945211,3.78500847 10.2153446,1.16357557 7,1.11132097 Z"></path></clipPath></defs><g transform="translate(-848.0 -139.0)"><g clip-path="url(#i0)"><g transform="translate(848.6070507702316 136.16175990465945)"><g transform="translate(0.0 3.0)"><g clip-path="url(#i1)"><polygon points="0,0 14,0 14,14 0,14 0,0" stroke="none" fill="#989C9B"></polygon></g><g transform="translate(4.439701252654363 4.439701252653226)"><g transform="translate(1.0405010186786967e-12 0.7071067811882232) rotate(-44.99999999999999)"><path d="M0.5,0 L0.5,6.24161842" stroke="#989C9B" stroke-width="1.3" fill="none" stroke-linecap="round" stroke-linejoin="round"></path></g><g transform="translate(5.120597494692316 0.7071067811864042) rotate(44.99999999999999) scale(-1.0 1.0)"><path d="M0.5,0 L0.5,6.24161842" stroke="#989C9B" stroke-width="1.3" fill="none" stroke-linecap="round" stroke-linejoin="round"></path></g></g></g></g></g></g></svg>