<?xml version="1.0" encoding="UTF-8"?><svg version="1.1" width="13px" height="13px" viewBox="0 0 13.0 13.0" xmlns="http://www.w3.org/2000/svg" xmlns:xlink="http://www.w3.org/1999/xlink"><defs><clipPath id="i0"><path d="M1440,0 L1440,900 L0,900 L0,0 L1440,0 Z"></path></clipPath><clipPath id="i1"><path d="M11.9035604,0.198170859 L11.9925864,0.276784092 C12.3616318,0.645829547 12.3616318,1.24417045 11.9925864,1.61321591 L7.471,6.134 L11.9925864,10.6561545 C12.3616318,11.0252 12.3616318,11.6235409 11.9925864,11.9925864 C11.6235409,12.3616318 11.0252,12.3616318 10.6561545,11.9925864 L6.134,7.471 L1.61321591,11.9925864 C1.27255856,12.3332437 0.736525217,12.3594481 0.365810026,12.0711996 L0.276784092,11.9925864 C-0.0922613639,11.6235409 -0.0922613639,11.0252 0.276784092,10.6561545 L4.798,6.134 L0.276784092,1.61321591 C-0.0922613639,1.24417045 -0.0922613639,0.645829547 0.276784092,0.276784092 C0.645829547,-0.0922613639 1.24417045,-0.0922613639 1.61321591,0.276784092 L6.134,4.798 L10.6561545,0.276784092 C10.9968119,-0.0638732519 11.5328452,-0.090077663 11.9035604,0.198170859 Z"></path></clipPath></defs><g transform="translate(-1347.0 -482.0)"><g clip-path="url(#i0)"><g transform="translate(1347.586335077916 482.2182751565541)"><g clip-path="url(#i1)"><polygon points="1.13686838e-13,-7.16093851e-15 12.2693704,-7.16093851e-15 12.2693704,12.2693704 1.13686838e-13,12.2693704 1.13686838e-13,-7.16093851e-15" stroke="none" fill="#FFFFFF"></polygon></g></g></g></g></svg>