<?xml version="1.0" encoding="UTF-8"?><svg version="1.1" width="23px" height="25px" viewBox="0 0 23.0 25.0" xmlns="http://www.w3.org/2000/svg" xmlns:xlink="http://www.w3.org/1999/xlink"><defs><clipPath id="i0"><path d="M0.8,0 C1.2418278,0 1.6,0.3581722 1.6,0.8 L1.6,23.4136472 C1.6,23.855475 1.2418278,24.2136472 0.8,24.2136472 C0.3581722,24.2136472 0,23.855475 0,23.4136472 L0,0.8 C0,0.3581722 0.3581722,0 0.8,0 Z M21.0452533,17.081826 C21.597538,17.081826 22.0452533,17.5295412 22.0452533,18.081826 L22.0452533,22.4136472 C22.0452533,22.9659319 21.597538,23.4136472 21.0452533,23.4136472 L5.40660846,23.4136472 C4.85432371,23.4136472 4.40660846,22.9659319 4.40660846,22.4136472 L4.40660846,18.081826 C4.40660846,17.5295412 4.85432371,17.081826 5.40660846,17.081826 L21.0452533,17.081826 Z M20.4455156,18.6818868 L6.00751559,18.6818868 L6.00751559,21.8138868 L20.4455156,21.8138868 L20.4455156,18.6818868 Z M13.3566132,8.94091299 C13.908898,8.94091299 14.3566132,9.38862824 14.3566132,9.94091299 L14.3566132,14.2727342 C14.3566132,14.825019 13.908898,15.2727342 13.3566132,15.2727342 L5.40660846,15.2727342 C4.85432371,15.2727342 4.40660846,14.825019 4.40660846,14.2727342 L4.40660846,9.94091299 C4.40660846,9.38862824 4.85432371,8.94091299 5.40660846,8.94091299 L13.3566132,8.94091299 Z M12.7571086,10.5416538 L6.00710856,10.5416538 L6.00710856,13.6736538 L12.7571086,13.6736538 L12.7571086,10.5416538 Z M17.8793427,0.8 C18.4316274,0.8 18.8793427,1.24771525 18.8793427,1.8 L18.8793427,6.13182121 C18.8793427,6.68410596 18.4316274,7.13182121 17.8793427,7.13182121 L5.40660846,7.13182121 C4.85432371,7.13182121 4.40660846,6.68410596 4.40660846,6.13182121 L4.40660846,1.8 C4.40660846,1.24771525 4.85432371,0.8 5.40660846,0.8 L17.8793427,0.8 Z M17.2793863,2.40010551 L6.00738627,2.40010551 L6.00738627,5.53210551 L17.2793863,5.53210551 L17.2793863,2.40010551 Z"></path></clipPath></defs><g transform="translate(0.1942193418581155 0.7036786862254303)"><g clip-path="url(#i0)"><polygon points="0,0 22.0452533,0 22.0452533,24.2136472 0,24.2136472 0,0" stroke="none" fill="#2B2C3F"></polygon></g></g></svg>