<?xml version="1.0" encoding="UTF-8"?><svg version="1.1" width="14px" height="14px" viewBox="0 0 14.0 14.0" xmlns="http://www.w3.org/2000/svg" xmlns:xlink="http://www.w3.org/1999/xlink"><defs><clipPath id="i0"><path d="M1440,0 L1440,900 L0,900 L0,0 L1440,0 Z"></path></clipPath><clipPath id="i1"><path d="M10.9175603,0 L10.9175603,0.0116175156 L11.3764522,0.0116175156 C12.2724531,0.0116175156 13.0014522,0.739164433 13.0014522,1.63516533 L13.0014522,11.3764522 C13.0014522,12.2724531 12.2739053,13 11.3764522,13 L1.625,13 C0.727546917,13 0,12.2739053 0,11.3764522 L0,1.63516533 C0,0.737712243 0.727546917,0.0116175156 1.625,0.0116175156 L2.08389187,0.0116175156 L2.08389187,0 L10.9175603,0 Z M2.08243968,1.04412422 L1.81233244,1.04412422 C1.38103217,1.04412422 1.03105451,1.39410188 1.03105451,1.82394996 L1.03105451,11.1862154 C1.03105451,11.6175156 1.38103217,11.9660411 1.81233244,11.9660411 L11.1862154,11.9660411 C11.6175156,11.9660411 11.9674933,11.6160634 11.9674933,11.1862154 L11.9660411,1.82394996 C11.9660411,1.39264969 11.6160634,1.04412422 11.1847632,1.04412422 L10.9161081,1.04412422 L10.9161081,3.24709562 C10.9161081,4.14309651 10.1972744,4.87064343 9.3099866,4.87064343 L3.68856122,4.87064343 C2.80127346,4.87064343 2.08243968,4.1445487 2.08243968,3.24709562 L2.08243968,1.04412422 Z M9.86907954,1.04412422 L3.12946828,1.04412422 L3.12946828,3.13237265 C3.12946828,3.51720286 3.46492404,3.82942359 3.87879803,3.82942359 L9.11974978,3.82942359 C9.53362377,3.82942359 9.86907954,3.51720286 9.86907954,3.13237265 L9.86907954,1.04412422 Z"></path></clipPath></defs><g transform="translate(-941.0 -159.0)"><g clip-path="url(#i0)"><g transform="translate(941.6070507702279 156.16175990465945)"><g transform="translate(0.0 3.5)"><g clip-path="url(#i1)"><polygon points="0,0 13.0014522,0 13.0014522,13 0,13 0,0" stroke="none" fill="#989C9B"></polygon></g></g></g></g></g></svg>