<?xml version="1.0" encoding="UTF-8"?><svg version="1.1" width="29px" height="25px" viewBox="0 0 29.0 25.0" xmlns="http://www.w3.org/2000/svg" xmlns:xlink="http://www.w3.org/1999/xlink"><defs><clipPath id="i0"><path d="M20.0954541,0 C22.3045931,0 24.0954541,1.790861 24.0954541,4 L24.095,11.183 L24.1409465,11.2291825 L24.095,11.273 L24.095,15.202 L26.8717314,16.2595215 C27.296784,16.4214046 27.6427377,16.7372902 27.8432071,17.1409765 L27.9114339,17.2963453 C28.2678282,18.224377 27.8044245,19.26561 26.8763927,19.6220043 L24.4216388,20.5654977 L23.6399426,22.7768529 C23.4870705,23.2091505 23.1758658,23.5646813 22.7726891,23.7740896 L22.6173163,23.8456328 C22.2042724,24.0125418 21.7656398,24.0152373 21.3737819,23.8844305 L21.5174785,23.8323291 C21.0761932,24.003299 20.5965856,24.0954541 20.0954541,24.0954541 L4,24.0954541 C1.790861,24.0954541 0,22.3045931 0,20.0954541 L0,4 C0,1.790861 1.790861,0 4,0 L20.0954541,0 Z M22.0888836,2.66305229 L3.01118131,22.2829343 C3.31270736,22.4194499 3.64747782,22.4954541 4,22.4954541 L10.354,22.495 L17.3791553,15.6132784 C17.3197255,15.332067 17.3283638,15.0398728 17.4053202,14.7615019 L17.4581275,14.6004353 L17.5195795,14.457646 C17.8859256,13.6975996 18.7335447,13.2973173 19.5477191,13.4875876 L22.495,10.601 L22.4954541,4 C22.4954541,3.5050679 22.3456389,3.045127 22.0888836,2.66305229 Z M18.006,17.239 L12.641,22.495 L20.13,22.494 L18.006,17.239 Z M19.949,15.335 L19.242,16.028 L21.7574933,22.2516741 C21.7919799,22.3370169 21.8786786,22.3855967 21.965886,22.3754702 L22.0178579,22.3621741 C22.0709995,22.3406998 22.1123741,22.297458 22.1314831,22.2434208 L23.1598571,19.3353459 L26.3027848,18.1283598 C26.4058994,18.0887604 26.4573887,17.9730678 26.4177894,17.8699532 C26.3974067,17.816878 26.3553984,17.774986 26.3022669,17.7547506 L19.949,15.335 Z M14.253,1.599 L1.599,14.02 L1.6,20.0954541 C1.6,20.4840839 1.69237123,20.8511392 1.85635617,21.1758626 L20.7920794,1.70266269 C20.5716077,1.63589715 20.337723,1.6 20.0954541,1.6 L14.253,1.599 Z M22.495,12.841 L21.208,14.102 L22.495,14.592 L22.495,12.841 Z M11.969,1.599 L4,1.6 C2.6745166,1.6 1.6,2.6745166 1.6,4 L1.599,11.779 L11.969,1.599 Z"></path></clipPath></defs><g transform="translate(0.7793611970701022 0.3105022831050519)"><g clip-path="url(#i0)"><polygon points="0,0 28.0315691,0 28.0315691,24.0954541 0,24.0954541 0,0" stroke="none" fill="#2B2C3F"></polygon></g></g></svg>