<?xml version="1.0" encoding="UTF-8"?><svg version="1.1" width="15px" height="15px" viewBox="0 0 15.0 15.0" xmlns="http://www.w3.org/2000/svg" xmlns:xlink="http://www.w3.org/1999/xlink"><defs><clipPath id="i0"><path d="M1440,0 L1440,900 L0,900 L0,0 L1440,0 Z"></path></clipPath><clipPath id="i1"><path d="M7,0 C10.8659932,0 14,3.13400675 14,7 C14,10.8659932 10.8659932,14 7,14 C3.13400675,14 0,10.8659932 0,7 C0,3.13400675 3.13400675,0 7,0 Z M7,1.11132097 C3.78465536,1.16357557 1.20547886,3.78500847 1.20547886,7.0007777 C1.20547886,10.2165469 3.78465536,12.8379798 7,12.8902344 C10.2153446,12.8379798 12.7945211,10.2165469 12.7945211,7.0007777 C12.7945211,3.78500847 10.2153446,1.16357557 7,1.11132097 Z"></path></clipPath><clipPath id="i2"><path d="M5.25488076,0.150921164 C5.48118983,-0.0439826612 5.81398662,-0.0508343601 6.04812596,0.134589645 C6.15368396,0.216213264 6.21754122,0.341436979 6.2211629,0.475439143 C6.22478459,0.609441306 6.16778446,0.737931438 6.06601286,0.82517958 L2.88369978,3.73685606 C2.77837668,3.83040319 2.64344573,3.88382484 2.50263102,3.88772818 L2.4590803,3.88772818 C2.30218236,3.88706533 2.15196854,3.82412658 2.04146003,3.71274763 L0.128339272,1.7063039 C-0.0684166459,1.499438 -0.0349759232,1.18991682 0.201442255,1.01726934 C0.438638116,0.846177243 0.794043073,0.874951823 0.992354372,1.08104004 L2.5041864,2.66830811 Z"></path></clipPath></defs><g transform="translate(-984.0 -109.0)"><g clip-path="url(#i0)"><g transform="translate(984.1335564674882 106.16175990465945)"><g transform="translate(0.0 3.0)"><g clip-path="url(#i1)"><polygon points="0,0 14,0 14,14 0,14 0,0" stroke="none" fill="#989C9B"></polygon></g><g transform="translate(3.8884366439269806 5.445345921528542)"><g clip-path="url(#i2)"><polygon points="0,2.49800181e-16 6.2213256,2.49800181e-16 6.2213256,3.88772818 0,3.88772818 0,2.49800181e-16" stroke="none" fill="#989C9B"></polygon></g></g></g></g></g></g></svg>