<?xml version="1.0" encoding="UTF-8"?><svg version="1.1" width="24px" height="24px" viewBox="0 0 24.0 24.0" xmlns="http://www.w3.org/2000/svg" xmlns:xlink="http://www.w3.org/1999/xlink"><defs><clipPath id="i0"><path d="M5.23477631,0 C5.67660411,0 6.03477631,0.3581722 6.03477631,0.8 C6.03477631,1.2418278 5.67660411,1.6 5.23477631,1.6 L3.8,1.6 C2.58497355,1.6 1.6,2.58497355 1.6,3.8 L1.6,19.9559397 C1.6,21.1709662 2.58497355,22.1559397 3.8,22.1559397 L20.0204565,22.1559397 C21.2354829,22.1559397 22.2204565,21.1709662 22.2204565,19.9559397 L22.2204565,3.8 C22.2204565,2.58497355 21.2354829,1.6 20.0204565,1.6 L18.193225,1.6 C17.7513972,1.6 17.393225,1.2418278 17.393225,0.8 C17.393225,0.3581722 17.7513972,0 18.193225,0 L20.0204565,0 C22.1191385,0 23.8204565,1.70131795 23.8204565,3.8 L23.8204565,19.9559397 C23.8204565,22.0546218 22.1191385,23.7559397 20.0204565,23.7559397 L3.8,23.7559397 C1.70131795,23.7559397 0,22.0546218 0,19.9559397 L0,3.8 C0,1.70131795 1.70131795,0 3.8,0 L5.23477631,0 Z M17.3587966,3.26874541 C18.9051939,3.26874541 20.1587966,4.52234811 20.1587966,6.06874541 L20.1587966,16.9226286 C20.1587966,18.4690259 18.9051939,19.7226286 17.3587966,19.7226286 L16.1225027,19.7226286 C15.6806749,19.7226286 15.3225027,19.3644564 15.3225027,18.9226286 C15.3225027,18.4808008 15.6806749,18.1226286 16.1225027,18.1226286 L17.3587966,18.1226286 C18.0215383,18.1226286 18.5587966,17.5853703 18.5587966,16.9226286 L18.5587966,6.06874541 C18.5587966,5.40600371 18.0215383,4.86874541 17.3587966,4.86874541 L6.46165984,4.86874541 C5.79891814,4.86874541 5.26165984,5.40600371 5.26165984,6.06874541 L5.26165984,16.9226286 C5.26165984,17.5853703 5.79891814,18.1226286 6.46165984,18.1226286 L7.43484221,18.1226286 C7.87667001,18.1226286 8.23484221,18.4808008 8.23484221,18.9226286 C8.23484221,19.3644564 7.87667001,19.7226286 7.43484221,19.7226286 L6.46165984,19.7226286 C4.91526254,19.7226286 3.66165984,18.4690259 3.66165984,16.9226286 L3.66165984,6.06874541 C3.66165984,4.52234811 4.91526254,3.26874541 6.46165984,3.26874541 L17.3587966,3.26874541 Z M10.8713684,18.1226286 L10.8713684,19.7226286 L8.87136837,19.7226286 L8.87136837,18.1226286 L10.8713684,18.1226286 Z M14.8713684,18.1226286 L14.8713684,19.7226286 L12.8713684,19.7226286 L12.8713684,18.1226286 L14.8713684,18.1226286 Z M9.37748787,0 L9.37748787,1.6 L7.37748787,1.6 L7.37748787,0 L9.37748787,0 Z M13.3774879,0 L13.3774879,1.6 L11.3774879,1.6 L11.3774879,0 L13.3774879,0 Z M17.3774879,0 L17.3774879,1.6 L15.3774879,1.6 L15.3774879,0 L17.3774879,0 Z"></path></clipPath></defs><g transform="translate(0.16998165785480523 0.16138615371164633)"><g clip-path="url(#i0)"><polygon points="0,0 23.8204565,0 23.8204565,23.7559397 0,23.7559397 0,0" stroke="none" fill="#2B2C3F"></polygon></g></g></svg>