<?xml version="1.0" encoding="UTF-8"?><svg version="1.1" width="24px" height="24px" viewBox="0 0 24.0 24.0" xmlns="http://www.w3.org/2000/svg" xmlns:xlink="http://www.w3.org/1999/xlink"><defs><clipPath id="i0"><path d="M7.84973026,6.07173328 L21.9507623,11.4421732 C22.4289464,11.6242917 22.8070211,12.0013196 22.9904647,12.478997 C23.346859,13.4070287 22.8834553,14.4482617 21.9554236,14.804656 L16.3553534,16.9548672 L14.5010439,22.1995919 C14.3481718,22.6318895 14.0369671,22.9874203 13.6337904,23.1968286 L13.4784176,23.2683718 C12.5567145,23.6408274 11.5075916,23.1955744 11.1351359,22.2738713 L5.54019158,8.42825663 C5.37007319,8.00727056 5.36534331,7.53754475 5.52694987,7.11321839 L5.58840183,6.97042909 C5.98993032,6.13739086 6.96960959,5.73653545 7.84973026,6.07173328 Z M7.02217898,7.68268296 C7.0042227,7.72983033 7.00474824,7.78202209 7.02365028,7.82879832 L12.6185946,21.674413 C12.6599786,21.7768245 12.7765478,21.826297 12.8789592,21.7849131 C12.9321008,21.7634388 12.9734754,21.7201969 12.9925844,21.6661598 L15.0931656,15.7260571 L21.3818156,13.3110115 C21.4849303,13.2714121 21.5364196,13.1557196 21.4968202,13.0526049 C21.4764376,12.9995297 21.4344293,12.9576377 21.3812977,12.9374023 L7.28026569,7.56696239 C7.17704166,7.52764907 7.06149231,7.57945893 7.02217898,7.68268296 Z M4.59437468,9.43472726 C4.99497604,9.71404697 5.09348854,10.2651318 4.81446783,10.6659415 L4.13893437,11.637838 C3.85613697,12.0314573 3.3097303,12.1251626 2.91194247,11.8482594 C2.51415464,11.5713562 2.41232117,11.0264059 2.68326875,10.6245378 L3.35880219,9.65264125 C3.49370845,9.45984103 3.69970329,9.3285549 3.93143857,9.28768448 C4.16317384,9.24681407 4.40165226,9.29970986 4.59437468,9.43472726 Z M0.898552956,5.24641984 L2.07746779,5.33576459 C2.31215314,5.35357846 2.53013419,5.46394436 2.68340571,5.64255677 C2.83667722,5.82116917 2.9126689,6.0533795 2.89464535,6.28804884 C2.85527999,6.77503319 2.42948484,7.13846933 1.94236109,7.10086813 L0.763446263,7.01152338 C0.299965151,6.94635001 -0.0330981592,6.53224081 0.00262270724,6.06556498 C0.0383435736,5.59888915 0.430552111,5.24029459 0.898552956,5.24641984 Z M13.4511095,4.66798494 C13.5705625,5.13922715 13.2883945,5.6188045 12.8184497,5.7432638 L11.6722219,6.03526859 C11.3637461,6.11696467 11.0351626,6.0266451 10.8117843,5.7987553 C10.5884061,5.57086551 10.5046739,5.24054198 10.5925209,4.9337611 C10.680368,4.62698022 10.9262498,4.39104205 11.2363939,4.31592699 L12.3826216,4.0239222 C12.8551079,3.90948896 13.3316565,4.19674273 13.4511095,4.66798494 Z M3.83167562,0.872885518 L4.552971,1.80991579 C4.85384747,2.19744468 4.78360181,2.75550749 4.39607292,3.05638396 C4.00854403,3.35726042 3.45048122,3.28701476 3.14960475,2.89948587 L2.42613021,1.9624556 C2.23149725,1.71137909 2.18559671,1.37553939 2.30571887,1.08144406 C2.42584102,0.787348723 2.69373647,0.579677837 3.00849158,0.536659012 C3.32324669,0.493640188 3.63704267,0.621809008 3.83167562,0.872885518 Z M9.41239674,0.32238057 C9.6200874,0.574022528 9.67283873,0.919379705 9.54973942,1.22154794 L9.1531359,2.33508858 C9.07386491,2.55687666 8.90963053,2.73802556 8.6966495,2.83858858 C8.48366847,2.9391516 8.23943383,2.95086907 8.01780388,2.87115706 C7.79669474,2.79232894 7.61597623,2.62886137 7.5154343,2.41674243 C7.41489237,2.20462348 7.40276979,1.96124339 7.4817354,1.74018331 L7.88051805,0.626642692 C7.97627531,0.314729835 8.23556058,0.0805815239 8.55558975,0.0170172521 C8.87561891,-0.0465470197 9.20470608,0.0707386123 9.41239674,0.32238057 Z"></path></clipPath></defs><g transform="translate(0.2566466246425989 0.5991327984736472)"><g clip-path="url(#i0)"><polygon points="1.62958536e-12,-1.31006317e-14 23.1105999,-1.31006317e-14 23.1105999,23.3999575 1.62958536e-12,23.3999575 1.62958536e-12,-1.31006317e-14" stroke="none" fill="#2C2C40"></polygon></g></g></svg>