<?xml version="1.0" encoding="UTF-8"?><svg version="1.1" width="16px" height="13px" viewBox="0 0 16.0 13.0" xmlns="http://www.w3.org/2000/svg" xmlns:xlink="http://www.w3.org/1999/xlink"><defs><clipPath id="i0"><path d="M1440,0 L1440,900 L0,900 L0,0 L1440,0 Z"></path></clipPath><clipPath id="i1"><path d="M14.3482286,0.174283072 C14.7490645,0.468214267 14.8357278,1.03143425 14.5417966,1.43227012 L6.75130115,12.0562191 C6.41828512,12.5103552 5.75470959,12.5505568 5.36930436,12.1399449 L0.243783574,6.67920029 C-0.096388101,6.3167804 -0.0783523641,5.74721741 0.28406752,5.40704573 C0.646487403,5.06687406 1.2160504,5.0849098 1.55622207,5.44732968 L5.93975608,10.1170747 L13.0902415,0.367851108 C13.3841727,-0.0329847607 13.9473927,-0.119648122 14.3482286,0.174283072 Z"></path></clipPath></defs><g transform="translate(-1305.0 -482.0)"><g clip-path="url(#i0)"><g transform="translate(1305.4262439157171 482.1409252669157)"><g clip-path="url(#i1)"><polygon points="0,5.55111512e-17 14.7160797,5.55111512e-17 14.7160797,12.4240258 0,12.4240258 0,5.55111512e-17" stroke="none" fill="#FFFFFF"></polygon></g></g></g></g></svg>