<?xml version="1.0" encoding="UTF-8"?><svg version="1.1" width="24px" height="23px" viewBox="0 0 24.0 23.0" xmlns="http://www.w3.org/2000/svg" xmlns:xlink="http://www.w3.org/1999/xlink"><defs><clipPath id="i0"><path d="M21.4214119,13.266673 C21.8037229,13.266673 22.1136472,13.5765973 22.1136472,13.9589083 L22.1136472,19.3636472 C22.1136472,20.8824303 20.8824303,22.1136472 19.3636472,22.1136472 L13.9589083,22.1136472 C13.5765973,22.1136472 13.266673,21.8037229 13.266673,21.4214119 C13.266673,21.0391009 13.5765973,20.7291766 13.9589083,20.7291766 L18.6791766,20.7291766 C19.8113604,20.7291766 20.7291766,19.8113604 20.7291766,18.6791766 L20.7291766,13.9589083 C20.7291766,13.5765973 21.0391009,13.266673 21.4214119,13.266673 Z M8.71203306,13.4016141 C8.99245965,13.6820407 8.99245965,14.1367021 8.71203306,14.4171286 L2.8009758,20.3281859 L6.7466378,20.3281859 C7.1289488,20.3281859 7.4388731,20.6381102 7.4388731,21.0204212 C7.4388731,21.4027322 7.1289488,21.7126565 6.7466378,21.7126565 L1.1509907,21.7126565 C0.736777141,21.7126565 0.400990701,21.3768701 0.400990701,20.9626565 L0.400990701,15.3670094 C0.400990701,14.9846984 0.710915001,14.6747741 1.093226,14.6747741 C1.475537,14.6747741 1.7854613,14.9846984 1.7854613,15.3670094 L1.7854613,19.3126714 L7.69651856,13.4016141 C7.97694515,13.1211876 8.43160648,13.1211876 8.71203306,13.4016141 Z M20.9626565,0.400990701 C21.3768701,0.400990701 21.7126565,0.736777141 21.7126565,1.1509907 L21.7126565,6.7466378 C21.7126565,7.1289488 21.4027322,7.4388731 21.0204212,7.4388731 C20.6381102,7.4388731 20.3281859,7.1289488 20.3281859,6.7466378 L20.3281859,2.8009758 L14.4171286,8.71203306 C14.1367021,8.99245965 13.6820407,8.99245965 13.4016141,8.71203306 C13.1211876,8.43160648 13.1211876,7.97694515 13.4016141,7.69651856 L19.3126714,1.7854613 L15.3670094,1.7854613 C14.9846984,1.7854613 14.6747741,1.475537 14.6747741,1.093226 C14.6747741,0.710915001 14.9846984,0.400990701 15.3670094,0.400990701 L20.9626565,0.400990701 Z M8.15473887,0 C8.53704987,0 8.84697417,0.3099243 8.84697417,0.6922353 C8.84697417,1.0745463 8.53704987,1.3844706 8.15473887,1.3844706 L3.43447055,1.3844706 C2.30228684,1.3844706 1.3844706,2.30228684 1.3844706,3.43447055 L1.3844706,8.15473887 C1.3844706,8.53704987 1.0745463,8.84697417 0.6922353,8.84697417 C0.3099243,8.84697417 0,8.53704987 0,8.15473887 L0,2.75 C0,1.23121694 1.23121694,0 2.75,0 L8.15473887,0 Z"></path></clipPath></defs><g transform="translate(0.9008565774101953 0.1999999999998181)"><g clip-path="url(#i0)"><polygon points="0,0 22.1136472,0 22.1136472,22.1136472 0,22.1136472 0,0" stroke="none" fill="currentColor"></polygon></g></g></svg>