<?xml version="1.0" encoding="UTF-8"?>
<svg version="1.1" width="28px" height="29px" viewBox="0 0 28.0 29.0"
    xmlns="http://www.w3.org/2000/svg" xmlns:xlink="http://www.w3.org/1999/xlink">
    <defs>
        <clipPath id="i0">
            <path d="M1440,0 L1440,900 L0,900 L0,0 L1440,0 Z"></path>
        </clipPath>
        <clipPath id="i1">
            <path
                d="M13,0 C20.1797017,0 26,5.82029825 26,13 C26,20.1797017 20.1797017,26 13,26 C5.82029825,26 0,20.1797017 0,13 C0,5.82029825 5.82029825,0 13,0 Z">
            </path>
        </clipPath>
        <filter id="i2" x="-46.8852459%" y="-46.8852459%" filterUnits="userSpaceOnUse" width="157.704918%"
            height="157.704918%">
            <feGaussianBlur stdDeviation="2" in="SourceAlpha" result="i3"></feGaussianBlur>
            <feOffset dx="0" dy="0" in="i3" result="i4"></feOffset>
            <feColorMatrix
                values="0 0 0 0.07450980392156865 0 0 0 0 0.5607843137254902 0 0 0 0 0.5558497807722301 0 0 0 0 0.2753095293378496 0"
                type="matrix" in="i4"></feColorMatrix>
        </filter>
        <clipPath id="i5">
            <path
                d="M8.86363636,0 C13.7588876,0 17.7272727,3.96838517 17.7272727,8.86363636 C17.7272727,13.7588876 13.7588876,17.7272727 8.86363636,17.7272727 C3.96838517,17.7272727 0,13.7588876 0,8.86363636 C0,3.96838517 3.96838517,0 8.86363636,0 Z">
            </path>
        </clipPath>
        <linearGradient id="i6" x1="8.86363636px" y1="0px" x2="8.86363636px" y2="17.7272727px"
            gradientUnits="userSpaceOnUse">
            <stop stop-color="#FB4119" offset="0%"></stop>
            <stop stop-color="#FD806D" offset="100%"></stop>
        </linearGradient>
        <filter id="i7" x="-77.6927604%" y="-77.6927604%" filterUnits="userSpaceOnUse" width="203.590347%"
            height="203.590347%">
            <feGaussianBlur stdDeviation="2" in="SourceAlpha" result="i8"></feGaussianBlur>
            <feOffset dx="0" dy="0" in="i8" result="i9"></feOffset>
            <feColorMatrix
                values="0 0 0 0.2017992989319127 0 0 0 0 0.632814481486538 0 0 0 0 0.6996442269587863 0 0 0 0 1.0 0"
                type="matrix" in="i9"></feColorMatrix>
        </filter>
        <clipPath id="i10">
            <path
                d="M3.72272727,0 C5.77873277,0 7.44545455,1.66672177 7.44545455,3.72272727 C7.44545455,5.77873277 5.77873277,7.44545455 3.72272727,7.44545455 C1.66672177,7.44545455 0,5.77873277 0,3.72272727 C0,1.66672177 1.66672177,0 3.72272727,0 Z">
            </path>
        </clipPath>
    </defs>
    <g transform="translate(-1090.0 -828.0)">
        <g clip-path="url(#i0)">
            <g transform="translate(1091.0 829.375)">
                <g clip-path="url(#i1)">
                    <polygon points="0,0 26,0 26,26 0,26 0,0" stroke="none" fill="rgba(252,89,57,0.17)">
                    </polygon>
                </g>
                <g transform="translate(4.136363636363635 4.136363636363635)">
                    <path
                        d="M8.86363636,-1 C11.5874043,-1 14.0533134,0.104025106 15.8382805,1.8889922 C17.6232476,3.6739593 18.7272727,6.13986839 18.7272727,8.86363636 C18.7272727,11.5874043 17.6232476,14.0533134 15.8382805,15.8382805 C14.0533134,17.6232476 11.5874043,18.7272727 8.86363636,18.7272727 C6.13986839,18.7272727 3.6739593,17.6232476 1.8889922,15.8382805 C0.104025106,14.0533134 -1,11.5874043 -1,8.86363636 C-1,6.13986839 0.104025106,3.6739593 1.8889922,1.8889922 C3.6739593,0.104025106 6.13986839,-1 8.86363636,-1 Z"
                        stroke="none" fill="#000000" filter="url(#i2)"></path>
                    <g clip-path="url(#i5)">
                        <polygon points="0,0 17.7272727,0 17.7272727,17.7272727 0,17.7272727 0,0" stroke="none"
                            fill="url(#i6)"></polygon>
                        <path
                            d="M8.86363636,17.7272727 C13.7588876,17.7272727 17.7272727,13.7588876 17.7272727,8.86363636 C17.7272727,3.96838517 13.7588876,0 8.86363636,0 C3.96838517,0 0,3.96838517 0,8.86363636 C0,13.7588876 3.96838517,17.7272727 8.86363636,17.7272727 Z"
                            stroke="#FFFFFF" stroke-width="2" fill="none" stroke-miterlimit="5"></path>
                    </g>
                    <g transform="translate(5.140909090908225 5.140909090908806)">
                        <path
                            d="M3.72272727,7.44545455 C5.77873277,7.44545455 7.44545455,5.77873277 7.44545455,3.72272727 C7.44545455,1.66672177 5.77873277,0 3.72272727,0 C1.66672177,0 0,1.66672177 0,3.72272727 C0,5.77873277 1.66672177,7.44545455 3.72272727,7.44545455 Z"
                            stroke="none" fill="#000000" filter="url(#i7)"></path>
                        <g clip-path="url(#i10)">
                            <polygon points="0,0 7.44545455,0 7.44545455,7.44545455 0,7.44545455 0,0" stroke="none"
                                fill="#FED7CE"></polygon>
                            <path
                                d="M3.72272727,7.44545455 C5.77873277,7.44545455 7.44545455,5.77873277 7.44545455,3.72272727 C7.44545455,1.66672177 5.77873277,0 3.72272727,0 C1.66672177,0 0,1.66672177 0,3.72272727 C0,5.77873277 1.66672177,7.44545455 3.72272727,7.44545455 Z"
                                stroke="#FFFFFF" stroke-width="2" fill="none" stroke-miterlimit="5"></path>
                        </g>
                    </g>
                </g>
            </g>
        </g>
    </g>
</svg>