<?xml version="1.0" encoding="UTF-8"?><svg version="1.1" width="23px" height="23px" viewBox="0 0 23.0 23.0" xmlns="http://www.w3.org/2000/svg" xmlns:xlink="http://www.w3.org/1999/xlink"><defs><clipPath id="i0"><path d="M21.4214119,13.266673 C21.8037229,13.266673 22.1136472,13.5765973 22.1136472,13.9589083 L22.1136472,19.3636472 C22.1136472,20.8824303 20.8824303,22.1136472 19.3636472,22.1136472 L13.9589083,22.1136472 C13.5765973,22.1136472 13.266673,21.8037229 13.266673,21.4214119 C13.266673,21.0391009 13.5765973,20.7291766 13.9589083,20.7291766 L18.6791766,20.7291766 C19.8113604,20.7291766 20.7291766,19.8113604 20.7291766,18.6791766 L20.7291766,13.9589083 C20.7291766,13.5765973 21.0391009,13.266673 21.4214119,13.266673 Z M8.172353,13.1912942 C8.58656656,13.1912942 8.922353,13.5270806 8.922353,13.9412942 L8.922353,19.5369413 C8.922353,19.9192523 8.6124287,20.2291766 8.2301177,20.2291766 C7.8478067,20.2291766 7.5378824,19.9192523 7.5378824,19.5369413 L7.5378824,15.5912793 L1.62682514,21.5023366 C1.34639855,21.7827631 0.891737226,21.7827631 0.611310641,21.5023366 C0.330884055,21.22191 0.330884055,20.7672486 0.611310641,20.4868221 L6.5223679,14.5757648 L2.5767059,14.5757648 C2.1943949,14.5757648 1.8844706,14.2658405 1.8844706,13.8835295 C1.8844706,13.5012185 2.1943949,13.1912942 2.5767059,13.1912942 L8.172353,13.1912942 Z M21.5023366,0.611310641 C21.7827631,0.891737226 21.7827631,1.34639855 21.5023366,1.62682514 L15.5912793,7.5378824 L19.5369413,7.5378824 C19.9192523,7.5378824 20.2291766,7.8478067 20.2291766,8.2301177 C20.2291766,8.6124287 19.9192523,8.922353 19.5369413,8.922353 L13.9412942,8.922353 C13.5270806,8.922353 13.1912942,8.58656656 13.1912942,8.172353 L13.1912942,2.5767059 C13.1912942,2.1943949 13.5012185,1.8844706 13.8835295,1.8844706 C14.2658405,1.8844706 14.5757648,2.1943949 14.5757648,2.5767059 L14.5757648,6.5223679 L20.4868221,0.611310641 C20.7672486,0.330884055 21.22191,0.330884055 21.5023366,0.611310641 Z M8.15473887,0 C8.53704987,0 8.84697417,0.3099243 8.84697417,0.6922353 C8.84697417,1.0745463 8.53704987,1.3844706 8.15473887,1.3844706 L3.43447055,1.3844706 C2.30228684,1.3844706 1.3844706,2.30228684 1.3844706,3.43447055 L1.3844706,8.15473887 C1.3844706,8.53704987 1.0745463,8.84697417 0.6922353,8.84697417 C0.3099243,8.84697417 0,8.53704987 0,8.15473887 L0,2.75 C0,1.23121694 1.23121694,0 2.75,0 L8.15473887,0 Z"></path></clipPath></defs><g transform="translate(0.6346881952413241 0.7536786862237932)"><g clip-path="url(#i0)"><polygon points="0,0 22.1136472,0 22.1136472,22.1136472 0,22.1136472 0,0" stroke="none" fill="currentColor"></polygon></g></g></svg>