<?xml version="1.0" encoding="UTF-8"?><svg version="1.1" width="28px" height="25px" viewBox="0 0 28.0 25.0" xmlns="http://www.w3.org/2000/svg" xmlns:xlink="http://www.w3.org/1999/xlink"><defs><clipPath id="i0"><path d="M16.3420512,0.276442531 C16.6864331,0.634864134 16.6750516,1.20459894 16.31663,1.54898085 L8.95246504,8.6246848 C8.51439419,9.04559601 8.50048356,9.74193856 8.92139477,10.1800094 L16.583737,17.7915333 C16.9970907,18.2021228 17.6588965,18.2191967 18.0928718,17.8304673 L25.424289,11.2634171 C25.7945311,10.9317762 26.3635197,10.9630686 26.6951607,11.3333106 C27.0268017,11.7035527 26.9955093,12.2725414 26.6252672,12.6041824 L19.29385,19.1712325 C18.6534982,19.7448218 17.8249923,19.9832778 17.0284803,19.8922802 L16.9970033,19.9104966 L11.2282468,23.0628429 C10.8591526,23.264535 10.4243567,23.2716228 10.0572208,23.1011729 L9.19485973,24.1012482 C9.0238923,24.2995973 8.77501441,24.4136482 8.51315142,24.4136482 L1.9,24.4136482 C0.850658975,24.4136482 0,23.5629892 0,22.5136482 C0,22.0522518 0.167895132,21.6066204 0.472348483,21.2599293 L3.90341388,17.3512801 C3.67323464,16.9925705 3.6299542,16.53586 3.80479396,16.132355 L6.65852181,9.54636171 C6.69875057,9.45351952 6.75274978,9.37089436 6.81709331,9.29984086 C6.84603508,8.57889957 7.14324666,7.86680853 7.70534785,7.32672536 L15.0695128,0.251021405 C15.4279344,-0.0933604978 15.9976693,-0.0819790718 16.3420512,0.276442531 Z M5.19,18.615 L1.82486045,22.447663 C1.80883659,22.4659099 1.8,22.4893642 1.8,22.5136482 C1.8,22.5688767 1.84477153,22.6136482 1.9,22.6136482 L8.10092933,22.6139574 L8.701,21.916 L5.19,18.615 Z M7.75,11.553 L5.59592933,16.5259574 L10.6829293,21.3099574 L15.126,18.88 L7.75,11.553 Z"></path></clipPath></defs><g transform="translate(0.5320706671700464 0.4180426355422924)"><g clip-path="url(#i0)"><polygon points="0,-1.42108547e-14 26.9247865,-1.42108547e-14 26.9247865,24.4136482 0,24.4136482 0,-1.42108547e-14" stroke="none" fill="#313141"></polygon></g></g></svg>