<?xml version="1.0" encoding="UTF-8"?>
<svg version="1.1" width="180px" height="181px" viewBox="0 0 180.0 181.0"
    xmlns="http://www.w3.org/2000/svg" xmlns:xlink="http://www.w3.org/1999/xlink">
    <defs>
        <clipPath id="i0">
            <path d="M1440,0 L1440,900 L0,900 L0,0 L1440,0 Z"></path>
        </clipPath>
        <clipPath id="i1">
            <path d="M0,0 L94.3993863,0.0808284902 L94.4986177,115.42766 L0.0992314053,115.346832 L0,0 Z"></path>
        </clipPath>
        <clipPath id="i2">
            <path d="M0,0 L78.5110005,0.0672242255 L78.5935303,96 L0.0825297412,95.9327758 L0,0 Z"></path>
        </clipPath>
        <clipPath id="i3">
            <path d="M58,0 L58,8 L0,8 L0,0 L58,0 Z"></path>
        </clipPath>
        <clipPath id="i4">
            <path d="M13,0 L13,8 L0,8 L0,0 L13,0 Z"></path>
        </clipPath>
        <clipPath id="i5">
            <path d="M41,0 L41,8 L0,8 L0,0 L41,0 Z"></path>
        </clipPath>
        <clipPath id="i6">
            <path d="M7.16912919,0 L7.16912919,22 L0,22 L0,0 L7.16912919,0 Z"></path>
        </clipPath>
        <clipPath id="i7">
            <path
                d="M25,0 C38.8071187,0 50,11.2555104 50,25.139886 C50,39.0242617 38.8071187,50.279772 25,50.279772 C11.1928813,50.279772 0,39.0242617 0,25.139886 C0,11.2555104 11.1928813,0 25,0 Z">
            </path>
        </clipPath>
        <clipPath id="i8">
            <path
                d="M10.2070758,1.1220405 C10.31953,1.18720939 11.6166915,1.93477686 11.4570089,2.17924315 C10.7272291,3.2829168 9.70738255,4.23913091 8.63361135,5.00838263 C7.7595825,5.63322753 6.77465127,6.27774918 5.68541277,6.44239686 C5.12670091,6.52830432 4.46167456,6.49648306 3.92246127,6.32320814 C3.13831817,6.07213868 2.44864872,5.56907068 1.78261034,5.10635165 C1.39282431,4.83613635 1.08624458,4.96498095 0.793546628,5.30134401 C0.611734189,5.51047177 0.621517213,5.95552154 0.454615453,6.12317216 C0.241497338,6.33991513 0.0109384534,6.30100957 0.000143392587,5.91558734 C-0.0121697237,5.38069808 0.771450488,4.77048632 1.21669614,4.60630319 C0.971226582,3.77037281 1.54945389,2.34291197 2.09637553,1.72211524 C4.17771386,-0.636258641 7.70719272,-0.306930108 10.2070758,1.1220405 Z">
            </path>
        </clipPath>
    </defs>
    <g transform="translate(-730.0 -278.0)">
        <g clip-path="url(#i0)">
            <g transform="translate(730.0 278.5)">
                <g transform="translate(30.999999999997726 28.0)">
                    <g transform="translate(0.0 17.41998426159809) rotate(-10.0)">
                        <g clip-path="url(#i1)">
                            <polygon
                                points="0,-2.62286353e-15 94.4986177,-2.62286353e-15 94.4986177,115.42766 0,115.42766 0,-2.62286353e-15"
                                stroke="none" fill="#E6E8EA"></polygon>
                        </g>
                    </g>
                    <g transform="translate(9.51851557740838 25.605294674563496) rotate(-10.0)">
                        <g clip-path="url(#i2)">
                            <polygon
                                points="3.63797881e-12,-2.18140867e-15 78.5935303,-2.18140867e-15 78.5935303,96 3.63797881e-12,96 3.63797881e-12,-2.18140867e-15"
                                stroke="none" fill="#FFFFFF"></polygon>
                        </g>
                    </g>
                    <g transform="translate(21.221629157329488 26.21269145782916)">
                        <g transform="translate(0.7459824519777918 10.096566140292374) rotate(-10.0)">
                            <g clip-path="url(#i3)">
                                <polygon points="0,-1.60982339e-15 58,-1.60982339e-15 58,8 0,8 0,-1.60982339e-15"
                                    stroke="none" fill="#E7E9EB"></polygon>
                            </g>
                        </g>
                        <g transform="translate(3.524353294649412 25.853490188487555) rotate(-10.0)">
                            <g clip-path="url(#i4)">
                                <polygon points="0,-9.09855524e-13 13,-9.09855524e-13 13,8 0,8 0,-9.09855524e-13"
                                    stroke="none" fill="#FFAB3F"></polygon>
                            </g>
                        </g>
                        <g transform="translate(20.2660850958563 22.90147116814989) rotate(-10.0)">
                            <g clip-path="url(#i5)">
                                <polygon points="0,-4.55885329e-13 41,-4.55885329e-13 41,8 0,8 0,-4.55885329e-13"
                                    stroke="none" fill="#E7E9EB"></polygon>
                            </g>
                        </g>
                        <g transform="translate(6.302724137319668 41.61041423668295) rotate(-10.0)">
                            <g clip-path="url(#i3)">
                                <polygon points="0,-4.56357174e-13 58,-4.56357174e-13 58,8 0,8 0,-4.56357174e-13"
                                    stroke="none" fill="#E7E9EB"></polygon>
                            </g>
                        </g>
                    </g>
                    <g transform="translate(16.67641407032488 7.548829161707091)">
                        <path
                            d="M7.58681024,15.0976583 C9.47611506,15.0976583 11.2041238,14.410525 12.5321779,13.2737222 C14.1494676,11.8893362 15.1736205,9.8380858 15.1736205,7.54882916 C15.1736205,4.92249007 13.8256592,2.60940807 11.7805588,1.25714715 C10.5792259,0.462802028 9.13733661,0 7.58681024,0 C5.36001847,0 3.35729423,0.95454444 1.96939729,2.47482977 C0.745734975,3.8152145 0,5.59536994 0,7.54882916"
                            stroke="#333333" stroke-width="0.84" fill="none" stroke-miterlimit="10"></path>
                    </g>
                    <g transform="translate(38.0574247402601 3.774414580853544)">
                        <path
                            d="M7.58681024,15.0976583 C9.47611506,15.0976583 11.2041238,14.410525 12.5321779,13.2737222 C14.1494676,11.8893362 15.1736205,9.8380858 15.1736205,7.54882916 C15.1736205,4.92249007 13.8256592,2.60940807 11.7805588,1.25714715 C10.5792259,0.462802028 9.13733661,0 7.58681024,0 C5.36001847,0 3.35729423,0.95454444 1.96939729,2.47482977 C0.745734975,3.8152145 0,5.59536994 0,7.54882916"
                            stroke="#333333" stroke-width="0.84" fill="none" stroke-miterlimit="10"></path>
                    </g>
                    <g transform="translate(59.43843541019487 0.0)">
                        <path
                            d="M7.58681024,15.0976583 C9.47611506,15.0976583 11.2041238,14.410525 12.5321779,13.2737222 C14.1494676,11.8893362 15.1736205,9.8380858 15.1736205,7.54882916 C15.1736205,4.92249007 13.8256592,2.60940807 11.7805588,1.25714715 C10.5792259,0.462802028 9.13733661,0 7.58681024,0 C5.36001847,0 3.35729423,0.95454444 1.96939729,2.47482977 C0.745734975,3.8152145 0,5.59536994 0,7.54882916"
                            stroke="#333333" stroke-width="0.84" fill="none" stroke-miterlimit="10"></path>
                    </g>
                </g>
                <g transform="translate(106.4506801550024 88.2491215220366)">
                    <g transform="translate(37.5547505999877 42.49459629166387) rotate(-44.99999999999999)">
                        <g clip-path="url(#i6)">
                            <polygon
                                points="3.63797881e-12,0 7.16912919,0 7.16912919,22 3.63797881e-12,22 3.63797881e-12,0"
                                stroke="none" fill="#00BEBD"></polygon>
                        </g>
                    </g>
                    <g transform="translate(0.0493198449985357 0.5437716967768438)">
                        <g clip-path="url(#i7)">
                            <path
                                d="M25,50.279772 C38.8071187,50.279772 50,39.0242617 50,25.139886 C50,11.2555104 38.8071187,0 25,0 C11.1928813,0 0,11.2555104 0,25.139886 C0,39.0242617 11.1928813,50.279772 25,50.279772 Z"
                                stroke="#00BEBD" stroke-width="14" fill="none" stroke-miterlimit="5"></path>
                        </g>
                    </g>
                </g>
                <g transform="translate(20.121959501566266 67.37213616531444) rotate(14.0)">
                    <path
                        d="M56.1354412,50.1069135 C44.2420104,31.3477259 29.4753903,20.2201375 11.8355811,16.7241484 C-14.6241329,11.4801647 7.69769125,54.7994553 35.5391966,0"
                        stroke="#333333" stroke-width="0.72" fill="none" stroke-miterlimit="10"></path>
                </g>
                <g transform="translate(68.72792206135819 121.99999999999993) rotate(45.00000000000001)">
                    <g transform="translate(2.8676516750072185 4.325546173471906)">
                        <g clip-path="url(#i8)">
                            <polygon
                                points="3.63809696e-12,-2.22044605e-16 11.4706067,-2.22044605e-16 11.4706067,6.48831926 3.63809696e-12,6.48831926 3.63809696e-12,-2.22044605e-16"
                                stroke="none" fill="#FFAB3F"></polygon>
                        </g>
                    </g>
                </g>
            </g>
        </g>
    </g>
</svg>