<?xml version="1.0" encoding="UTF-8"?><svg version="1.1" width="24px" height="24px" viewBox="0 0 24.0 24.0" xmlns="http://www.w3.org/2000/svg" xmlns:xlink="http://www.w3.org/1999/xlink"><defs><clipPath id="i0"><path d="M11.3068236,0 C17.5514098,0 22.6136472,5.06223736 22.6136472,11.3068236 C22.6136472,14.3290811 21.4278836,17.0743887 19.4962045,19.1028984 L22.5344325,22.0382928 C22.8521919,22.3452794 22.8609251,22.8517361 22.5539385,23.1694955 C22.246952,23.4872549 21.7404953,23.4959881 21.4227358,23.1890016 L18.3106572,20.1838197 C16.3847372,21.7054227 13.951844,22.6136472 11.3068236,22.6136472 C5.06223736,22.6136472 0,17.5514098 0,11.3068236 C0,5.06223736 5.06223736,0 11.3068236,0 Z M11.3068236,1.6 C5.94589296,1.6 1.6,5.94589296 1.6,11.3068236 C1.6,16.6677542 5.94589296,21.0136472 11.3068236,21.0136472 C16.6677542,21.0136472 21.0136472,16.6677542 21.0136472,11.3068236 C21.0136472,5.94589296 16.6677542,1.6 11.3068236,1.6 Z M15.3334069,10.5068236 C15.7752347,10.5068236 16.1334069,10.8649958 16.1334069,11.3068236 C16.1334069,11.7486514 15.7752347,12.1068236 15.3334069,12.1068236 L7.28024026,12.1068236 C6.83841246,12.1068236 6.48024026,11.7486514 6.48024026,11.3068236 C6.48024026,10.8649958 6.83841246,10.5068236 7.28024026,10.5068236 L15.3334069,10.5068236 Z"></path></clipPath></defs><g transform="translate(0.7795666735837585 0.5036786862237932)"><g clip-path="url(#i0)"><polygon points="0,0 22.7785849,0 22.7785849,23.4136479 0,23.4136479 0,0" stroke="none" fill="currentColor"></polygon></g></g></svg>