<?xml version="1.0" encoding="UTF-8"?><svg version="1.1" width="25px" height="24px" viewBox="0 0 25.0 24.0" xmlns="http://www.w3.org/2000/svg" xmlns:xlink="http://www.w3.org/1999/xlink"><defs><clipPath id="i0"><path d="M22.5424332,3.63126564 C22.984261,3.63126564 23.3424332,3.98943784 23.3424332,4.43126564 C23.3424332,4.87309344 22.984261,5.23126564 22.5424332,5.23126564 L20.878,5.231 L20.8784055,20.5568842 C20.8784055,22.3241954 19.4457167,23.7568842 17.6784055,23.7568842 L5.81423986,23.7568842 C4.04692866,23.7568842 2.61423986,22.3241954 2.61423986,20.5568842 L2.614,5.231 L0.8,5.23126564 C0.3581722,5.23126564 0,4.87309344 0,4.43126564 C0,3.98943784 0.3581722,3.63126564 0.8,3.63126564 L22.5424332,3.63126564 Z M19.278,5.231 L4.214,5.231 L4.21423986,20.5568842 C4.21423986,21.4405398 4.93058426,22.1568842 5.81423986,22.1568842 L17.6784055,22.1568842 C18.5620611,22.1568842 19.2784055,21.4405398 19.2784055,20.5568842 L19.278,5.231 Z M9.82674435,8.70083159 C10.2685722,8.70083159 10.6267444,9.05900379 10.6267444,9.50083159 L10.6267444,18.6348097 C10.6267444,19.0766375 10.2685722,19.4348097 9.82674435,19.4348097 C9.38491655,19.4348097 9.02674435,19.0766375 9.02674435,18.6348097 L9.02674435,9.50083159 C9.02674435,9.05900379 9.38491655,8.70083159 9.82674435,8.70083159 Z M13.9557985,8.70083159 C14.3976263,8.70083159 14.7557985,9.05900379 14.7557985,9.50083159 L14.7557985,18.6348097 C14.7557985,19.0766375 14.3976263,19.4348097 13.9557985,19.4348097 C13.5139707,19.4348097 13.1557985,19.0766375 13.1557985,18.6348097 L13.1557985,9.50083159 C13.1557985,9.05900379 13.5139707,8.70083159 13.9557985,8.70083159 Z M16.4726885,0 C16.9145163,0 17.2726885,0.3581722 17.2726885,0.8 C17.2726885,1.2418278 16.9145163,1.6 16.4726885,1.6 L7.2261575,1.6 C6.7843297,1.6 6.4261575,1.2418278 6.4261575,0.8 C6.4261575,0.3581722 6.7843297,0 7.2261575,0 L16.4726885,0 Z"></path></clipPath></defs><g transform="translate(0.8035710036492674 0.16044165902212626)"><g clip-path="url(#i0)"><polygon points="0,0 23.3424332,0 23.3424332,23.7568842 0,23.7568842 0,0" stroke="none" fill="#2B2C3F"></polygon></g></g></svg>