<?xml version="1.0" encoding="UTF-8"?><svg version="1.1" width="25px" height="23px" viewBox="0 0 25.0 23.0" xmlns="http://www.w3.org/2000/svg" xmlns:xlink="http://www.w3.org/1999/xlink"><defs><clipPath id="i0"><path d="M6.13182121,4.40660846 C6.68410596,4.40660846 7.13182121,4.85432371 7.13182121,5.40660846 L7.13182121,21.0452533 C7.13182121,21.597538 6.68410596,22.0452533 6.13182121,22.0452533 L1.8,22.0452533 C1.24771525,22.0452533 0.8,21.597538 0.8,21.0452533 L0.8,5.40660846 C0.8,4.85432371 1.24771525,4.40660846 1.8,4.40660846 L6.13182121,4.40660846 Z M5.53137597,6.00698788 L2.39937597,6.00698788 L2.39937597,20.4459879 L5.53137597,20.4459879 L5.53137597,6.00698788 Z M22.4136472,4.40660846 C22.9659319,4.40660846 23.4136472,4.85432371 23.4136472,5.40660846 L23.4136472,17.8793427 C23.4136472,18.4316274 22.9659319,18.8793427 22.4136472,18.8793427 L18.081826,18.8793427 C17.5295412,18.8793427 17.081826,18.4316274 17.081826,17.8793427 L17.081826,5.40660846 C17.081826,4.85432371 17.5295412,4.40660846 18.081826,4.40660846 L22.4136472,4.40660846 Z M21.813376,6.00698788 L18.681376,6.00698788 L18.681376,17.2799879 L21.813376,17.2799879 L21.813376,6.00698788 Z M14.2727342,4.40660846 C14.825019,4.40660846 15.2727342,4.85432371 15.2727342,5.40660846 L15.2727342,13.3566132 C15.2727342,13.908898 14.825019,14.3566132 14.2727342,14.3566132 L9.94091299,14.3566132 C9.38862824,14.3566132 8.94091299,13.908898 8.94091299,13.3566132 L8.94091299,5.40660846 C8.94091299,4.85432371 9.38862824,4.40660846 9.94091299,4.40660846 L14.2727342,4.40660846 Z M13.672376,6.00698788 L10.540376,6.00698788 L10.540376,12.7569879 L13.672376,12.7569879 L13.672376,6.00698788 Z M23.4136472,0 C23.855475,0 24.2136472,0.3581722 24.2136472,0.8 C24.2136472,1.2418278 23.855475,1.6 23.4136472,1.6 L0.8,1.6 C0.3581722,1.6 0,1.2418278 0,0.8 C0,0.3581722 0.3581722,0 0.8,0 L23.4136472,0 Z"></path></clipPath></defs><g transform="translate(0.7866240340226796 0.6140121200758131)"><g clip-path="url(#i0)"><polygon points="0,0 24.2136472,0 24.2136472,22.0452533 0,22.0452533 0,0" stroke="none" fill="#2B2C3F"></polygon></g></g></svg>