<?xml version="1.0" encoding="UTF-8"?>
<svg width="16px" height="16px" viewBox="0 0 16 16" version="1.1" xmlns="http://www.w3.org/2000/svg" xmlns:xlink="http://www.w3.org/1999/xlink">
    <title></title>
    <g id="页面-1" stroke="none" stroke-width="1" fill="none" fill-rule="evenodd">
        <g id="1" transform="translate(-332.000000, -107.000000)">
            <g id="抄送_normal" transform="translate(332.000000, 107.000023)">
                <rect id="矩形" x="0" y="0" width="16" height="16"></rect>
                <path d="M9.23083713,1.96533011 C10.2772209,1.7781901 11.3932556,1.99336951 12.3317715,2.65359962 C13.269475,3.3132645 13.8523506,4.29232741 14.036636,5.34207743 C14.2209073,6.3917474 14.0066361,7.51205702 13.3502077,8.45426194 L13.3502077,8.45426194 L8.27936045,15.7328996 L12.173566,8.52403118 L12.5909443,7.92903426 C12.8474413,7.56142429 13.019955,7.16569566 13.1096513,6.74316875 C13.1965626,6.33327767 13.2035577,5.91493867 13.1306709,5.50082807 C13.0577773,5.08674593 12.9092469,4.69659433 12.6879377,4.34189659 C12.4581049,3.97574711 12.1624223,3.6616846 11.8048392,3.41086746 C11.447638,3.15889965 11.0540337,2.98569523 10.6323525,2.89560157 C10.2246313,2.80831314 9.80850041,2.80128007 9.39657605,2.87449316 C8.98463703,2.94770887 8.59650308,3.09692584 8.24317304,3.31954054 C7.87888621,3.54762363 7.56791719,3.84617403 7.31860607,4.20225861 L7.31860607,4.20225861 L6.89393004,4.81044767 L3.21137375,10.0962665 C2.88279016,10.5665765 2.75719591,11.1367593 2.85664889,11.7030106 C2.95464658,12.2689028 3.26793417,12.7627043 3.73602028,13.0915434 C4.2037745,13.4215316 4.77087537,13.5477006 5.33407889,13.4478362 C5.89709958,13.3493784 6.38831521,13.0345505 6.71535904,12.5644684 L6.71535904,12.5644684 L10.3953594,7.27675093 L10.815377,6.68208243 C10.9879116,6.43431215 11.0420323,6.14898847 10.9946447,5.88155169 C10.947361,5.6147012 10.7992461,5.36572682 10.5610309,5.19796968 C10.3228988,5.0302616 10.03925,4.97524583 9.77341119,5.02180798 C9.5075661,5.06837122 9.25952642,5.21651818 9.09310311,5.45447341 L9.09310311,5.45447341 L8.67371,6.06483268 L4.86119875,11.5230016 L8.32408722,4.9407936 C8.64518601,4.4775812 9.11170139,4.19679256 9.61150418,4.10822716 C10.1097592,4.01993603 10.641302,4.12278615 11.0879342,4.43779108 C11.535185,4.75269552 11.8132392,5.22007267 11.9010663,5.72111371 C11.9888682,6.22201132 11.8865399,6.75650904 11.5732532,7.20579301 L11.5732532,7.20579301 L7.46892082,13.0954042 C6.98432835,13.7909477 6.26453788,14.2231237 5.49286503,14.35974 C4.72097331,14.4963951 3.89714396,14.337331 3.20478327,13.8502345 C2.51274525,13.363382 2.08264829,12.6402753 1.94671429,11.8649703 C1.81077053,11.0896096 1.96905085,10.2620937 2.45359746,9.56662505 L2.45359746,9.56662505 L6.55070603,3.68716852 C7.21049284,2.74023476 8.18597907,2.15219725 9.23083713,1.96533011 Z" id="路径" stroke="#8A8E9A" stroke-width="0.2" fill="#8A8E9A" fill-rule="nonzero"></path>
            </g>
        </g>
    </g>
</svg>