<?xml version="1.0" encoding="UTF-8"?>
<svg width="14px" height="14px" viewBox="0 0 14 14" version="1.1" xmlns="http://www.w3.org/2000/svg" xmlns:xlink="http://www.w3.org/1999/xlink" style="background: #3E3E3E;">
    <title></title>
    <g id="ICON/14px/分享" stroke="none" stroke-width="1" fill="none" fill-rule="evenodd">
        <rect fill="#3E3E3E" x="0" y="0" width="14" height="14"></rect>
        <path d="M6.5,0.5 L6.5,1.7 L2.58333333,1.7 C2.13032834,1.7 1.75696867,2.04100217 1.70594283,2.48031801 L1.7,2.58333333 L1.7,11.4166667 C1.7,11.8696717 2.04100217,12.2430313 2.48031801,12.2940572 L2.58333333,12.3 L11.4166667,12.3 C11.8696717,12.3 12.2430313,11.9589978 12.2940572,11.519682 L12.3,11.4166667 L12.3,7.499 L13.5,7.499 L13.5,11.6428571 C13.5,12.6685288 12.6685288,13.5 11.6428571,13.5 L2.35714286,13.5 C1.33147118,13.5 0.5,12.6685288 0.5,11.6428571 L0.5,2.35714286 C0.5,1.33147118 1.33147118,0.5 2.35714286,0.5 L6.5,0.5 Z M11.6428571,0.5 C12.6685288,0.5 13.5,1.33147118 13.5,2.35714286 L13.5,5.499 L12.3,5.499 L12.3,2.58333333 C12.3,2.13032834 11.9589978,1.75696867 11.519682,1.70594283 L11.4166667,1.7 L8.5,1.7 L8.5,0.5 L11.6428571,0.5 Z" id="形状结合" fill="#FFFFFF" fill-rule="nonzero" transform="translate(7.000000, 7.000000) rotate(-360.000000) translate(-7.000000, -7.000000) "></path>
        <rect id="矩形" fill="#FFFFFF" transform="translate(10.389087, 3.609138) rotate(-315.000000) translate(-10.389087, -3.609138) " x="9.7890873" y="0.109137803" width="1.2" height="7"></rect>
    </g>
</svg>