<?xml version="1.0" encoding="UTF-8"?>
<svg width="14px" height="14px" viewBox="0 0 14 14" version="1.1" xmlns="http://www.w3.org/2000/svg" xmlns:xlink="http://www.w3.org/1999/xlink">
    <title></title>
    <g id="设计稿" stroke="none" stroke-width="1" fill="none" fill-rule="evenodd">
        <g id="Hover标签样式" transform="translate(-611.000000, -298.000000)">
            <g id="编组备份" transform="translate(611.000000, 298.000000)">
                <polygon id="路径" points="0 0 14 0 14 14 0 14"></polygon>
                <path d="M7,13.125 C3.6171625,13.125 0.875,10.3828375 0.875,7 C0.875,3.6171625 3.6171625,0.875 7,0.875 C10.3828375,0.875 13.125,3.6171625 13.125,7 C13.125,10.3828375 10.3828375,13.125 7,13.125 Z" id="路径" fill="#A6A9B3" fill-rule="nonzero"></path>
                <path d="M7,6.133925 L5.62134089,4.75477838 C5.42617576,4.55941924 5.10959328,4.55936328 4.91429662,4.7545909 C4.91427578,4.75461173 4.91425495,4.75463256 4.91429661,4.75471589 L4.75471589,4.91429661 C4.55939125,5.10949626 4.55939125,5.42607875 4.7546534,5.6213409 C4.75467423,5.62136173 4.75469507,5.62138256 4.75477838,5.62134089 L6.133925,7 L6.133925,7 L4.75477838,8.37865911 C4.55941924,8.57382424 4.55936328,8.89040672 4.7545909,9.08570338 C4.75461173,9.08572422 4.75463256,9.08574505 4.75471589,9.08570339 L4.91429661,9.24528411 C5.10949626,9.44060875 5.42607875,9.44060875 5.6213409,9.2453466 C5.62136173,9.24532577 5.62138256,9.24530493 5.62134089,9.24522162 L7,7.866075 L7,7.866075 L8.37865911,9.24522162 C8.57382424,9.44058076 8.89040672,9.44063672 9.08570338,9.2454091 C9.08572422,9.24538827 9.08574505,9.24536744 9.08570339,9.24528411 L9.24528411,9.08570339 C9.44060875,8.89050374 9.44060875,8.57392125 9.2453466,8.3786591 C9.24532577,8.37863827 9.24530493,8.37861744 9.24522162,8.37865911 L7.866075,7 L7.866075,7 L9.24522162,5.62134089 C9.44058076,5.42617576 9.44063672,5.10959328 9.2454091,4.91429662 C9.24538827,4.91427578 9.24536744,4.91425495 9.24528411,4.91429661 L9.08570339,4.75471589 C8.89050374,4.55939125 8.57392125,4.55939125 8.3786591,4.7546534 C8.37863827,4.75467423 8.37861744,4.75469507 8.37865911,4.75477838 L7,6.133925 L7,6.133925 Z" id="路径" fill="#FFFFFF" fill-rule="nonzero"></path>
            </g>
        </g>
    </g>
</svg>