<?xml version="1.0" encoding="UTF-8"?>
<svg width="10px" height="10px" viewBox="0 0 10 10" version="1.1" xmlns="http://www.w3.org/2000/svg" xmlns:xlink="http://www.w3.org/1999/xlink">
    <title>编组 3</title>
    <g id="H5定稿" stroke="none" stroke-width="1" fill="none" fill-rule="evenodd">
        <g id="工资条调整" transform="translate(-335.000000, -748.000000)">
            <g id="编组-2备份-2" transform="translate(15.000000, 419.000000)">
                <g id="工资列表项备份-3" transform="translate(0.000000, 312.000000)">
                    <g id="编组-2" transform="translate(242.000000, 12.000000)">
                        <g id="编组-3" transform="translate(83.000000, 10.000000) rotate(-90.000000) translate(-83.000000, -10.000000) translate(78.000000, 5.000000)">
                            <rect id="矩形" x="0" y="0" width="10" height="10"></rect>
                            <path d="M5.70278193,3.37847741 L8.63021957,7.03777446 C8.94072816,7.4259102 8.87779892,7.99227334 8.48966318,8.30278193 C8.33008144,8.43044732 8.13180198,8.5 7.92743764,8.5 L2.07256236,8.5 C1.57550609,8.5 1.17256236,8.09705627 1.17256236,7.6 C1.17256236,7.39563565 1.24211504,7.1973562 1.36978043,7.03777446 L4.29721807,3.37847741 C4.60772666,2.99034167 5.1740898,2.92741243 5.56222554,3.23792102 C5.61412378,3.27943961 5.66126334,3.32657918 5.70278193,3.37847741 Z" id="三角形" fill="#AAAAAA" transform="translate(5.000000, 5.500000) rotate(-180.000000) translate(-5.000000, -5.500000) "></path>
                        </g>
                    </g>
                </g>
            </g>
        </g>
    </g>
</svg>