<?xml version="1.0" encoding="UTF-8"?>
<svg width="16px" height="16px" viewBox="0 0 16 16" version="1.1" xmlns="http://www.w3.org/2000/svg" xmlns:xlink="http://www.w3.org/1999/xlink">
    <title>编组</title>
    <g id="H5定稿" stroke="none" stroke-width="1" fill="none" fill-rule="evenodd">
        <g id="工资条调整" transform="translate(-92.000000, -481.000000)">
            <g id="编组-2备份-2" transform="translate(15.000000, 419.000000)">
                <g id="工资列表项备份" transform="translate(0.000000, 48.000000)">
                    <g id="编组-2" transform="translate(15.000000, 12.000000)">
                        <g id="编组" transform="translate(62.000000, 2.000000)">
                            <polygon id="路径" points="0 0 16 0 16 16 0 16"></polygon>
                            <path d="M8,14.6666667 C4.318,14.6666667 1.33333333,11.682 1.33333333,8 C1.33333333,4.318 4.318,1.33333333 8,1.33333333 C11.682,1.33333333 14.6666667,4.318 14.6666667,8 C14.6666667,11.682 11.682,14.6666667 8,14.6666667 Z M7.33333333,10 L7.33333333,11.3333333 L8.66666667,11.3333333 L8.66666667,10 L7.33333333,10 Z M8.66666667,8.90333333 C9.77400986,8.56958381 10.4701047,7.47541026 10.3031561,6.33097771 C10.1362075,5.18654517 9.1565403,4.33682998 8,4.33333333 C6.88771679,4.33324856 5.92991398,5.11807213 5.71133333,6.20866667 L7.01933333,6.47066667 C7.12257978,5.95411632 7.60883591,5.60623098 8.13105575,5.67529997 C8.6532756,5.74436896 9.03237141,6.20670606 8.99777863,6.73233657 C8.96318585,7.25796708 8.52676759,7.6666336 8,7.66666667 C7.63181017,7.66666667 7.33333333,7.9651435 7.33333333,8.33333333 L7.33333333,9.33333333 L8.66666667,9.33333333 L8.66666667,8.90333333 Z" id="形状" fill="#FFE8BB" fill-rule="nonzero"></path>
                        </g>
                    </g>
                </g>
            </g>
        </g>
    </g>
</svg>