<?xml version="1.0" encoding="UTF-8"?>
<svg width="20px" height="20px" viewBox="0 0 20 20" version="1.1" xmlns="http://www.w3.org/2000/svg" xmlns:xlink="http://www.w3.org/1999/xlink">
    <g id="页面-1" stroke="none" stroke-width="1" fill="none" fill-rule="evenodd">
        <g id="帮助中心" transform="translate(-845.000000, -911.000000)">
            <g id="编组" transform="translate(845.000000, 911.000000)">
                <polygon id="路径" points="0 0 20 0 20 20 0 20"></polygon>
                <path d="M10,1.66666667 C14.6025,1.66666667 18.3333333,5.3975 18.3333333,10 C18.3333333,14.6025 14.6025,18.3333333 10,18.3333333 C5.3975,18.3333333 1.66666667,14.6025 1.66666667,10 C1.66666667,5.3975 5.3975,1.66666667 10,1.66666667 Z M10,3.33333333 C6.31810167,3.33333333 3.33333333,6.31810167 3.33333333,10 C3.33333333,13.6818983 6.31810167,16.6666667 10,16.6666667 C13.6818983,16.6666667 16.6666667,13.6818983 16.6666667,10 C16.6666667,6.31810167 13.6818983,3.33333333 10,3.33333333 Z M10,5.83333333 C11.7991604,5.83401579 13.3946793,6.98943349 13.9566293,8.69858261 C14.5185792,10.4077317 13.9200231,12.2845379 12.4723067,13.3527587 C11.0245904,14.4209796 9.05473392,14.439318 7.5873809,13.3982351 C6.12002788,12.3571522 5.48663411,10.491815 6.01666667,8.7725 C6.41840292,9.67020353 7.3934037,10.164474 8.35495609,9.95788107 C9.31650848,9.75128812 10.0024454,8.90015926 10,7.91666667 C10.000225,7.09700626 9.51980532,6.35338314 8.7725,6.01666667 C9.16083333,5.8975 9.5725,5.83333333 10,5.83333333 Z" id="形状" fill="#86909C" fill-rule="nonzero"></path>
            </g>
        </g>
    </g>
</svg>