<svg width="20" height="20" viewBox="0 0 20 20" fill="none" xmlns="http://www.w3.org/2000/svg">
<path fill-rule="evenodd" clip-rule="evenodd" d="M2.65656 2.61743C2.13879 2.61743 1.71906 3.03716 1.71906 3.55493V5.47647V5.51248V15.4765C1.71906 15.9942 2.13879 16.414 2.65656 16.414H17.3441C17.8618 16.414 18.2816 15.9942 18.2816 15.4765V5.47647C18.2816 4.9587 17.8618 4.53897 17.3441 4.53897H9.6101L9.19434 3.26423C9.06852 2.87847 8.70881 2.61743 8.30305 2.61743H2.65656Z" fill="url(#paint0_linear_25_11508)"/>
<path d="M1.71906 7.38721C1.71906 6.86944 2.13879 6.44971 2.65656 6.44971H17.3441C17.8618 6.44971 18.2816 6.86944 18.2816 7.38721V17.1876C18.2816 17.7054 17.8618 18.1251 17.3441 18.1251H2.65656C2.13879 18.1251 1.71906 17.7054 1.71906 17.1876V7.38721Z" fill="url(#paint1_linear_25_11508)"/>
<defs>
<linearGradient id="paint0_linear_25_11508" x1="1.71906" y1="3.21312" x2="17.2494" y2="18.0255" gradientUnits="userSpaceOnUse">
<stop stop-color="#FCA33B"/>
<stop offset="0.339203" stop-color="#FF8E0B"/>
<stop offset="1" stop-color="#F2A953"/>
</linearGradient>
<linearGradient id="paint1_linear_25_11508" x1="-2.6992" y1="1.1454" x2="32.4062" y2="26.3319" gradientUnits="userSpaceOnUse">
<stop offset="0.0208333" stop-color="#FFC224"/>
<stop offset="0.973958" stop-color="#FF9D0A"/>
</linearGradient>
</defs>
</svg>
