<?xml version="1.0" encoding="UTF-8"?>
<svg width="16px" height="16px" viewBox="0 0 16 16" version="1.1" xmlns="http://www.w3.org/2000/svg" xmlns:xlink="http://www.w3.org/1999/xlink">
    <title></title>
    <g id="ICON/16px/学历" stroke="none" stroke-width="1" fill="none" fill-rule="evenodd">
        <rect id="矩形" x="0" y="0" width="16" height="16"></rect>
        <g id="学历" transform="translate(1.000000, 2.500000)" stroke="#C5C8D0">
            <path d="M7.69298283,0.156927214 L13.7710141,3.05848248 C13.9714417,3.15416345 14.0563557,3.3942069 13.9606747,3.59463454 C13.9210222,3.67769661 13.8540761,3.74464267 13.7710141,3.78429518 L7.69298283,6.68585045 C7.25468524,6.89508673 6.74531476,6.89508673 6.30701717,6.68585045 L0.228985949,3.78429518 C0.0285583089,3.68861421 -0.056355651,3.44857076 0.0393253112,3.24814312 C0.0789778203,3.16508105 0.145923879,3.09813499 0.228985949,3.05848248 L6.30701717,0.156927214 C6.74531476,-0.0523090712 7.25468524,-0.0523090712 7.69298283,0.156927214 Z" id="icon_education"></path>
            <path d="M12.3736038,4.41793729 L12.3736038,9.20993116 C12.3736038,10.3804776 9.96775944,11.329393 7,11.329393 C4.03224056,11.329393 1.62639618,10.3804776 1.62639618,9.20993116 L1.62639618,4.41793729" id="Path"></path>
        </g>
    </g>
</svg>