<?xml version="1.0" encoding="UTF-8"?>
<svg width="28px" height="28px" viewBox="0 0 28 28" version="1.1" xmlns="http://www.w3.org/2000/svg" xmlns:xlink="http://www.w3.org/1999/xlink">
    <defs>
        <linearGradient x1="50%" y1="0%" x2="50%" y2="100%" id="linearGradient-1">
            <stop stop-color="#D59DFF" offset="0%"></stop>
            <stop stop-color="#B243FF" offset="100%"></stop>
        </linearGradient>
    </defs>
    <g id="页面-1" stroke="none" stroke-width="1" fill="none" fill-rule="evenodd">
        <g id="人才图谱" transform="translate(-150.000000, -426.000000)">
            <g id="人才标签" transform="translate(130.000000, 406.000000)">
                <g id="编组-25" transform="translate(20.000000, 20.000000)">
                    <rect id="矩形" x="0" y="0" width="28" height="28"></rect>
                    <g id="编组-24" transform="translate(3.500000, 0.000000)">
                        <path d="M6.5,16 L14.5,16 C15.6045695,16 16.5,16.8954305 16.5,18 L16.5,26.691768 C16.5,27.2440527 16.0522847,27.6917712 15.5,27.6917712 C15.2459401,27.6917712 15.001405,27.5950672 14.8160589,27.4213052 L10.8419706,23.6955974 C10.6496415,23.5152889 10.3503585,23.5152889 10.1580294,23.6955974 L6.18394113,27.4213052 C5.78102886,27.7990354 5.14819305,27.7786214 4.7704628,27.3757091 C4.59670079,27.190363 4.5,26.9458279 4.5,26.691768 L4.5,18 C4.5,16.8954305 5.3954305,16 6.5,16 Z" id="矩形" fill="#E198FF"></path>
                        <circle id="椭圆形" fill="url(#linearGradient-1)" cx="10.5" cy="10.5" r="10.5"></circle>
                        <path d="M14.5,16 C15.6045695,16 16.5,16.8954305 16.5,18 L16.5007257,19.1174599 C14.7998381,20.3040799 12.7311895,21 10.5,21 C8.2688105,21 6.20016185,20.3040799 4.49927433,19.1174599 L4.5,18 C4.5,16.8954305 5.3954305,16 6.5,16 L14.5,16 Z" id="形状结合" fill="#A52DF8"></path>
                        <polygon id="星形" fill="#FFFFFF" points="10.5 13.2 7.56107374 14.745085 8.12235871 11.4725425 5.74471742 9.15491503 9.03053687 8.67745751 10.5 5.7 11.9694631 8.67745751 15.2552826 9.15491503 12.8776413 11.4725425 13.4389263 14.745085"></polygon>
                    </g>
                </g>
            </g>
        </g>
    </g>
</svg>