<?xml version="1.0" encoding="UTF-8"?>
<svg width="28px" height="28px" viewBox="0 0 28 28" version="1.1" xmlns="http://www.w3.org/2000/svg" xmlns:xlink="http://www.w3.org/1999/xlink">
    <defs>
        <linearGradient x1="50%" y1="0%" x2="50%" y2="100%" id="linearGradient-1">
            <stop stop-color="#66D7FF" offset="0%"></stop>
            <stop stop-color="#4CB9F6" offset="100%"></stop>
        </linearGradient>
    </defs>
    <g id="页面-1" stroke="none" stroke-width="1" fill="none" fill-rule="evenodd">
        <g id="人才图谱" transform="translate(-750.000000, -426.000000)">
            <g id="基本信息" transform="translate(730.000000, 406.000000)">
                <g id="编组-10" transform="translate(20.000000, 20.000000)">
                    <rect id="矩形" opacity="0.300000012" x="0" y="0" width="28" height="28"></rect>
                    <rect id="矩形" fill="url(#linearGradient-1)" x="0" y="1.5" width="22" height="23" rx="4"></rect>
                    <rect id="矩形" fill="#FFFFFF" x="5" y="8.5" width="12" height="3" rx="1"></rect>
                    <rect id="矩形备份-3" fill="#FFFFFF" x="5" y="14.5" width="7" height="3" rx="1"></rect>
                    <path d="M23.7743687,15.0606602 L26.6027958,17.8890873 C27.1885822,18.4748737 27.1885822,19.4246212 26.6027958,20.0104076 L19.5233,27.0899034 C19.1619455,27.451258 18.6759743,27.6605809 18.1651425,27.6749041 L14.9358442,27.7654506 C14.4232098,27.7798243 13.9898846,27.4057825 13.9182028,26.9102582 L13.907817,26.7671419 L13.907817,26.7671419 L13.9905412,23.5013774 C14.0035834,22.9887156 14.2130568,22.5006517 14.5756807,22.1380278 L21.6530483,15.0606602 C22.2388348,14.4748737 23.1885822,14.4748737 23.7743687,15.0606602 Z" id="矩形" fill="#9AD8FF"></path>
                    <path d="M21.9988399,14.8021757 L22,19.5 C22,22.2614237 19.7614237,24.5 17,24.5 L13.965,24.4991757 L13.9905412,23.5013774 C14.0035834,22.9887156 14.2130568,22.5006517 14.5756807,22.1380278 L21.6530483,15.0606602 C21.7580208,14.9556877 21.8746809,14.8695262 21.9988399,14.8021757 Z" id="形状结合" fill="#42A8FC"></path>
                </g>
            </g>
        </g>
    </g>
</svg>