<?xml version="1.0" encoding="UTF-8"?>
<svg width="100px" height="100px" viewBox="0 0 100 100" version="1.1" xmlns="http://www.w3.org/2000/svg" xmlns:xlink="http://www.w3.org/1999/xlink">
    <g id="页面-1" stroke="none" stroke-width="1" fill="none" fill-rule="evenodd">
        <g id="状态集合" transform="translate(-979.000000, -4548.000000)">
            <g id="编组-39" transform="translate(729.000000, 4398.000000)">
                <g id="编组-6备份" transform="translate(250.000000, 150.000000)">
                    <rect id="矩形" x="0" y="0" width="100" height="100"></rect>
                    <g id="编组-2" transform="translate(6.153846, 20.961538)">
                        <ellipse id="椭圆形" fill="#ECEFF2" cx="41.2010366" cy="51.2147205" rx="41.2010366" ry="12.6314333"></ellipse>
                        <ellipse id="椭圆形备份-2" fill="#E5E6EB" cx="41.2010366" cy="51.2147205" rx="26.2188415" ry="8.03818484"></ellipse>
                        <g id="编组-3" transform="translate(10.647459, 0.000000)">
                            <path d="M60.0729632,10.5644715 C60.6812998,10.5644715 61.2859746,10.5978376 61.8850166,10.6640873 C70.04489,11.5665096 76.275618,18.4319824 76.275618,26.6408412 C76.275618,35.519575 69.0214424,42.7172108 60.0729632,42.7172108 C57.8433942,42.7172108 55.6735185,42.2688101 53.6679247,41.4116069 L53.4072658,41.2974827 L55.3134765,37.1117076 C56.7950386,37.7759376 58.4070776,38.1239624 60.0729632,38.1239624 C66.464734,38.1239624 71.6462881,32.9827939 71.6462881,26.6408412 C71.6462881,20.7781741 67.1946034,15.8729816 61.3722006,15.2290664 C61.0505657,15.193496 60.7263282,15.1711488 60.3999871,15.1621984 L60.0729632,15.15772 L60.0729632,10.5644715 Z" id="路径" fill="#ECEFF2" fill-rule="nonzero"></path>
                            <path d="M0.165221387,7.53459765 C0.0559889127,9.05880842 0,10.6059729 0,12.1721085 C0,36.652046 8.75905674,56.4969563 30.5535777,56.4969563 C52.3480986,56.4969563 61.1071554,36.652046 61.1071554,12.1721085 C61.1071554,10.3323031 61.0298896,8.5186781 60.8798088,6.73769013" id="路径" fill="#ECEFF2"></path>
                            <ellipse id="椭圆形" stroke="#979797" stroke-width="0.6" cx="30.5535777" cy="8.26784726" rx="30.2535777" ry="7.96784726"></ellipse>
                            <ellipse id="椭圆形备份" stroke="#FFFFFF" fill="#ECEFF2" cx="30.5535777" cy="8.26784726" rx="31.0535777" ry="8.76784726"></ellipse>
                        </g>
                    </g>
                </g>
            </g>
        </g>
    </g>
</svg>