<?xml version="1.0" encoding="UTF-8"?>
<svg width="28px" height="28px" viewBox="0 0 28 28" version="1.1" xmlns="http://www.w3.org/2000/svg" xmlns:xlink="http://www.w3.org/1999/xlink">
    <defs>
        <linearGradient x1="50%" y1="0%" x2="50%" y2="100%" id="linearGradient-1">
            <stop stop-color="#FE7086" offset="0%"></stop>
            <stop stop-color="#FF4B87" offset="100%"></stop>
        </linearGradient>
    </defs>
    <g id="页面-1" stroke="none" stroke-width="1" fill="none" fill-rule="evenodd">
        <g id="人才图谱" transform="translate(-150.000000, -1225.000000)">
            <g id="成长轨迹" transform="translate(130.000000, 1205.000000)">
                <g id="编组-21" transform="translate(20.000000, 20.000000)">
                    <polygon id="路径" points="0 0 28 0 28 28 0 28"></polygon>
                    <g id="编组-20" transform="translate(2.000000, 2.000000)">
                        <path d="M12,0 C18.6276,0 24,5.3724 24,12 C24,18.6276 18.6276,24 12,24 C5.3724,24 0,18.6276 0,12 C0,5.3724 5.3724,0 12,0 Z" id="路径" fill="url(#linearGradient-1)"></path>
                        <circle id="椭圆形" fill="#FF95AC" cx="20" cy="20" r="5"></circle>
                        <path d="M20,15 C21.2387425,15 22.3722717,15.4504721 23.2457084,16.1965372 C22.0318373,19.4482562 19.4482562,22.0318373 16.1968076,23.2457119 C15.4504721,22.3722717 15,21.2387425 15,20 C15,17.2385763 17.2385763,15 20,15 Z" id="形状结合" fill="#F4283F"></path>
                        <path d="M16.5996,6.4044 C16.884,6.2052 17.2704,6.2388 17.5152,6.4848 C17.76,6.7296 17.7924,7.116 17.5908,7.3968 C14.9748,11.052 13.536,13.0092 13.2732,13.2732 C12.57,13.9752 11.43,13.9752 10.7268,13.2732 C10.0248,12.57 10.0248,11.43 10.7268,10.7268 C11.1756,10.2804 13.1316,8.838 16.5996,6.4044 Z M18.6,10.8 C19.2624,10.8 19.8,11.3376 19.8,12 C19.8,12.6624 19.2624,13.2 18.6,13.2 C17.9376,13.2 17.4,12.6624 17.4,12 C17.4,11.3376 17.9376,10.8 18.6,10.8 Z M5.4,10.8 C6.0624,10.8 6.6,11.3376 6.6,12 C6.6,12.6624 6.0624,13.2 5.4,13.2 C4.7376,13.2 4.2,12.6624 4.2,12 C4.2,11.3376 4.7376,10.8 5.4,10.8 Z M6.4848,6.4848 C6.9528,6.0168 7.7136,6.0168 8.1816,6.4848 C8.6496,6.9528 8.6496,7.7136 8.1816,8.1816 C7.7124,8.6496 6.9528,8.6496 6.4848,8.1816 C6.0168,7.7124 6.0168,6.9528 6.4848,6.4848 Z M12,4.2 C12.6624,4.2 13.2,4.7376 13.2,5.4 C13.2,6.0624 12.6624,6.6 12,6.6 C11.3376,6.6 10.8,6.0624 10.8,5.4 C10.8,4.7376 11.3376,4.2 12,4.2 Z" id="形状结合" fill="#FFFFFF" fill-rule="nonzero"></path>
                    </g>
                </g>
            </g>
        </g>
    </g>
</svg>