<?xml version="1.0" encoding="UTF-8"?>
<svg width="28px" height="28px" viewBox="0 0 28 28" version="1.1" xmlns="http://www.w3.org/2000/svg" xmlns:xlink="http://www.w3.org/1999/xlink">
    <defs>
        <linearGradient x1="50%" y1="-8.38823193%" x2="50%" y2="100%" id="linearGradient-1">
            <stop stop-color="#B243FF" offset="0%"></stop>
            <stop stop-color="#D59DFF" offset="100%"></stop>
        </linearGradient>
    </defs>
    <g id="页面-1" stroke="none" stroke-width="1" fill="none" fill-rule="evenodd">
        <g id="人才图谱" transform="translate(-750.000000, -2041.000000)">
            <g id="编组-40" transform="translate(730.000000, 2021.000000)">
                <g id="编组-4" transform="translate(20.000000, 20.000000)">
                    <rect id="矩形" x="0" y="0" width="28" height="28"></rect>
                    <path d="M6.25,1 L21.75,1 C23.5449254,1 25,2.45507456 25,4.25 L25,5.5 C25,6.6045695 24.1045695,7.5 23,7.5 L5,7.5 C3.8954305,7.5 3,6.6045695 3,5.5 L3,4.25 C3,2.45507456 4.45507456,1 6.25,1 Z" id="矩形备份-25" fill="#E198FF"></path>
                    <path d="M8,3.5 L20,3.5 C22.7614237,3.5 25,5.73857625 25,8.5 L25,22 C25,24.7614237 22.7614237,27 20,27 L8,27 C5.23857625,27 3,24.7614237 3,22 L3,8.5 C3,5.73857625 5.23857625,3.5 8,3.5 Z" id="矩形" fill="url(#linearGradient-1)"></path>
                    <path d="M20,3.5 C22.1043264,3.5 23.9050295,4.79996598 24.6428523,6.640641 C24.2815266,7.16019185 23.6804465,7.5 23,7.5 L5,7.5 C4.31911306,7.5 3.71769534,7.15975183 3.35649813,6.64000679 C4.09562857,4.79949098 5.8960581,3.5 8,3.5 L20,3.5 Z" id="形状结合" fill="#A52DF8"></path>
                    <path d="M18,22 C18.5522847,22 19,22.4477153 19,23 C19,23.5522847 18.5522847,24 18,24 C17.4477153,24 17,23.5522847 17,23 C17,22.4477153 17.4477153,22 18,22 Z M8.93933983,18.2751263 L9.99967966,19.3346797 L11.0606602,18.2751263 C11.2559223,18.0798641 11.5725048,18.0798641 11.767767,18.2751263 L12.4748737,18.982233 C12.6701359,19.1774952 12.6701359,19.4940777 12.4748737,19.6893398 L11.4136797,20.7496797 L12.4748737,21.8106602 C12.6701359,22.0059223 12.6701359,22.3225048 12.4748737,22.517767 L11.767767,23.2248737 C11.5725048,23.4201359 11.2559223,23.4201359 11.0606602,23.2248737 L9.99967966,22.1636797 L8.93933983,23.2248737 C8.74407768,23.4201359 8.42749519,23.4201359 8.23223305,23.2248737 L7.52512627,22.517767 C7.32986412,22.3225048 7.32986412,22.0059223 7.52512627,21.8106602 L8.58467966,20.7496797 L7.52512627,19.6893398 C7.32986412,19.4940777 7.32986412,19.1774952 7.52512627,18.982233 L8.23223305,18.2751263 C8.42749519,18.0798641 8.74407768,18.0798641 8.93933983,18.2751263 Z M20.5,19.85 C20.7761424,19.85 21,20.0738576 21,20.35 L21,21.15 C21,21.4261424 20.7761424,21.65 20.5,21.65 L15.5,21.65 C15.2238576,21.65 15,21.4261424 15,21.15 L15,20.35 C15,20.0738576 15.2238576,19.85 15.5,19.85 L20.5,19.85 Z M18,17.5 C18.5522847,17.5 19,17.9477153 19,18.5 C19,19.0522847 18.5522847,19.5 18,19.5 C17.4477153,19.5 17,19.0522847 17,18.5 C17,17.9477153 17.4477153,17.5 18,17.5 Z M10.5,9.5 C10.7761424,9.5 11,9.72385763 11,10 L11,11.5 L12.5,11.5 C12.7761424,11.5 13,11.7238576 13,12 L13,13 C13,13.2761424 12.7761424,13.5 12.5,13.5 L11,13.5 L11,15 C11,15.2761424 10.7761424,15.5 10.5,15.5 L9.5,15.5 C9.22385763,15.5 9,15.2761424 9,15 L9,13.5 L7.5,13.5 C7.22385763,13.5 7,13.2761424 7,13 L7,12 C7,11.7238576 7.22385763,11.5 7.5,11.5 L9,11.5 L9,10 C9,9.72385763 9.22385763,9.5 9.5,9.5 L10.5,9.5 Z M20.5,11.5 C20.7761424,11.5 21,11.7238576 21,12 L21,13 C21,13.2761424 20.7761424,13.5 20.5,13.5 L15.5,13.5 C15.2238576,13.5 15,13.2761424 15,13 L15,12 C15,11.7238576 15.2238576,11.5 15.5,11.5 L20.5,11.5 Z" id="形状结合" fill="#FFFFFF"></path>
                </g>
            </g>
        </g>
    </g>
</svg>