<?xml version="1.0" encoding="UTF-8"?>
<svg width="12px" height="12px" viewBox="0 0 12 12" version="1.1" xmlns="http://www.w3.org/2000/svg" xmlns:xlink="http://www.w3.org/1999/xlink">
    <g id="页面-1" stroke="none" stroke-width="1" fill="none" fill-rule="evenodd">
        <g id="人才图谱" transform="translate(-540.000000, -434.000000)">
            <g id="人才标签" transform="translate(130.000000, 406.000000)">
                <g id="编组-16" transform="translate(410.000000, 28.000000)">
                    <circle id="椭圆形" stroke="#86909C" cx="6" cy="6" r="5.5"></circle>
                    <path d="M6,5.25 C6.27614237,5.25 6.5,5.47385763 6.5,5.75 L6.5,8.75 C6.5,9.02614237 6.27614237,9.25 6,9.25 C5.72385763,9.25 5.5,9.02614237 5.5,8.75 L5.5,5.75 C5.5,5.47385763 5.72385763,5.25 6,5.25 Z M6,2.75 C6.41421356,2.75 6.75,3.08578644 6.75,3.5 C6.75,3.91421356 6.41421356,4.25 6,4.25 C5.58578644,4.25 5.25,3.91421356 5.25,3.5 C5.25,3.08578644 5.58578644,2.75 6,2.75 Z" id="形状结合" fill="#86909C"></path>
                </g>
            </g>
        </g>
    </g>
</svg>