<?xml version="1.0" encoding="UTF-8"?>
<svg width="28px" height="28px" viewBox="0 0 28 28" version="1.1" xmlns="http://www.w3.org/2000/svg" xmlns:xlink="http://www.w3.org/1999/xlink">
    <defs>
        <linearGradient x1="50%" y1="0%" x2="50%" y2="100%" id="linearGradient-1">
            <stop stop-color="#69D3AD" offset="0%"></stop>
            <stop stop-color="#5BC27B" offset="100%"></stop>
        </linearGradient>
    </defs>
    <g id="页面-1" stroke="none" stroke-width="1" fill="none" fill-rule="evenodd">
        <g id="人才图谱" transform="translate(-150.000000, -826.000000)">
            <g id="教育经历" transform="translate(130.000000, 806.000000)">
                <g id="编组-13备份" transform="translate(20.000000, 20.000000)">
                    <rect id="矩形" x="0" y="0" width="28" height="28"></rect>
                    <g id="编组-11" transform="translate(3.000000, 0.000000)">
                        <path d="M17.9486833,12.3162278 L21.2905694,13.4301898 C22.3114248,13.7704749 23,14.725822 23,15.8018981 L23,22.5 C23,23.8807119 21.8807119,25 20.5,25 L16.5,25 C15.1192881,25 14,23.8807119 14,22.5 L14,15.1622777 C14,13.5054234 15.3431458,12.1622777 17,12.1622777 C17.3224463,12.1622777 17.6427839,12.2142613 17.9486833,12.3162278 Z" id="矩形备份-4" fill="#83E9C2"></path>
                        <path d="M3.13227817,3.30393818 L13.1322782,1.08171596 C15.2888111,0.602486428 17.4255187,1.96220947 17.9047482,4.11874237 C17.9680593,4.40364196 18,4.69461482 18,4.9864642 L18,21 C18,23.209139 16.209139,25 14,25 L4,25 C1.790861,25 2.705415e-16,23.209139 0,21 L0,7.20868643 C-2.2959612e-16,5.33389183 1.30212795,3.71063823 3.13227817,3.30393818 Z" id="矩形" fill="url(#linearGradient-1)" fill-rule="nonzero"></path>
                        <path d="M16.5,11.9685647 C16.7687052,11.9685647 17.0356532,12.0118844 17.2905694,12.0968565 L18,12.3335647 L18,21 C18,22.7159499 16.9194994,24.1795354 15.4017533,24.7475013 C14.5713965,24.3395605 14,23.4865086 14,22.5 L14,14.4685647 C14,13.0878528 15.1192881,11.9685647 16.5,11.9685647 Z" id="形状结合" fill="#44B061"></path>
                        <rect id="矩形" fill="#FFFFFF" x="4.5" y="8" width="9" height="3" rx="1"></rect>
                        <rect id="矩形备份-12" fill="#FFFFFF" x="4.5" y="14" width="9" height="3" rx="1"></rect>
                    </g>
                </g>
            </g>
        </g>
    </g>
</svg>