<?xml version="1.0" encoding="UTF-8"?>
<svg width="28px" height="28px" viewBox="0 0 28 28" version="1.1" xmlns="http://www.w3.org/2000/svg" xmlns:xlink="http://www.w3.org/1999/xlink">
    <defs>
        <rect id="path-1" x="0" y="-9.09494702e-13" width="28" height="28"></rect>
        <linearGradient x1="50%" y1="0%" x2="50%" y2="100%" id="linearGradient-3">
            <stop stop-color="#FE7086" offset="0%"></stop>
            <stop stop-color="#FF4C87" offset="100%"></stop>
        </linearGradient>
    </defs>
    <g id="页面-1" stroke="none" stroke-width="1" fill="none" fill-rule="evenodd">
        <g id="人才图谱" transform="translate(-749.000000, -2441.000000)">
            <g id="编组-38" transform="translate(729.000000, 2421.000000)">
                <g id="编组-30" transform="translate(20.000000, 20.000000)">
                    <mask id="mask-2" fill="white">
                        <use xlink:href="#path-1"></use>
                    </mask>
                    <g id="蒙版"></g>
                    <g mask="url(#mask-2)">
                        <g transform="translate(15.021580, 13.647901) rotate(-315.000000) translate(-15.021580, -13.647901) translate(4.021580, -0.852099)">
                            <path d="M9.25031517,0.510482723 L9.51420698,0.369471806 L9.77809882,0.237525898 C10.4447963,-0.0830206012 11.2219148,-0.0789344172 11.8852046,0.248605318 C14.9798903,1.76497613 17.0648372,4.35151896 18.1083179,7.9392392 C18.5378975,9.41733561 18.7700619,10.991118 18.8053146,12.6590755 L18.8103507,13.1163537 L18.8058182,13.53989 L18.8647406,13.6108991 C20.1031185,15.1464071 20.8852254,18.0325981 21.3183303,22.3424956 L21.3550939,22.7156709 L21.4155271,23.3955448 C21.4809965,24.1620398 20.7124871,24.6988885 20.0164975,24.4118306 L19.9263513,24.3700309 L15.3837858,21.9950044 L15.2175944,22.0252211 C14.174802,22.2003644 13.121703,22.3073566 12.0649935,22.3455172 L11.5387206,22.3581075 L11.0129515,22.3601219 C9.4403014,22.3463991 7.87259646,22.1818036 6.3313895,21.8685982 L6.17829193,21.83536 L1.50780943,24.2234803 C0.850094278,24.5588848 0.0760451571,24.1051319 0.00553972187,23.4041062 L6.7597827e-13,23.3149672 L0.00302166218,23.227339 L0.0652471662,22.3854904 C0.0763466384,22.2480039 0.0878132638,22.1119274 0.0996513561,21.9772595 L0.17517202,21.1861462 C0.615432081,16.9278848 1.46961456,14.2009184 2.89273794,12.9597309 L3,12.8695846 L3.06446908,12.8192236 L3.06295822,12.5588571 C3.06698712,11.1709069 3.20699078,9.85346217 3.48498373,8.60753012 L3.58218052,8.19507326 L3.67937731,7.82391241 C4.59997705,4.49202625 6.46182458,2.03692573 9.25031517,0.510482723 Z" id="路径" fill="url(#linearGradient-3)"></path>
                            <path d="M7.62967742,11.3797885 C7.6301648,13.0964993 9.02157983,14.4881756 10.7380645,14.4881756 C12.4545492,14.4881756 13.8459643,13.0964993 13.8464516,11.3797885 C13.8459642,9.66307771 12.4545492,8.27140142 10.7380645,8.27140142 C9.02157983,8.27140142 7.63016477,9.66307773 7.62967742,11.3797885 Z" id="路径" fill="#FFFFFF"></path>
                            <path d="M10.6786334,18.3677419 C13.1579045,18.387847 14.6435624,19.5888596 14.6657838,22.3369035 C14.6790108,24.0389553 13.8271913,25.9214236 12.1664077,28.0234602 C12.0806967,28.1324508 11.9817586,28.2303307 11.8722389,28.3165708 C11.1304681,28.8975011 10.0596093,28.7927432 9.41995104,28.0895953 L9.33900176,27.9948899 L9.14377107,27.745693 C7.5808674,25.7214312 6.76714167,23.9088015 6.75391465,22.2734138 C6.73286037,19.6067083 8.11434802,18.4193007 10.462513,18.3691753 L10.6786334,18.3677419 Z" id="路径" fill="#FF95AC"></path>
                            <path d="M10.6786334,18.3677419 C13.0888831,18.3872873 14.5600727,19.522904 14.6605354,22.1109812 L15.2175944,22.0252211 C14.174802,22.2003644 13.121703,22.3073566 12.0649935,22.3455172 L11.5387206,22.3581075 L11.0129515,22.3601219 C9.58561535,22.3476671 8.16235272,22.210933 6.75927697,21.9516112 C6.84891279,19.5103335 8.21156898,18.4172254 10.462513,18.3691753 L10.6786334,18.3677419 Z" id="形状结合" fill="#F4283F"></path>
                        </g>
                    </g>
                </g>
            </g>
        </g>
    </g>
</svg>