<?xml version="1.0" encoding="UTF-8"?><svg version="1.1" width="102px" height="102px" viewBox="0 0 102.0 102.0" xmlns="http://www.w3.org/2000/svg" xmlns:xlink="http://www.w3.org/1999/xlink"><defs><clipPath id="i0"><path d="M691,0 L691,916 L0,916 L0,0 L691,0 Z"></path></clipPath><filter id="i1" x="-27.4509804%" y="-23.5294118%" filterUnits="userSpaceOnUse" width="135.294118%" height="135.294118%"><feGaussianBlur stdDeviation="3.5" in="SourceAlpha" result="i2"></feGaussianBlur><feOffset dx="0" dy="4" in="i2" result="i3"></feOffset><feColorMatrix values="0 0 0 0.8509803921568628 0 0 0 0 0.8352941176470589 0 0 0 0 0.996078431372549 0 0 0 0 1.0 0" type="matrix" in="i3"></feColorMatrix></filter><clipPath id="i4"><path d="M41,0 C63.6436747,0 82,18.3563253 82,41 C82,63.6436747 63.6436747,82 41,82 C18.3563253,82 0,63.6436747 0,41 C0,18.3563253 18.3563253,0 41,0 Z"></path></clipPath><linearGradient id="i5" x1="24.064683px" y1="7.86439526px" x2="58.5418534px" y2="75.4720919px" gradientUnits="userSpaceOnUse"><stop stop-color="#9D99FF" offset="0%"></stop><stop stop-color="#7672FE" offset="36.5236019%"></stop><stop stop-color="#7A74FF" offset="74.7300602%"></stop><stop stop-color="#A19CFE" offset="100%"></stop></linearGradient><filter id="i6" x="-15.9574468%" y="-15.7894737%" filterUnits="userSpaceOnUse" width="119.148936%" height="118.947368%"><feGaussianBlur stdDeviation="1.5" in="SourceAlpha" result="i7"></feGaussianBlur><feOffset dx="0" dy="3" in="i7" result="i8"></feOffset><feColorMatrix values="0 0 0 0.584313725490196 0 0 0 0 0.5686274509803921 0 0 0 0 1.0 0 0 0 0 1.0 0" type="matrix" in="i8"></feColorMatrix></filter><linearGradient id="i9" x1="41px" y1="0px" x2="41px" y2="82px" gradientUnits="userSpaceOnUse"><stop stop-color="#B1AEFF" offset="0%"></stop><stop stop-color="#9592FF" offset="100%"></stop></linearGradient><filter id="i10" x="-67.8571429%" y="-58.6664172%" filterUnits="userSpaceOnUse" width="192.857143%" height="184.74038%"><feDropShadow stdDeviation="6" dx="0" dy="2" flood-color="#7051EB"></feDropShadow></filter><clipPath id="i11"><path d="M15.5788716,0 C18.2835361,0.0295133449 20.8648018,1.1362275 22.750879,3.07498844 C24.6369563,5.01374937 25.6721548,7.62451799 25.6271624,10.3289693 C25.6415374,14.2249908 23.4740708,17.8013107 20.0135921,19.5913603 C26.8148017,19.9816038 32.0999817,25.6628628 31.9985647,32.474504 L31.9985647,33.2042682 C31.9985647,37.1949645 26.5895178,37.325807 20.1904338,37.3300969 L12.4633401,37.3302423 C9.58246843,37.4402313 6.697624,37.2804842 3.84650975,36.8530888 C1.26426742,36.3197997 0.00121410909,35.1128821 0.00121410909,33.2042682 L0.00121410909,32.474504 C-0.0880608558,25.9565927 4.75603302,20.4222155 11.2283547,19.647496 C7.74979391,17.8482635 5.57923492,14.2451356 5.61478438,10.3289693 C5.52090375,4.72790434 9.9780522,0.107536378 15.5788716,0 Z"></path></clipPath><linearGradient id="i12" x1="16px" y1="6.2116473px" x2="16px" y2="37.3638973px" gradientUnits="userSpaceOnUse"><stop stop-color="#FFFFFF" offset="0%"></stop><stop stop-color="#DCDCFF" offset="100%"></stop></linearGradient><clipPath id="i13"><path d="M4.5,0 C6.98528137,0 9,2.01471863 9,4.5 C9,6.98528137 6.98528137,9 4.5,9 C2.01471863,9 0,6.98528137 0,4.5 C0,2.01471863 2.01471863,0 4.5,0 Z"></path></clipPath><clipPath id="i14"><path d="M2.24999995,0.602885702 C3.64230482,-0.200961901 5.35769518,-0.200961901 6.75000005,0.602885702 C8.14230493,1.4067333 9,2.89230493 9,4.5 C9,6.98528142 6.98528137,9 4.5,9 C2.01471863,9 0,6.98528142 0,4.5 C0,2.89230493 0.857695072,1.4067333 2.24999995,0.602885702 Z"></path></clipPath></defs><g transform="translate(-71.0 -114.0)"><g clip-path="url(#i0)"><g transform="translate(81.0 120.0)"><path d="M41,-3 C53.1502645,-3 64.1502645,1.92486775 72.1126984,9.88730163 C80.0751322,17.8497355 85,28.8497355 85,41 C85,53.1502645 80.0751322,64.1502645 72.1126984,72.1126984 C64.1502645,80.0751322 53.1502645,85 41,85 C28.8497355,85 17.8497355,80.0751322 9.88730163,72.1126984 C1.92486775,64.1502645 -3,53.1502645 -3,41 C-3,28.8497355 1.92486775,17.8497355 9.88730163,9.88730163 C17.8497355,1.92486775 28.8497355,-3 41,-3 Z" stroke="none" fill="#000000" filter="url(#i1)"></path><g clip-path="url(#i4)"><polygon points="0,0 82,0 82,82 0,82 0,0" stroke="none" fill="url(#i5)"></polygon><g filter="url(#i6)"><path d="M85,-6 L85,82 L41,82 C63.6436747,82 82,63.6436747 82,41 C82,18.3563253 63.6436747,0 41,0 C18.3563253,0 0,18.3563253 0,41 C0,63.6436747 18.3563253,82 41,82 L-3,82 L-3,-6 L85,-6 Z" stroke="none" fill="#000000"></path><path d="M41,82 C63.6436747,82 82,63.6436747 82,41 C82,18.3563253 63.6436747,0 41,0 C18.3563253,0 0,18.3563253 0,41 C0,63.6436747 18.3563253,82 41,82 Z" stroke="#000000" stroke-width="2" fill="none" stroke-miterlimit="10"></path></g><path d="M41,82 C63.6436747,82 82,63.6436747 82,41 C82,18.3563253 63.6436747,0 41,0 C18.3563253,0 0,18.3563253 0,41 C0,63.6436747 18.3563253,82 41,82 Z" stroke="url(#i9)" stroke-width="2.6" fill="none" stroke-miterlimit="5"></path></g><g transform="translate(12.0 12.0)"><path d="M29,58 C12.9836441,58 0,45.0163559 0,29 C0,12.9836441 12.9836441,0 29,0 C45.0163559,0 58,12.9836441 58,29 C58,45.0163559 45.0163559,58 29,58 Z" stroke="#C6C1FF" stroke-width="2.4" fill="none" stroke-miterlimit="10"></path></g><g transform="translate(25.0 22.0000000000003)"><g filter="url(#i10)"><g clip-path="url(#i11)"><polygon points="-1.77635684e-15,0 32,0 32,37.3638973 -1.77635684e-15,37.3638973 -1.77635684e-15,0" stroke="none" fill="url(#i12)"></polygon></g></g></g><g transform="translate(13.0 19.0)"><g clip-path="url(#i13)"><polygon points="0,0 9,0 9,9 0,9 0,0" stroke="none" fill="#B9B4FE"></polygon></g></g><g transform="translate(63.0 46.0)"><g clip-path="url(#i14)"><polygon points="0,0 9,0 9,9 0,9 0,0" stroke="none" fill="#B9B4FE"></polygon></g></g><g transform="translate(37.22907223245602 35.13894323924458)"><path d="M0,0 C0.570664509,1.23675426 1.72610128,1.85513139 3.4663103,1.85513139 C5.20651933,1.85513139 6.38441589,1.23675426 7,0" stroke="#B9B7FB" stroke-width="1.6" fill="none" stroke-linecap="round" stroke-linejoin="round"></path></g></g></g></g></svg>