<?xml version="1.0" encoding="UTF-8"?><svg version="1.1" width="102px" height="102px" viewBox="0 0 102.0 102.0" xmlns="http://www.w3.org/2000/svg" xmlns:xlink="http://www.w3.org/1999/xlink"><defs><clipPath id="i0"><path d="M691,0 L691,916 L0,916 L0,0 L691,0 Z"></path></clipPath><filter id="i1" x="-27.4509804%" y="-23.5294118%" filterUnits="userSpaceOnUse" width="135.294118%" height="135.294118%"><feGaussianBlur stdDeviation="3.5" in="SourceAlpha" result="i2"></feGaussianBlur><feOffset dx="0" dy="4" in="i2" result="i3"></feOffset><feColorMatrix values="0 0 0 0.996078431372549 0 0 0 0 0.9268186216931047 0 0 0 0 0.8352941176470589 0 0 0 0 1.0 0" type="matrix" in="i3"></feColorMatrix></filter><clipPath id="i4"><path d="M41,0 C63.6436747,0 82,18.3563253 82,41 C82,63.6436747 63.6436747,82 41,82 C18.3563253,82 0,63.6436747 0,41 C0,18.3563253 18.3563253,0 41,0 Z"></path></clipPath><linearGradient id="i5" x1="24.064683px" y1="7.86439526px" x2="58.5418534px" y2="75.4720919px" gradientUnits="userSpaceOnUse"><stop stop-color="#FFC769" offset="0%"></stop><stop stop-color="#FEB333" offset="36.5236019%"></stop><stop stop-color="#FEB433" offset="74.7300602%"></stop><stop stop-color="#FFC769" offset="100%"></stop></linearGradient><filter id="i6" x="-15.9574468%" y="-15.7894737%" filterUnits="userSpaceOnUse" width="119.148936%" height="118.947368%"><feGaussianBlur stdDeviation="1.5" in="SourceAlpha" result="i7"></feGaussianBlur><feOffset dx="0" dy="3" in="i7" result="i8"></feOffset><feColorMatrix values="0 0 0 1.0 0 0 0 0 0.7843137254901962 0 0 0 0 0.4235294117647059 0 0 0 0 1.0 0" type="matrix" in="i8"></feColorMatrix></filter><linearGradient id="i9" x1="41px" y1="0px" x2="41px" y2="82px" gradientUnits="userSpaceOnUse"><stop stop-color="#FFDB9F" offset="0%"></stop><stop stop-color="#FABC52" offset="100%"></stop><stop stop-color="#FFC564" offset="100%"></stop></linearGradient><filter id="i10" x="-42.5925926%" y="-38.8038317%" filterUnits="userSpaceOnUse" width="159.259259%" height="159.129648%"><feDropShadow stdDeviation="3.5" dx="0" dy="2" flood-color="#EE964E"></feDropShadow></filter><clipPath id="i11"><path d="M36,0 C38.209139,-4.05812251e-16 40,1.790861 40,4 L40,16.8 C40,19.009139 38.209139,20.8 36,20.8 L4,20.8 C1.790861,20.8 2.705415e-16,19.009139 0,16.8 L0,4 C-2.705415e-16,1.790861 1.790861,-3.82769592e-17 4,0 L36,0 Z"></path></clipPath><clipPath id="i12"><path d="M27,0 C29.7614237,1.05719325e-15 32,2.23857625 32,5 L32,24.6 C32,27.3614237 29.7614237,29.6 27,29.6 L5,29.6 C2.23857625,29.6 1.90263544e-15,27.3614237 0,24.6 L0,5 C-1.2263553e-15,2.23857625 2.23857625,-3.80913106e-16 5,0 L27,0 Z"></path></clipPath><clipPath id="i13"><path d="M37.3125044,0.314853252 C38.9321657,1.38928008 40,3.22912047 40,5.31836694 L40,19.7183669 C40,23.0320754 37.3137085,25.7183669 34,25.7183669 L6,25.7183669 C2.6862915,25.7183669 4.05812251e-16,23.0320754 0,19.7183669 L0,5.31836694 C-2.20051456e-16,3.52151043 0.789862192,1.90913613 2.04131963,0.809510975 L17.5506921,12.1448714 C18.9988696,13.2032374 20.9745265,13.1681594 22.3842202,12.0590516 L37.3125044,0.314853252 Z"></path></clipPath><clipPath id="i14"><path d="M8.4,0 C9.0627417,-1.21743675e-16 9.6,0.5372583 9.6,1.2 C9.6,1.8627417 9.0627417,2.4 8.4,2.4 L1.2,2.4 C0.5372583,2.4 8.11624501e-17,1.8627417 0,1.2 C-8.11624501e-17,0.5372583 0.5372583,1.21743675e-16 1.2,0 L8.4,0 Z"></path></clipPath><clipPath id="i15"><path d="M11.2,0 C12.0836556,-1.37588251e-15 12.8,0.7163444 12.8,1.6 C12.8,2.4836556 12.0836556,3.2 11.2,3.2 L1.6,3.2 C0.7163444,3.2 1.082166e-16,2.4836556 0,1.6 C-1.082166e-16,0.7163444 0.7163444,1.623249e-16 1.6,0 L11.2,0 Z"></path></clipPath><clipPath id="i16"><path d="M11.2,0 C12.0836556,6.071435e-16 12.8,0.7163444 12.8,1.6 C12.8,2.4836556 12.0836556,3.2 11.2,3.2 L1.6,3.2 C0.7163444,3.2 1.082166e-16,2.4836556 0,1.6 C-1.082166e-16,0.7163444 0.7163444,1.623249e-16 1.6,0 L11.2,0 Z"></path></clipPath></defs><g transform="translate(-211.0 -114.0)"><g clip-path="url(#i0)"><g transform="translate(221.0 120.0)"><path d="M41,-3 C53.1502645,-3 64.1502645,1.92486775 72.1126984,9.88730163 C80.0751322,17.8497355 85,28.8497355 85,41 C85,53.1502645 80.0751322,64.1502645 72.1126984,72.1126984 C64.1502645,80.0751322 53.1502645,85 41,85 C28.8497355,85 17.8497355,80.0751322 9.88730163,72.1126984 C1.92486775,64.1502645 -3,53.1502645 -3,41 C-3,28.8497355 1.92486775,17.8497355 9.88730163,9.88730163 C17.8497355,1.92486775 28.8497355,-3 41,-3 Z" stroke="none" fill="#000000" filter="url(#i1)"></path><g clip-path="url(#i4)"><polygon points="0,0 82,0 82,82 0,82 0,0" stroke="none" fill="url(#i5)"></polygon><g filter="url(#i6)"><path d="M85,-6 L85,82 L41,82 C63.6436747,82 82,63.6436747 82,41 C82,18.3563253 63.6436747,0 41,0 C18.3563253,0 0,18.3563253 0,41 C0,63.6436747 18.3563253,82 41,82 L-3,82 L-3,-6 L85,-6 Z" stroke="none" fill="#000000"></path><path d="M41,82 C63.6436747,82 82,63.6436747 82,41 C82,18.3563253 63.6436747,0 41,0 C18.3563253,0 0,18.3563253 0,41 C0,63.6436747 18.3563253,82 41,82 Z" stroke="#000000" stroke-width="2" fill="none" stroke-miterlimit="10"></path></g><path d="M41,82 C63.6436747,82 82,63.6436747 82,41 C82,18.3563253 63.6436747,0 41,0 C18.3563253,0 0,18.3563253 0,41 C0,63.6436747 18.3563253,82 41,82 Z" stroke="url(#i9)" stroke-width="2.6" fill="none" stroke-miterlimit="5"></path></g><g transform="translate(21.0 21.00000000000034)"><g filter="url(#i10)"><g transform="translate(0.0 14.399999999999999)"><g clip-path="url(#i11)"><polygon points="0,0 40,0 40,20.8 0,20.8 0,0" stroke="none" fill="#FFFFFF" opacity="40.583438%"></polygon></g></g><g transform="translate(3.9999999999999964 0.0)"><g clip-path="url(#i12)"><polygon points="0,0 32,0 32,29.6 0,29.6 0,0" stroke="none" fill="#FFFFFF"></polygon></g></g><g transform="translate(0.0 14.400000000000002)"><g clip-path="url(#i13)"><polygon points="0,0.314853252 40,0.314853252 40,25.7183669 0,25.7183669 0,0.314853252" stroke="none" fill="#FFE5B8"></polygon></g></g><g transform="translate(3.9999999999999982 33.60000000000073)"><g clip-path="url(#i14)"><polygon points="0,0 9.6,0 9.6,2.4 0,2.4 0,0" stroke="none" fill="#FFFFFF"></polygon></g></g><g transform="translate(13.59999999999999 6.4)"><g clip-path="url(#i15)"><polygon points="0,0 12.8,0 12.8,3.2 0,3.2 0,0" stroke="none" fill="#FFAE29"></polygon></g></g><g transform="translate(13.59999999999999 12.8)"><g clip-path="url(#i16)"><polygon points="0,0 12.8,0 12.8,3.2 0,3.2 0,0" stroke="none" fill="#FFAE29"></polygon></g></g></g></g></g></g></g></svg>