<?xml version="1.0" encoding="UTF-8"?>
<svg width="28px" height="28px" viewBox="0 0 28 28" version="1.1" xmlns="http://www.w3.org/2000/svg" xmlns:xlink="http://www.w3.org/1999/xlink">
    <defs>
        <linearGradient x1="50%" y1="0%" x2="50%" y2="100%" id="linearGradient-1">
            <stop stop-color="#FFD772" offset="0%"></stop>
            <stop stop-color="#FFB02F" offset="100%"></stop>
        </linearGradient>
    </defs>
    <g id="页面-1" stroke="none" stroke-width="1" fill="none" fill-rule="evenodd">
        <g id="人才图谱" transform="translate(-150.000000, -2441.000000)">
            <g id="编组-53" transform="translate(130.000000, 2421.000000)">
                <g id="编组-23" transform="translate(20.000000, 20.000000)">
                    <rect id="矩形" x="0" y="0" width="28" height="28"></rect>
                    <g id="编组-22" transform="translate(2.500000, 1.000000)">
                        <path d="M19.3473655,6.30999127 L12.0502205,8.58158813 C11.6863739,8.69502618 11.2965383,8.69502618 10.9326917,8.58158813 L3.6297714,6.30999127 C2.86165088,6.07177138 2.3389824,5.37129145 2.3389824,4.58006108 L2.3389824,1.81500873 C2.3389824,0.813917976 3.16774402,0 4.18709194,0 L18.7871573,0 C19.8065052,0 20.6352787,0.813917976 20.6352787,1.81500873 L20.6352787,4.58006108 C20.6381545,5.37129145 20.115486,6.07177138 19.3473655,6.30999127 Z" id="路径" fill="#FCD077" fill-rule="nonzero"></path>
                        <path d="M11.5,2.85750092 C5.14827318,2.85750092 0,8.0057741 0,14.3575009 C0,20.7092277 5.14827318,25.8575009 11.5,25.8575009 C17.8517268,25.8575009 23,20.7092277 23,14.3575009 C23,8.0057741 17.8517268,2.85750092 11.5,2.85750092 Z" id="路径" fill="url(#linearGradient-1)"></path>
                        <path d="M11.4871305,2.85750092 C14.6577315,2.85750092 17.5299069,4.13413999 19.6177081,6.20146938 C19.5313469,6.24490017 19.4411872,6.28089402 19.3473655,6.30999127 L12.0502205,8.58158813 C11.6863739,8.69502618 11.2965383,8.69502618 10.9326917,8.58158813 L3.6297714,6.30999127 C3.53492835,6.28057727 3.44382743,6.2441157 3.3569905,6.20130594 C5.44527597,4.13373032 8.3170384,2.85750092 11.4871305,2.85750092 Z" id="形状结合" fill="#FFAC5E"></path>
                        <polygon id="星形" fill="#FFFFFF" points="11.4871305 16.8204639 8.65705341 18.3083235 9.19755005 15.1569863 6.90796955 12.9251969 10.072092 12.465423 11.4871305 9.59824166 12.9021691 12.465423 16.0662916 12.9251969 13.7767111 15.1569863 14.3172077 18.3083235"></polygon>
                    </g>
                </g>
            </g>
        </g>
    </g>
</svg>