<?xml version="1.0" encoding="UTF-8"?>
<svg width="28px" height="28px" viewBox="0 0 28 28" version="1.1" xmlns="http://www.w3.org/2000/svg" xmlns:xlink="http://www.w3.org/1999/xlink">
    <defs>
        <linearGradient x1="50%" y1="0%" x2="50%" y2="100%" id="linearGradient-1">
            <stop stop-color="#FFD772" offset="0%"></stop>
            <stop stop-color="#FFB02F" offset="100%"></stop>
        </linearGradient>
    </defs>
    <g id="页面-1" stroke="none" stroke-width="1" fill="none" fill-rule="evenodd">
        <g id="人才图谱" transform="translate(-750.000000, -826.000000)">
            <g id="工作经历" transform="translate(730.000000, 806.000000)">
                <g id="编组-14" transform="translate(20.000000, 20.000000)">
                    <rect id="矩形" x="0" y="0" width="28" height="28"></rect>
                    <g id="编组-13" transform="translate(2.500000, 0.750000)">
                        <rect id="矩形" fill="url(#linearGradient-1)" x="0" y="4.25" width="23" height="20" rx="5"></rect>
                        <rect id="矩形" fill="#FFFFFF" transform="translate(7.000000, 14.750000) rotate(-270.000000) translate(-7.000000, -14.750000) " x="4" y="13.25" width="6" height="3" rx="1"></rect>
                        <rect id="矩形备份-2" fill="#FFFFFF" transform="translate(16.000000, 14.750000) rotate(-270.000000) translate(-16.000000, -14.750000) " x="13" y="13.25" width="6" height="3" rx="1"></rect>
                        <path d="M12.6814815,4.71622741e-13 C15.9249033,4.71622741e-13 18.6158005,2.3743539 18.7451343,5.41000211 L18.75,5.63888889 L18.75,7.89708025 L16.0648148,7.89708025 L16.0648148,5.63888889 C16.0648148,4.09485095 14.6814563,2.78210812 12.8829722,2.69031021 L12.6814815,2.68518519 L10.3185185,2.68518519 C8.4906125,2.68518519 7.04197166,3.94278381 6.94082883,5.46833123 L6.93518519,5.63888889 L6.93518519,7.89708025 L4.25,7.89708025 L4.25,5.63888889 C4.25,2.57124662 6.86178929,0.12207218 10.0763293,0.00442514701 L10.3185185,4.71622741e-13 L12.6814815,4.71622741e-13 Z" id="路径" fill="#FDCE76" fill-rule="nonzero"></path>
                        <path d="M18,4.25 C18.1940126,4.25 18.3854444,4.26105009 18.5737002,4.28255524 C18.6702268,4.64481266 18.7286037,5.02200585 18.7451343,5.41000211 L18.75,5.63888889 L18.75,7.89708025 L16.0648148,7.89708025 L16.0648148,5.63888889 C16.0648148,5.14056362 15.9207212,4.66633054 15.6650836,4.24945917 L18,4.25 Z M6.94082883,5.46833123 L6.93518519,5.63888889 L6.93518519,7.89708025 L4.25,7.89708025 L4.25,5.63888889 C4.25,5.17013048 4.31098554,4.71581335 4.42578823,4.28204982 C4.6145556,4.26105009 4.80598736,4.25 5,4.25 L7.33493951,4.24942148 C7.10862457,4.61846322 6.96972678,5.03246054 6.94082883,5.46833123 Z" id="形状结合" fill="#FFAC5E"></path>
                    </g>
                </g>
            </g>
        </g>
    </g>
</svg>