<?xml version="1.0" encoding="UTF-8"?>
<svg width="38px" height="38px" viewBox="0 0 38 38" version="1.1" xmlns="http://www.w3.org/2000/svg" xmlns:xlink="http://www.w3.org/1999/xlink">
    <title>自评</title>
    <defs>
        <linearGradient x1="50%" y1="0%" x2="50%" y2="100%" id="linearGradient-1">
            <stop stop-color="#FA9075" offset="0%"></stop>
            <stop stop-color="#FA5B4A" offset="100%"></stop>
        </linearGradient>
        <linearGradient x1="50%" y1="0%" x2="50%" y2="100%" id="linearGradient-2">
            <stop stop-color="#FBE4E0" offset="0%"></stop>
            <stop stop-color="#E36656" offset="100%"></stop>
        </linearGradient>
        <linearGradient x1="8.4789364%" y1="57.430568%" x2="100%" y2="57.430568%" id="linearGradient-3">
            <stop stop-color="#FDE9E3" offset="0%"></stop>
            <stop stop-color="#FCC6C1" offset="100%"></stop>
        </linearGradient>
        <linearGradient x1="3.14512439%" y1="8.48492242%" x2="74.5458602%" y2="54.651178%" id="linearGradient-4">
            <stop stop-color="#FFD9CC" offset="0%"></stop>
            <stop stop-color="#FFFFFF" offset="100%"></stop>
        </linearGradient>
        <filter x="-41.0%" y="-42.9%" width="181.9%" height="185.7%" filterUnits="objectBoundingBox" id="filter-5">
            <feGaussianBlur stdDeviation="3" in="SourceGraphic"></feGaussianBlur>
        </filter>
        <linearGradient x1="64.7734867%" y1="34.096089%" x2="17.2600709%" y2="82.3610802%" id="linearGradient-6">
            <stop stop-color="#FFFFFF" offset="0%"></stop>
            <stop stop-color="#FFFFFF" stop-opacity="0" offset="100%"></stop>
        </linearGradient>
    </defs>
    <g id="自评" stroke="none" stroke-width="1" fill="none" fill-rule="evenodd">
        <g id="编组-23">
            <rect id="矩形" x="0" y="0" width="38" height="38"></rect>
            <g id="编组-7" transform="translate(-0.000000, 4.000000)">
                <path d="M28.2391029,3.7669589 C29.8131144,3.7669589 31.2381144,4.40495314 32.2696116,5.43645025 C33.3011087,6.46794737 33.9391029,7.89294737 33.9391029,9.4669589 L33.9391029,9.4669589 L33.9391029,20.5641728 C33.9391029,22.1381843 33.3011087,23.5631843 32.2696116,24.5946815 C31.2381144,25.6261786 29.8131144,26.2641728 28.2391029,26.2641728 L28.2391029,26.2641728 L19.5154354,26.2641728 C17.9414238,26.2641728 16.5164238,25.6261786 15.4849267,24.5946815 C14.4534296,23.5631843 13.8154354,22.1381843 13.8154354,20.5641728 L13.8154354,20.5641728 L13.8154354,9.4669589 C13.8154354,7.89294737 14.4534296,6.46794737 15.4849267,5.43645025 C16.5164238,4.40495314 17.9414238,3.7669589 19.5154354,3.7669589 L19.5154354,3.7669589 Z" id="矩形备份-4" stroke="url(#linearGradient-2)" stroke-width="0.6" fill="url(#linearGradient-1)"></path>
                <path d="M23.5644338,0.3 C25.1384453,0.3 26.5634453,0.937994231 27.5949424,1.96949135 C28.6264396,3.00098846 29.2644338,4.42598846 29.2644338,6 L29.2644338,6 L29.2644338,23.5644338 C29.2644338,25.1384453 28.6264396,26.5634453 27.5949424,27.5949424 C26.5634453,28.6264396 25.1384453,29.2644338 23.5644338,29.2644338 L23.5644338,29.2644338 L6,29.2644338 C4.42598846,29.2644338 3.00098846,28.6264396 1.96949135,27.5949424 C0.937994231,26.5634453 0.3,25.1384453 0.3,23.5644338 L0.3,23.5644338 L0.3,6 C0.3,4.42598846 0.937994231,3.00098846 1.96949135,1.96949135 C3.00098846,0.937994231 4.42598846,0.3 6,0.3 L6,0.3 L23.5644338,0.3 Z" id="矩形" stroke="url(#linearGradient-4)" stroke-width="0.6" fill="url(#linearGradient-3)"></path>
                <path d="M10.8475734,19.0818675 C12.7241818,6.25078784 18.0940727,2.39382584 26.9572463,7.51098148 C35.8204198,12.6281371 34.6285663,18.8972901 23.3816856,26.3184405 C19.9954165,24.5770776 17.4768048,23.1229564 15.8258505,21.9560771 C14.1748962,20.7891977 12.5154705,19.8311279 10.8475734,19.0818675 Z" id="路径-14" fill="#F95F4E" opacity="0.481919062" filter="url(#filter-5)" transform="translate(21.832133, 15.820511) rotate(60.000000) translate(-21.832133, -15.820511) "></path>
                <path d="M8.17226782,15.3388012 L7.03771643,21.7907178 C6.94206631,22.3346567 7.30547615,22.853146 7.84941502,22.9487961 C7.99769079,22.97487 8.14994018,22.9671281 8.29480625,22.926148 L14.4393239,21.1879688 L14.4393239,21.1879688 L8.17226782,15.3388012 Z" id="路径-29" fill-opacity="0.959324977" fill="#FFFFFF"></path>
                <path d="M7.85629525,15.8662695 L14.5497537,8.37989431 C16.0222002,6.73301961 18.5509097,6.59161766 20.1977844,8.06406421 C20.2116318,8.07644494 20.2253928,8.08892198 20.2390663,8.10149441 L20.8633033,8.67546214 C22.4895059,10.170708 22.5956672,12.701142 21.1004213,14.3273446 C21.072563,14.3576428 21.0442387,14.3875092 21.0154585,14.4169332 L13.9888094,21.6007644 L13.9888094,21.6007644 L7.85629525,15.8662695 Z" id="路径-30" fill="url(#linearGradient-6)"></path>
            </g>
        </g>
    </g>
</svg>