<?xml version="1.0" encoding="UTF-8"?>
<svg width="38px" height="38px" viewBox="0 0 38 38" version="1.1" xmlns="http://www.w3.org/2000/svg" xmlns:xlink="http://www.w3.org/1999/xlink">
    <title>360评价</title>
    <defs>
        <linearGradient x1="50%" y1="0%" x2="50%" y2="100%" id="linearGradient-1">
            <stop stop-color="#B6FCB7" offset="0%"></stop>
            <stop stop-color="#20AC3B" offset="100%"></stop>
        </linearGradient>
        <linearGradient x1="50%" y1="0%" x2="50%" y2="100%" id="linearGradient-2">
            <stop stop-color="#A3ED9F" offset="0%"></stop>
            <stop stop-color="#3E9C57" offset="100%"></stop>
        </linearGradient>
        <linearGradient x1="15.0374138%" y1="22.2310051%" x2="50%" y2="100%" id="linearGradient-3">
            <stop stop-color="#D4FAD1" offset="0%"></stop>
            <stop stop-color="#BEF4B9" offset="100%"></stop>
        </linearGradient>
        <linearGradient x1="14.2612998%" y1="22.6847743%" x2="79.9133569%" y2="90.9387087%" id="linearGradient-4">
            <stop stop-color="#9AE6AD" offset="0%"></stop>
            <stop stop-color="#FFFFFF" offset="100%"></stop>
        </linearGradient>
        <filter x="-47.0%" y="-48.3%" width="194.1%" height="196.5%" filterUnits="objectBoundingBox" id="filter-5">
            <feGaussianBlur stdDeviation="3" in="SourceGraphic"></feGaussianBlur>
        </filter>
        <linearGradient x1="0%" y1="364.287342%" x2="100%" y2="364.287342%" id="linearGradient-6">
            <stop stop-color="#FFFFFF" offset="0%"></stop>
            <stop stop-color="#FFFFFF" stop-opacity="0" offset="100%"></stop>
        </linearGradient>
    </defs>
    <g id="360评价" stroke="none" stroke-width="1" fill="none" fill-rule="evenodd">
        <g id="编组-25">
            <rect id="矩形" x="0" y="0" width="38" height="38"></rect>
            <g id="编组-11" transform="translate(2.000000, 5.000000)">
                <path d="M23.4137837,28.2164191 L14.283922,28.2164191 C13.9745467,28.2164191 13.7244135,27.9662859 13.7244135,27.6569106 L13.7244135,18.2703333 C13.7244135,18.2527801 13.7244135,18.2352269 13.7266077,18.2198678 C13.935052,15.9598925 14.9772737,13.8644784 16.6645757,12.3219904 C18.3606543,10.7707257 20.5591934,9.91720103 22.8564694,9.91720103 C27.9008221,9.91720103 32.0060784,14.0224573 32.0060784,19.0668101 C32.0060784,23.8303115 28.3286816,27.8039187 23.6024806,28.1835068 C23.5432386,28.2054483 23.4796082,28.2164191 23.4137837,28.2164191 Z" id="路径备份-4" stroke="url(#linearGradient-2)" stroke-width="0.6" fill="url(#linearGradient-1)" fill-rule="nonzero" transform="translate(22.865246, 19.066810) scale(-1, 1) translate(-22.865246, -19.066810) "></path>
                <path d="M14.9404924,28.2164191 L0.862732238,28.2164191 C0.385692059,28.2164191 0,27.830727 0,27.3536868 L0,12.8800848 C0,12.8530187 0,12.8259526 0.00338326368,12.8022698 C0.324793313,9.31750817 1.93184356,6.08649136 4.53357333,3.70805699 C7.14883615,1.31608957 10.5388664,0 14.0811434,0 C21.8592666,0 28.189353,6.33008634 28.189353,14.1082095 C28.189353,21.453275 22.519003,27.5803655 15.2314531,28.1656701 C15.140105,28.1995028 15.0419903,28.2164191 14.9404924,28.2164191 Z" id="路径" stroke="url(#linearGradient-4)" stroke-width="0.6" fill="url(#linearGradient-3)" fill-rule="nonzero"></path>
                <path d="M12.9619461,19.6781573 C15.0505888,9.60858519 19.7599793,7.32588409 27.0901174,12.830054 C34.4202556,18.3342239 33.7058298,23.5772107 24.9468399,28.5590144 C21.5360097,27.2191542 19.1562544,26.084825 17.807574,25.1560268 C16.4588935,24.2272286 14.8436843,22.4012721 12.9619461,19.6781573 Z" id="路径-14" fill="#22B140" opacity="0.481919062" filter="url(#filter-5)"></path>
                <polygon id="路径-28" fill="url(#linearGradient-6)" points="7.90209519 9.49465161 20.6971494 9.49465161 20.6971494 11.4770669 7.90209519 11.4770669"></polygon>
                <polygon id="路径-28" fill="url(#linearGradient-6)" points="7.90209519 13.3069887 20.6971494 13.3069887 20.6971494 15.289404 7.90209519 15.289404"></polygon>
                <polygon id="路径-28" fill="url(#linearGradient-6)" points="7.90209519 17.1193258 20.6971494 17.1193258 20.6971494 19.1017411 7.90209519 19.1017411"></polygon>
            </g>
        </g>
    </g>
</svg>