<?xml version="1.0" encoding="UTF-8"?>
<svg width="38px" height="38px" viewBox="0 0 38 38" version="1.1" xmlns="http://www.w3.org/2000/svg" xmlns:xlink="http://www.w3.org/1999/xlink">
    <title>协作方</title>
    <defs>
        <linearGradient x1="50%" y1="0%" x2="50%" y2="100%" id="linearGradient-1">
            <stop stop-color="#E85F8A" offset="0%"></stop>
            <stop stop-color="#FD2F74" offset="100%"></stop>
        </linearGradient>
        <linearGradient x1="50%" y1="0%" x2="50%" y2="100%" id="linearGradient-2">
            <stop stop-color="#F4A9CB" offset="0%"></stop>
            <stop stop-color="#D32760" offset="100%"></stop>
        </linearGradient>
        <linearGradient x1="34.4578696%" y1="16.5467848%" x2="50%" y2="93.7565036%" id="linearGradient-3">
            <stop stop-color="#FFD8E4" offset="0%"></stop>
            <stop stop-color="#F6B3C9" offset="100%"></stop>
        </linearGradient>
        <linearGradient x1="14.3428807%" y1="17.8800225%" x2="70.5798398%" y2="82.5475011%" id="linearGradient-4">
            <stop stop-color="#E9BECC" offset="0%"></stop>
            <stop stop-color="#FFFFFF" offset="100%"></stop>
        </linearGradient>
        <filter x="-45.1%" y="-54.4%" width="190.2%" height="208.9%" filterUnits="objectBoundingBox" id="filter-5">
            <feGaussianBlur stdDeviation="3" in="SourceGraphic"></feGaussianBlur>
        </filter>
        <linearGradient x1="50%" y1="0%" x2="50%" y2="100%" id="linearGradient-6">
            <stop stop-color="#FFFFFF" offset="0%"></stop>
            <stop stop-color="#FFFFFF" stop-opacity="0" offset="100%"></stop>
        </linearGradient>
    </defs>
    <g id="协作方" stroke="none" stroke-width="1" fill="none" fill-rule="evenodd">
        <g>
            <rect id="矩形" x="0" y="0" width="38" height="38"></rect>
            <g id="编组-10" transform="translate(1.000000, 5.000000)">
                <path d="M25.668278,8.94178319 C24.8013038,8.94178319 23.9233231,9.14496005 23.129257,9.52935694 C22.5138917,9.82725551 21.9450945,10.2353813 21.4602661,10.7243846 C20.9754648,10.2353813 20.4066676,9.82722786 19.7912752,9.52932926 C18.9972362,9.14496005 18.1192825,8.94178319 17.2522812,8.94178319 C15.7203176,8.94178319 14.2990143,9.53470078 13.2501754,10.6113609 C12.201715,11.6876057 11.6243182,13.1458662 11.6243182,14.7174827 C11.6243182,18.5346215 14.7906035,21.5000678 19.5833409,25.988842 L19.7769153,26.1701175 L21.4602391,27.7195279 L21.7900025,27.4160086 L23.140507,26.1730524 L23.3367587,25.9892574 C28.1297936,21.5003169 31.2962412,18.5347322 31.2962412,14.7174827 C31.2962412,13.1458662 30.7188443,11.6876334 29.670384,10.6113609 C28.621545,9.53472849 27.2002417,8.94178319 25.668278,8.94178319 L25.668278,8.94178319 Z" id="路径" stroke="url(#linearGradient-2)" stroke-width="0.6" fill="url(#linearGradient-1)" fill-rule="nonzero"></path>
                <path d="M21.0659398,0 C19.7654785,0 18.4485074,0.298679348 17.2574083,0.863760478 C16.3343603,1.30168511 15.4811645,1.90164882 14.753922,2.62050627 C14.0267199,1.90164882 13.1735242,1.30164446 12.2504356,0.863719787 C11.059377,0.298679348 9.74244653,0 8.44194464,0 C6.1439992,0 4.0120442,0.871616172 2.43878582,2.45435617 C0.86609532,4.03648565 0,6.18019576 0,8.49054442 C0,14.1019144 4.74942799,18.461257 11.9385342,25.0599621 L12.2288958,25.3264453 L14.7538814,27.6041501 L15.2485265,27.1579627 L17.2742833,25.3307598 L17.5686608,25.0605726 C24.7582132,18.4616233 29.5078845,14.1020772 29.5078845,8.49054438 C29.5078845,6.18019576 28.6417892,4.03652634 27.0690987,2.45435613 C25.4958403,0.871656903 23.3638853,0 21.0659398,0 L21.0659398,0 Z" id="路径" stroke="url(#linearGradient-4)" stroke-width="0.6" fill="url(#linearGradient-3)" fill-rule="nonzero"></path>
                <path d="M11.6834508,23.4309616 C11.8205461,19.1157625 12.1346373,16.3449241 12.6257243,15.1184465 C15.2156733,8.65011364 19.3230937,5.38044101 25.2212102,8.60422552 C32.7968629,12.7449154 33.6546649,17.8355771 27.7946164,23.8762104 C20.6331572,23.8976152 16.3468645,23.436211 14.9357383,22.4919979 C13.5246121,21.5477848 12.4405163,21.8607727 11.6834508,23.4309616 Z" id="路径-14" fill="#FD3F7D" opacity="0.481919062" filter="url(#filter-5)" transform="translate(21.655951, 15.612454) rotate(60.000000) translate(-21.655951, -15.612454) "></path>
                <path d="M4.64263216,13.8604403 C4.20131771,10.6658386 4.20131771,8.44018167 4.64263216,7.18346965 C5.08394661,5.92675763 6.29272952,4.71021584 8.2689809,3.53384427 L9.77094931,5.51294363 C8.25681708,6.59177402 7.33692019,7.62371881 7.01125865,8.60877801 C6.6855971,9.5938372 6.6855971,11.3443913 7.01125865,13.8604403 L4.64263216,13.8604403 Z" id="路径-32" fill="url(#linearGradient-6)"></path>
            </g>
        </g>
    </g>
</svg>