<?xml version="1.0" encoding="UTF-8"?>
<svg width="100px" height="100px" viewBox="0 0 100 100" version="1.1" xmlns="http://www.w3.org/2000/svg" xmlns:xlink="http://www.w3.org/1999/xlink">
    <g id="页面-1" stroke="none" stroke-width="1" fill="none" fill-rule="evenodd">
        <g id="非一级页面缺省图" transform="translate(-388.000000, -119.000000)">
            <g id="编组-9" transform="translate(388.000000, 119.000000)">
                <rect id="矩形" x="0" y="0" width="100" height="100"></rect>
                <g id="编组-8" transform="translate(9.000000, 20.000000)">
                    <g id="编组-4">
                        <rect id="矩形" fill="#F0F2F4" x="0" y="0" width="39" height="28"></rect>
                        <polygon id="矩形" fill="#E7EAEB" transform="translate(3.000000, 31.000000) scale(-1, -1) translate(-3.000000, -31.000000) " points="6 28 6 32.3322572 6 34 0 34"></polygon>
                        <circle id="椭圆形" fill="#E7E9EB" cx="8.5" cy="14.5" r="2.5"></circle>
                        <circle id="椭圆形备份-5" fill="#E7E9EB" cx="19.5" cy="14.5" r="2.5"></circle>
                        <circle id="椭圆形备份-6" fill="#E7E9EB" cx="30.5" cy="14.5" r="2.5"></circle>
                    </g>
                    <g id="编组" transform="translate(22.000000, 20.000000)">
                        <rect id="矩形" fill="#E7EAEB" transform="translate(27.500000, 20.000000) scale(-1, 1) translate(-27.500000, -20.000000) " x="0" y="0" width="55" height="40"></rect>
                        <polygon id="矩形" fill="#DFE1E3" transform="translate(51.000000, 44.000000) scale(1, -1) translate(-51.000000, -44.000000) " points="55 40 55 45.776343 55 48 47 48"></polygon>
                        <circle id="椭圆形" fill="#FFFFFF" transform="translate(41.500000, 19.500000) scale(-1, 1) translate(-41.500000, -19.500000) " cx="41.5" cy="19.5" r="3.5"></circle>
                        <circle id="椭圆形备份-5" fill="#FFFFFF" transform="translate(27.500000, 19.500000) scale(-1, 1) translate(-27.500000, -19.500000) " cx="27.5" cy="19.5" r="3.5"></circle>
                        <circle id="椭圆形备份-6" fill="#FFFFFF" transform="translate(13.500000, 19.500000) scale(-1, 1) translate(-13.500000, -19.500000) " cx="13.5" cy="19.5" r="3.5"></circle>
                    </g>
                </g>
            </g>
        </g>
    </g>
</svg>