<?xml version="1.0" encoding="UTF-8"?>
<svg width="16px" height="16px" viewBox="0 0 16 16" version="1.1" xmlns="http://www.w3.org/2000/svg" xmlns:xlink="http://www.w3.org/1999/xlink">
    <title></title>
    <g id="16px/拖动" stroke="none" stroke-width="1" fill="none" fill-rule="evenodd">
        <path d="M11.0833375,11.25 C11.31345,11.25 11.5,11.4365528 11.5,11.6666813 L11.5,13.3333688 C11.5,13.5634972 11.31345,13.75 11.0833375,13.75 L9.4166625,13.75 C9.18655,13.75 9,13.5634972 9,13.3333688 L9,11.6666813 C9,11.4365528 9.18655,11.25 9.4166625,11.25 L11.0833375,11.25 Z M6.5833375,11.25 C6.81345,11.25 7,11.4365528 7,11.6666813 L7,13.3333688 C7,13.5634972 6.81345,13.75 6.5833375,13.75 L4.91666625,13.75 C4.6865475,13.75 4.5,13.5634972 4.5,13.3333688 L4.5,11.6666813 C4.5,11.4365528 4.6865475,11.25 4.91666625,11.25 L6.5833375,11.25 Z M11.0833375,6.75 C11.31345,6.75 11.5,6.9365375 11.5,7.1666625 L11.5,8.833325 C11.5,9.06345 11.31345,9.25 11.0833375,9.25 L9.4166625,9.25 C9.18655,9.25 9,9.06345 9,8.833325 L9,7.1666625 C9,6.9365375 9.18655,6.75 9.4166625,6.75 L11.0833375,6.75 Z M6.5833375,6.75 C6.81345,6.75 7,6.9365375 7,7.1666625 L7,8.833325 C7,9.06345 6.81345,9.25 6.5833375,9.25 L4.91666625,9.25 C4.6865475,9.25 4.5,9.06345 4.5,8.833325 L4.5,7.1666625 C4.5,6.9365375 4.6865475,6.75 4.91666625,6.75 L6.5833375,6.75 Z M11.0833375,2.25 C11.31345,2.25 11.5,2.4365475 11.5,2.66666625 L11.5,4.3333375 C11.5,4.56345 11.31345,4.75 11.0833375,4.75 L9.4166625,4.75 C9.18655,4.75 9,4.56345 9,4.3333375 L9,2.66666625 C9,2.4365475 9.18655,2.25 9.4166625,2.25 L11.0833375,2.25 Z M6.5833375,2.25 C6.81345,2.25 7,2.4365475 7,2.66666625 L7,4.3333375 C7,4.56345 6.81345,4.75 6.5833375,4.75 L4.91666625,4.75 C4.6865475,4.75 4.5,4.56345 4.5,4.3333375 L4.5,2.66666625 C4.5,2.4365475 4.6865475,2.25 4.91666625,2.25 L6.5833375,2.25 Z" id="形状结合" fill="#86909C"></path>
    </g>
</svg>