<?xml version="1.0" encoding="UTF-8"?>
<svg width="16px" height="16px" viewBox="0 0 16 16" version="1.1" xmlns="http://www.w3.org/2000/svg" xmlns:xlink="http://www.w3.org/1999/xlink">
    <title></title>
    <g id="16px/copy备份" stroke="none" stroke-width="1" fill="none" fill-rule="evenodd">
        <g id="编组">
            <polygon id="路径" points="0 0 16 0 16 16 0 16"></polygon>
            <path d="M14.1666667,3.33333333 C14.442809,3.33333333 14.6666667,3.55719096 14.6666667,3.83333333 L14.6666667,4.16666667 C14.6666667,4.44280904 14.442809,4.66666667 14.1666667,4.66666667 L13.3333333,4.66666667 L13.3333333,13.3333333 C13.3333333,14.069713 12.7363797,14.6666667 12,14.6666667 L4,14.6666667 C3.26362033,14.6666667 2.66666667,14.069713 2.66666667,13.3333333 L2.66666667,4.66666667 L1.83333333,4.66666667 C1.55719096,4.66666667 1.33333333,4.44280904 1.33333333,4.16666667 L1.33333333,3.83333333 C1.33333333,3.55719096 1.55719096,3.33333333 1.83333333,3.33333333 L14.1666667,3.33333333 Z M12,4.66666667 L4,4.66666667 L4,13.3333333 L12,13.3333333 L12,4.66666667 Z M6.83333333,6 C7.10947571,6 7.33333333,6.22385763 7.33333333,6.5 L7.33333333,10.8333333 C7.33333333,11.1094757 7.10947571,11.3333333 6.83333333,11.3333333 L6.5,11.3333333 C6.22385763,11.3333333 6,11.1094757 6,10.8333333 L6,6.5 C6,6.22385763 6.22385763,6 6.5,6 L6.83333333,6 Z M9.5,6 C9.77614237,6 10,6.22385763 10,6.5 L10,10.8333333 C10,11.1094757 9.77614237,11.3333333 9.5,11.3333333 L9.16666667,11.3333333 C8.89052429,11.3333333 8.66666667,11.1094757 8.66666667,10.8333333 L8.66666667,6.5 C8.66666667,6.22385763 8.89052429,6 9.16666667,6 L9.5,6 Z M10.75,1.33333333 C11.0261424,1.33333333 11.25,1.55719096 11.25,1.83333333 L11.25,2.16666667 C11.25,2.44280904 11.0261424,2.66666667 10.75,2.66666667 L5.25,2.66666667 C4.97385763,2.66666667 4.75,2.44280904 4.75,2.16666667 L4.75,1.83333333 C4.75,1.55719096 4.97385763,1.33333333 5.25,1.33333333 L10.75,1.33333333 Z" id="形状结合" fill="#86909C" fill-rule="nonzero"></path>
        </g>
    </g>
</svg>