<?xml version="1.0" encoding="UTF-8"?>
<svg width="16px" height="16px" viewBox="0 0 16 16" version="1.1" xmlns="http://www.w3.org/2000/svg" xmlns:xlink="http://www.w3.org/1999/xlink">
    <title></title>
    <g id="16px/copy" stroke="none" stroke-width="1" fill="none" fill-rule="evenodd">
        <g id="编组" transform="translate(1.500000, 1.500000)">
            <path d="M9.5,0.6 C9.74852814,0.6 9.97352814,0.700735931 10.1363961,0.863603897 C10.2992641,1.02647186 10.4,1.25147186 10.4,1.5 L10.4,1.5 L10.4,9 C10.4,9.38659932 10.2432997,9.73659932 9.98994949,9.98994949 C9.73659932,10.2432997 9.38659932,10.4 9,10.4 L9,10.4 L1.5,10.4 C1.25147186,10.4 1.02647186,10.2992641 0.863603897,10.1363961 C0.700735931,9.97352814 0.6,9.74852814 0.6,9.5 L0.6,9.5 L0.6,2.5 C0.6,1.97532949 0.812664744,1.50032949 1.15649712,1.15649712 C1.50032949,0.812664744 1.97532949,0.6 2.5,0.6 L2.5,0.6 Z" id="矩形备份-2" stroke="#86909C" stroke-width="1.2"></path>
            <rect id="矩形" stroke="#86909C" stroke-width="1.2" fill="#FFFFFF" x="2.6" y="2.6" width="9.8" height="9.8" rx="2"></rect>
            <path d="M8.1,5 L8.1,6.899 L10,6.9 L10,8.1 L8.1,8.099 L8.1,10 L6.9,10 L6.9,8.099 L5,8.1 L5,6.9 L6.9,6.899 L6.9,5 L8.1,5 Z" id="形状结合" fill="#86909C"></path>
        </g>
    </g>
</svg>