<?xml version="1.0" encoding="UTF-8"?>
<svg width="10px" height="10px" viewBox="0 0 10 10" version="1.1" xmlns="http://www.w3.org/2000/svg" xmlns:xlink="http://www.w3.org/1999/xlink">
    <title>编组 2</title>
    <g id="页面-1" stroke="none" stroke-width="1" fill="none" fill-rule="evenodd">
        <g id="工资条调整备份-22" transform="translate(-326.000000, -944.000000)">
            <g id="编组-12" transform="translate(16.000000, 792.000000)">
                <g id="编组-7" transform="translate(11.000000, 134.000000)">
                    <g id="编组-19" transform="translate(0.000000, -0.000000)">
                        <g id="编组-18" transform="translate(0.000000, 0.000000)">
                            <g id="编组-2" transform="translate(304.000000, 23.000000) rotate(-180.000000) translate(-304.000000, -23.000000) translate(299.000000, 18.000000)">
                                <g id="编组-3" transform="translate(5.000000, 5.000000) rotate(-360.000000) translate(-5.000000, -5.000000) ">
                                    <rect id="矩形" x="0" y="0" width="10" height="10"></rect>
                                    <path d="M5.70278193,2.37847741 L8.63021957,6.03777446 C8.94072816,6.4259102 8.87779892,6.99227334 8.48966318,7.30278193 C8.33008144,7.43044732 8.13180198,7.5 7.92743764,7.5 L2.07256236,7.5 C1.57550609,7.5 1.17256236,7.09705627 1.17256236,6.6 C1.17256236,6.39563565 1.24211504,6.1973562 1.36978043,6.03777446 L4.29721807,2.37847741 C4.60772666,1.99034167 5.1740898,1.92741243 5.56222554,2.23792102 C5.61412378,2.27943961 5.66126334,2.32657918 5.70278193,2.37847741 Z" id="三角形" fill="#FFE8BB" transform="translate(5.000000, 4.500000) scale(1, -1) rotate(-180.000000) translate(-5.000000, -4.500000) "></path>
                                </g>
                            </g>
                        </g>
                    </g>
                </g>
            </g>
        </g>
    </g>
</svg>