<?xml version="1.0" encoding="UTF-8"?>
<svg width="12px" height="12px" viewBox="0 0 12 12" version="1.1" xmlns="http://www.w3.org/2000/svg" xmlns:xlink="http://www.w3.org/1999/xlink">
    <title>编组 8</title>
    <g id="页面-1" stroke="none" stroke-width="1" fill="none" fill-rule="evenodd">
        <g id="工资条调整备份-22" transform="translate(-332.000000, -740.000000)">
            <g id="编组-10" transform="translate(16.000000, 722.000000)">
                <g id="编组-8" transform="translate(316.000000, 18.000000)">
                    <rect id="矩形" x="0" y="0" width="12" height="12"></rect>
                    <path d="M6.78086881,3.97608601 L10.460244,8.57530495 C10.8052535,9.00656689 10.7353321,9.63585926 10.3040702,9.98086881 C10.1267572,10.1227192 9.90644665,10.2 9.67937515,10.2 L2.32062485,10.2 C1.7683401,10.2 1.32062485,9.75228475 1.32062485,9.2 C1.32062485,8.9729285 1.3979056,8.752618 1.53975604,8.57530495 L5.21913119,3.97608601 C5.56414074,3.54482408 6.19343311,3.4749027 6.62469505,3.81991225 C6.68235975,3.86604401 6.73473705,3.91842131 6.78086881,3.97608601 Z" id="三角形" fill="#FFE8BB" transform="translate(6.000000, 6.600000) rotate(-180.000000) translate(-6.000000, -6.600000) "></path>
                </g>
            </g>
        </g>
    </g>
</svg>