<?xml version="1.0" encoding="UTF-8"?>
<svg width="14px" height="14px" viewBox="0 0 14 14" version="1.1" xmlns="http://www.w3.org/2000/svg" xmlns:xlink="http://www.w3.org/1999/xlink" style="background: #3E3E3E;">
    <title></title>
    <g id="ICON/14px/更新" stroke="none" stroke-width="1" fill="none" fill-rule="evenodd">
        <rect fill="#3E3E3E" x="0" y="0" width="14" height="14"></rect>
        <g id="编组" transform="translate(-1.000000, -1.000000)">
            <polygon id="路径" points="0 0 16 0 16 16 0 16"></polygon>
            <path d="M3.4241,2.70311354 C4.69429137,1.60247582 6.31929062,0.997668847 8,1.00000675 C11.8661,1.00000675 15,4.13391354 15,8.00000675 C15,9.49521354 14.531,10.8812135 13.733,12.0180135 L11.5,8.00000675 L13.6,8.00000675 C13.6001843,5.75576774 12.2605128,3.72817561 10.1960257,2.84810034 C8.1315387,1.96802506 5.74103904,2.40547331 4.122,3.95961354 L3.4241,2.70311354 Z M12.5759,13.2969135 C11.3057086,14.3975513 9.68070938,15.0023582 8,15.0000203 C4.1339,15.0000203 1,11.8661135 1,8.00001354 C1,6.50481354 1.469,5.11881354 2.267,3.98201354 L4.5,8.00001354 L2.4,8.00001354 C2.39981568,10.2442593 3.7394872,12.2718515 5.80397425,13.1519268 C7.8684613,14.032002 10.258961,13.5945538 11.878,12.0404135 L12.5759,13.2969135 L12.5759,13.2969135 Z" id="形状" fill="#FFFFFF" fill-rule="nonzero"></path>
        </g>
    </g>
</svg>