<?xml version="1.0" encoding="UTF-8"?>
<svg width="16px" height="16px" viewBox="0 0 16 16" version="1.1" xmlns="http://www.w3.org/2000/svg" xmlns:xlink="http://www.w3.org/1999/xlink">
    <title>ICON/16px/微信</title>
    <g id="ICON/16px/微信" stroke="none" stroke-width="1" fill="none" fill-rule="evenodd">
        <rect id="矩形" x="0" y="0" width="16" height="16"></rect>
        <g id="编组" transform="translate(0.800000, 2.000000)" fill="#C9CDD4" fill-rule="nonzero" stroke="#C8CDD3" stroke-width="0.4">
            <path d="M7.31433687,3.70993457 C7.7001177,3.70993457 7.95784966,3.45157641 7.95784966,3.06683415 C7.95784966,2.6777238 7.70053007,2.42603995 7.31433687,2.42603995 C6.92794511,2.42603995 6.54048425,2.67773907 6.54048425,3.06683415 C6.54091189,3.45177496 6.92855603,3.70993457 7.31433687,3.70993457 L7.31433687,3.70993457 L7.31433687,3.70993457 Z M3.71471869,2.42602468 C3.32893786,2.42602468 2.93900277,2.6777238 2.93900277,3.06681887 C2.93900277,3.45154587 3.32895313,3.70991929 3.71471869,3.70991929 C4.09903331,3.70991929 4.35636817,3.45156114 4.35636817,3.06681887 C4.35615435,2.67770852 4.09926241,2.42602468 3.71471869,2.42602468 L3.71471869,2.42602468 L3.71471869,2.42602468 Z M15.007548,7.82709379 C15.007548,5.79269898 13.1203544,4.05921292 10.8038367,3.87883873 C10.8069676,3.85360772 10.8084338,3.82732288 10.8027981,3.80106859 C10.3384071,1.63550921 8.00957932,0.00274861654 5.38546325,0.00274861654 C2.42020934,0.00274861654 0.00754801432,2.07051494 0.00754801432,4.6120346 C0.00754801432,5.97559321 0.703599943,7.20424537 2.02275993,8.17305789 L1.56295084,9.55538703 C1.53333648,9.64526866 1.56024752,9.7443141 1.631771,9.80665851 C1.67534488,9.84419955 1.73020552,9.86379482 1.7856618,9.86379482 C1.82132426,9.86379482 1.8573991,9.85545576 1.89054152,9.83897618 L3.61694091,8.97505866 L3.82963278,9.01823544 C4.3611639,9.12749852 4.82013297,9.22217588 5.38546325,9.22217588 C5.55186264,9.22217588 6.00979315,9.16128241 6.04837276,9.11248516 C6.67082407,10.6701789 8.38657818,11.7945776 10.4053487,11.7945776 C10.9224926,11.7945776 11.4458985,11.6698887 11.9157114,11.5522561 L13.24654,12.2798009 C13.2817748,12.2989991 13.3205683,12.3089876 13.358934,12.3089876 C13.4114884,12.3089876 13.4640276,12.2912557 13.5061505,12.2568609 C13.5801788,12.1968074 13.6106332,12.0979605 13.5830959,12.0074527 L13.2431952,10.8772351 C14.3825919,9.97681505 15.007548,8.8995642 15.007548,7.82709379 L15.007548,7.82709379 L15.007548,7.82709379 Z M5.83065607,8.59468447 C5.68363813,8.60740688 5.53454305,8.61366882 5.38648654,8.61366882 C4.8872731,8.61366882 4.46500506,8.52734579 3.97663545,8.42642177 L3.69283247,8.36907164 C3.64403522,8.35864018 3.59253465,8.36532975 3.54769311,8.38845308 L2.30008715,9.0129968 L2.62434832,8.03896091 C2.65605508,7.94365736 2.62121735,7.83960238 2.53927768,7.78205369 C1.28582216,6.9083309 0.650633161,5.844001 0.650633161,4.61912128 C0.650633161,2.4170747 2.7749096,0.624986112 5.38628799,0.624986112 C7.69468051,0.624986112 9.73846821,2.02941528 10.1603086,3.89739543 C7.73991915,3.92910219 5.78144645,5.63068294 5.78144645,7.72053403 C5.78144645,8.02435992 5.82754038,8.31879291 5.90531052,8.60280971 C5.88175955,8.59697542 5.85692564,8.59237825 5.83067134,8.59468447 L5.83067134,8.59468447 L5.83065607,8.59468447 Z M12.7122597,10.4724852 C12.6378038,10.5285829 12.6063414,10.6253221 12.6330234,10.7145928 L12.8438519,11.4156696 L11.978682,10.9423133 C11.9457382,10.924169 11.9086095,10.9147761 11.8717099,10.9147761 C11.8535656,10.9147761 11.8352227,10.9170671 11.8172769,10.9218628 C11.3532983,11.0390678 10.8730692,11.1600147 10.4055473,11.1600147 C8.23393977,11.1600147 6.46729601,9.66758252 6.46729601,7.83338626 C6.46729601,5.99917473 8.23374122,4.5073687 10.4055473,4.5073687 C12.535658,4.5073687 14.3356733,6.03045385 14.3356733,7.83338626 C14.3356733,8.74778107 13.7593006,9.68531448 12.7122903,10.4725157 L12.7122903,10.4725157 L12.7122597,10.4724852 Z M8.98691418,6.15491356 C8.7295946,6.15491356 8.47227501,6.41411173 8.47227501,6.67101895 C8.47227501,6.92980474 8.7295946,7.18524575 8.98691418,7.18524575 C9.37351976,7.18524575 9.62896077,6.92980474 9.62896077,6.67101895 C9.62896077,6.41369936 9.37351976,6.15491356 8.98691418,6.15491356 L8.98691418,6.15491356 Z M11.8143445,6.15491356 C11.5607668,6.15491356 11.3034472,6.41411173 11.3034472,6.67101895 C11.3034472,6.92980474 11.5607668,7.18524575 11.8143445,7.18524575 C12.1996977,7.18524575 12.4597359,6.92980474 12.4597359,6.67101895 C12.4597359,6.41369936 12.2001253,6.15491356 11.8143445,6.15491356 L11.8143445,6.15491356 Z" id="形状"></path>
        </g>
    </g>
</svg>