<?xml version="1.0" encoding="UTF-8"?>
<svg width="16px" height="16px" viewBox="0 0 16 16" version="1.1" xmlns="http://www.w3.org/2000/svg" xmlns:xlink="http://www.w3.org/1999/xlink">
    <title></title>
    <g id="ICON/16px/生日" stroke="none" stroke-width="1" fill="none" fill-rule="evenodd">
        <rect id="矩形" x="0" y="0" width="16" height="16"></rect>
        <g id="年龄" transform="translate(0.000000, 2.000000)">
            <rect id="矩形" stroke="#C5C8D0" x="2.5" y="3.5" width="11" height="8" rx="1"></rect>
            <rect id="矩形" fill="#C5C8D0" x="0.5" y="11" width="15" height="1" rx="0.5"></rect>
            <path d="M5,7.2764017e-13 C5.27614237,7.27589444e-13 5.5,0.223857625 5.5,0.5 L5.5,2.9 C5.5,3.17614237 5.27614237,3.4 5,3.4 C4.72385763,3.4 4.5,3.17614237 4.5,2.9 L4.5,0.5 C4.5,0.223857625 4.72385763,7.27690897e-13 5,7.2764017e-13 Z M8,7.2764017e-13 C8.27614237,7.27589444e-13 8.5,0.223857625 8.5,0.5 L8.5,2.9 C8.5,3.17614237 8.27614237,3.4 8,3.4 C7.72385763,3.4 7.5,3.17614237 7.5,2.9 L7.5,0.5 C7.5,0.223857625 7.72385763,7.27690897e-13 8,7.2764017e-13 Z M11,7.2764017e-13 C11.2761424,7.27589444e-13 11.5,0.223857625 11.5,0.5 L11.5,2.9 C11.5,3.17614237 11.2761424,3.4 11,3.4 C10.7238576,3.4 10.5,3.17614237 10.5,2.9 L10.5,0.5 C10.5,0.223857625 10.7238576,7.27690897e-13 11,7.2764017e-13 Z" id="形状结合" fill="#C5C8D0"></path>
        </g>
    </g>
</svg>