<?xml version="1.0" encoding="UTF-8"?>
<svg width="16px" height="16px" viewBox="0 0 16 16" version="1.1" xmlns="http://www.w3.org/2000/svg" xmlns:xlink="http://www.w3.org/1999/xlink">
    <title>ICON/16px/删除_Hover</title>
    <g id="ICON/16px/删除_Hover" stroke="none" stroke-width="1" fill="none" fill-rule="evenodd">
        <g id="编组">
            <polygon id="路径" points="0 0 16 0 16 16 0 16"></polygon>
            <path d="M14.6666667,3.22884905 L14.6666667,4.56218238 L13.3333333,4.56218238 L13.3333333,14.3333333 C13.3333333,14.7015232 13.0348565,15 12.6666667,15 L3.33333333,15 C2.9651435,15 2.66666667,14.7015232 2.66666667,14.3333333 L2.66666667,4.56218238 L1.33333333,4.56218238 L1.33333333,3.22884905 L14.6666667,3.22884905 Z M12,4.56218238 L4,4.56218238 L4,13.6666667 L12,13.6666667 L12,4.56218238 Z M7.33333333,6.56218238 L7.33333333,11.8955157 L6,11.8955157 L6,6.56218238 L7.33333333,6.56218238 Z M10,6.56218238 L10,11.8955157 L8.66666667,11.8955157 L8.66666667,6.56218238 L10,6.56218238 Z M11.8366667,1 L11.8366667,2.33333333 L4.17,2.33333333 L4.17,1 L11.8366667,1 Z" id="形状结合" fill="#00CFC5" fill-rule="nonzero"></path>
        </g>
    </g>
</svg>