<?xml version="1.0" encoding="UTF-8"?>
<svg width="14px" height="12px" viewBox="0 0 14 12" version="1.1" xmlns="http://www.w3.org/2000/svg" xmlns:xlink="http://www.w3.org/1999/xlink">
    <title>ICON/16/拖拽</title>
    <g id="设计稿" stroke="none" stroke-width="1" fill="none" fill-rule="evenodd">
        <g id="自动排班规则设置弹窗" transform="translate(-945.000000, -198.000000)">
            <g id="编组" transform="translate(456.000000, 86.000000)">
                <g id="列表/拖动排序备份" transform="translate(24.000000, 97.000000)">
                    <g id="拖拽" transform="translate(464.000000, 13.000000)">
                        <rect id="矩形" x="0" y="0" width="16" height="16"></rect>
                        <path d="M7.48051948,7.97718786 C7.48051948,6.72919314 7.55860556,5.71428571 7.65195146,5.71428571 L8.34804854,5.71428571 C8.44259359,5.71428571 8.51948052,6.74502197 8.51948052,7.97718786 L8.51948052,17.1656693 C8.51948052,18.413664 8.44139444,19.4285714 8.34804854,19.4285714 L7.65195146,19.4285714 C7.55751221,19.4208898 7.48110142,18.4125001 7.48051948,17.1663676 L7.48051948,7.97711027 L7.48051948,7.97718786 Z" id="路径" fill="#00CFC5" fill-rule="nonzero" transform="translate(8.000000, 12.571429) rotate(-90.000000) translate(-8.000000, -12.571429) "></path>
                        <path d="M7.48051948,3.40575929 C7.48051948,2.15776457 7.55860556,1.14285714 7.65195146,1.14285714 L8.34804854,1.14285714 C8.44259359,1.14285714 8.51948052,2.1735934 8.51948052,3.40575929 L8.51948052,12.5942407 C8.51948052,13.8422354 8.44139444,14.8571429 8.34804854,14.8571429 L7.65195146,14.8571429 C7.55751221,14.8494612 7.48110142,13.8410715 7.48051948,12.594939 L7.48051948,3.4056817 L7.48051948,3.40575929 Z" id="路径" fill="#00CFC5" fill-rule="nonzero" transform="translate(8.000000, 8.000000) rotate(-90.000000) translate(-8.000000, -8.000000) "></path>
                        <path d="M7.48051948,-1.16566928 C7.48051948,-2.41366401 7.55860556,-3.42857143 7.65195146,-3.42857143 L8.34804854,-3.42857143 C8.44259359,-3.42857143 8.51948052,-2.39783517 8.51948052,-1.16566928 L8.51948052,8.02281214 C8.51948052,9.27080686 8.44139444,10.2857143 8.34804854,10.2857143 L7.65195146,10.2857143 C7.55751221,10.2780326 7.48110142,9.26964298 7.48051948,8.02351047 L7.48051948,-1.16574687 L7.48051948,-1.16566928 Z" id="路径" fill="#00CFC5" fill-rule="nonzero" transform="translate(8.000000, 3.428571) rotate(-90.000000) translate(-8.000000, -3.428571) "></path>
                    </g>
                </g>
            </g>
        </g>
    </g>
</svg>