<?xml version="1.0" standalone="no"?><!DOCTYPE svg PUBLIC "-//W3C//DTD SVG 1.1//EN" "http://www.w3.org/Graphics/SVG/1.1/DTD/svg11.dtd"><svg t="1572701448691" class="icon" viewBox="0 0 1024 1024" version="1.1" xmlns="http://www.w3.org/2000/svg" p-id="15476" width="64" height="64" xmlns:xlink="http://www.w3.org/1999/xlink"><defs><style type="text/css"></style></defs><path d="M512 512m-473.6 0a473.6 473.6 0 1 0 947.2 0 473.6 473.6 0 1 0-947.2 0Z" fill="#FF4A55" p-id="15477"></path><path d="M421.504 647.744l45.248 45.248a32 32 0 0 1-45.248 45.312l-45.248-45.312-45.248 45.312a32 32 0 0 1-45.312-45.312l45.312-45.248-45.312-45.248a32 32 0 0 1 45.312-45.248l45.248 45.248 47.104-47.104a192 192 0 1 1 45.248 45.248l-47.104 47.104z m248.896-294.144a128 128 0 1 0-181.056 181.056 128 128 0 0 0 181.056-181.056z" fill="#FFFFFF" p-id="15478"></path></svg>