<?xml version="1.0" standalone="no"?><!DOCTYPE svg PUBLIC "-//W3C//DTD SVG 1.1//EN" "http://www.w3.org/Graphics/SVG/1.1/DTD/svg11.dtd"><svg t="1572701472638" class="icon" viewBox="0 0 1024 1024" version="1.1" xmlns="http://www.w3.org/2000/svg" p-id="15645" width="64" height="64" xmlns:xlink="http://www.w3.org/1999/xlink"><defs><style type="text/css"></style></defs><path d="M512 512m-448 0a448 448 0 1 0 896 0 448 448 0 1 0-896 0Z" fill="#4BA1F1" p-id="15646"></path><path d="M638.4 340.352H569.152a32 32 0 0 1 0-64h178.496v179.712a32 32 0 1 1-64 0v-70.4L600.64 468.544a192 192 0 1 1-45.248-45.248l83.008-83.008z m-284.8 330.048a128 128 0 1 0 181.056-181.056 128 128 0 0 0-181.056 181.056z" fill="#FFFFFF" p-id="15647"></path></svg>